<?xml version="1.0" encoding="UTF-8" standalone="no"?>
<!-- This xml file is generated through a template. Please don't edit it directly -->

<svg
   gorn="0"
   height="3.4015749"
   id="Layer_1"
   version="1.1"
   viewBox="0 0 6.4251967 3.4015749"
   width="6.4251966"
   x="0px"
   xml:space="preserve"
   y="0px"
   xmlns="http://www.w3.org/2000/svg"
   xmlns:svg="http://www.w3.org/2000/svg"><defs
     id="defs435" /><desc
     id="desc417" /><rect
     gorn="0.2"
     height="3.023622"
     id="connector0pad"
     style="fill:#e3e2db;fill-opacity:1;stroke:none;stroke-width:0"
     width="1.1338583"
     x="0.18897638"
     y="0.18897638" /><rect
     gorn="0.3"
     height="3.023622"
     id="connector1pad"
     style="fill:#e3e2db;fill-opacity:1;stroke:none;stroke-width:0"
     width="1.1338583"
     x="5.1023622"
     y="0.18897638" /><rect
     gorn="0.4"
     height="3.4015749"
     id="silkscreen"
     style="fill:none;stroke:none;stroke-width:0.140957;stroke-opacity:1"
     width="6.4251966"
     x="0"
     y="0" /><rect
     gorn="0.5"
     height="3.023622"
     id="rect787"
     style="opacity:0.75;fill:#000000;fill-rule:evenodd;stroke:none;stroke-width:0.379989"
     width="3.7795277"
     x="1.3228346"
     y="0.18897638" /><g
     gorn="0.6"
     id="text851"
     style="font-style:normal;font-variant:normal;font-weight:normal;font-stretch:normal;font-size:4px;font-family:'OCR A Extended';-inkscape-font-specification:'OCR A Extended, Normal';font-variant-ligatures:normal;font-variant-caps:normal;font-variant-numeric:normal;font-variant-east-asian:normal;opacity:0.75;fill:#ffffff;fill-rule:evenodd;stroke:none;stroke-width:0.96"
     xml:space="preserve"
     transform="matrix(0.36167145,0,0,0.70719547,0.14445783,-2.1870788)"><g
       aria-label="221"
       transform="scale(1.3983395,0.71513392)"
       id="text351"
       style="font-size:3.95461px;font-family:'HarmonyOS Sans SC';-inkscape-font-specification:'HarmonyOS Sans SC';opacity:1;stroke-width:5.69463;stroke-linecap:round"><path
         d="m 3.6939329,8.8163299 h 1.308976 V 9.1287441 H 3.156106 V 8.9033313 l 0.9372426,-1.044017 q 0.2649588,-0.2926412 0.3638241,-0.4587348 0.098865,-0.1700482 0.098865,-0.3677787 0,-0.2530951 -0.1384113,-0.3915064 Q 4.2792152,6.502883 4.0696209,6.502883 q -0.213549,0 -0.375688,0.1463206 -0.162139,0.142366 -0.233322,0.3796426 L 3.175879,6.8667071 q 0.087001,-0.324278 0.3440511,-0.5022354 0.2570496,-0.1819121 0.5734185,-0.1819121 0.2293673,0 0.4191886,0.098865 0.1898213,0.094911 0.3005504,0.284732 0.1146837,0.1858666 0.1146837,0.4508255 0,0.2570497 -0.1265475,0.4864171 -0.1265476,0.2293674 -0.4429164,0.577373 z"
         id="path296" /><path
         d="M 5.9480595,8.8163299 H 7.2570354 V 9.1287441 H 5.4102325 V 8.9033313 L 6.3474751,7.8593143 Q 6.612434,7.5666731 6.7112992,7.4005795 q 0.098865,-0.1700482 0.098865,-0.3677787 0,-0.2530951 -0.1384114,-0.3915064 Q 6.5333418,6.502883 6.3237474,6.502883 q -0.2135489,0 -0.3756879,0.1463206 -0.162139,0.142366 -0.233322,0.3796426 L 5.4300056,6.8667071 q 0.087001,-0.324278 0.344051,-0.5022354 0.2570497,-0.1819121 0.5734185,-0.1819121 0.2293674,0 0.4191887,0.098865 0.1898213,0.094911 0.3005503,0.284732 0.1146837,0.1858666 0.1146837,0.4508255 0,0.2570497 -0.1265475,0.4864171 -0.1265475,0.2293674 -0.4429163,0.577373 z"
         id="path298" /><path
         d="M 7.858135,7.0842107 V 6.7203866 L 8.7004669,6.2300149 H 8.9693804 V 9.1287441 H 8.6134655 V 6.6531582 Z"
         id="path300" /></g><path
       style="opacity:1;fill:#ffffff;fill-opacity:1;fill-rule:evenodd;stroke:#ffffff;stroke-width:0.227159;stroke-linecap:butt;stroke-miterlimit:3.9;stroke-dasharray:none"
       d="M 4.3420236,6.9380165 H 12.702158"
       id="path559" /></g></svg>
