<?xml version="1.0" encoding="UTF-8" standalone="no"?>
<!-- Created with Inkscape (http://www.inkscape.org/) -->

<svg
   gorn="0"
   height="62mm"
   id="svg8"
   version="1.1"
   viewBox="0 0 29 62"
   width="29mm"
   sodipodi:docname="svg.breadboard.TFTSPI1.9in_27347880dd6cf106f04d9a1fdcbc32e8_1_breadboard.svg"
   inkscape:version="1.2.1 (9c6d41e410, 2022-07-14)"
   xmlns:inkscape="http://www.inkscape.org/namespaces/inkscape"
   xmlns:sodipodi="http://sodipodi.sourceforge.net/DTD/sodipodi-0.dtd"
   xmlns="http://www.w3.org/2000/svg"
   xmlns:svg="http://www.w3.org/2000/svg">
  <sodipodi:namedview
     id="namedview43"
     pagecolor="#ffffff"
     bordercolor="#000000"
     borderopacity="0.25"
     inkscape:showpageshadow="2"
     inkscape:pageopacity="0.0"
     inkscape:pagecheckerboard="0"
     inkscape:deskcolor="#d1d1d1"
     inkscape:document-units="mm"
     showgrid="false"
     inkscape:zoom="8.790493"
     inkscape:cx="38.223112"
     inkscape:cy="59.837372"
     inkscape:window-width="3840"
     inkscape:window-height="2036"
     inkscape:window-x="-12"
     inkscape:window-y="-12"
     inkscape:window-maximized="1"
     inkscape:current-layer="breadboard" />
  <desc
     id="desc2" />
  <defs
     id="defs2" />
  <g
     gorn="0.1.0"
     id="breadboard"
     transform="translate(-70.087344,-88.370999)">
    <path
       id="rect734"
       style="opacity:1;fill:#2c5086;fill-opacity:1;fill-rule:evenodd;stroke-width:0.280636;stroke-linejoin:round;stroke-miterlimit:3.9"
       d="M 71.410777 88.370999 C 70.677717 88.370999 70.087344 88.929936 70.087344 89.624152 L 70.087344 149.11768 C 70.087344 149.8119 70.677717 150.37083 71.410777 150.37083 L 97.764208 150.37083 C 98.497268 150.37083 99.087124 149.8119 99.087124 149.11768 L 99.087124 89.624152 C 99.087124 88.929936 98.497268 88.370999 97.764208 88.370999 L 71.410777 88.370999 z M 71.687246 89.370938 A 1 1 0 0 1 72.687185 90.370877 A 1 1 0 0 1 71.687246 91.370816 A 1 1 0 0 1 70.687307 90.370877 A 1 1 0 0 1 71.687246 89.370938 z M 97.487222 89.370938 A 1 1 0 0 1 98.487161 90.370877 A 1 1 0 0 1 97.487222 91.370816 A 1 1 0 0 1 96.487283 90.370877 A 1 1 0 0 1 97.487222 89.370938 z M 75.687519 89.421064 A 0.44999999 0.44999999 0 0 1 76.137104 89.871166 A 0.44999999 0.44999999 0 0 1 75.687519 90.320751 A 0.44999999 0.44999999 0 0 1 75.237417 89.871166 A 0.44999999 0.44999999 0 0 1 75.687519 89.421064 z M 78.227416 89.421064 A 0.44999999 0.44999999 0 0 1 78.677517 89.871166 A 0.44999999 0.44999999 0 0 1 78.227416 90.320751 A 0.44999999 0.44999999 0 0 1 77.777314 89.871166 A 0.44999999 0.44999999 0 0 1 78.227416 89.421064 z M 80.767312 89.421064 A 0.44999999 0.44999999 0 0 1 81.217414 89.871166 A 0.44999999 0.44999999 0 0 1 80.767312 90.320751 A 0.44999999 0.44999999 0 0 1 80.317211 89.871166 A 0.44999999 0.44999999 0 0 1 80.767312 89.421064 z M 83.307209 89.421064 A 0.44999999 0.44999999 0 0 1 83.757311 89.871166 A 0.44999999 0.44999999 0 0 1 83.307209 90.320751 A 0.44999999 0.44999999 0 0 1 82.857107 89.871166 A 0.44999999 0.44999999 0 0 1 83.307209 89.421064 z M 85.847106 89.421064 A 0.44999999 0.44999999 0 0 1 86.297207 89.871166 A 0.44999999 0.44999999 0 0 1 85.847106 90.320751 A 0.44999999 0.44999999 0 0 1 85.397521 89.871166 A 0.44999999 0.44999999 0 0 1 85.847106 89.421064 z M 88.387519 89.421064 A 0.44999999 0.44999999 0 0 1 88.837104 89.871166 A 0.44999999 0.44999999 0 0 1 88.387519 90.320751 A 0.44999999 0.44999999 0 0 1 87.937417 89.871166 A 0.44999999 0.44999999 0 0 1 88.387519 89.421064 z M 90.927416 89.421064 A 0.44999999 0.44999999 0 0 1 91.377517 89.871166 A 0.44999999 0.44999999 0 0 1 90.927416 90.320751 A 0.44999999 0.44999999 0 0 1 90.477314 89.871166 A 0.44999999 0.44999999 0 0 1 90.927416 89.421064 z M 93.467312 89.421064 A 0.44999999 0.44999999 0 0 1 93.917414 89.871166 A 0.44999999 0.44999999 0 0 1 93.467312 90.320751 A 0.44999999 0.44999999 0 0 1 93.017211 89.871166 A 0.44999999 0.44999999 0 0 1 93.467312 89.421064 z M 73.747586 144.28076 L 92.647207 144.28076 C 92.952058 144.28076 93.197561 144.53098 93.197561 144.84145 L 93.197561 144.92052 C 93.197561 145.231 92.952058 145.48121 92.647207 145.48121 L 73.747586 145.48121 C 73.442735 145.48121 73.197232 145.231 73.197232 144.92052 L 73.197232 144.84145 C 73.197232 144.53098 73.442735 144.28076 73.747586 144.28076 z M 71.687246 147.37102 A 1 1 0 0 1 72.687185 148.37095 A 1 1 0 0 1 71.687246 149.37089 A 1 1 0 0 1 70.687307 148.37095 A 1 1 0 0 1 71.687246 147.37102 z M 97.487222 147.37102 A 1 1 0 0 1 98.487161 148.37095 A 1 1 0 0 1 97.487222 149.37089 A 1 1 0 0 1 96.487283 148.37095 A 1 1 0 0 1 97.487222 147.37102 z " />
    <rect
       fill="#000000"
       fill-opacity="1"
       gorn="0.1.0.1"
       height="49.720001"
       id="rect832"
       rx="0.28988761"
       ry="0.061754767"
       stroke="none"
       stroke-opacity="1"
       stroke-width="0.51089"
       style="fill:#333333;stroke-miterlimit:4;stroke-dasharray:none;stroke:#ffffff;stroke-width:0.111"
       width="25.799999"
       x="71.687347"
       y="94.560997" />
    <rect
       fill="#1a1a1a"
       fill-opacity="1"
       gorn="0.1.0.2"
       height="43.720001"
       id="rect834-4"
       rx="0.026629213"
       ry="0.32669023"
       stroke="none"
       stroke-opacity="1"
       stroke-width="1.12622"
       style="fill:#1a1a1a;stroke-miterlimit:4;stroke-dasharray:none"
       width="23.700001"
       x="72.737343"
       y="95.560997" />
    <rect
       fill="#1a1a1a"
       fill-opacity="1"
       gorn="0.1.0.3"
       height="42.720001"
       id="rect834"
       rx="0.025505617"
       ry="0.31921789"
       stroke="none"
       stroke-opacity="1"
       stroke-width="1.08953"
       style="fill:#000000;stroke-miterlimit:4;stroke-dasharray:none"
       width="22.700001"
       x="73.311623"
       y="96.060997" />
    <g
       transform="translate(27.148553,-34.723598)"
       id="g37">
      <g
         gorn="0.1.0.4.0"
         id="g2207">
        <g
           aria-label="VDD"
           gorn="0.1.0.4.0.13"
           id="text3487-4"
           style="font-size:0.987778px;-inkscape-font-specification:'sans-serif, Normal';fill:#ffffff;fill-rule:evenodd;stroke-width:0.254;stroke-linejoin:round;stroke-miterlimit:3.9">
          <g
             aria-label="GND  VCC  SCL   SDA  RES    DC    CS   BLK"
             id="text33853"
             style="font-size:0.881944px;opacity:1;fill:#1c1f24;stroke:#ffffff;stroke-width:0.111">
            <path
               d="m 48.104026,126.07674 q -0.05254,0.0241 -0.11498,0.0422 -0.06201,0.0177 -0.120148,0.0177 -0.07493,0 -0.137373,-0.0207 -0.06244,-0.0207 -0.106367,-0.062 -0.04436,-0.0418 -0.06847,-0.10421 -0.02412,-0.0629 -0.02412,-0.14685 0,-0.15373 0.08957,-0.24245 0.09,-0.0891 0.246755,-0.0891 0.05469,0 0.111535,0.0134 0.05728,0.0129 0.123162,0.0444 v 0.1012 h -0.0078 q -0.01335,-0.0103 -0.03876,-0.0271 -0.02541,-0.0168 -0.04995,-0.028 -0.02971,-0.0134 -0.06761,-0.022 -0.03746,-0.009 -0.08527,-0.009 -0.107659,0 -0.170532,0.0693 -0.06244,0.0689 -0.06244,0.1869 0,0.12445 0.06546,0.19379 0.06546,0.0689 0.178283,0.0689 0.04134,0 0.08225,-0.008 0.04134,-0.008 0.07235,-0.0211 v -0.15718 h -0.171824 v -0.0749 h 0.256229 z"
               id="path33922" />
            <path
               d="m 48.742229,126.12411 h -0.105506 l -0.304029,-0.57361 v 0.57361 h -0.07967 v -0.64122 h 0.132205 l 0.27733,0.52365 v -0.52365 h 0.07967 z"
               id="path33924" />
            <path
               d="m 49.454502,125.80414 q 0,0.0874 -0.03833,0.15848 -0.0379,0.071 -0.1012,0.11024 -0.04393,0.0271 -0.09819,0.0392 -0.05383,0.0121 -0.14211,0.0121 h -0.16192 v -0.64122 h 0.160197 q 0.09388,0 0.149001,0.0138 0.05555,0.0134 0.09388,0.037 0.06546,0.0409 0.102061,0.10896 0.0366,0.068 0.0366,0.16148 z m -0.08914,-0.001 q 0,-0.0754 -0.02627,-0.12704 -0.02627,-0.0517 -0.07838,-0.0814 -0.0379,-0.0215 -0.08053,-0.0297 -0.04263,-0.009 -0.102061,-0.009 h -0.0801 v 0.4948 h 0.0801 q 0.06158,0 0.107228,-0.009 0.04608,-0.009 0.08441,-0.0336 0.0478,-0.0306 0.07149,-0.0805 0.02412,-0.05 0.02412,-0.12489 z"
               id="path33926" />
            <path
               d="m 50.71799,125.48289 -0.233405,0.64122 h -0.113688 l -0.233405,-0.64122 h 0.09129 l 0.201107,0.56413 0.201108,-0.56413 z"
               id="path33928" />
            <path
               d="m 51.310547,126.0776 q -0.02369,0.0103 -0.04306,0.0194 -0.01895,0.009 -0.04995,0.019 -0.02627,0.008 -0.05727,0.0138 -0.03057,0.006 -0.06761,0.006 -0.06976,0 -0.127037,-0.0194 -0.05684,-0.0198 -0.09905,-0.0616 -0.04134,-0.0409 -0.06459,-0.10378 -0.02326,-0.0633 -0.02326,-0.14685 0,-0.0792 0.02239,-0.14168 0.02239,-0.0624 0.0646,-0.1055 0.04091,-0.0418 0.09862,-0.0637 0.05814,-0.022 0.12876,-0.022 0.05168,0 0.102922,0.0125 0.05168,0.0125 0.11455,0.0439 v 0.1012 h -0.0065 q -0.05297,-0.0444 -0.105075,-0.0646 -0.05211,-0.0202 -0.111535,-0.0202 -0.04866,0 -0.08785,0.0159 -0.03876,0.0155 -0.06933,0.0487 -0.02971,0.0323 -0.04651,0.0818 -0.01637,0.0491 -0.01637,0.11368 0,0.0676 0.01809,0.11628 0.01852,0.0487 0.04737,0.0792 0.03014,0.0319 0.07019,0.0474 0.04048,0.0151 0.08527,0.0151 0.06158,0 0.115411,-0.0211 0.05383,-0.0211 0.100769,-0.0633 h 0.006 z"
               id="path33930" />
            <path
               d="m 51.926357,126.0776 q -0.02369,0.0103 -0.04306,0.0194 -0.01895,0.009 -0.04995,0.019 -0.02627,0.008 -0.05727,0.0138 -0.03058,0.006 -0.06761,0.006 -0.06976,0 -0.127038,-0.0194 -0.05684,-0.0198 -0.09905,-0.0616 -0.04134,-0.0409 -0.0646,-0.10378 -0.02325,-0.0633 -0.02325,-0.14685 0,-0.0792 0.02239,-0.14168 0.02239,-0.0624 0.0646,-0.1055 0.04091,-0.0418 0.09862,-0.0637 0.05814,-0.022 0.128761,-0.022 0.05168,0 0.102922,0.0125 0.05168,0.0125 0.114549,0.0439 v 0.1012 h -0.0065 q -0.05297,-0.0444 -0.105076,-0.0646 -0.05211,-0.0202 -0.111535,-0.0202 -0.04866,0 -0.08785,0.0159 -0.03876,0.0155 -0.06933,0.0487 -0.02971,0.0323 -0.04651,0.0818 -0.01636,0.0491 -0.01636,0.11368 0,0.0676 0.01809,0.11628 0.01852,0.0487 0.04737,0.0792 0.03014,0.0319 0.07019,0.0474 0.04048,0.0151 0.08527,0.0151 0.06158,0 0.11541,-0.0211 0.05383,-0.0211 0.100769,-0.0633 h 0.006 z"
               id="path33932" />
            <path
               d="m 53.133001,125.94109 q 0,0.0375 -0.01766,0.0741 -0.01722,0.0366 -0.04866,0.062 -0.03445,0.0276 -0.08053,0.0431 -0.04565,0.0155 -0.110243,0.0155 -0.06933,0 -0.124885,-0.0129 -0.05512,-0.0129 -0.112396,-0.0383 v -0.1068 h 0.006 q 0.04866,0.0405 0.112396,0.0624 0.06374,0.022 0.119717,0.022 0.07924,0 0.123163,-0.0297 0.04435,-0.0297 0.04435,-0.0792 0,-0.0426 -0.0211,-0.0629 -0.02067,-0.0202 -0.0633,-0.0314 -0.0323,-0.009 -0.07019,-0.0142 -0.03747,-0.006 -0.07967,-0.0142 -0.08527,-0.0181 -0.126607,-0.0616 -0.04091,-0.0439 -0.04091,-0.11412 0,-0.0805 0.06804,-0.13177 0.06804,-0.0517 0.172685,-0.0517 0.06761,0 0.124023,0.0129 0.05641,0.0129 0.09991,0.0319 v 0.10077 h -0.006 q -0.0366,-0.031 -0.09646,-0.0513 -0.05943,-0.0207 -0.121871,-0.0207 -0.06847,0 -0.110243,0.0284 -0.04134,0.0284 -0.04134,0.0732 0,0.0401 0.02067,0.0629 0.02067,0.0228 0.07278,0.0349 0.02756,0.006 0.07838,0.0146 0.05082,0.009 0.08613,0.0176 0.07149,0.019 0.107659,0.0573 0.03617,0.0383 0.03617,0.10723 z"
               id="path33934" />
            <path
               d="m 53.765176,126.0776 q -0.02368,0.0103 -0.04306,0.0194 -0.01895,0.009 -0.04995,0.019 -0.02627,0.008 -0.05727,0.0138 -0.03058,0.006 -0.06761,0.006 -0.06976,0 -0.127038,-0.0194 -0.05684,-0.0198 -0.09905,-0.0616 -0.04134,-0.0409 -0.0646,-0.10378 -0.02325,-0.0633 -0.02325,-0.14685 0,-0.0792 0.02239,-0.14168 0.02239,-0.0624 0.0646,-0.1055 0.04091,-0.0418 0.09862,-0.0637 0.05814,-0.022 0.12876,-0.022 0.05168,0 0.102923,0.0125 0.05168,0.0125 0.114549,0.0439 v 0.1012 h -0.0065 q -0.05297,-0.0444 -0.105075,-0.0646 -0.05211,-0.0202 -0.111535,-0.0202 -0.04866,0 -0.08785,0.0159 -0.03876,0.0155 -0.06933,0.0487 -0.02971,0.0323 -0.04651,0.0818 -0.01636,0.0491 -0.01636,0.11368 0,0.0676 0.01809,0.11628 0.01852,0.0487 0.04737,0.0792 0.03014,0.0319 0.07019,0.0474 0.04048,0.0151 0.08527,0.0151 0.06158,0 0.115411,-0.0211 0.05383,-0.0211 0.100769,-0.0633 h 0.006 z"
               id="path33936" />
            <path
               d="m 54.291414,126.12411 h -0.40566 v -0.64122 h 0.08527 v 0.56543 h 0.320394 z"
               id="path33938" />
            <path
               d="m 55.772804,125.94109 q 0,0.0375 -0.01766,0.0741 -0.01722,0.0366 -0.04866,0.062 -0.03445,0.0276 -0.08053,0.0431 -0.04565,0.0155 -0.110243,0.0155 -0.06933,0 -0.124885,-0.0129 -0.05512,-0.0129 -0.112396,-0.0383 v -0.1068 h 0.006 q 0.04866,0.0405 0.112396,0.0624 0.06374,0.022 0.119717,0.022 0.07924,0 0.123162,-0.0297 0.04436,-0.0297 0.04436,-0.0792 0,-0.0426 -0.0211,-0.0629 -0.02067,-0.0202 -0.0633,-0.0314 -0.0323,-0.009 -0.07019,-0.0142 -0.03746,-0.006 -0.07967,-0.0142 -0.08527,-0.0181 -0.126608,-0.0616 -0.04091,-0.0439 -0.04091,-0.11412 0,-0.0805 0.06804,-0.13177 0.06804,-0.0517 0.172685,-0.0517 0.06761,0 0.124023,0.0129 0.05641,0.0129 0.09991,0.0319 v 0.10077 h -0.006 q -0.0366,-0.031 -0.09646,-0.0513 -0.05943,-0.0207 -0.12187,-0.0207 -0.06847,0 -0.110243,0.0284 -0.04134,0.0284 -0.04134,0.0732 0,0.0401 0.02067,0.0629 0.02067,0.0228 0.07278,0.0349 0.02756,0.006 0.07838,0.0146 0.05082,0.009 0.08613,0.0176 0.07149,0.019 0.107659,0.0573 0.03617,0.0383 0.03617,0.10723 z"
               id="path33940" />
            <path
               d="m 56.451488,125.80414 q 0,0.0874 -0.03833,0.15848 -0.0379,0.071 -0.1012,0.11024 -0.04393,0.0271 -0.09819,0.0392 -0.05383,0.0121 -0.14211,0.0121 h -0.16192 v -0.64122 h 0.160197 q 0.09388,0 0.149,0.0138 0.05555,0.0134 0.09388,0.037 0.06546,0.0409 0.102061,0.10896 0.0366,0.068 0.0366,0.16148 z m -0.08914,-0.001 q 0,-0.0754 -0.02627,-0.12704 -0.02627,-0.0517 -0.07838,-0.0814 -0.0379,-0.0215 -0.08053,-0.0297 -0.04263,-0.009 -0.102061,-0.009 h -0.0801 v 0.4948 h 0.0801 q 0.06158,0 0.107228,-0.009 0.04608,-0.009 0.0844,-0.0336 0.0478,-0.0306 0.07149,-0.0805 0.02412,-0.05 0.02412,-0.12489 z"
               id="path33942" />
            <path
               d="m 57.094859,126.12411 h -0.09086 l -0.06287,-0.17872 h -0.27733 l -0.06287,0.17872 h -0.08656 l 0.233405,-0.64122 h 0.113688 z m -0.180006,-0.25193 -0.112396,-0.31479 -0.112827,0.31479 z"
               id="path33944" />
            <path
               d="m 58.342844,126.12411 h -0.110673 l -0.214457,-0.25494 h -0.120148 v 0.25494 H 57.8123 v -0.64122 h 0.179575 q 0.05814,0 0.09689,0.008 0.03876,0.007 0.06976,0.0267 0.03488,0.022 0.05426,0.0555 0.01981,0.0332 0.01981,0.0844 0,0.0693 -0.03488,0.11627 -0.03488,0.0465 -0.09603,0.0702 z m -0.199385,-0.46078 q 0,-0.0276 -0.0099,-0.0487 -0.0095,-0.0215 -0.03187,-0.0362 -0.01852,-0.0125 -0.04393,-0.0172 -0.02541,-0.005 -0.05986,-0.005 h -0.100338 v 0.24202 h 0.08613 q 0.04048,0 0.07062,-0.007 0.03014,-0.007 0.05124,-0.0267 0.01938,-0.0181 0.02842,-0.0413 0.0095,-0.0237 0.0095,-0.0598 z"
               id="path33946" />
            <path
               d="m 58.847981,126.12411 h -0.422454 v -0.64122 h 0.422454 v 0.0758 h -0.337188 v 0.1757 h 0.337188 v 0.0758 h -0.337188 v 0.23815 h 0.337188 z"
               id="path33948" />
            <path
               d="m 59.44915,125.94109 q 0,0.0375 -0.01766,0.0741 -0.01723,0.0366 -0.04866,0.062 -0.03445,0.0276 -0.08053,0.0431 -0.04565,0.0155 -0.110243,0.0155 -0.06933,0 -0.124885,-0.0129 -0.05512,-0.0129 -0.112396,-0.0383 v -0.1068 h 0.006 q 0.04866,0.0405 0.112396,0.0624 0.06373,0.022 0.119717,0.022 0.07924,0 0.123162,-0.0297 0.04436,-0.0297 0.04436,-0.0792 0,-0.0426 -0.0211,-0.0629 -0.02067,-0.0202 -0.0633,-0.0314 -0.0323,-0.009 -0.07019,-0.0142 -0.03747,-0.006 -0.07967,-0.0142 -0.08527,-0.0181 -0.126607,-0.0616 -0.04091,-0.0439 -0.04091,-0.11412 0,-0.0805 0.06804,-0.13177 0.06804,-0.0517 0.172686,-0.0517 0.06761,0 0.124023,0.0129 0.05641,0.0129 0.09991,0.0319 v 0.10077 h -0.006 q -0.0366,-0.031 -0.09646,-0.0513 -0.05943,-0.0207 -0.12187,-0.0207 -0.06847,0 -0.110243,0.0284 -0.04134,0.0284 -0.04134,0.0732 0,0.0401 0.02067,0.0629 0.02067,0.0228 0.07278,0.0349 0.02756,0.006 0.07838,0.0146 0.05082,0.009 0.08613,0.0176 0.07149,0.019 0.10766,0.0573 0.03617,0.0383 0.03617,0.10723 z"
               id="path33950" />
            <path
               d="m 61.368067,125.80414 q 0,0.0874 -0.03833,0.15848 -0.0379,0.071 -0.1012,0.11024 -0.04393,0.0271 -0.09819,0.0392 -0.05383,0.0121 -0.14211,0.0121 h -0.16192 v -0.64122 h 0.160197 q 0.09388,0 0.149001,0.0138 0.05555,0.0134 0.09388,0.037 0.06546,0.0409 0.102061,0.10896 0.0366,0.068 0.0366,0.16148 z m -0.08914,-0.001 q 0,-0.0754 -0.02627,-0.12704 -0.02627,-0.0517 -0.07838,-0.0814 -0.0379,-0.0215 -0.08053,-0.0297 -0.04263,-0.009 -0.102061,-0.009 h -0.0801 v 0.4948 h 0.0801 q 0.06158,0 0.107228,-0.009 0.04608,-0.009 0.0844,-0.0336 0.0478,-0.0306 0.07149,-0.0805 0.02412,-0.05 0.02412,-0.12489 z"
               id="path33952" />
            <path
               d="m 62.001103,126.0776 q -0.02369,0.0103 -0.04306,0.0194 -0.01895,0.009 -0.04995,0.019 -0.02627,0.008 -0.05727,0.0138 -0.03057,0.006 -0.06761,0.006 -0.06976,0 -0.127038,-0.0194 -0.05684,-0.0198 -0.09905,-0.0616 -0.04134,-0.0409 -0.0646,-0.10378 -0.02325,-0.0633 -0.02325,-0.14685 0,-0.0792 0.02239,-0.14168 0.02239,-0.0624 0.06459,-0.1055 0.04091,-0.0418 0.09862,-0.0637 0.05814,-0.022 0.128761,-0.022 0.05168,0 0.102922,0.0125 0.05168,0.0125 0.114549,0.0439 v 0.1012 h -0.0065 q -0.05297,-0.0444 -0.105076,-0.0646 -0.05211,-0.0202 -0.111535,-0.0202 -0.04866,0 -0.08785,0.0159 -0.03876,0.0155 -0.06933,0.0487 -0.02971,0.0323 -0.04651,0.0818 -0.01636,0.0491 -0.01636,0.11368 0,0.0676 0.01809,0.11628 0.01852,0.0487 0.04737,0.0792 0.03014,0.0319 0.07019,0.0474 0.04048,0.0151 0.08527,0.0151 0.06158,0 0.11541,-0.0211 0.05383,-0.0211 0.100769,-0.0633 h 0.006 z"
               id="path33954" />
            <path
               d="m 63.857148,126.0776 q -0.02369,0.0103 -0.04306,0.0194 -0.01895,0.009 -0.04995,0.019 -0.02627,0.008 -0.05727,0.0138 -0.03058,0.006 -0.06761,0.006 -0.06976,0 -0.127038,-0.0194 -0.05684,-0.0198 -0.09905,-0.0616 -0.04134,-0.0409 -0.0646,-0.10378 -0.02325,-0.0633 -0.02325,-0.14685 0,-0.0792 0.02239,-0.14168 0.02239,-0.0624 0.0646,-0.1055 0.04091,-0.0418 0.09862,-0.0637 0.05814,-0.022 0.12876,-0.022 0.05168,0 0.102923,0.0125 0.05168,0.0125 0.114549,0.0439 v 0.1012 h -0.0065 q -0.05297,-0.0444 -0.105075,-0.0646 -0.05211,-0.0202 -0.111535,-0.0202 -0.04866,0 -0.08785,0.0159 -0.03876,0.0155 -0.06933,0.0487 -0.02971,0.0323 -0.04651,0.0818 -0.01636,0.0491 -0.01636,0.11368 0,0.0676 0.01809,0.11628 0.01852,0.0487 0.04737,0.0792 0.03015,0.0319 0.07019,0.0474 0.04048,0.0151 0.08527,0.0151 0.06158,0 0.115411,-0.0211 0.05383,-0.0211 0.100769,-0.0633 h 0.006 z"
               id="path33956" />
            <path
               d="m 64.443674,125.94109 q 0,0.0375 -0.01766,0.0741 -0.01723,0.0366 -0.04866,0.062 -0.03445,0.0276 -0.08053,0.0431 -0.04565,0.0155 -0.110243,0.0155 -0.06933,0 -0.124885,-0.0129 -0.05512,-0.0129 -0.112396,-0.0383 v -0.1068 h 0.006 q 0.04866,0.0405 0.112396,0.0624 0.06373,0.022 0.119717,0.022 0.07924,0 0.123162,-0.0297 0.04436,-0.0297 0.04436,-0.0792 0,-0.0426 -0.0211,-0.0629 -0.02067,-0.0202 -0.0633,-0.0314 -0.0323,-0.009 -0.07019,-0.0142 -0.03746,-0.006 -0.07967,-0.0142 -0.08527,-0.0181 -0.126607,-0.0616 -0.04091,-0.0439 -0.04091,-0.11412 0,-0.0805 0.06804,-0.13177 0.06804,-0.0517 0.172686,-0.0517 0.06761,0 0.124023,0.0129 0.05641,0.0129 0.09991,0.0319 v 0.10077 h -0.006 q -0.0366,-0.031 -0.09646,-0.0513 -0.05943,-0.0207 -0.12187,-0.0207 -0.06847,0 -0.110243,0.0284 -0.04134,0.0284 -0.04134,0.0732 0,0.0401 0.02067,0.0629 0.02067,0.0228 0.07278,0.0349 0.02756,0.006 0.07838,0.0146 0.05082,0.009 0.08613,0.0176 0.07149,0.019 0.10766,0.0573 0.03617,0.0383 0.03617,0.10723 z"
               id="path33958" />
            <path
               d="m 65.994398,125.92688 q 0,0.0478 -0.01809,0.0844 -0.01809,0.0366 -0.04866,0.0603 -0.03617,0.0284 -0.07967,0.0405 -0.04306,0.0121 -0.109812,0.0121 h -0.227376 v -0.64122 h 0.189911 q 0.07019,0 0.105075,0.005 0.03488,0.005 0.06675,0.0215 0.03531,0.0185 0.05124,0.0478 0.01593,0.0289 0.01593,0.0693 0,0.0456 -0.02325,0.0779 -0.02326,0.0319 -0.06201,0.0512 v 0.003 q 0.06503,0.0134 0.102491,0.0573 0.03747,0.0435 0.03747,0.11025 z m -0.143402,-0.28896 q 0,-0.0233 -0.0078,-0.0392 -0.0078,-0.0159 -0.02498,-0.0258 -0.02024,-0.0116 -0.04909,-0.0142 -0.02885,-0.003 -0.07149,-0.003 h -0.10163 v 0.18517 h 0.110243 q 0.04005,0 0.06373,-0.004 0.02369,-0.004 0.04393,-0.0172 0.02024,-0.0129 0.02842,-0.0332 0.0086,-0.0207 0.0086,-0.0487 z m 0.05469,0.2924 q 0,-0.0388 -0.01163,-0.0616 -0.01163,-0.0228 -0.0422,-0.0388 -0.02067,-0.0108 -0.05038,-0.0138 -0.02928,-0.003 -0.07149,-0.003 h -0.133928 v 0.23857 h 0.112827 q 0.05598,0 0.09172,-0.006 0.03574,-0.006 0.05857,-0.0215 0.02412,-0.0168 0.03531,-0.0383 0.0112,-0.0215 0.0112,-0.0556 z"
               id="path33960" />
            <path
               d="m 66.521067,126.12411 h -0.40566 v -0.64122 h 0.08527 v 0.56543 h 0.320394 z"
               id="path33962" />
            <path
               d="M 67.121804,126.12411 H 67.01113 l -0.253645,-0.28551 -0.06373,0.068 v 0.21747 h -0.08527 v -0.64122 h 0.08527 v 0.3346 l 0.31135,-0.3346 h 0.103353 l -0.286373,0.30144 z"
               id="path33964" />
          </g>
        </g>
      </g>
    </g>
    <circle
       style="opacity:1;fill:none;fill-rule:evenodd;stroke:#d4aa00;stroke-width:0.176;stroke-linejoin:round;stroke-miterlimit:3.9;stroke-dasharray:none"
       id="connector0pin"
       cx="75.697342"
       cy="89.966835"
       r="0.44999999" />
    <circle
       style="fill:none;fill-rule:evenodd;stroke:#d4aa00;stroke-width:0.176;stroke-linejoin:round;stroke-miterlimit:3.9;stroke-dasharray:none"
       id="connector1pin"
       cx="78.228279"
       cy="89.966835"
       r="0.44999999" />
    <circle
       style="fill:none;fill-rule:evenodd;stroke:#d4aa00;stroke-width:0.176;stroke-linejoin:round;stroke-miterlimit:3.9;stroke-dasharray:none"
       id="connector2pin"
       cx="80.759224"
       cy="89.966835"
       r="0.44999999" />
    <circle
       style="fill:none;fill-rule:evenodd;stroke:#d4aa00;stroke-width:0.176;stroke-linejoin:round;stroke-miterlimit:3.9;stroke-dasharray:none"
       id="connector3pin"
       cx="83.290161"
       cy="89.966835"
       r="0.44999999" />
    <circle
       style="fill:none;fill-rule:evenodd;stroke:#d4aa00;stroke-width:0.176;stroke-linejoin:round;stroke-miterlimit:3.9;stroke-dasharray:none"
       id="connector4pin"
       cx="85.821098"
       cy="89.966835"
       r="0.44999999" />
    <circle
       style="fill:none;fill-rule:evenodd;stroke:#d4aa00;stroke-width:0.176;stroke-linejoin:round;stroke-miterlimit:3.9;stroke-dasharray:none"
       id="connector5pin"
       cx="88.352036"
       cy="89.966835"
       r="0.44999999" />
    <circle
       style="fill:none;fill-rule:evenodd;stroke:#d4aa00;stroke-width:0.176;stroke-linejoin:round;stroke-miterlimit:3.9;stroke-dasharray:none"
       id="connector6pin"
       cx="90.88298"
       cy="89.966835"
       r="0.44999999" />
    <circle
       style="fill:none;fill-rule:evenodd;stroke:#d4aa00;stroke-width:0.176;stroke-linejoin:round;stroke-miterlimit:3.9;stroke-dasharray:none"
       id="connector7pin"
       cx="93.413918"
       cy="89.966835"
       r="0.44999999" />
  </g>
</svg>
