<?xml version="1.0" encoding="UTF-8" standalone="no"?>
<!-- This xml file is generated through a template. Please don't edit it directly -->

<svg
   gorn="0"
   height="6.6141734"
   id="Layer_1"
   version="1.1"
   viewBox="0 0 12.472441 6.6141735"
   width="12.472441"
   x="0px"
   xml:space="preserve"
   y="0px"
   xmlns="http://www.w3.org/2000/svg"
   xmlns:svg="http://www.w3.org/2000/svg"><defs
     id="defs435" /><rect
     gorn="0.2"
     height="5.8582678"
     id="connector0pad"
     style="fill:#e3e2db;fill-opacity:1;stroke:none;stroke-width:0"
     width="1.7007874"
     x="0.37795377"
     y="0.37795186" /><rect
     gorn="0.3"
     height="5.8582678"
     id="connector1pad"
     style="fill:#e3e2db;fill-opacity:1;stroke:none;stroke-width:0"
     width="1.7007874"
     x="10.393701"
     y="0.37795186" /><rect
     gorn="0.4"
     height="6.6141734"
     id="silkscreen"
     style="fill:none;stroke:none;stroke-width:0.273853;stroke-opacity:1"
     width="12.472441"
     x="0"
     y="0" /><rect
     gorn="0.5"
     height="5.8582678"
     id="rect787"
     style="opacity:0.75;fill:#000000;fill-rule:evenodd;stroke:none;stroke-width:0.784518"
     width="8.3149605"
     x="2.0787401"
     y="0.37795275" /><g
     aria-label="1002"
     transform="scale(0.86760669,1.152596)"
     id="text369"
     style="font-size:2.76179px;font-family:'HarmonyOS Sans SC';-inkscape-font-specification:'HarmonyOS Sans SC';opacity:1;fill:#ffffff;fill-rule:evenodd;stroke:#ffffff;stroke-width:0.156574;stroke-miterlimit:3.9"><path
       d="M 4.4575169,2.5473433 V 2.2932586 L 5.0457782,1.9507966 H 5.2335799 V 3.9751887 H 4.9850188 V 2.2463082 Z"
       id="path293" /><path
       d="m 7.2027353,2.9643736 q 0,0.5136929 -0.171231,0.7788248 -0.1684691,0.26237 -0.486075,0.26237 -0.3148441,0 -0.486075,-0.2651318 -0.1684692,-0.2651319 -0.1684692,-0.776063 0,-0.513693 0.1684692,-0.7788248 0.1712309,-0.2678936 0.486075,-0.2678936 0.3176059,0 0.486075,0.2651318 0.171231,0.2651318 0.171231,0.7815866 z m -1.0494802,0 q 0,0.4115067 0.093901,0.6131174 0.096663,0.2016106 0.2982733,0.2016106 0.2016107,0 0.2982733,-0.1988488 0.096663,-0.2016107 0.096663,-0.6158792 0,-0.4170303 -0.096663,-0.618641 Q 6.74704,2.1413601 6.5454293,2.1413601 q -0.2016107,0 -0.2982733,0.2043725 -0.093901,0.2016107 -0.093901,0.618641 z"
       id="path295" /><path
       d="m 8.7769548,2.9643736 q 0,0.5136929 -0.171231,0.7788248 -0.1684692,0.26237 -0.486075,0.26237 -0.3148441,0 -0.4860751,-0.2651318 -0.1684692,-0.2651319 -0.1684692,-0.776063 0,-0.513693 0.1684692,-0.7788248 0.171231,-0.2678936 0.4860751,-0.2678936 0.3176058,0 0.486075,0.2651318 0.171231,0.2651318 0.171231,0.7815866 z m -1.0494802,0 q 0,0.4115067 0.093901,0.6131174 0.096663,0.2016106 0.2982734,0.2016106 0.2016106,0 0.2982733,-0.1988488 0.096663,-0.2016107 0.096663,-0.6158792 0,-0.4170303 -0.096663,-0.618641 -0.096663,-0.2043725 -0.2982733,-0.2043725 -0.2016107,0 -0.2982734,0.2043725 -0.093901,0.2016107 -0.093901,0.618641 z"
       id="path297" /><path
       d="M 9.4204508,3.7570073 H 10.334603 V 3.9751887 H 9.0448473 V 3.8177667 L 9.6993916,3.0886541 Q 9.8844315,2.8842817 9.9534763,2.7682865 10.022521,2.6495295 10.022521,2.51144 q 0,-0.1767545 -0.096663,-0.2734172 -0.096663,-0.096663 -0.2430376,-0.096663 -0.1491366,0 -0.26237,0.1021863 -0.1132334,0.099424 -0.1629456,0.2651318 L 9.0586563,2.3954448 Q 9.1194157,2.168978 9.298932,2.0446975 9.4784484,1.9176552 9.6993916,1.9176552 q 0.1601838,0 0.2927497,0.069045 0.1325657,0.066283 0.2098957,0.1988489 0.08009,0.1298041 0.08009,0.3148441 0,0.1795163 -0.08838,0.3397001 -0.08838,0.1601838 -0.3093205,0.4032214 z"
       id="path299" /></g></svg>
