<?xml version='1.0' encoding='UTF-8' standalone='no'?>
<!-- Created with Fritzing (https://fritzing.org/) -->
<svg xmlns="http://www.w3.org/2000/svg" gorn="0" height="0.0971in" id="svg1934" version="1.2" viewBox="0 0 429.17 97.1" width="0.42917in" x="0in"  y="0in">
    <defs id="defs1938" />
    <desc id="desc1914" >
        <referenceFile >resistor_220.svg</referenceFile>
    </desc>
    <g gorn="0.2" id="breadboard" >
        <rect fill="none" gorn="0.2.0" height="11.83406" id="connector0pin" style="stroke-width:1.16025" width="11.375545" x="3.6244552"  y="44.48819"/>
        <rect fill="none" gorn="0.2.1" height="10" id="connector1pin" width="10" x="414.17001"  y="44.48819"/>
        <path d="M 14.455172,50.45 H 414.81478" fill="none" gorn="0.2.2" id="path1920" stroke="#8c8c8c" stroke-width="29.8344" style="stroke-width:28.9794;stroke-linecap:round;stroke-dasharray:none" />
        <path d="M142.33,6.88c-5,-2.3,-13.6,-4.1,-19.1,-4.1l-27.6,0c-5.5,0,-10,4.5,-10,10l0,74.39c0,5.51,4.5,10,10,10l27.6,0c5.5,0,14.1,-1.89,19.1,-4.1l1,-0.49c5,-2.3,13.6,-4.1,19.1,-4.1l99.8,0c5.51,0,14.09,1.89,19.09,4.1l1.01,0.49c5,2.3,13.58,4.1,19.1,4.1l27.6,0c5.52,0,10,-4.49,10,-10L339.03,12.78c0,-5.5,-4.48,-10,-10,-10l-27.6,0c-5.52,0,-14.1,1.9,-19.1,4.1l-1.01,0.5c-5,2.3,-13.58,4.1,-19.09,4.1l-99.8,0c-5.5,0,-14.1,-1.9,-19.1,-4.1L142.33,6.88z" fill="#D9B477" gorn="0.2.3" id="body" />
        <rect fill="#ad9f4e" gorn="0.2.4" height="94.38" id="gold_band" width="9.76" x="305.82"  y="2.69"/>
        <rect fill="#000000" gorn="0.2.5" height="76.9" id="band_rd_multiplier" width="25.7" x="224.62"  y="11.48"/>
        <rect fill="#8c8c8c" gorn="0.2.6" height="76.9" id="band_2_nd" width="25.7" x="173.23"  y="11.48"/>
        <path d="M147.62,8.88c-1.6,-0.5,-3.1,-1,-4.3,-1.6l-1,-0.5c-5,-2.29,-13.6,-4.1,-19.1,-4.1l-1.2,0l0,94.39l1.2,0c5.5,0,14.1,-1.89,19.1,-4.1l1,-0.49c1.2,-0.62,2.7,-1.11,4.3,-1.6L147.62,8.88z" fill="#0060b6" gorn="0.2.7" id="band_1_st" />
        <path d="M329.32,56.8L329.32,56.8c0,5.27,-1.81,9.71,-4.1,9.71l-26.7,0c-5.28,0,-13.58,-0.78,-18.51,-1.7L279,64.59c-4.79,-0.9,-13.18,-1.7,-18.52,-1.7L164,62.89c-5.3,0,-13.6,0.8,-18.5,1.7l-1,0.21c-4.8,0.91,-13.1,1.7,-18.5,1.7l-4.4,0l-13.9,0l-4.3,0c-5.3,0,-9.7,4.08,-9.7,8.96l0,3.43L93.7,81.1l0,2.4c0,5,4.4,8.96,9.7,8.96l22.5,0c5.3,0,13.6,-1.7,18.5,-3.71l1,-0.39c4.8,-1.96,13.2,-3.68,18.5,-3.68l96.48,0c5.27,0,13.57,1.72,18.53,3.69l1.03,0.39c4.79,2.01,13.12,3.71,18.52,3.71l30.9,0c5.29,0,9.71,-4.1,9.71,-8.96L339.07,76L339.07,62.49L339.07,36.88C335.22,38.38,329.32,42.58,329.32,56.8z" gorn="0.2.8" id="Shadow" opacity="0.3" />
        <rect gorn="0.2.9" height="43.79" id="ShadowExtra" opacity="0.4" width="9.76" x="305.82"  y="48.38"/>
        <path d="M274.32,15.08c3.19,0,6.82,-1.4,9.2,-2.4c2.8,-1.1,8.01,-2,13.42,-2l20.29,0c3.12,0,3.12,3.4,3.12,5.2c0,1.8,-0.21,5.3,-3.12,5.3l-42.5,0c-1.49,0,-3.2,-1.6,-3.2,-3.11C271.62,16.88,272.62,15.08,274.32,15.08z" fill="#FFFFFF" gorn="0.2.10" id="ReflexRight" opacity="0.25" />
        <circle cx="97.22" cy="15.78" fill="#FFFFFF" gorn="0.2.11" id="ReflexLeft" opacity="0.35" r="6" />
        <rect fill="#FFFF33" gorn="0.2.12" height="22.5" id="Reflex_gold" opacity="0.5" width="9.76" x="305.82"  y="5.88"/>
        <rect fill="#FFFFFF" gorn="0.2.13" height="10.4" id="Reflex_extra" opacity="0.5" width="9.76" x="305.82"  y="10.88"/>
    </g>
</svg>
