<?xml version="1.0" encoding="UTF-8" standalone="no"?>
<!-- Created with Fritzing (http://www.fritzing.org/) -->

<svg
   gorn="0"
   height="0.4in"
   id="svg193"
   version="1.2"
   viewBox="0 0 300 400"
   width="0.3in"
   x="0in"
   y="0in"
   sodipodi:docname="svg.breadboard.TP4057_f22cbcd408ed437358d8970ccff96325_1_breadboard.svg"
   inkscape:version="1.2.1 (9c6d41e410, 2022-07-14)"
   xmlns:inkscape="http://www.inkscape.org/namespaces/inkscape"
   xmlns:sodipodi="http://sodipodi.sourceforge.net/DTD/sodipodi-0.dtd"
   xmlns="http://www.w3.org/2000/svg"
   xmlns:svg="http://www.w3.org/2000/svg">
  <sodipodi:namedview
     id="namedview155"
     pagecolor="#ffffff"
     bordercolor="#000000"
     borderopacity="0.25"
     inkscape:showpageshadow="2"
     inkscape:pageopacity="0.0"
     inkscape:pagecheckerboard="0"
     inkscape:deskcolor="#d1d1d1"
     inkscape:document-units="in"
     showgrid="false"
     inkscape:zoom="26.744791"
     inkscape:cx="0.6356378"
     inkscape:cy="19.181305"
     inkscape:window-width="3840"
     inkscape:window-height="2036"
     inkscape:window-x="-12"
     inkscape:window-y="-12"
     inkscape:window-maximized="1"
     inkscape:current-layer="icon" />
  <defs
     id="defs197" />
  <g
     gorn="0.1"
     id="breadboard">
    <g
       gorn="0.1.0"
       id="icon">
      <path
         d="M0,0L0,170A30,30 0 0 1 0,230L0,400L300,400L300,0L0,0z"
         fill="#1F7A34"
         gorn="0.1.0.0"
         id="path6"
         stroke="none"
         stroke-width="0" />
      <g
         transform="matrix(2.6098669,0,0,2.4442288,-9.7078852,17.425005)"
         id="g24">
        <g
           gorn="0.1.0.1.0"
           id="g38">
          <g
             gorn="0.1.0.1.0.0"
             id="g36">
            <g
               transform="matrix(0.5,0,0,0.5,30,37.4035)"
               id="g20">
              <g
                 gorn="0.1.0.1.0.0.0.0"
                 id="g34">
                <g
                   gorn="0.1.0.1.0.0.0.0.0"
                   id="g32">
                  <rect
                     connectorname="3"
                     fill="#8c8c8c"
                     gorn="0.1.0.1.0.0.0.0.0.0"
                     height="47.243999"
                     id="rect8"
                     stroke="none"
                     stroke-linecap="round"
                     stroke-width="0"
                     width="21.6535"
                     x="11.7717"
                     y="102.37" />
                  <rect
                     connectorname="2"
                     fill="#8c8c8c"
                     gorn="0.1.0.1.0.0.0.0.0.1"
                     height="47.243999"
                     id="rect10"
                     stroke="none"
                     stroke-linecap="round"
                     stroke-width="0"
                     width="21.6535"
                     x="49.173199"
                     y="102.37" />
                  <rect
                     connectorname="1"
                     fill="#8c8c8c"
                     gorn="0.1.0.1.0.0.0.0.0.2"
                     height="47.243999"
                     id="rect12"
                     stroke="none"
                     stroke-linecap="round"
                     stroke-width="0"
                     width="21.6535"
                     x="86.574799"
                     y="102.37" />
                  <rect
                     connectorname="6"
                     fill="#8c8c8c"
                     gorn="0.1.0.1.0.0.0.0.0.3"
                     height="47.243999"
                     id="rect14"
                     stroke="none"
                     stroke-linecap="round"
                     stroke-width="0"
                     width="21.6535"
                     x="86.574799"
                     y="0" />
                  <rect
                     connectorname="4"
                     fill="#8c8c8c"
                     gorn="0.1.0.1.0.0.0.0.0.4"
                     height="47.243999"
                     id="rect16"
                     stroke="none"
                     stroke-linecap="round"
                     stroke-width="0"
                     width="21.6535"
                     x="11.7717"
                     y="0" />
                  <rect
                     connectorname="5"
                     fill="#8c8c8c"
                     gorn="0.1.0.1.0.0.0.0.0.5"
                     height="47.243999"
                     id="rect18"
                     stroke="none"
                     stroke-linecap="round"
                     stroke-width="0"
                     width="21.6535"
                     x="49.173199"
                     y="0" />
                  <rect
                     fill="#303030"
                     gorn="0.1.0.1.0.0.0.0.0.6"
                     height="71.810997"
                     id="rect20"
                     stroke="none"
                     stroke-width="0"
                     width="120"
                     x="0"
                     y="38.9016" />
                  <polygon
                     fill="#1f1f1f"
                     gorn="0.1.0.1.0.0.0.0.0.7"
                     id="polygon22"
                     points="120,38.9016 110,48.9016 10,48.9016 0,38.9016 " />
                  <polygon
                     fill="#1f1f1f"
                     gorn="0.1.0.1.0.0.0.0.0.8"
                     id="polygon24"
                     points="120,110.713 110,100.713 10,100.713 0,110.713 " />
                  <polygon
                     fill="#000000"
                     gorn="0.1.0.1.0.0.0.0.0.9"
                     id="polygon26"
                     points="0,110.713 10,100.713 10,48.9016 0,38.9016 " />
                  <polygon
                     fill="#3d3d3d"
                     gorn="0.1.0.1.0.0.0.0.0.10"
                     id="polygon28"
                     points="120,110.713 110,100.713 110,48.9016 120,38.9016 " />
                  <circle
                     cx="30"
                     cy="80.712601"
                     fill="#1f1f1f"
                     gorn="0.1.0.1.0.0.0.0.0.11"
                     id="circle30"
                     r="10"
                     stroke="none"
                     stroke-width="0" />
                </g>
              </g>
            </g>
          </g>
        </g>
      </g>
      <g
         transform="translate(63.5,326.05)"
         id="g39">
        <g
           gorn="0.1.0.3.0"
           id="g49">
          <g
             gorn="0.1.0.3.0.0"
             id="g47">
            <g
               transform="rotate(-90)"
               id="g35">
              <g
                 gorn="0.1.0.3.0.0.0.0"
                 id="g45">
                <g
                   gorn="0.1.0.3.0.0.0.0.0"
                   id="g43">
                  <text
                     fill="white"
                     font-family="OCRA"
                     font-size="45"
                     gorn="0.1.0.3.0.0.0.0.0.0"
                     id="text41"
                     stroke="none"
                     stroke-width="0"
                     text-anchor="start"
                     x="0"
                     y="0">1</text>
                </g>
              </g>
            </g>
          </g>
        </g>
      </g>
      <g
         transform="translate(63.5,73.95)"
         id="g48">
        <g
           gorn="0.1.0.4.0"
           id="g59">
          <g
             gorn="0.1.0.4.0.0"
             id="g57">
            <g
               transform="rotate(-90)"
               id="g44">
              <g
                 gorn="0.1.0.4.0.0.0.0"
                 id="g55">
                <g
                   gorn="0.1.0.4.0.0.0.0.0"
                   id="g53">
                  <text
                     fill="white"
                     font-family="OCRA"
                     font-size="45"
                     gorn="0.1.0.4.0.0.0.0.0.0"
                     id="text51"
                     stroke="none"
                     stroke-width="0"
                     text-anchor="end"
                     x="0"
                     y="0">6</text>
                </g>
              </g>
            </g>
          </g>
        </g>
      </g>
      <g
         transform="translate(163.5,326.05)"
         id="g58">
        <g
           gorn="0.1.0.5.0"
           id="g69">
          <g
             gorn="0.1.0.5.0.0"
             id="g67">
            <g
               transform="rotate(-90)"
               id="g54">
              <g
                 gorn="0.1.0.5.0.0.0.0"
                 id="g65">
                <g
                   gorn="0.1.0.5.0.0.0.0.0"
                   id="g63">
                  <text
                     fill="white"
                     font-family="OCRA"
                     font-size="45"
                     gorn="0.1.0.5.0.0.0.0.0.0"
                     id="text61"
                     stroke="none"
                     stroke-width="0"
                     text-anchor="start"
                     x="0"
                     y="0">2</text>
                </g>
              </g>
            </g>
          </g>
        </g>
      </g>
      <g
         transform="translate(163.5,73.95)"
         id="g68">
        <g
           gorn="0.1.0.6.0"
           id="g79">
          <g
             gorn="0.1.0.6.0.0"
             id="g77">
            <g
               transform="rotate(-90)"
               id="g64">
              <g
                 gorn="0.1.0.6.0.0.0.0"
                 id="g75">
                <g
                   gorn="0.1.0.6.0.0.0.0.0"
                   id="g73">
                  <text
                     fill="white"
                     font-family="OCRA"
                     font-size="45"
                     gorn="0.1.0.6.0.0.0.0.0.0"
                     id="text71"
                     stroke="none"
                     stroke-width="0"
                     text-anchor="end"
                     x="0"
                     y="0">5</text>
                </g>
              </g>
            </g>
          </g>
        </g>
      </g>
      <g
         transform="translate(263.5,326.05)"
         id="g78">
        <g
           gorn="0.1.0.7.0"
           id="g89">
          <g
             gorn="0.1.0.7.0.0"
             id="g87">
            <g
               transform="rotate(-90)"
               id="g74">
              <g
                 gorn="0.1.0.7.0.0.0.0"
                 id="g85">
                <g
                   gorn="0.1.0.7.0.0.0.0.0"
                   id="g83">
                  <text
                     fill="white"
                     font-family="OCRA"
                     font-size="45"
                     gorn="0.1.0.7.0.0.0.0.0.0"
                     id="text81"
                     stroke="none"
                     stroke-width="0"
                     text-anchor="start"
                     x="0"
                     y="0">3</text>
                </g>
              </g>
            </g>
          </g>
        </g>
      </g>
      <g
         transform="translate(263.5,73.95)"
         id="g88">
        <g
           gorn="0.1.0.8.0"
           id="g99">
          <g
             gorn="0.1.0.8.0.0"
             id="g97">
            <g
               transform="rotate(-90)"
               id="g84">
              <g
                 gorn="0.1.0.8.0.0.0.0"
                 id="g95">
                <g
                   gorn="0.1.0.8.0.0.0.0.0"
                   id="g93">
                  <text
                     fill="white"
                     font-family="OCRA"
                     font-size="45"
                     gorn="0.1.0.8.0.0.0.0.0.0"
                     id="text91"
                     stroke="none"
                     stroke-width="0"
                     text-anchor="end"
                     x="0"
                     y="0">4</text>
                </g>
              </g>
            </g>
          </g>
        </g>
      </g>
      <g
         aria-label="TP4057"
         id="text492"
         style="font-size:69.4444px;-inkscape-font-specification:sans-serif;opacity:1;fill:#f9f9f9;fill-rule:evenodd;stroke-width:6.92914;stroke-linejoin:round;stroke-miterlimit:3.9">
        <path
           d="M 76.288014,181.37896 H 58.248747 v 44.52172 H 51.534884 V 181.37896 H 33.495617 v -5.96788 h 42.792397 z"
           style="stroke-width:6.92913"
           id="path680" />
        <path
           d="m 116.09647,190.66986 q 0,3.35693 -1.18679,6.23914 -1.15289,2.84831 -3.25521,4.95063 -2.61095,2.61094 -6.17133,3.93337 -3.56038,1.28852 -8.985722,1.28852 h -6.713863 v 18.81916 h -6.713862 v -50.4896 h 13.698992 q 4.543725,0 7.697205,0.77989 3.15348,0.74599 5.59489,2.37359 2.88221,1.93278 4.442,4.81499 1.59369,2.88221 1.59369,7.29031 z m -6.98513,0.16954 q 0,-2.61095 -0.91553,-4.54373 -0.91552,-1.93278 -2.78048,-3.15348 -1.62761,-1.05116 -3.72993,-1.49197 -2.068409,-0.47472 -5.255799,-0.47472 h -6.646046 v 20.1755 h 5.662703 q 4.069007,0 6.612142,-0.71208 2.54312,-0.74598 4.13682,-2.33967 1.59369,-1.62761 2.23795,-3.42475 0.67817,-1.79715 0.67817,-4.0351 z"
           style="stroke-width:6.92913"
           id="path682" />
        <path
           d="m 158.95668,211.69306 h -7.49375 v 14.20762 h -6.51041 v -14.20762 h -24.17669 v -7.79893 l 24.44795,-28.48305 h 6.23915 v 30.85664 h 7.49375 z m -14.00416,-5.42534 v -22.78644 l -19.56515,22.78644 z"
           style="stroke-width:6.92913"
           id="path684" />
        <path
           d="m 201.88471,200.63892 q 0,13.59727 -4.27246,19.97205 -4.23855,6.34087 -13.19037,6.34087 -9.08745,0 -13.29209,-6.44259 -4.17073,-6.4426 -4.17073,-19.80251 0,-13.46163 4.23855,-19.87032 4.23855,-6.44259 13.22427,-6.44259 9.08746,0 13.25819,6.54432 4.20464,6.51041 4.20464,19.70077 z m -8.91791,15.39442 q 1.18679,-2.74658 1.5937,-6.4426 0.4408,-3.72992 0.4408,-8.95182 0,-5.15407 -0.4408,-8.95181 -0.40691,-3.79774 -1.62761,-6.4426 -1.18679,-2.61094 -3.2552,-3.93337 -2.03451,-1.32243 -5.25581,-1.32243 -3.18738,0 -5.28971,1.32243 -2.06841,1.32243 -3.28911,4.00119 -1.15289,2.50922 -1.59369,6.54432 -0.4069,4.0351 -0.4069,8.85009 0,5.28971 0.37299,8.85009 0.37299,3.56038 1.59369,6.37478 1.11898,2.64486 3.15348,4.0351 2.06842,1.39025 5.45925,1.39025 3.18739,0 5.28971,-1.32243 2.10233,-1.32243 3.25521,-4.00119 z"
           style="stroke-width:6.92913"
           id="path686" />
        <path
           d="m 245.69437,209.86201 q 0,3.52647 -1.28852,6.74777 -1.28852,3.2213 -3.52647,5.42534 -2.44141,2.37359 -5.83225,3.66211 -3.35693,1.25461 -7.79893,1.25461 -4.13682,0 -7.96847,-0.88162 -3.83165,-0.84771 -6.47651,-2.06841 v -7.15467 h 0.47472 q 2.78049,1.76324 6.51041,3.01785 3.72993,1.2207 7.32422,1.2207 2.40749,0 4.64545,-0.67817 2.27186,-0.67817 4.0351,-2.37359 1.49197,-1.45806 2.23795,-3.49256 0.77989,-2.03451 0.77989,-4.71327 0,-2.61095 -0.91552,-4.40809 -0.88162,-1.79715 -2.47532,-2.88221 -1.76323,-1.28852 -4.30636,-1.79715 -2.50922,-0.54253 -5.6288,-0.54253 -2.98394,0 -5.76442,0.4069 -2.74658,0.4069 -4.74718,0.8138 v -26.00774 h 30.38192 v 5.93397 h -23.8376 v 13.42772 q 1.45806,-0.13563 2.98394,-0.20345 1.52588,-0.0678 2.64485,-0.0678 4.10292,0 7.18859,0.71208 3.08566,0.67817 5.6627,2.44141 2.71267,1.86496 4.20464,4.81499 1.49197,2.95003 1.49197,7.39203 z"
           style="stroke-width:6.92913"
           id="path688" />
        <path
           d="m 290.38563,182.97265 -22.85426,42.92803 h -7.2564 l 24.31232,-44.55563 h -28.75432 v -5.93397 h 34.55266 z"
           style="stroke-width:6.92913"
           id="path690" />
      </g>
    </g>
    <g
       transform="translate(34.035,334.05)"
       id="g100">
      <g
         gorn="0.1.1.0"
         id="g115">
        <g
           gorn="0.1.1.0.0"
           id="g113">
          <rect
             fill="#8D8C8C"
             gorn="0.1.1.0.0.0"
             height="31.9"
             id="connector0pin"
             width="31.93"
             x="0"
             y="0" />
          <rect
             fill="#8C8663"
             gorn="0.1.1.0.0.1"
             height="16.4152"
             id="rect103"
             width="16.4442"
             x="7.79153"
             y="7.73544" />
          <polygon
             fill="#B8AF82"
             gorn="0.1.1.0.0.2"
             id="polygon105"
             points="0,31.9,7.79153,24.1368,7.79153,6.97162,0,0" />
          <polygon
             fill="#80795B"
             gorn="0.1.1.0.0.3"
             id="polygon107"
             points="24.2079,7.76321,7.90264,7.76321,0,0,31.93,0" />
          <polygon
             fill="#5E5B43"
             gorn="0.1.1.0.0.4"
             id="polygon109"
             points="24.2079,24.1368,24.2079,7.76321,31.93,0,31.93,31.9" />
          <polygon
             fill="#9A916C"
             gorn="0.1.1.0.0.5"
             id="polygon111"
             points="0,31.9,7.87486,24.1368,24.2079,24.1368,31.93,31.9" />
        </g>
      </g>
    </g>
    <g
       transform="translate(34.035,34.05)"
       id="g110">
      <g
         gorn="0.1.2.0"
         id="g130">
        <g
           gorn="0.1.2.0.0"
           id="g128">
          <rect
             fill="#8D8C8C"
             gorn="0.1.2.0.0.0"
             height="31.9"
             id="connector5pin"
             width="31.93"
             x="0"
             y="0" />
          <rect
             fill="#8C8663"
             gorn="0.1.2.0.0.1"
             height="16.4152"
             id="rect118"
             width="16.4442"
             x="7.79153"
             y="7.73544" />
          <polygon
             fill="#B8AF82"
             gorn="0.1.2.0.0.2"
             id="polygon120"
             points="0,31.9,7.79153,24.1368,7.79153,6.97162,0,0" />
          <polygon
             fill="#80795B"
             gorn="0.1.2.0.0.3"
             id="polygon122"
             points="24.2079,7.76321,7.90264,7.76321,0,0,31.93,0" />
          <polygon
             fill="#5E5B43"
             gorn="0.1.2.0.0.4"
             id="polygon124"
             points="24.2079,24.1368,24.2079,7.76321,31.93,0,31.93,31.9" />
          <polygon
             fill="#9A916C"
             gorn="0.1.2.0.0.5"
             id="polygon126"
             points="0,31.9,7.87486,24.1368,24.2079,24.1368,31.93,31.9" />
        </g>
      </g>
    </g>
    <g
       transform="translate(134.035,334.05)"
       id="g120">
      <g
         gorn="0.1.3.0"
         id="g145">
        <g
           gorn="0.1.3.0.0"
           id="g143">
          <rect
             fill="#8D8C8C"
             gorn="0.1.3.0.0.0"
             height="31.9"
             id="connector1pin"
             width="31.93"
             x="0"
             y="0" />
          <rect
             fill="#8C8663"
             gorn="0.1.3.0.0.1"
             height="16.4152"
             id="rect133"
             width="16.4442"
             x="7.79153"
             y="7.73544" />
          <polygon
             fill="#B8AF82"
             gorn="0.1.3.0.0.2"
             id="polygon135"
             points="0,31.9,7.79153,24.1368,7.79153,6.97162,0,0" />
          <polygon
             fill="#80795B"
             gorn="0.1.3.0.0.3"
             id="polygon137"
             points="24.2079,7.76321,7.90264,7.76321,0,0,31.93,0" />
          <polygon
             fill="#5E5B43"
             gorn="0.1.3.0.0.4"
             id="polygon139"
             points="24.2079,24.1368,24.2079,7.76321,31.93,0,31.93,31.9" />
          <polygon
             fill="#9A916C"
             gorn="0.1.3.0.0.5"
             id="polygon141"
             points="0,31.9,7.87486,24.1368,24.2079,24.1368,31.93,31.9" />
        </g>
      </g>
    </g>
    <g
       transform="translate(134.035,34.05)"
       id="g131">
      <g
         gorn="0.1.4.0"
         id="g160">
        <g
           gorn="0.1.4.0.0"
           id="g158">
          <rect
             fill="#8D8C8C"
             gorn="0.1.4.0.0.0"
             height="31.9"
             id="connector4pin"
             width="31.93"
             x="0"
             y="0" />
          <rect
             fill="#8C8663"
             gorn="0.1.4.0.0.1"
             height="16.4152"
             id="rect148"
             width="16.4442"
             x="7.79153"
             y="7.73544" />
          <polygon
             fill="#B8AF82"
             gorn="0.1.4.0.0.2"
             id="polygon150"
             points="0,31.9,7.79153,24.1368,7.79153,6.97162,0,0" />
          <polygon
             fill="#80795B"
             gorn="0.1.4.0.0.3"
             id="polygon152"
             points="24.2079,7.76321,7.90264,7.76321,0,0,31.93,0" />
          <polygon
             fill="#5E5B43"
             gorn="0.1.4.0.0.4"
             id="polygon154"
             points="24.2079,24.1368,24.2079,7.76321,31.93,0,31.93,31.9" />
          <polygon
             fill="#9A916C"
             gorn="0.1.4.0.0.5"
             id="polygon156"
             points="0,31.9,7.87486,24.1368,24.2079,24.1368,31.93,31.9" />
        </g>
      </g>
    </g>
    <g
       transform="translate(234.035,334.05)"
       id="g141">
      <g
         gorn="0.1.5.0"
         id="g175">
        <g
           gorn="0.1.5.0.0"
           id="g173">
          <rect
             fill="#8D8C8C"
             gorn="0.1.5.0.0.0"
             height="31.9"
             id="connector2pin"
             width="31.93"
             x="0"
             y="0" />
          <rect
             fill="#8C8663"
             gorn="0.1.5.0.0.1"
             height="16.4152"
             id="rect163"
             width="16.4442"
             x="7.79153"
             y="7.73544" />
          <polygon
             fill="#B8AF82"
             gorn="0.1.5.0.0.2"
             id="polygon165"
             points="0,31.9,7.79153,24.1368,7.79153,6.97162,0,0" />
          <polygon
             fill="#80795B"
             gorn="0.1.5.0.0.3"
             id="polygon167"
             points="24.2079,7.76321,7.90264,7.76321,0,0,31.93,0" />
          <polygon
             fill="#5E5B43"
             gorn="0.1.5.0.0.4"
             id="polygon169"
             points="24.2079,24.1368,24.2079,7.76321,31.93,0,31.93,31.9" />
          <polygon
             fill="#9A916C"
             gorn="0.1.5.0.0.5"
             id="polygon171"
             points="0,31.9,7.87486,24.1368,24.2079,24.1368,31.93,31.9" />
        </g>
      </g>
    </g>
    <g
       transform="translate(234.035,34.05)"
       id="g151">
      <g
         gorn="0.1.6.0"
         id="g190">
        <g
           gorn="0.1.6.0.0"
           id="g188">
          <rect
             fill="#8D8C8C"
             gorn="0.1.6.0.0.0"
             height="31.9"
             id="connector3pin"
             width="31.93"
             x="0"
             y="0" />
          <rect
             fill="#8C8663"
             gorn="0.1.6.0.0.1"
             height="16.4152"
             id="rect178"
             width="16.4442"
             x="7.79153"
             y="7.73544" />
          <polygon
             fill="#B8AF82"
             gorn="0.1.6.0.0.2"
             id="polygon180"
             points="0,31.9,7.79153,24.1368,7.79153,6.97162,0,0" />
          <polygon
             fill="#80795B"
             gorn="0.1.6.0.0.3"
             id="polygon182"
             points="24.2079,7.76321,7.90264,7.76321,0,0,31.93,0" />
          <polygon
             fill="#5E5B43"
             gorn="0.1.6.0.0.4"
             id="polygon184"
             points="24.2079,24.1368,24.2079,7.76321,31.93,0,31.93,31.9" />
          <polygon
             fill="#9A916C"
             gorn="0.1.6.0.0.5"
             id="polygon186"
             points="0,31.9,7.87486,24.1368,24.2079,24.1368,31.93,31.9" />
        </g>
      </g>
    </g>
  </g>
</svg>
