<?xml version="1.0" encoding="UTF-8" standalone="no"?>
<!-- This xml file is generated through a template. Please don't edit it directly -->

<svg
   gorn="0"
   height="10.582677"
   id="Layer_1"
   version="1.1"
   viewBox="0 0 12.472441 10.582677"
   width="12.472441"
   x="0px"
   xml:space="preserve"
   y="0px"
   xmlns="http://www.w3.org/2000/svg"
   xmlns:svg="http://www.w3.org/2000/svg"><defs
   id="defs435" />
    <desc
   id="desc417">
        <referenceFile>resistor_icon_220.svg</referenceFile>
    </desc>
    
<rect
   gorn="0.0.0"
   height="9.8267727"
   id="connector0pad"
   style="fill:#e3e2db;fill-opacity:1;stroke:none;stroke-width:0"
   width="1.8897638"
   x="0.37795377"
   y="0.37795186" /><rect
   gorn="0.0.1"
   height="9.8267727"
   id="connector1pad"
   style="fill:#e3e2db;fill-opacity:1;stroke:none;stroke-width:0"
   width="1.8897638"
   x="10.204724"
   y="0.37795186" /><rect
   gorn="0.1.0"
   height="10.582677"
   id="silkscreen"
   style="fill:none;stroke:none;stroke-width:0.346399;stroke-opacity:1"
   width="12.472441"
   x="0"
   y="0" /><rect
   style="opacity:0.75;fill:#000000;fill-rule:evenodd;stroke:none;stroke-width:0.994508"
   id="rect787"
   width="7.9753542"
   height="9.8149948"
   x="2.2677166"
   y="0.37795275" /><g
   aria-label="91R0"
   transform="matrix(0.70112258,0.00666364,0,1.4262841,0,0)"
   id="text851"
   style="font-size:3.86596px;font-family:Gabriola;-inkscape-font-specification:Gabriola;opacity:0.75;fill:#ffffff;fill-rule:evenodd;stroke-width:0.927834"><path
     d="m 5.2674234,2.1454026 q 0.2667512,0 0.4755131,0.1159788 0.2087618,0.1159788 0.3247406,0.3247407 0.1159788,0.2087618 0.1159788,0.475513 0,0.2087618 -0.077319,0.386596 -0.073453,0.1739682 -0.2474214,0.4600492 l -0.676543,1.1133965 h -0.390462 l 0.58376,-0.9510262 q 0.054123,-0.085051 0.1082469,-0.1585043 -0.1198448,0.03866 -0.2667513,0.03866 -0.2512874,0 -0.4484513,-0.1198448 Q 4.5715506,3.7111164 4.4594378,3.5062205 4.3511909,3.3013246 4.3511909,3.0539032 q 0,-0.2551534 0.1159788,-0.4639152 Q 4.5870145,2.3812262 4.7957763,2.2652474 5.0084041,2.1454026 5.2674234,2.1454026 Z m 0,1.4883946 q 0.2512874,0 0.3981939,-0.1623703 0.1507724,-0.1662363 0.1507724,-0.4291216 0,-0.2628853 -0.1507724,-0.4213896 -0.1469065,-0.1623703 -0.3981939,-0.1623703 -0.2474214,0 -0.3981939,0.1623703 -0.1469064,0.1623703 -0.1469064,0.4213896 0,0.2628853 0.1469064,0.4291216 0.1469065,0.1623703 0.3981939,0.1623703 z"
     style="font-family:'HarmonyOS Sans SC';-inkscape-font-specification:'HarmonyOS Sans SC'"
     id="path294" /><path
     d="M 6.7712805,3.0268415 V 2.6711732 L 7.59473,2.1917941 H 7.8576153 V 5.0255427 H 7.5096789 V 2.6054518 Z"
     style="font-family:'HarmonyOS Sans SC';-inkscape-font-specification:'HarmonyOS Sans SC'"
     id="path296" /><path
     d="m 11.074093,5.0255427 h -0.42139 L 9.8331195,3.8657548 H 9.7983259 9.2725553 V 5.0255427 H 8.9284849 V 2.1956601 h 0.869841 q 0.2899471,0 0.5141731,0.1043809 0.228091,0.1043809 0.351802,0.2976789 0.127577,0.1894321 0.127577,0.4368535 0,0.2783491 -0.158505,0.483245 -0.158504,0.2010299 -0.436853,0.289947 z M 9.2725553,2.497205 v 1.0670049 h 0.483245 q 0.3286067,0 0.4987087,-0.1430405 0.173968,-0.1469065 0.173968,-0.386596 0,-0.2396895 -0.173968,-0.386596 Q 10.084407,2.497205 9.7558003,2.497205 Z"
     style="font-family:'HarmonyOS Sans SC';-inkscape-font-specification:'HarmonyOS Sans SC'"
     id="path298" /><path
     d="m 13.09599,3.6106014 q 0,0.7190686 -0.239689,1.0902007 -0.235824,0.3672662 -0.680409,0.3672662 -0.44072,0 -0.680409,-0.3711322 -0.235824,-0.3711321 -0.235824,-1.0863347 0,-0.7190685 0.235824,-1.0902007 0.239689,-0.3749981 0.680409,-0.3749981 0.444585,0 0.680409,0.3711322 0.239689,0.3711321 0.239689,1.0940666 z m -1.469064,0 q 0,0.576028 0.131442,0.8582431 0.135309,0.2822151 0.417524,0.2822151 0.282215,0 0.417524,-0.2783491 0.135308,-0.2822151 0.135308,-0.8621091 0,-0.5837599 -0.135308,-0.865975 -0.135309,-0.286081 -0.417524,-0.286081 -0.282215,0 -0.417524,0.286081 -0.131442,0.2822151 -0.131442,0.865975 z"
     style="font-family:'HarmonyOS Sans SC';-inkscape-font-specification:'HarmonyOS Sans SC'"
     id="path300" /></g></svg>
