<?xml version="1.0" encoding="UTF-8" standalone="no"?>
<!-- Created with Fritzing (http://www.fritzing.org/) -->

<svg
   gorn="0"
   height="3.4270833in"
   id="svg301"
   version="1.2"
   viewBox="0 0 3229.1665 3427.0831"
   width="3.2291665in"
   x="0in"
   y="0in"
   sodipodi:docname="svg.icon.RT9193_e88fa12220d1997d264356f86a24e2ae_2_icon.svg"
   inkscape:version="1.2.1 (9c6d41e410, 2022-07-14)"
   xmlns:inkscape="http://www.inkscape.org/namespaces/inkscape"
   xmlns:sodipodi="http://sodipodi.sourceforge.net/DTD/sodipodi-0.dtd"
   xmlns="http://www.w3.org/2000/svg"
   xmlns:svg="http://www.w3.org/2000/svg">
  <sodipodi:namedview
     id="namedview65"
     pagecolor="#ffffff"
     bordercolor="#000000"
     borderopacity="0.25"
     inkscape:showpageshadow="2"
     inkscape:pageopacity="0.0"
     inkscape:pagecheckerboard="0"
     inkscape:deskcolor="#d1d1d1"
     inkscape:document-units="in"
     showgrid="false"
     inkscape:zoom="3.1215806"
     inkscape:cx="96.105158"
     inkscape:cy="164.33982"
     inkscape:window-width="3840"
     inkscape:window-height="2036"
     inkscape:window-x="-12"
     inkscape:window-y="-12"
     inkscape:window-maximized="1"
     inkscape:current-layer="svg301" />
  <desc
     id="desc2">
    <referenceFile>RT9013_df443f1d4b1ebaf1099c5628e2dae19b_1_icon.svg</referenceFile>
  </desc>
  <defs
     id="defs305" />
  <g
     transform="scale(0.9277437,1.0778839)"
     id="g10">
    <g
       aria-label="VOUT"
       gorn="0.1.0"
       id="text2556"
       style="font-weight:bold;font-size:331.554px;font-family:'Droid Sans';-inkscape-font-specification:'Droid Sans, Bold';opacity:1;fill:#ffffff;fill-rule:evenodd;stroke-width:15.6639;stroke-linejoin:round;stroke-miterlimit:3.9">
      <path
         d="M 443.86571,144.18017 355.95858,385.23676 H 286.34519 L 198.43806,144.18017 h 65.24231 l 58.28097,169.33861 58.28098,-169.33861 z"
         gorn="0.1.0.0"
         id="path3922"
         style="fill:#000000" />
      <path
         d="m 712.92955,264.78941 q 0,57.63341 -33.02589,91.63064 -33.02588,33.83534 -91.30686,33.83534 -58.11908,0 -91.14497,-33.83534 -33.02588,-33.99723 -33.02588,-91.63064 0,-58.11908 33.02588,-91.79254 33.02589,-33.83534 91.14497,-33.83534 57.95719,0 91.14497,33.83534 33.18778,33.67346 33.18778,91.79254 z m -82.40283,61.03313 q 9.06593,-11.00863 13.43701,-25.90265 4.37107,-15.05592 4.37107,-35.29237 0,-21.69348 -5.01864,-36.91129 -5.01864,-15.21781 -13.11322,-24.60752 -8.25647,-9.71349 -19.10321,-14.08457 -10.68484,-4.37107 -22.34104,-4.37107 -11.81808,0 -22.34104,4.20918 -10.36106,4.20918 -19.10321,13.92268 -8.09458,9.06593 -13.27511,25.0932 -5.01864,15.86537 -5.01864,36.91128 0,21.53158 4.85675,36.74939 5.01864,15.05592 13.11322,24.60752 8.09458,9.55161 18.94132,14.08457 10.84673,4.53297 22.82671,4.53297 11.97998,0 22.82672,-4.53297 10.84673,-4.69485 18.94131,-14.40835 z"
         gorn="0.1.0.1"
         id="path3924"
         style="fill:#000000" />
      <path
         d="m 971.47046,297.97719 q 0,44.68208 -27.19779,68.48014 -27.19779,23.79806 -80.13634,23.79806 -52.93855,0 -80.13634,-23.79806 Q 756.9641,342.65927 756.9641,298.13908 V 144.18017 h 62.49015 v 150.39729 q 0,25.0932 10.52295,37.39696 10.52296,12.30376 34.15913,12.30376 23.31239,0 33.99724,-11.81808 10.84673,-11.81809 10.84673,-37.88264 V 144.18017 h 62.49016 z"
         gorn="0.1.0.2"
         id="path3926"
         style="fill:#000000" />
      <path
         d="m 1218.1932,190.80495 h -75.2796 v 194.43181 h -62.1663 V 190.80495 h -75.2796 v -46.62478 h 212.7255 z"
         gorn="0.1.0.3"
         id="path3928"
         style="fill:#000000" />
    </g>
  </g>
  <g
     transform="scale(0.91118132,1.0974764)"
     id="g16">
    <g
       aria-label="VIN"
       gorn="0.2.0"
       id="text2556-6"
       style="font-weight:bold;font-size:325.635px;font-family:'Droid Sans';-inkscape-font-specification:'Droid Sans, Bold';fill:#ffffff;fill-rule:evenodd;stroke-width:15.3843;stroke-linejoin:round;stroke-miterlimit:3.9">
      <path
         d="m 611.7654,2779.1028 -86.3378,236.7532 h -68.37063 l -86.3378,-236.7532 h 64.07759 l 57.24053,166.3155 57.24053,-166.3155 z"
         gorn="0.2.0.0"
         id="path3903"
         style="fill:#000000" />
      <path
         d="M 773.7879,3015.856 H 635.13862 v -41.9764 h 38.79636 v -152.8004 h -38.79636 v -41.9764 H 773.7879 v 41.9764 h -38.79636 v 152.8004 h 38.79636 z"
         gorn="0.2.0.1"
         id="path3905"
         style="fill:#000000" />
      <path
         d="M 1038.8434,3015.856 H 980.01282 L 879.52389,2853.3565 v 162.4995 h -55.96852 v -236.7532 h 72.98168 l 86.33779,135.6282 v -135.6282 h 55.96856 z"
         gorn="0.2.0.2"
         id="path3907"
         style="fill:#000000" />
    </g>
  </g>
  <g
     transform="scale(0.91374136,1.0944016)"
     id="g21">
    <g
       aria-label="EN"
       gorn="0.3.0"
       id="text2556-3"
       style="font-weight:bold;font-size:326.55px;font-family:'Droid Sans';-inkscape-font-specification:'Droid Sans, Bold';fill:#ffffff;fill-rule:evenodd;stroke-width:15.4275;stroke-linejoin:round;stroke-miterlimit:3.9">
      <path
         d="m 2754.2809,3024.3293 h -171.7257 v -237.4184 h 171.7257 v 45.9211 h -110.8165 v 40.9782 h 102.8441 v 45.9211 h -102.8441 v 58.677 h 110.8165 z"
         gorn="0.3.0.0"
         id="path3910"
         style="fill:#000000" />
      <path
         d="m 3021.5162,3024.3293 h -58.9959 L 2861.749,2861.3732 v 162.9561 h -56.1257 v -237.4184 h 73.1867 l 86.5804,136.0094 v -136.0094 h 56.1258 z"
         gorn="0.3.0.1"
         id="path3912"
         style="fill:#000000" />
    </g>
  </g>
  <g
     transform="scale(0.87241832,1.1462391)"
     id="g27">
    <g
       aria-label="GND"
       gorn="0.4.0"
       id="text2556-37"
       style="font-weight:bold;font-size:311.782px;font-family:'Droid Sans';-inkscape-font-specification:'Droid Sans, Bold';fill:#ffffff;fill-rule:evenodd;stroke-width:14.7298;stroke-linejoin:round;stroke-miterlimit:3.9">
      <path
         d="m 1691.3685,2879.0318 q -15.2237,5.9372 -40.3429,11.8745 -25.1191,5.785 -50.086,5.785 -57.8502,0 -90.5812,-31.3609 -32.7311,-31.5131 -32.7311,-86.9275 0,-52.8264 33.0355,-85.1007 33.0355,-32.4265 92.1036,-32.4265 22.3789,0 42.6265,4.1104 20.2475,3.9582 45.0622,15.9849 v 53.1308 h -6.5462 q -4.2626,-3.197 -12.4835,-8.982 -8.2208,-5.9372 -15.8326,-10.0476 -8.8298,-4.8716 -20.7043,-8.3731 -11.7223,-3.5014 -24.9669,-3.5014 -15.5282,0 -28.1639,4.5671 -12.6357,4.5671 -22.6834,14.0058 -9.5909,9.1342 -15.2237,23.2923 -5.4806,14.0059 -5.4806,32.4266 0,37.6026 19.9431,57.5457 19.9431,19.9431 58.9159,19.9431 3.3492,0 7.3073,-0.1523 4.1105,-0.1522 7.4597,-0.4567 v -44.4533 h -45.2145 v -42.7787 h 104.587 z"
         gorn="0.4.0.0"
         id="path3915"
         style="fill:#000000" />
      <path
         d="m 1949.8675,2891.9719 h -56.3278 l -96.214,-155.5865 v 155.5865 h -53.5875 v -226.6813 h 69.8769 l 82.6649,129.8584 v -129.8584 h 53.5875 z"
         gorn="0.4.0.1"
         id="path3917"
         style="fill:#000000" />
      <path
         d="m 2221.9156,2778.8596 q 0,31.6654 -14.4626,56.7845 -14.4625,24.9669 -36.5369,38.3638 -16.5939,10.0477 -36.3847,14.0059 -19.7909,3.9581 -46.8891,3.9581 h -79.9246 v -226.6813 h 82.2081 q 27.7072,0 47.8026,4.7193 20.0953,4.5671 33.7966,13.0924 23.4446,14.3103 36.8415,38.6683 13.5491,24.2057 13.5491,57.089 z m -60.4382,-0.4567 q 0,-22.3789 -8.2208,-38.2116 -8.0686,-15.9849 -25.7281,-24.9669 -8.982,-4.4149 -18.4208,-5.9372 -9.2864,-1.6747 -28.1639,-1.6747 h -14.767 v 141.8852 h 14.767 q 20.8565,0 30.5997,-1.8268 9.7432,-1.9791 19.0297,-7.0029 15.9849,-9.1343 23.4445,-24.358 7.4597,-15.376 7.4597,-37.9071 z"
         gorn="0.4.0.2"
         id="path3919"
         style="fill:#000000" />
    </g>
  </g>
  <g
     transform="matrix(0.77829201,0,0,1.0467201,388.53489,11.847496)"
     id="g32">
    <g
       aria-label="NC"
       gorn="0.5.0"
       id="text2556-2"
       style="font-weight:bold;font-size:331.975px;font-family:'Droid Sans';-inkscape-font-specification:'Droid Sans, Bold';fill:#ffffff;fill-rule:evenodd;stroke-width:15.6838;stroke-linejoin:round;stroke-miterlimit:3.9">
      <g
         aria-label="BP"
         transform="scale(1.076518,0.92892083)"
         id="text402"
         style="font-size:388.889px;font-family:Arial;-inkscape-font-specification:'Arial, Bold';opacity:1;fill:#000000;stroke-width:6.92914">
        <path
           d="m 2334.3393,142.0854 h 111.2739 q 33.0404,0 49.1808,2.84831 16.3303,2.65842 29.0527,11.39323 12.9123,8.73481 21.4573,23.35613 8.5449,14.43143 8.5449,32.47071 0,19.55839 -10.6337,35.88869 -10.4438,16.3303 -28.4831,24.49545 25.4449,7.4056 39.1168,25.25499 13.6719,17.8494 13.6719,41.96508 0,18.98872 -8.9247,37.028 -8.7348,17.8494 -24.1157,28.67297 -15.191,10.63369 -37.5977,13.10222 -14.0516,1.5191 -67.7897,1.89887 h -94.7537 z m 56.2066,46.33248 v 64.37177 h 36.8381 q 32.8505,0 40.8258,-0.94944 14.4314,-1.70899 22.5965,-9.87414 8.3551,-8.35503 8.3551,-21.83702 0,-12.91234 -7.2157,-20.8876 -7.0259,-8.16515 -21.0775,-9.87413 -8.355,-0.94944 -48.0415,-0.94944 z m 0,110.70424 v 74.43579 h 52.0291 q 30.3819,0 38.5471,-1.70898 12.5326,-2.27865 20.3179,-11.01346 7.9753,-8.9247 7.9753,-23.7359 0,-12.53256 -6.0764,-21.26737 -6.0764,-8.73481 -17.6595,-12.72244 -11.3932,-3.98764 -49.7505,-3.98764 z"
           style="stroke-width:6.92913"
           id="path457" />
        <path
           d="M 2614.9926,420.46005 V 142.0854 h 90.1964 q 51.2695,0 66.8403,4.17752 23.9258,6.26628 40.0662,27.34376 16.1404,20.88759 16.1404,54.11785 0,25.63478 -9.3045,43.1044 -9.3044,17.46962 -23.7359,27.53365 -14.2415,9.87413 -29.0527,13.10221 -20.1281,3.98763 -58.2954,3.98763 h -36.6482 v 105.00763 z m 56.2066,-231.28262 v 78.99308 h 30.7617 q 33.2303,0 44.4336,-4.36741 11.2034,-4.3674 17.4696,-13.67188 6.4562,-9.30447 6.4562,-21.64714 0,-15.19097 -8.9247,-25.06511 -8.9247,-9.87413 -22.5966,-12.34267 -10.064,-1.89887 -40.4459,-1.89887 z"
           style="stroke-width:6.92913"
           id="path459" />
      </g>
    </g>
  </g>
  <g
     transform="scale(1.0275967,0.97314443)"
     id="g36">
    <g
       aria-label="5"
       gorn="0.6.0"
       id="text3249"
       style="font-weight:bold;font-size:270.392px;font-family:'Droid Sans';-inkscape-font-specification:'Droid Sans, Bold';opacity:1;fill-rule:evenodd;stroke-width:12.7744;stroke-linejoin:round;stroke-miterlimit:3.9">
      <path
         d="M 585.6741,1329.5856 V 1292.75 q 21.25641,12.9387 45.28538,12.9387 18.08775,0 28.25385,-8.8459 10.29814,-8.9778 10.29814,-24.161 0,-31.8186 -43.56903,-31.8186 -16.10733,0 -37.09968,2.3765 l 7.65759,-112.8834 h 108.26242 v 35.1193 h -73.80329 l -2.9046,43.0409 q 10.95827,-0.9242 20.20018,-0.9242 29.97021,0 47.26579,16.3714 17.42761,16.3714 17.42761,44.3612 0,30.8944 -20.99234,50.5665 -20.99235,19.54 -57.03582,19.54 -29.17804,0 -49.2462,-8.8458 z"
         gorn="0.6.0.0"
         id="path3936" />
    </g>
  </g>
  <g
     transform="scale(1.0275967,0.97314443)"
     id="g40">
    <g
       aria-label="2"
       gorn="0.7.0"
       id="text3249-5"
       style="font-weight:bold;font-size:270.392px;font-family:'Droid Sans';-inkscape-font-specification:'Droid Sans, Bold';fill-rule:evenodd;stroke-width:12.7744;stroke-linejoin:round;stroke-miterlimit:3.9">
      <path
         d="m 1539.1604,2330.3806 h 86.7419 v 35.5154 h -135.9881 v -15.1831 q 0,-15.9754 5.8092,-29.1781 5.9412,-13.2027 16.2393,-24.5571 10.2982,-11.4864 31.9506,-26.8015 19.8041,-14.7871 27.7258,-26.1414 7.9216,-11.4864 7.9216,-24.2931 0,-27.5937 -30.1022,-27.5937 -26.4055,0 -50.4345,21.1244 v -38.0239 q 26.8016,-17.2956 60.2045,-17.2956 30.6304,0 48.454,15.7113 17.8237,15.5792 17.8237,43.0409 0,15.3152 -5.149,27.7257 -5.1491,12.2786 -14.9191,23.1048 -9.77,10.8263 -31.2905,26.0094 -20.7283,14.7871 -27.8578,22.8407 -7.1294,8.0537 -7.1294,13.9949 z"
         gorn="0.7.0.0"
         id="path3942" />
    </g>
  </g>
  <g
     transform="scale(1.0275967,0.97314443)"
     id="g44">
    <g
       aria-label="3"
       gorn="0.8.0"
       id="text3249-4"
       style="font-weight:bold;font-size:270.392px;font-family:'Droid Sans';-inkscape-font-specification:'Droid Sans, Bold';fill-rule:evenodd;stroke-width:12.7744;stroke-linejoin:round;stroke-miterlimit:3.9">
      <path
         d="m 2425.2944,2321.4028 q 20.4642,15.3152 47.7939,15.3152 17.2956,0 27.4617,-7.6576 10.1661,-7.6576 10.1661,-21.7845 0,-14.5231 -12.1465,-22.1806 -12.0145,-7.6576 -33.799,-7.6576 h -18.2198 v -32.8748 h 16.7675 q 41.1925,0 41.1925,-27.7258 0,-26.1414 -31.5545,-26.1414 -20.5963,0 -40.0043,13.4668 v -35.2513 q 21.1244,-10.9583 49.7743,-10.9583 29.046,0 47.1338,13.4668 18.0877,13.3348 18.0877,37.0997 0,40.1363 -40.6644,50.4344 v 0.6602 q 21.3884,2.3765 34.1951,15.7112 12.8066,13.2028 12.8066,32.2147 0,29.1781 -21.3884,45.5494 -21.2564,16.3714 -56.7718,16.3714 -31.5545,0 -50.8305,-10.4301 z"
         gorn="0.8.0.0"
         id="path3945" />
    </g>
  </g>
  <g
     transform="scale(1.0275967,0.97314443)"
     id="g48">
    <g
       aria-label="4"
       gorn="0.9.0"
       id="text3249-67"
       style="font-weight:bold;font-size:270.392px;font-family:'Droid Sans';-inkscape-font-specification:'Droid Sans, Bold';fill-rule:evenodd;stroke-width:12.7744;stroke-linejoin:round;stroke-miterlimit:3.9">
      <path
         d="m 2538.9699,1130.3563 v 129.915 h 28.914 v 31.0264 h -28.914 v 43.569 h -38.816 v -43.569 h -91.3629 v -31.2905 q 28.3859,-31.6866 53.207,-67.0699 24.8211,-35.3833 37.4958,-62.581 z m -92.4191,129.915 h 53.6031 v -74.9916 q -6.3373,11.8825 -18.2198,28.782 -11.7504,16.8995 -35.3833,46.2096 z"
         gorn="0.9.0.0"
         id="path3939" />
    </g>
  </g>
  <rect
     gorn="0.10"
     height="1415.6124"
     id="rect4505"
     style="opacity:1;fill:none;fill-rule:evenodd;stroke:#000000;stroke-width:12.606;stroke-linejoin:round;stroke-miterlimit:3.9;stroke-dasharray:none"
     width="2907.2444"
     x="154.80434"
     y="985.71344" />
  <rect
     gorn="0.11"
     height="500.54767"
     id="rect7335"
     style="opacity:1;fill:none;fill-rule:evenodd;stroke:#000000;stroke-width:10;stroke-linejoin:round;stroke-miterlimit:3.9;stroke-dasharray:none"
     width="410.44907"
     x="452.16138"
     y="483.0513" />
  <rect
     gorn="0.12"
     height="99.534409"
     id="rect7337"
     style="opacity:1;fill:none;fill-rule:evenodd;stroke:#000000;stroke-width:10.5751;stroke-linejoin:round;stroke-miterlimit:3.9;stroke-dasharray:none"
     width="409.87393"
     x="452.44897"
     y="884.58844" />
  <rect
     gorn="0.13"
     height="507.22162"
     id="rect7339"
     style="opacity:1;fill:none;fill-rule:evenodd;stroke:#000000;stroke-width:10;stroke-linejoin:round;stroke-miterlimit:3.9;stroke-dasharray:none"
     width="427.134"
     x="2339.2263"
     y="477.18875" />
  <rect
     gorn="0.14"
     height="96.334389"
     id="rect7341"
     style="opacity:1;fill:none;fill-rule:evenodd;stroke:#000000;stroke-width:10.4381;stroke-linejoin:round;stroke-miterlimit:3.9;stroke-dasharray:none"
     width="426.69583"
     x="2339.4453"
     y="884.51996" />
  <rect
     gorn="0.15"
     height="480.52588"
     id="rect7343"
     style="opacity:1;fill:none;fill-rule:evenodd;stroke:#000000;stroke-width:10;stroke-linejoin:round;stroke-miterlimit:3.9;stroke-dasharray:none"
     width="407.11206"
     x="453.8299"
     y="2402.6287" />
  <rect
     gorn="0.16"
     height="96.772545"
     id="rect7345"
     style="opacity:1;fill:none;fill-rule:evenodd;stroke:#000000;stroke-width:10;stroke-linejoin:round;stroke-miterlimit:3.9;stroke-dasharray:none"
     width="403.77512"
     x="455.49838"
     y="2405.9658" />
  <rect
     gorn="0.17"
     height="483.86273"
     id="rect7347"
     style="opacity:1;fill:none;fill-rule:evenodd;stroke:#000000;stroke-width:10;stroke-linejoin:round;stroke-miterlimit:3.9;stroke-dasharray:none"
     width="407.11209"
     x="1408.2075"
     y="2405.9658" />
  <rect
     gorn="0.18"
     height="113.45747"
     id="rect7349"
     style="opacity:1;fill:none;fill-rule:evenodd;stroke:#000000;stroke-width:10;stroke-linejoin:round;stroke-miterlimit:3.9;stroke-dasharray:none"
     width="403.77512"
     x="1411.5446"
     y="2405.9658" />
  <rect
     gorn="0.19"
     height="497.24338"
     id="rect7351"
     style="opacity:1;fill:none;fill-rule:evenodd;stroke:#000000;stroke-width:9.96732;stroke-linejoin:round;stroke-miterlimit:3.9;stroke-dasharray:none"
     width="427.16669"
     x="2342.5469"
     y="2402.6123" />
  <rect
     gorn="0.20"
     height="110.33659"
     id="rect7353"
     style="opacity:1;fill:none;fill-rule:evenodd;stroke:#000000;stroke-width:9.78391;stroke-linejoin:round;stroke-miterlimit:3.9;stroke-dasharray:none"
     width="424.01312"
     x="2345.792"
     y="2402.5208" />
  <g
     transform="matrix(-1.3354115,-0.40386092,-0.34475945,-1.4084253,-4450.0003,-466.08654)"
     id="g62">
    <path
       d="m -3573.9105,-944.36664 282.8373,-76.53456 -75.1377,283.21153 z"
       gorn="0.21.0"
       id="path9627"
       style="opacity:1;fill:#000000;fill-rule:evenodd;stroke:#000000;stroke-width:10;stroke-linejoin:round;stroke-miterlimit:3.9;stroke-dasharray:none" />
  </g>
</svg>
