<?xml version="1.0" encoding="UTF-8" standalone="no"?>
<!-- Created with Fritzing (http://www.fritzing.org/) -->

<svg
   gorn="0"
   height="0.41338584in"
   id="svg301"
   version="1.2"
   viewBox="0 0 405.5118 413.38582"
   width="0.4055118in"
   x="0in"
   y="0in"
   sodipodi:docname="svg.breadboard.RT9193_e88fa12220d1997d264356f86a24e2ae_2_breadboard.svg"
   inkscape:version="1.2.1 (9c6d41e410, 2022-07-14)"
   xmlns:inkscape="http://www.inkscape.org/namespaces/inkscape"
   xmlns:sodipodi="http://sodipodi.sourceforge.net/DTD/sodipodi-0.dtd"
   xmlns="http://www.w3.org/2000/svg"
   xmlns:svg="http://www.w3.org/2000/svg">
  <sodipodi:namedview
     id="namedview201"
     pagecolor="#ffffff"
     bordercolor="#000000"
     borderopacity="0.25"
     inkscape:showpageshadow="2"
     inkscape:pageopacity="0.0"
     inkscape:pagecheckerboard="0"
     inkscape:deskcolor="#d1d1d1"
     inkscape:document-units="in"
     showgrid="false"
     inkscape:zoom="25.878769"
     inkscape:cx="5.2552732"
     inkscape:cy="19.861841"
     inkscape:window-width="3840"
     inkscape:window-height="2036"
     inkscape:window-x="-12"
     inkscape:window-y="-12"
     inkscape:window-maximized="1"
     inkscape:current-layer="g54" />
  <defs
     id="defs305" />
  <g
     gorn="0.1"
     id="breadboard">
    <g
       gorn="0.1.0"
       id="icon">
      <path
         d="m 0,0 v 186.02363 a 24.330709,20.669293 0 0 1 0,41.33858 V 413.38584 H 405.5118 V 0 Z"
         fill="#1f7a34"
         gorn="0.1.0.0"
         id="path6"
         stroke="none"
         stroke-width="0" />
      <g
         transform="matrix(2.8151644,0,0,1.0425848,30.919195,109.35038)"
         id="g47">
        <g
           gorn="0.1.0.1.0"
           id="g43">
          <g
             gorn="0.1.0.1.0.0"
             id="g30">
            <g
               gorn="0.1.0.1.0.0.0"
               id="g46">
              <g
                 transform="translate(1.2785574)"
                 id="g41">
                <g
                   gorn="0.1.0.1.0.0.0.0.0"
                   id="g39">
                  <g
                     gorn="0.1.0.1.0.0.0.0.0.0"
                     id="g37">
                    <g
                       gorn="0.1.0.1.0.0.0.0.0.0.0"
                       id="g44">
                      <g
                         transform="matrix(0.5,0,0,0.5,33.7461,50.2756)"
                         id="g35">
                        <g
                           gorn="0.1.0.1.0.0.0.0.0.0.0.0.0"
                           id="g34">
                          <g
                             gorn="0.1.0.1.0.0.0.0.0.0.0.0.0.0"
                             id="g32">
                            <g
                               gorn="0.1.0.1.0.0.0.0.0.0.0.0.0.0.0"
                               id="g42">
                              <g
                                 gorn="0.1.0.1.0.0.0.0.0.0.0.0.0.0.0.0"
                                 id="g40">
                                <rect
                                   connectorname="8"
                                   fill="#8c8c8c"
                                   gorn="0.1.0.1.0.0.0.0.0.0.0.0.0.0.0.0.0"
                                   height="34.999901"
                                   id="rect8"
                                   stroke="none"
                                   stroke-linecap="round"
                                   stroke-width="0"
                                   width="12.0079"
                                   x="75.184914"
                                   y="-19.052341" />
                                <rect
                                   connectorname="10"
                                   fill="#8c8c8c"
                                   gorn="0.1.0.1.0.0.0.0.0.0.0.0.0.0.0.0.1"
                                   height="34.999901"
                                   id="rect16"
                                   stroke="none"
                                   stroke-linecap="round"
                                   stroke-width="0"
                                   width="12.0079"
                                   x="21.237604"
                                   y="-19.052341" />
                                <rect
                                   connectorname="3"
                                   fill="#8c8c8c"
                                   gorn="0.1.0.1.0.0.0.0.0.0.0.0.0.0.0.0.2"
                                   height="34.999901"
                                   id="rect18"
                                   stroke="none"
                                   stroke-linecap="round"
                                   stroke-width="0"
                                   width="12.0079"
                                   x="75.184914"
                                   y="147.04967" />
                                <rect
                                   connectorname="2"
                                   fill="#8c8c8c"
                                   gorn="0.1.0.1.0.0.0.0.0.0.0.0.0.0.0.0.3"
                                   height="34.999901"
                                   id="rect24"
                                   stroke="none"
                                   stroke-linecap="round"
                                   stroke-width="0"
                                   width="12.0079"
                                   x="48.211262"
                                   y="147.04967" />
                                <rect
                                   connectorname="1"
                                   fill="#8c8c8c"
                                   gorn="0.1.0.1.0.0.0.0.0.0.0.0.0.0.0.0.4"
                                   height="34.999901"
                                   id="rect26"
                                   stroke="none"
                                   stroke-linecap="round"
                                   stroke-width="0"
                                   width="12.0079"
                                   x="21.237604"
                                   y="147.04967" />
                                <rect
                                   fill="#303030"
                                   gorn="0.1.0.1.0.0.0.0.0.0.0.0.0.0.0.0.5"
                                   height="128.18202"
                                   id="rect28"
                                   stroke="none"
                                   stroke-width="0"
                                   width="82.571091"
                                   x="13.696859"
                                   y="17.517565" />
                                <g
                                   transform="matrix(0.61256817,0,0,1,13.69686,-21.478536)"
                                   id="g14">
                                <g
                                   gorn="0.1.0.1.0.0.0.0.0.0.0.0.0.0.0.0.6.0"
                                   id="g18">
                                <polygon
                                   fill="#1f1f1f"
                                   gorn="0.1.0.1.0.0.0.0.0.0.0.0.0.0.0.0.6.0.0"
                                   id="polygon30"
                                   points="134.984,38.9961 124.984,48.9961 10,48.9961 0,38.9961 " />
                                </g>
                                </g>
                                <g
                                   transform="matrix(0.61871787,0,0,1.0485238,13.288069,-24.9774)"
                                   id="g19">
                                <g
                                   gorn="0.1.0.1.0.0.0.0.0.0.0.0.0.0.0.0.7.0"
                                   id="g21">
                                <polygon
                                   fill="#1f1f1f"
                                   gorn="0.1.0.1.0.0.0.0.0.0.0.0.0.0.0.0.7.0.0"
                                   id="polygon32"
                                   points="10,152.106 0,162.106 134.984,162.106 124.984,152.106 " />
                                </g>
                                </g>
                                <g
                                   transform="matrix(1,0,0,1.0354736,13.69686,-23.347107)"
                                   id="g23">
                                <g
                                   gorn="0.1.0.1.0.0.0.0.0.0.0.0.0.0.0.0.8.0"
                                   id="g24">
                                <polygon
                                   fill="#000000"
                                   gorn="0.1.0.1.0.0.0.0.0.0.0.0.0.0.0.0.8.0.0"
                                   id="polygon34"
                                   points="10,48.9961 0,38.9961 0,162.106 10,152.106 " />
                                </g>
                                </g>
                                <g
                                   transform="matrix(1,0,0,1.0354735,-39.131099,-23.982594)"
                                   id="g28">
                                <g
                                   gorn="0.1.0.1.0.0.0.0.0.0.0.0.0.0.0.0.9.0"
                                   id="g27">
                                <polygon
                                   fill="#3d3d3d"
                                   gorn="0.1.0.1.0.0.0.0.0.0.0.0.0.0.0.0.9.0.0"
                                   id="polygon36"
                                   points="124.984,152.106 124.984,48.9961 134.984,38.9961 134.984,162.106 " />
                                </g>
                                </g>
                              </g>
                            </g>
                          </g>
                        </g>
                      </g>
                    </g>
                  </g>
                </g>
              </g>
            </g>
          </g>
        </g>
      </g>
      <g
         transform="scale(0.94411625,1.0591916)"
         id="g54">
        <g
           aria-label="RT9193"
           transform="scale(1.0591916,0.94411625)"
           id="text538"
           style="font-size:68.1916px;font-family:Calibri;-inkscape-font-specification:'Calibri, Normal';opacity:1;fill:#ffffff;fill-rule:evenodd;stroke-width:6.92914;stroke-linejoin:round;stroke-miterlimit:3.9">
          <path
             d="m 139.92175,222.93423 q 0,0.26637 -0.0999,0.46615 -0.0999,0.19978 -0.43286,0.33297 -0.33297,0.13319 -0.93231,0.19978 -0.59934,0.0666 -1.59824,0.0666 -0.86571,0 -1.43175,-0.0666 -0.53275,-0.0666 -0.86572,-0.19978 -0.33296,-0.16648 -0.53274,-0.43286 -0.16649,-0.26637 -0.29967,-0.66593 l -3.96231,-10.15549 q -0.69923,-1.73143 -1.46505,-3.16318 -0.73253,-1.46506 -1.76473,-2.49725 -1.03219,-1.0655 -2.43065,-1.63154 -1.39846,-0.59934 -3.36297,-0.59934 h -3.82912 v 18.34647 q 0,0.26637 -0.16648,0.46615 -0.13319,0.19978 -0.46615,0.33297 -0.29967,0.0999 -0.86572,0.16648 -0.53274,0.0999 -1.36516,0.0999 -0.83242,0 -1.39846,-0.0999 -0.53275,-0.0666 -0.86571,-0.16648 -0.33297,-0.13319 -0.46616,-0.33297 -0.13319,-0.19978 -0.13319,-0.46615 v -39.88942 q 0,-1.29857 0.66594,-1.79802 0.69923,-0.53275 1.46505,-0.53275 h 9.15659 q 1.63154,0 2.69703,0.0999 1.09879,0.0666 1.9645,0.16648 2.49725,0.43286 4.39517,1.36517 1.9312,0.9323 3.22977,2.36406 1.29857,1.43176 1.93121,3.29637 0.66593,1.83132 0.66593,4.0622 0,2.16428 -0.59934,3.89571 -0.56604,1.69813 -1.66483,3.03 -1.09879,1.29857 -2.63044,2.26417 -1.53164,0.9656 -3.42956,1.63154 1.0655,0.46615 1.93121,1.19868 0.86572,0.69923 1.59824,1.69813 0.76583,0.9989 1.43176,2.29747 0.66593,1.29857 1.33187,2.93011 l 3.86241,9.48955 q 0.46615,1.19868 0.59934,1.69813 0.13319,0.46615 0.13319,0.73253 z m -8.62384,-30.26668 q 0,-2.53055 -1.13209,-4.26198 -1.13209,-1.76472 -3.79582,-2.53054 -0.83242,-0.23308 -1.89791,-0.33297 -1.0322,-0.0999 -2.73033,-0.0999 h -4.82802 v 14.51735 h 5.59385 q 2.26417,0 3.89571,-0.53275 1.66483,-0.56604 2.76362,-1.53164 1.09879,-0.9989 1.59824,-2.33077 0.53275,-1.33187 0.53275,-2.89681 z"
             style="stroke-width:6.92913"
             id="path590" />
          <path
             d="m 174.55029,183.17799 q 0,0.63264 -0.0666,1.09879 -0.0666,0.46616 -0.23308,0.76583 -0.13318,0.26637 -0.36626,0.39956 -0.19978,0.13319 -0.46615,0.13319 h -12.11999 v 37.35887 q 0,0.26637 -0.13319,0.46615 -0.13319,0.19978 -0.46615,0.33297 -0.33297,0.0999 -0.89901,0.16648 -0.53275,0.0999 -1.36517,0.0999 -0.79912,0 -1.36516,-0.0999 -0.56604,-0.0666 -0.89901,-0.16648 -0.33297,-0.13319 -0.46615,-0.33297 -0.13319,-0.19978 -0.13319,-0.46615 V 185.57536 H 143.4512 q -0.26638,0 -0.49945,-0.13319 -0.19978,-0.13319 -0.33297,-0.39956 -0.13319,-0.29967 -0.23308,-0.76583 -0.0666,-0.46615 -0.0666,-1.09879 0,-0.63263 0.0666,-1.09879 0.0999,-0.49945 0.23308,-0.79912 0.13319,-0.29967 0.33297,-0.43285 0.23307,-0.13319 0.49945,-0.13319 h 29.96701 q 0.26637,0 0.46615,0.13319 0.23308,0.13318 0.36626,0.43285 0.16649,0.29967 0.23308,0.79912 0.0666,0.46616 0.0666,1.09879 z"
             style="stroke-width:6.92913"
             id="path592" />
          <path
             d="m 206.14884,200.55886 q 0,2.79692 -0.33297,5.66044 -0.33296,2.86351 -1.13208,5.52724 -0.79912,2.63044 -2.16429,4.96121 -1.33186,2.29747 -3.39626,4.0289 -2.0311,1.73142 -4.86131,2.73033 -2.79692,0.9656 -6.52615,0.9656 -1.43176,0 -2.79692,-0.19978 -1.33187,-0.16648 -2.43066,-0.43286 -1.06549,-0.26637 -1.79802,-0.56604 -0.73253,-0.29967 -1.06549,-0.59934 -0.33297,-0.29967 -0.49945,-0.79912 -0.13319,-0.53275 -0.13319,-1.39846 0,-0.73253 0.0333,-1.16539 0.0666,-0.43285 0.16648,-0.66593 0.0999,-0.23308 0.26637,-0.29967 0.19978,-0.0999 0.46616,-0.0999 0.36626,0 1.03219,0.26637 0.66594,0.23308 1.66484,0.53275 1.03219,0.29967 2.39736,0.56604 1.36516,0.23308 3.06329,0.23308 3.22978,0 5.52725,-1.23198 2.33077,-1.26527 3.79582,-3.36296 1.46506,-2.09769 2.19758,-4.86132 0.73253,-2.76362 0.79912,-5.82691 -1.76472,1.03219 -4.22868,1.83131 -2.46395,0.79912 -5.66043,0.79912 -3.59604,0 -6.06,-0.9656 -2.43065,-0.9989 -3.929,-2.69703 -1.46506,-1.69813 -2.13099,-4.0289 -0.63264,-2.33077 -0.63264,-5.09439 0,-2.86352 0.83242,-5.42736 0.83242,-2.59714 2.59714,-4.56164 1.76472,-1.96451 4.49505,-3.12989 2.73033,-1.16539 6.52615,-1.16539 2.69703,0 4.76142,0.69923 2.0977,0.66594 3.62934,1.96451 1.53165,1.26527 2.59714,3.09659 1.0655,1.79802 1.69813,4.09549 0.66594,2.29747 0.93231,4.9945 0.29967,2.66374 0.29967,5.62714 z m -5.82692,-0.63264 q 0,-4.26197 -0.56604,-7.15878 -0.56604,-2.93011 -1.66484,-4.72813 -1.09879,-1.79802 -2.69703,-2.59714 -1.59824,-0.79912 -3.69593,-0.79912 -2.16428,0 -3.69593,0.79912 -1.53165,0.76582 -2.53055,2.09769 -0.9656,1.29857 -1.43175,2.9634 -0.46616,1.66484 -0.46616,3.42956 0,1.96451 0.39956,3.59604 0.43286,1.63154 1.36517,2.76363 0.9323,1.13208 2.43065,1.76472 1.49836,0.59934 3.69594,0.59934 2.49725,0 4.82801,-0.73253 2.33077,-0.76582 4.0289,-1.9978 z"
             style="stroke-width:6.92913"
             id="path594" />
          <path
             d="m 240.47772,221.53577 q 0,0.63263 -0.0999,1.06549 -0.0999,0.43286 -0.26638,0.69923 -0.16648,0.26638 -0.39956,0.39956 -0.19978,0.0999 -0.43286,0.0999 h -22.50855 q -0.23308,0 -0.43286,-0.0999 -0.19978,-0.13318 -0.39956,-0.39956 -0.16648,-0.26637 -0.26637,-0.69923 -0.0999,-0.43286 -0.0999,-1.06549 0,-0.59934 0.0999,-1.0322 0.0999,-0.43286 0.23308,-0.69923 0.16648,-0.29967 0.36626,-0.43286 0.23308,-0.16648 0.49945,-0.16648 h 8.9901 v -32.76393 l -8.32417,4.9612 q -0.63263,0.33297 -1.03219,0.39956 -0.36627,0.0666 -0.59934,-0.13318 -0.23308,-0.23308 -0.33297,-0.73253 -0.0666,-0.49945 -0.0666,-1.26527 0,-0.56605 0.0333,-0.96561 0.0666,-0.39956 0.16649,-0.66593 0.0999,-0.26637 0.26637,-0.46615 0.19978,-0.19978 0.49945,-0.39956 l 9.92241,-6.35967 q 0.13319,-0.0999 0.33297,-0.16648 0.19978,-0.0666 0.49945,-0.13319 0.29967,-0.0666 0.69923,-0.0666 0.39956,-0.0333 0.9989,-0.0333 0.79912,0 1.33186,0.0666 0.53275,0.0666 0.83242,0.19978 0.29967,0.0999 0.39956,0.29967 0.0999,0.16649 0.0999,0.36627 V 219.205 h 7.79142 q 0.26638,0 0.49945,0.16648 0.23308,0.13319 0.36627,0.43286 0.16648,0.26637 0.23308,0.69923 0.0999,0.43286 0.0999,1.0322 z"
             style="stroke-width:6.92913"
             id="path596" />
          <path
             d="m 275.27274,200.55886 q 0,2.79692 -0.33296,5.66044 -0.33297,2.86351 -1.13209,5.52724 -0.79912,2.63044 -2.16429,4.96121 -1.33186,2.29747 -3.39626,4.0289 -2.03109,1.73142 -4.86131,2.73033 -2.79692,0.9656 -6.52615,0.9656 -1.43176,0 -2.79692,-0.19978 -1.33187,-0.16648 -2.43066,-0.43286 -1.06549,-0.26637 -1.79802,-0.56604 -0.73253,-0.29967 -1.06549,-0.59934 -0.33297,-0.29967 -0.49945,-0.79912 -0.13319,-0.53275 -0.13319,-1.39846 0,-0.73253 0.0333,-1.16539 0.0666,-0.43285 0.16648,-0.66593 0.0999,-0.23308 0.26637,-0.29967 0.19978,-0.0999 0.46616,-0.0999 0.36626,0 1.03219,0.26637 0.66594,0.23308 1.66484,0.53275 1.03219,0.29967 2.39736,0.56604 1.36516,0.23308 3.06329,0.23308 3.22978,0 5.52725,-1.23198 2.33077,-1.26527 3.79582,-3.36296 1.46506,-2.09769 2.19758,-4.86132 0.73253,-2.76362 0.79912,-5.82691 -1.76472,1.03219 -4.22867,1.83131 -2.46396,0.79912 -5.66044,0.79912 -3.59604,0 -6.06,-0.9656 -2.43065,-0.9989 -3.929,-2.69703 -1.46506,-1.69813 -2.13099,-4.0289 -0.63264,-2.33077 -0.63264,-5.09439 0,-2.86352 0.83242,-5.42736 0.83242,-2.59714 2.59714,-4.56164 1.76472,-1.96451 4.49505,-3.12989 2.73033,-1.16539 6.52615,-1.16539 2.69703,0 4.76143,0.69923 2.09769,0.66594 3.62933,1.96451 1.53165,1.26527 2.59714,3.09659 1.0655,1.79802 1.69814,4.09549 0.66593,2.29747 0.9323,4.9945 0.29967,2.66374 0.29967,5.62714 z m -5.82692,-0.63264 q 0,-4.26197 -0.56604,-7.15878 -0.56604,-2.93011 -1.66483,-4.72813 -1.09879,-1.79802 -2.69703,-2.59714 -1.59825,-0.79912 -3.69594,-0.79912 -2.16428,0 -3.69593,0.79912 -1.53164,0.76582 -2.53054,2.09769 -0.96561,1.29857 -1.43176,2.9634 -0.46616,1.66484 -0.46616,3.42956 0,1.96451 0.39956,3.59604 0.43286,1.63154 1.36517,2.76363 0.93231,1.13208 2.43066,1.76472 1.49835,0.59934 3.69593,0.59934 2.49725,0 4.82802,-0.73253 2.33076,-0.76582 4.02889,-1.9978 z"
             style="stroke-width:6.92913"
             id="path598" />
          <path
             d="m 309.16876,211.48017 q 0,2.96341 -1.0322,5.36077 -1.03219,2.36406 -2.9634,4.06219 -1.93121,1.69813 -4.76143,2.63044 -2.83021,0.89901 -6.39296,0.89901 -2.16428,0 -4.06219,-0.36626 -1.86462,-0.33297 -3.32967,-0.79912 -1.46506,-0.49946 -2.43066,-0.99891 -0.9656,-0.53274 -1.23198,-0.76582 -0.23307,-0.23308 -0.36626,-0.46615 -0.13319,-0.23308 -0.23308,-0.56605 -0.0999,-0.33296 -0.16648,-0.79912 -0.0333,-0.49945 -0.0333,-1.19868 0,-1.19868 0.23308,-1.66483 0.23308,-0.46615 0.66593,-0.46615 0.29967,0 1.16539,0.53274 0.89901,0.53275 2.26417,1.16539 1.39846,0.59934 3.22978,1.13208 1.86461,0.53275 4.12879,0.53275 2.19758,0 3.86241,-0.56604 1.66484,-0.56605 2.79692,-1.59824 1.13209,-1.0322 1.69813,-2.43066 0.56605,-1.43176 0.56605,-3.09659 0,-1.83132 -0.73253,-3.29637 -0.69923,-1.46506 -2.09769,-2.53055 -1.36516,-1.06549 -3.39626,-1.63154 -1.9978,-0.56604 -4.56165,-0.56604 h -4.09549 q -0.26637,0 -0.53274,-0.0999 -0.23308,-0.13319 -0.43286,-0.39956 -0.16648,-0.26638 -0.29967,-0.69923 -0.0999,-0.43286 -0.0999,-1.13209 0,-0.63264 0.0999,-1.0322 0.0999,-0.43285 0.26637,-0.66593 0.19978,-0.26637 0.43286,-0.36626 0.23308,-0.13319 0.53275,-0.13319 h 3.76252 q 2.19758,0 3.92901,-0.56604 1.76472,-0.56605 2.9634,-1.63154 1.23198,-1.06549 1.86462,-2.53055 0.66593,-1.49835 0.66593,-3.32967 0,-1.33186 -0.43286,-2.53054 -0.43285,-1.23198 -1.29857,-2.13099 -0.86571,-0.89901 -2.23087,-1.39846 -1.33187,-0.53275 -3.0966,-0.53275 -1.9312,0 -3.56274,0.59934 -1.59824,0.56605 -2.86351,1.23198 -1.26528,0.66593 -2.0977,1.26527 -0.83241,0.56605 -1.16538,0.56605 -0.23308,0 -0.43286,-0.0666 -0.16648,-0.0999 -0.29967,-0.33296 -0.0999,-0.26638 -0.16648,-0.69923 -0.0333,-0.46616 -0.0333,-1.19868 0,-0.49945 0.0333,-0.86572 0.0333,-0.39956 0.13319,-0.66593 0.0999,-0.29967 0.23307,-0.53275 0.13319,-0.23308 0.43286,-0.53275 0.33297,-0.33296 1.29857,-0.9323 0.96561,-0.59934 2.36407,-1.16539 1.43175,-0.59934 3.26307,-0.9989 1.86461,-0.39956 3.9956,-0.39956 2.9967,0 5.26088,0.76583 2.26417,0.76582 3.76252,2.16428 1.53165,1.39846 2.26418,3.36297 0.76582,1.9312 0.76582,4.29527 0,2.03109 -0.53275,3.79582 -0.53274,1.73143 -1.56494,3.09659 -1.0322,1.33187 -2.53055,2.29747 -1.49835,0.93231 -3.46285,1.29857 v 0.0666 q 2.23087,0.23308 4.06219,1.13209 1.86461,0.86571 3.19648,2.19758 1.33187,1.33187 2.0644,3.12989 0.76582,1.76472 0.76582,3.79582 z"
             style="stroke-width:6.92913"
             id="path600" />
        </g>
      </g>
      <g
         transform="translate(123.67527,331.10273)"
         id="g69">
        <g
           gorn="0.1.0.3.0"
           id="g56">
          <g
             gorn="0.1.0.3.0.0"
             id="g66">
            <g
               gorn="0.1.0.3.0.0.0"
               id="g57">
              <g
                 gorn="0.1.0.3.0.0.0.0"
                 id="g55">
                <g
                   transform="rotate(-90)"
                   id="g62">
                  <g
                     gorn="0.1.0.3.0.0.0.0.0.0"
                     id="g50">
                    <g
                       gorn="0.1.0.3.0.0.0.0.0.0.0"
                       id="g36">
                      <g
                         gorn="0.1.0.3.0.0.0.0.0.0.0.0"
                         id="g53">
                        <g
                           gorn="0.1.0.3.0.0.0.0.0.0.0.0.0"
                           id="g51">
                          <g
                             aria-label="1"
                             gorn="0.1.0.3.0.0.0.0.0.0.0.0.0.0"
                             id="text49"
                             style="font-size:45px;font-family:OCRA;fill:#ffffff;stroke-width:0">
                            <path
                               d="m 12.524414,0 v -29.11377 q -1.010742,1.010743 -3.4277343,2.263184 -2.3950195,1.252441 -4.4384766,1.757813 v -4.21875 q 2.7026367,-0.747071 5.7788089,-2.373047 3.076172,-1.64795 4.724121,-3.098145 h 1.625976 V 0 Z"
                               gorn="0.1.0.3.0.0.0.0.0.0.0.0.0.0.0"
                               id="path1379" />
                          </g>
                        </g>
                      </g>
                    </g>
                  </g>
                </g>
              </g>
            </g>
          </g>
        </g>
      </g>
      <g
         transform="translate(125.81337,79.854305)"
         id="g85">
        <g
           gorn="0.1.0.4.0"
           id="g68">
          <g
             gorn="0.1.0.4.0.0"
             id="g52">
            <g
               gorn="0.1.0.4.0.0.0"
               id="g67">
              <g
                 gorn="0.1.0.4.0.0.0.0"
                 id="g65">
                <g
                   transform="rotate(-90)"
                   id="g79">
                  <g
                     gorn="0.1.0.4.0.0.0.0.0.0"
                     id="g77">
                    <g
                       gorn="0.1.0.4.0.0.0.0.0.0.0"
                       id="g75">
                      <g
                         gorn="0.1.0.4.0.0.0.0.0.0.0.0"
                         id="g63">
                        <g
                           gorn="0.1.0.4.0.0.0.0.0.0.0.0.0"
                           id="g61">
                          <g
                             aria-label="5"
                             gorn="0.1.0.4.0.0.0.0.0.0.0.0.0.0"
                             id="text59"
                             style="font-size:45px;font-family:OCRA;text-anchor:end;fill:#ffffff;stroke-width:0">
                            <path
                               d="m -3.2299805,-10.50293 q 0,4.9877933 -3.3178711,8.0419925 -3.2958984,3.05419922 -8.8769534,3.05419922 -4.790039,0 -7.141113,-1.42822266 V -5.2294922 q 3.449707,2.2412109 7.03125,2.2412109 3.55957,0 5.7348633,-1.9555664 2.1972656,-1.977539 2.1972656,-5.2294923 0,-3.251953 -2.2851562,-5.053711 -2.2631837,-1.82373 -6.4160157,-1.82373 -3.208008,0 -5.778809,0.285644 l 1.252442,-17.270508 h 15.908203 v 3.779297 H -17.20459 l -0.703125,9.645996 3.098145,-0.131835 q 5.4052731,0 8.481445,2.702636 3.0981445,2.680664 3.0981445,7.536621 z"
                               gorn="0.1.0.4.0.0.0.0.0.0.0.0.0.0.0"
                               id="path1391" />
                          </g>
                        </g>
                      </g>
                    </g>
                  </g>
                </g>
              </g>
            </g>
          </g>
        </g>
      </g>
      <g
         transform="translate(223.67527,331.10273)"
         id="g101">
        <g
           gorn="0.1.0.5.0"
           id="g80">
          <g
             gorn="0.1.0.5.0.0"
             id="g78">
            <g
               gorn="0.1.0.5.0.0.0"
               id="g97">
              <g
                 gorn="0.1.0.5.0.0.0.0"
                 id="g95">
                <g
                   transform="rotate(-90)"
                   id="g93">
                  <g
                     gorn="0.1.0.5.0.0.0.0.0.0"
                     id="g74">
                    <g
                       gorn="0.1.0.5.0.0.0.0.0.0.0"
                       id="g58">
                      <g
                         gorn="0.1.0.5.0.0.0.0.0.0.0.0"
                         id="g73">
                        <g
                           gorn="0.1.0.5.0.0.0.0.0.0.0.0.0"
                           id="g71">
                          <g
                             aria-label="2"
                             gorn="0.1.0.5.0.0.0.0.0.0.0.0.0.0"
                             id="text69"
                             style="font-size:45px;font-family:OCRA;fill:#ffffff;stroke-width:0">
                            <path
                               d="m 18.742676,-25.114746 q 0,-2.746582 -1.73584,-4.306641 -1.73584,-1.582031 -4.724121,-1.582031 -2.109375,0 -4.2626955,1.07666 -2.1533203,1.07666 -4.0209961,3.076172 v -4.174805 q 1.6699219,-1.735839 3.7792969,-2.658691 2.1313477,-0.922852 4.9877927,-0.922852 4.614258,0 7.426758,2.482911 2.8125,2.460937 2.8125,6.679687 0,3.757324 -1.73584,6.503906 -1.713867,2.746582 -5.888672,5.625 -4.262695,2.944336 -5.7128902,4.2187503 -1.4282227,1.2744141 -1.9995118,2.4389649 -0.571289,1.1645507 -0.571289,2.8344726 H 24.016113 V 0 H 2.6147461 v -1.6918945 q 0,-2.944336 0.7910156,-4.987793 0.8129883,-2.0654297 2.6586914,-3.9990235 1.8457031,-1.955566 5.7568359,-4.680176 3.999024,-2.8125 5.449219,-4.921875 1.472168,-2.131347 1.472168,-4.833984 z"
                               gorn="0.1.0.5.0.0.0.0.0.0.0.0.0.0.0"
                               id="path1382" />
                          </g>
                        </g>
                      </g>
                    </g>
                  </g>
                </g>
              </g>
            </g>
          </g>
        </g>
      </g>
      <g
         transform="translate(323.67527,331.10273)"
         id="g119">
        <g
           gorn="0.1.0.6.0"
           id="g108">
          <g
             gorn="0.1.0.6.0.0"
             id="g82">
            <g
               gorn="0.1.0.6.0.0.0"
               id="g115">
              <g
                 gorn="0.1.0.6.0.0.0.0"
                 id="g113">
                <g
                   transform="rotate(-90)"
                   id="g111">
                  <g
                     gorn="0.1.0.6.0.0.0.0.0.0"
                     id="g102">
                    <g
                       gorn="0.1.0.6.0.0.0.0.0.0.0"
                       id="g100">
                      <g
                         gorn="0.1.0.6.0.0.0.0.0.0.0.0"
                         id="g107">
                        <g
                           gorn="0.1.0.6.0.0.0.0.0.0.0.0.0"
                           id="g105">
                          <g
                             aria-label="3"
                             gorn="0.1.0.6.0.0.0.0.0.0.0.0.0.0"
                             id="text89"
                             style="font-size:45px;font-family:OCRA;fill:#ffffff;stroke-width:0">
                            <path
                               d="m 3.1420898,-5.690918 q 3.4936524,2.7026367 7.8881832,2.7026367 3.515625,0 5.559082,-1.7138671 2.06543,-1.7358399 2.06543,-4.6362305 0,-6.4599611 -9.2504881,-6.4599611 H 6.5698242 v -3.55957 h 2.7026367 q 8.1958011,0 8.1958011,-6.064453 0,-5.603028 -6.262207,-5.603028 -3.5815433,0 -6.7456058,2.416993 v -4.064942 q 3.3398438,-1.933594 7.8002928,-1.933594 4.350586,0 6.987305,2.285157 2.636719,2.263183 2.636719,5.888672 0,6.679687 -6.811524,8.591308 v 0.08789 q 3.691406,0.395508 5.822754,2.614746 2.15332,2.197265 2.15332,5.4931639 0,4.5922852 -3.317871,7.4047852 -3.295898,2.81249996 -8.789062,2.81249996 -4.8339846,0 -7.8002932,-1.80175776 z"
                               gorn="0.1.0.6.0.0.0.0.0.0.0.0.0.0.0"
                               id="path1385" />
                          </g>
                        </g>
                      </g>
                    </g>
                  </g>
                </g>
              </g>
            </g>
          </g>
        </g>
      </g>
      <g
         transform="translate(325.81337,79.854305)"
         id="g135">
        <g
           gorn="0.1.0.7.0"
           id="g120">
          <g
             gorn="0.1.0.7.0.0"
             id="g92">
            <g
               gorn="0.1.0.7.0.0.0"
               id="g131">
              <g
                 gorn="0.1.0.7.0.0.0.0"
                 id="g116">
                <g
                   transform="rotate(-90)"
                   id="g128">
                  <g
                     gorn="0.1.0.7.0.0.0.0.0.0"
                     id="g114">
                    <g
                       gorn="0.1.0.7.0.0.0.0.0.0.0"
                       id="g88">
                      <g
                         gorn="0.1.0.7.0.0.0.0.0.0.0.0"
                         id="g103">
                        <g
                           gorn="0.1.0.7.0.0.0.0.0.0.0.0.0"
                           id="g123">
                          <g
                             aria-label="4"
                             gorn="0.1.0.7.0.0.0.0.0.0.0.0.0.0"
                             id="text99"
                             style="font-size:45px;font-family:OCRA;text-anchor:end;fill:#ffffff;stroke-width:0">
                            <path
                               d="m -5.9545898,-34.035645 v 22.478028 h 5.09765621 v 3.5595701 H -5.9545898 V 0 h -4.1748052 v -7.9980469 h -15.88623 v -3.3618161 q 4.240723,-4.768067 8.525391,-10.986328 4.284668,-6.218262 7.075195,-11.689454 z m -15.2270512,22.478028 h 11.052246 v -16.21582 q -2.285156,4.108886 -4.899902,7.976074 -2.614746,3.845215 -6.152344,8.239746 z"
                               gorn="0.1.0.7.0.0.0.0.0.0.0.0.0.0.0"
                               id="path1388" />
                          </g>
                        </g>
                      </g>
                    </g>
                  </g>
                </g>
              </g>
            </g>
          </g>
        </g>
      </g>
    </g>
    <g
       transform="translate(93.04182,337.93428)"
       id="g148">
      <g
         gorn="0.1.1.0"
         id="g181">
        <g
           gorn="0.1.1.0.0"
           id="g179">
          <g
             gorn="0.1.1.0.0.0"
             id="g163">
            <g
               gorn="0.1.1.0.0.0.0"
               id="g161">
              <rect
                 fill="#8d8c8c"
                 gorn="0.1.1.0.0.0.0.0"
                 height="31.9"
                 id="connector0pin"
                 width="31.93"
                 x="0"
                 y="0" />
              <rect
                 fill="#8c8663"
                 gorn="0.1.1.0.0.0.0.1"
                 height="16.415199"
                 id="rect151"
                 width="16.444201"
                 x="7.7915301"
                 y="7.7354398" />
              <polygon
                 fill="#b8af82"
                 gorn="0.1.1.0.0.0.0.2"
                 id="polygon153"
                 points="0,0 0,31.9 7.79153,24.1368 7.79153,6.97162 " />
              <polygon
                 fill="#80795b"
                 gorn="0.1.1.0.0.0.0.3"
                 id="polygon155"
                 points="31.93,0 24.2079,7.76321 7.90264,7.76321 0,0 " />
              <polygon
                 fill="#5e5b43"
                 gorn="0.1.1.0.0.0.0.4"
                 id="polygon157"
                 points="31.93,31.9 24.2079,24.1368 24.2079,7.76321 31.93,0 " />
              <polygon
                 fill="#9a916c"
                 gorn="0.1.1.0.0.0.0.5"
                 id="polygon159"
                 points="31.93,31.9 0,31.9 7.87486,24.1368 24.2079,24.1368 " />
            </g>
          </g>
        </g>
      </g>
    </g>
    <g
       transform="translate(93.031498,39.370079)"
       id="g160">
      <g
         gorn="0.1.2.0"
         id="g192">
        <g
           gorn="0.1.2.0.0"
           id="g154">
          <g
             gorn="0.1.2.0.0.0"
             id="g178">
            <g
               gorn="0.1.2.0.0.0.0"
               id="g176">
              <rect
                 fill="#8d8c8c"
                 gorn="0.1.2.0.0.0.0.0"
                 height="31.9"
                 id="connector4pin"
                 width="31.93"
                 x="0"
                 y="0" />
              <rect
                 fill="#8c8663"
                 gorn="0.1.2.0.0.0.0.1"
                 height="16.415199"
                 id="rect166"
                 width="16.444201"
                 x="7.7915301"
                 y="7.7354398" />
              <polygon
                 fill="#b8af82"
                 gorn="0.1.2.0.0.0.0.2"
                 id="polygon168"
                 points="0,31.9 7.79153,24.1368 7.79153,6.97162 0,0 " />
              <polygon
                 fill="#80795b"
                 gorn="0.1.2.0.0.0.0.3"
                 id="polygon170"
                 points="24.2079,7.76321 7.90264,7.76321 0,0 31.93,0 " />
              <polygon
                 fill="#5e5b43"
                 gorn="0.1.2.0.0.0.0.4"
                 id="polygon172"
                 points="24.2079,24.1368 24.2079,7.76321 31.93,0 31.93,31.9 " />
              <polygon
                 fill="#9a916c"
                 gorn="0.1.2.0.0.0.0.5"
                 id="polygon174"
                 points="0,31.9 7.87486,24.1368 24.2079,24.1368 31.93,31.9 " />
            </g>
          </g>
        </g>
      </g>
    </g>
    <g
       transform="translate(193.04182,337.93428)"
       id="g172">
      <g
         gorn="0.1.3.0"
         id="g203">
        <g
           gorn="0.1.3.0.0"
           id="g164">
          <g
             gorn="0.1.3.0.0.0"
             id="g193">
            <g
               gorn="0.1.3.0.0.0.0"
               id="g191">
              <rect
                 fill="#8d8c8c"
                 gorn="0.1.3.0.0.0.0.0"
                 height="31.9"
                 id="connector1pin"
                 width="31.93"
                 x="0"
                 y="0" />
              <rect
                 fill="#8c8663"
                 gorn="0.1.3.0.0.0.0.1"
                 height="16.415199"
                 id="rect181"
                 width="16.444201"
                 x="7.7915301"
                 y="7.7354398" />
              <polygon
                 fill="#b8af82"
                 gorn="0.1.3.0.0.0.0.2"
                 id="polygon183"
                 points="0,0 0,31.9 7.79153,24.1368 7.79153,6.97162 " />
              <polygon
                 fill="#80795b"
                 gorn="0.1.3.0.0.0.0.3"
                 id="polygon185"
                 points="31.93,0 24.2079,7.76321 7.90264,7.76321 0,0 " />
              <polygon
                 fill="#5e5b43"
                 gorn="0.1.3.0.0.0.0.4"
                 id="polygon187"
                 points="31.93,31.9 24.2079,24.1368 24.2079,7.76321 31.93,0 " />
              <polygon
                 fill="#9a916c"
                 gorn="0.1.3.0.0.0.0.5"
                 id="polygon189"
                 points="31.93,31.9 0,31.9 7.87486,24.1368 24.2079,24.1368 " />
            </g>
          </g>
        </g>
      </g>
    </g>
    <g
       transform="translate(293.04182,337.93428)"
       id="g185">
      <g
         gorn="0.1.4.0"
         id="g225">
        <g
           gorn="0.1.4.0.0"
           id="g184">
          <g
             gorn="0.1.4.0.0.0"
             id="g223">
            <g
               gorn="0.1.4.0.0.0.0"
               id="g221">
              <rect
                 fill="#8d8c8c"
                 gorn="0.1.4.0.0.0.0.0"
                 height="31.9"
                 id="connector2pin"
                 width="31.93"
                 x="0"
                 y="0" />
              <rect
                 fill="#8c8663"
                 gorn="0.1.4.0.0.0.0.1"
                 height="16.415199"
                 id="rect211"
                 width="16.444201"
                 x="7.7915301"
                 y="7.7354398" />
              <polygon
                 fill="#b8af82"
                 gorn="0.1.4.0.0.0.0.2"
                 id="polygon213"
                 points="0,0 0,31.9 7.79153,24.1368 7.79153,6.97162 " />
              <polygon
                 fill="#80795b"
                 gorn="0.1.4.0.0.0.0.3"
                 id="polygon215"
                 points="31.93,0 24.2079,7.76321 7.90264,7.76321 0,0 " />
              <polygon
                 fill="#5e5b43"
                 gorn="0.1.4.0.0.0.0.4"
                 id="polygon217"
                 points="31.93,31.9 24.2079,24.1368 24.2079,7.76321 31.93,0 " />
              <polygon
                 fill="#9a916c"
                 gorn="0.1.4.0.0.0.0.5"
                 id="polygon219"
                 points="31.93,31.9 0,31.9 7.87486,24.1368 24.2079,24.1368 " />
            </g>
          </g>
        </g>
      </g>
    </g>
    <g
       transform="translate(293.03149,39.370079)"
       id="g197">
      <g
         gorn="0.1.5.0"
         id="g237">
        <g
           gorn="0.1.5.0.0"
           id="g194">
          <g
             gorn="0.1.5.0.0.0"
             id="g238">
            <g
               gorn="0.1.5.0.0.0.0"
               id="g236">
              <rect
                 fill="#8d8c8c"
                 gorn="0.1.5.0.0.0.0.0"
                 height="31.9"
                 id="connector3pin"
                 width="31.93"
                 x="0"
                 y="0" />
              <rect
                 fill="#8c8663"
                 gorn="0.1.5.0.0.0.0.1"
                 height="16.415199"
                 id="rect226"
                 width="16.444201"
                 x="7.7915301"
                 y="7.7354398" />
              <polygon
                 fill="#b8af82"
                 gorn="0.1.5.0.0.0.0.2"
                 id="polygon228"
                 points="0,31.9 7.79153,24.1368 7.79153,6.97162 0,0 " />
              <polygon
                 fill="#80795b"
                 gorn="0.1.5.0.0.0.0.3"
                 id="polygon230"
                 points="24.2079,7.76321 7.90264,7.76321 0,0 31.93,0 " />
              <polygon
                 fill="#5e5b43"
                 gorn="0.1.5.0.0.0.0.4"
                 id="polygon232"
                 points="24.2079,24.1368 24.2079,7.76321 31.93,0 31.93,31.9 " />
              <polygon
                 fill="#9a916c"
                 gorn="0.1.5.0.0.0.0.5"
                 id="polygon234"
                 points="0,31.9 7.87486,24.1368 24.2079,24.1368 31.93,31.9 " />
            </g>
          </g>
        </g>
      </g>
    </g>
  </g>
</svg>
