<?xml version="1.0" encoding="UTF-8" standalone="no"?>
<!-- Created with Fritzing (http://www.fritzing.org/) -->

<svg
   height="0.4in"
   version="1.2"
   viewBox="0 0 300 400"
   width="0.3in"
   x="0in"
   y="0in"
   id="svg193"
   sodipodi:docname="svg.breadboard.DW01A_fd6f11bca8e7b1260d23c44b8fe175d2_1_breadboard.svg"
   inkscape:version="1.2.1 (9c6d41e410, 2022-07-14)"
   xmlns:inkscape="http://www.inkscape.org/namespaces/inkscape"
   xmlns:sodipodi="http://sodipodi.sourceforge.net/DTD/sodipodi-0.dtd"
   xmlns="http://www.w3.org/2000/svg"
   xmlns:svg="http://www.w3.org/2000/svg">
  <defs
     id="defs197" />
  <sodipodi:namedview
     id="namedview195"
     pagecolor="#ffffff"
     bordercolor="#000000"
     borderopacity="0.25"
     inkscape:showpageshadow="2"
     inkscape:pageopacity="0.0"
     inkscape:pagecheckerboard="0"
     inkscape:deskcolor="#d1d1d1"
     inkscape:document-units="in"
     showgrid="false"
     inkscape:zoom="26.744791"
     inkscape:cx="-6.2442066"
     inkscape:cy="19.181305"
     inkscape:window-width="3840"
     inkscape:window-height="2036"
     inkscape:window-x="-12"
     inkscape:window-y="-12"
     inkscape:window-maximized="1"
     inkscape:current-layer="icon" />
  <g
     gorn="0.1"
     id="breadboard">
    <g
       gorn="0.1.0"
       id="icon">
      <path
         d="M0,0L0,170A30,30 0 0 1 0,230L0,400L300,400L300,0L0,0z"
         fill="#1F7A34"
         stroke="none"
         stroke-width="0"
         id="path6" />
      <g
         transform="matrix(2.6098669,0,0,2.4442288,-9.7078852,17.425005)"
         id="g38">
        <g
           id="g36">
          <g
             transform="matrix(0.5,0,0,0.5,30,37.4035)"
             id="g34">
            <g
               id="g32">
              <rect
                 connectorname="3"
                 fill="#8c8c8c"
                 height="47.243999"
                 stroke="none"
                 stroke-linecap="round"
                 stroke-width="0"
                 width="21.6535"
                 x="11.7717"
                 y="102.37"
                 id="rect8" />
              <rect
                 connectorname="2"
                 fill="#8c8c8c"
                 height="47.243999"
                 stroke="none"
                 stroke-linecap="round"
                 stroke-width="0"
                 width="21.6535"
                 x="49.173199"
                 y="102.37"
                 id="rect10" />
              <rect
                 connectorname="1"
                 fill="#8c8c8c"
                 height="47.243999"
                 stroke="none"
                 stroke-linecap="round"
                 stroke-width="0"
                 width="21.6535"
                 x="86.574799"
                 y="102.37"
                 id="rect12" />
              <rect
                 connectorname="6"
                 fill="#8c8c8c"
                 height="47.243999"
                 stroke="none"
                 stroke-linecap="round"
                 stroke-width="0"
                 width="21.6535"
                 x="86.574799"
                 y="0"
                 id="rect14" />
              <rect
                 connectorname="4"
                 fill="#8c8c8c"
                 height="47.243999"
                 stroke="none"
                 stroke-linecap="round"
                 stroke-width="0"
                 width="21.6535"
                 x="11.7717"
                 y="0"
                 id="rect16" />
              <rect
                 connectorname="5"
                 fill="#8c8c8c"
                 height="47.243999"
                 stroke="none"
                 stroke-linecap="round"
                 stroke-width="0"
                 width="21.6535"
                 x="49.173199"
                 y="0"
                 id="rect18" />
              <rect
                 fill="#303030"
                 height="71.810997"
                 stroke="none"
                 stroke-width="0"
                 width="120"
                 x="0"
                 y="38.9016"
                 id="rect20" />
              <polygon
                 fill="#1f1f1f"
                 points="120,38.9016 110,48.9016 10,48.9016 0,38.9016 "
                 id="polygon22" />
              <polygon
                 fill="#1f1f1f"
                 points="120,110.713 110,100.713 10,100.713 0,110.713 "
                 id="polygon24" />
              <polygon
                 fill="#000000"
                 points="0,110.713 10,100.713 10,48.9016 0,38.9016 "
                 id="polygon26" />
              <polygon
                 fill="#3d3d3d"
                 points="120,110.713 110,100.713 110,48.9016 120,38.9016 "
                 id="polygon28" />
              <circle
                 cx="30"
                 cy="80.712601"
                 fill="#1f1f1f"
                 r="10"
                 stroke="none"
                 stroke-width="0"
                 id="circle30" />
            </g>
          </g>
        </g>
      </g>
      <g
         aria-label="DW01A"
         id="label"
         style="font-size:65px;font-family:OCRA;fill:#ffffff;stroke-width:0">
        <path
           d="m 79.916088,169.63474 q 0,6.44287 -2.824707,11.67968 -2.792969,5.23682 -7.458496,8.125 -3.237305,1.99951 -7.236328,2.88819 -3.967285,0.88867 -10.473633,0.88867 H 39.98933 v -47.2583 h 11.806641 q 6.918945,0 10.981445,1.01562 4.094239,0.98389 6.918946,2.72949 4.824218,3.01514 7.521972,8.02979 2.697754,5.01465 2.697754,11.90186 z m -6.569824,-0.0952 q 0,-5.5542 -1.936035,-9.36279 -1.936035,-3.8086 -5.776367,-5.99854 -2.792969,-1.58691 -5.935059,-2.18994 -3.14209,-0.63476 -7.521973,-0.63476 h -5.90332 v 36.46728 h 5.90332 q 4.538575,0 7.902832,-0.6665 3.395996,-0.66651 6.220703,-2.47559 3.52295,-2.25342 5.268555,-5.93506 1.777344,-3.68164 1.777344,-9.2041 z"
           id="path487" />
        <path
           d="m 144.44001,145.95798 -12.28271,47.2583 h -7.07764 l -9.93408,-39.22852 -9.71191,39.22852 h -6.918949 l -12.504883,-47.2583 h 6.442871 l 9.934081,39.29199 9.77539,-39.29199 h 6.3794 l 9.8706,39.67285 9.87061,-39.67285 z"
           id="path489" />
        <path
           d="m 184.39851,169.57126 q 0,12.72705 -3.99902,18.69385 -3.96729,5.93505 -12.34619,5.93505 -8.50586,0 -12.44141,-6.03027 -3.90381,-6.03027 -3.90381,-18.53515 0,-12.6001 3.96729,-18.59864 3.96728,-6.03027 12.37793,-6.03027 8.50585,0 12.40966,6.12549 3.93555,6.09375 3.93555,18.43994 z m -8.34717,14.40918 q 1.11084,-2.5708 1.4917,-6.03028 0.4126,-3.49121 0.4126,-8.3789 0,-4.82422 -0.4126,-8.37891 -0.38086,-3.55469 -1.52344,-6.03027 -1.11084,-2.44385 -3.04687,-3.68164 -1.9043,-1.23779 -4.91943,-1.23779 -2.9834,0 -4.95118,1.23779 -1.93603,1.23779 -3.07861,3.74512 -1.0791,2.34863 -1.4917,6.12548 -0.38086,3.77686 -0.38086,8.2837 0,4.95117 0.34912,8.28369 0.34912,3.33252 1.4917,5.96679 1.04736,2.47559 2.95166,3.77686 1.93604,1.30127 5.10987,1.30127 2.98339,0 4.95117,-1.23779 1.96777,-1.2378 3.04687,-3.74512 z"
           id="path491" />
        <path
           d="m 223.08747,193.21628 h -25.58105 v -4.82422 h 9.83887 v -31.67481 h -9.83887 v -4.3164 q 1.99951,0 4.28467,-0.31738 2.28515,-0.34913 3.45947,-0.98389 1.45996,-0.79346 2.28516,-1.99951 0.85693,-1.2378 0.98388,-3.30078 h 4.91944 v 42.59277 h 9.64843 z"
           id="path493" />
        <path
           d="m 273.61482,193.21628 h -6.69678 l -4.63379,-13.17139 H 241.8448 l -4.63379,13.17139 h -6.37939 l 17.20214,-47.2583 h 8.37891 z m -13.2666,-18.5669 -8.28369,-23.20068 -8.31543,23.20068 z"
           id="path495" />
      </g>
      <g
         transform="translate(63.5,326.05)"
         id="g49">
        <g
           id="g47">
          <g
             transform="rotate(-90)"
             id="g45">
            <g
               id="g43">
              <text
                 fill="white"
                 font-family="OCRA"
                 font-size="45"
                 stroke="none"
                 stroke-width="0"
                 text-anchor="start"
                 x="0"
                 y="0"
                 id="text41">1</text>
            </g>
          </g>
        </g>
      </g>
      <g
         transform="translate(63.5,73.95)"
         id="g59">
        <g
           id="g57">
          <g
             transform="rotate(-90)"
             id="g55">
            <g
               id="g53">
              <text
                 fill="white"
                 font-family="OCRA"
                 font-size="45"
                 stroke="none"
                 stroke-width="0"
                 text-anchor="end"
                 x="0"
                 y="0"
                 id="text51">6</text>
            </g>
          </g>
        </g>
      </g>
      <g
         transform="translate(163.5,326.05)"
         id="g69">
        <g
           id="g67">
          <g
             transform="rotate(-90)"
             id="g65">
            <g
               id="g63">
              <text
                 fill="white"
                 font-family="OCRA"
                 font-size="45"
                 stroke="none"
                 stroke-width="0"
                 text-anchor="start"
                 x="0"
                 y="0"
                 id="text61">2</text>
            </g>
          </g>
        </g>
      </g>
      <g
         transform="translate(163.5,73.95)"
         id="g79">
        <g
           id="g77">
          <g
             transform="rotate(-90)"
             id="g75">
            <g
               id="g73">
              <text
                 fill="white"
                 font-family="OCRA"
                 font-size="45"
                 stroke="none"
                 stroke-width="0"
                 text-anchor="end"
                 x="0"
                 y="0"
                 id="text71">5</text>
            </g>
          </g>
        </g>
      </g>
      <g
         transform="translate(263.5,326.05)"
         id="g89">
        <g
           id="g87">
          <g
             transform="rotate(-90)"
             id="g85">
            <g
               id="g83">
              <text
                 fill="white"
                 font-family="OCRA"
                 font-size="45"
                 stroke="none"
                 stroke-width="0"
                 text-anchor="start"
                 x="0"
                 y="0"
                 id="text81">3</text>
            </g>
          </g>
        </g>
      </g>
      <g
         transform="translate(263.5,73.95)"
         id="g99">
        <g
           id="g97">
          <g
             transform="rotate(-90)"
             id="g95">
            <g
               id="g93">
              <text
                 fill="white"
                 font-family="OCRA"
                 font-size="45"
                 stroke="none"
                 stroke-width="0"
                 text-anchor="end"
                 x="0"
                 y="0"
                 id="text91">4</text>
            </g>
          </g>
        </g>
      </g>
    </g>
    <g
       transform="translate(34.035,334.05)"
       id="g115">
      <g
         id="g113">
        <rect
           fill="#8D8C8C"
           gorn="0.1.1.0.0"
           height="31.9"
           id="connector0pin"
           width="31.93"
           x="0"
           y="0" />
        <rect
           fill="#8C8663"
           height="16.4152"
           width="16.4442"
           x="7.79153"
           y="7.73544"
           id="rect103" />
        <polygon
           fill="#B8AF82"
           points="0,31.9,7.79153,24.1368,7.79153,6.97162,0,0"
           id="polygon105" />
        <polygon
           fill="#80795B"
           points="24.2079,7.76321,7.90264,7.76321,0,0,31.93,0"
           id="polygon107" />
        <polygon
           fill="#5E5B43"
           points="24.2079,24.1368,24.2079,7.76321,31.93,0,31.93,31.9"
           id="polygon109" />
        <polygon
           fill="#9A916C"
           points="0,31.9,7.87486,24.1368,24.2079,24.1368,31.93,31.9"
           id="polygon111" />
      </g>
    </g>
    <g
       transform="translate(34.035,34.05)"
       id="g130">
      <g
         id="g128">
        <rect
           fill="#8D8C8C"
           gorn="0.1.2.0.0"
           height="31.9"
           id="connector5pin"
           width="31.93"
           x="0"
           y="0" />
        <rect
           fill="#8C8663"
           height="16.4152"
           width="16.4442"
           x="7.79153"
           y="7.73544"
           id="rect118" />
        <polygon
           fill="#B8AF82"
           points="0,31.9,7.79153,24.1368,7.79153,6.97162,0,0"
           id="polygon120" />
        <polygon
           fill="#80795B"
           points="24.2079,7.76321,7.90264,7.76321,0,0,31.93,0"
           id="polygon122" />
        <polygon
           fill="#5E5B43"
           points="24.2079,24.1368,24.2079,7.76321,31.93,0,31.93,31.9"
           id="polygon124" />
        <polygon
           fill="#9A916C"
           points="0,31.9,7.87486,24.1368,24.2079,24.1368,31.93,31.9"
           id="polygon126" />
      </g>
    </g>
    <g
       transform="translate(134.035,334.05)"
       id="g145">
      <g
         id="g143">
        <rect
           fill="#8D8C8C"
           gorn="0.1.3.0.0"
           height="31.9"
           id="connector1pin"
           width="31.93"
           x="0"
           y="0" />
        <rect
           fill="#8C8663"
           height="16.4152"
           width="16.4442"
           x="7.79153"
           y="7.73544"
           id="rect133" />
        <polygon
           fill="#B8AF82"
           points="0,31.9,7.79153,24.1368,7.79153,6.97162,0,0"
           id="polygon135" />
        <polygon
           fill="#80795B"
           points="24.2079,7.76321,7.90264,7.76321,0,0,31.93,0"
           id="polygon137" />
        <polygon
           fill="#5E5B43"
           points="24.2079,24.1368,24.2079,7.76321,31.93,0,31.93,31.9"
           id="polygon139" />
        <polygon
           fill="#9A916C"
           points="0,31.9,7.87486,24.1368,24.2079,24.1368,31.93,31.9"
           id="polygon141" />
      </g>
    </g>
    <g
       transform="translate(134.035,34.05)"
       id="g160">
      <g
         id="g158">
        <rect
           fill="#8D8C8C"
           gorn="0.1.4.0.0"
           height="31.9"
           id="connector4pin"
           width="31.93"
           x="0"
           y="0" />
        <rect
           fill="#8C8663"
           height="16.4152"
           width="16.4442"
           x="7.79153"
           y="7.73544"
           id="rect148" />
        <polygon
           fill="#B8AF82"
           points="0,31.9,7.79153,24.1368,7.79153,6.97162,0,0"
           id="polygon150" />
        <polygon
           fill="#80795B"
           points="24.2079,7.76321,7.90264,7.76321,0,0,31.93,0"
           id="polygon152" />
        <polygon
           fill="#5E5B43"
           points="24.2079,24.1368,24.2079,7.76321,31.93,0,31.93,31.9"
           id="polygon154" />
        <polygon
           fill="#9A916C"
           points="0,31.9,7.87486,24.1368,24.2079,24.1368,31.93,31.9"
           id="polygon156" />
      </g>
    </g>
    <g
       transform="translate(234.035,334.05)"
       id="g175">
      <g
         id="g173">
        <rect
           fill="#8D8C8C"
           gorn="0.1.5.0.0"
           height="31.9"
           id="connector2pin"
           width="31.93"
           x="0"
           y="0" />
        <rect
           fill="#8C8663"
           height="16.4152"
           width="16.4442"
           x="7.79153"
           y="7.73544"
           id="rect163" />
        <polygon
           fill="#B8AF82"
           points="0,31.9,7.79153,24.1368,7.79153,6.97162,0,0"
           id="polygon165" />
        <polygon
           fill="#80795B"
           points="24.2079,7.76321,7.90264,7.76321,0,0,31.93,0"
           id="polygon167" />
        <polygon
           fill="#5E5B43"
           points="24.2079,24.1368,24.2079,7.76321,31.93,0,31.93,31.9"
           id="polygon169" />
        <polygon
           fill="#9A916C"
           points="0,31.9,7.87486,24.1368,24.2079,24.1368,31.93,31.9"
           id="polygon171" />
      </g>
    </g>
    <g
       transform="translate(234.035,34.05)"
       id="g190">
      <g
         id="g188">
        <rect
           fill="#8D8C8C"
           gorn="0.1.6.0.0"
           height="31.9"
           id="connector3pin"
           width="31.93"
           x="0"
           y="0" />
        <rect
           fill="#8C8663"
           height="16.4152"
           width="16.4442"
           x="7.79153"
           y="7.73544"
           id="rect178" />
        <polygon
           fill="#B8AF82"
           points="0,31.9,7.79153,24.1368,7.79153,6.97162,0,0"
           id="polygon180" />
        <polygon
           fill="#80795B"
           points="24.2079,7.76321,7.90264,7.76321,0,0,31.93,0"
           id="polygon182" />
        <polygon
           fill="#5E5B43"
           points="24.2079,24.1368,24.2079,7.76321,31.93,0,31.93,31.9"
           id="polygon184" />
        <polygon
           fill="#9A916C"
           points="0,31.9,7.87486,24.1368,24.2079,24.1368,31.93,31.9"
           id="polygon186" />
      </g>
    </g>
  </g>
</svg>
