<?xml version="1.0" encoding="UTF-8" standalone="no"?>
<!-- This xml file is generated through a template. Please don't edit it directly -->

<svg
   gorn="0"
   height="10.204724"
   id="Layer_1"
   version="1.1"
   viewBox="0 0 19.653544 10.204724"
   width="19.653543"
   x="0px"
   xml:space="preserve"
   y="0px"
   xmlns="http://www.w3.org/2000/svg"
   xmlns:svg="http://www.w3.org/2000/svg"><defs
     id="defs435" /><desc
     id="desc417" /><rect
     gorn="0.2"
     height="9.4488192"
     id="connector0pad"
     style="fill:#e3e2db;fill-opacity:1;stroke:none;stroke-width:0"
     width="2.2677166"
     x="0.37795377"
     y="0.37795186" /><rect
     gorn="0.3"
     height="9.4488192"
     id="connector1pad"
     style="fill:#e3e2db;fill-opacity:1;stroke:none;stroke-width:0"
     width="2.2677166"
     x="17.007874"
     y="0.37795186" /><rect
     gorn="0.4"
     height="10.204724"
     id="silkscreen"
     style="fill:none;stroke:none;stroke-width:0.426997;stroke-opacity:1"
     width="19.653543"
     x="0"
     y="0" /><rect
     gorn="0.5"
     height="9.4488192"
     id="rect787"
     style="opacity:0.75;fill:#000000;fill-rule:evenodd;stroke:none;stroke-width:1.30945"
     width="14.362205"
     x="2.6456692"
     y="0.37795275" /><g
     aria-label="8R20"
     transform="scale(0.95976493,1.0419218)"
     id="text361"
     style="font-size:4.86014px;font-family:'HarmonyOS Sans SC';-inkscape-font-specification:'HarmonyOS Sans SC';opacity:1;fill:#ffffff;fill-rule:evenodd;stroke:#ffffff;stroke-width:0.118087;stroke-miterlimit:3.9"><path
       d="m 6.5263475,4.77457 q 0.277028,0.1263637 0.4325525,0.3693707 0.1603846,0.243007 0.1603846,0.558916 0,0.3013287 -0.1458042,0.5443357 -0.140944,0.2381469 -0.4033916,0.3790909 -0.2575874,0.1360839 -0.5929371,0.1360839 -0.3450699,0 -0.6075174,-0.1360839 Q 5.1071867,6.4901994 4.9613825,6.2471924 4.8155783,6.0041854 4.8155783,5.7028567 q 0,-0.315909 0.1555245,-0.558916 Q 5.1314874,4.9009337 5.4133755,4.77457 5.1898091,4.6579267 5.0634454,4.4635211 4.9370818,4.2642554 4.9370818,4.0163882 q 0,-0.2527273 0.1312238,-0.4665734 0.1312238,-0.2138462 0.3693706,-0.3353497 0.2381469,-0.1263636 0.5394755,-0.1263636 0.2964686,0 0.5248951,0.1263636 0.2332868,0.1215035 0.3596504,0.3353497 0.1263636,0.208986 0.1263636,0.4665734 0,0.2478672 -0.1215035,0.4471329 Q 6.7450538,4.6579267 6.5263475,4.77457 Z M 5.9771517,3.4671924 q -0.2721678,0 -0.4325524,0.1555245 -0.1555245,0.1555245 -0.1555245,0.4082517 0,0.2478672 0.1555245,0.4033916 0.1603846,0.1555245 0.4325524,0.1555245 0.2673077,0 0.4228322,-0.1555245 0.1555245,-0.1603846 0.1555245,-0.4033916 0,-0.2478671 -0.1555245,-0.4033916 Q 6.2444594,3.4671924 5.9771517,3.4671924 Z m 0,2.9063636 q 0.311049,0 0.5005944,-0.1846853 0.1895455,-0.1846853 0.1895455,-0.5005944 0,-0.3207692 -0.1846853,-0.5103147 Q 6.297921,4.9884162 5.9771517,4.9884162 q -0.3256293,0 -0.5151748,0.1895454 -0.1846853,0.1895455 -0.1846853,0.5103147 0,0.3207693 0.1895455,0.5054546 0.1895454,0.1798251 0.5103146,0.1798251 z"
       id="path294" /><path
       d="M 10.47278,6.7089057 H 9.9430244 L 8.9126747,5.2508637 H 8.8689335 8.2079544 v 1.458042 H 7.775402 V 3.1512833 h 1.0935315 q 0.3645104,0 0.6463986,0.1312238 0.2867482,0.1312238 0.4422727,0.3742308 0.1603842,0.2381468 0.1603842,0.5491958 0,0.34993 -0.1992653,0.6075175 Q 9.7194579,5.0661784 9.3695279,5.1779616 Z M 8.2079544,3.5303742 v 1.3413986 h 0.6075175 q 0.4131119,0 0.6269581,-0.1798251 0.2187062,-0.1846854 0.2187062,-0.486014 0,-0.3013287 -0.2187062,-0.486014 Q 9.2285838,3.5303742 8.8154719,3.5303742 Z"
       id="path296" /><path
       d="m 11.376766,6.3249546 h 1.608707 V 6.7089057 H 10.715787 V 6.4318777 L 11.86764,5.1488008 q 0.32563,-0.3596503 0.447133,-0.5637762 0.121504,-0.208986 0.121504,-0.451993 0,-0.311049 -0.170105,-0.4811539 -0.170105,-0.1701049 -0.427692,-0.1701049 -0.262448,0 -0.461714,0.1798252 -0.199265,0.174965 -0.286748,0.4665734 l -0.34993,-0.1992657 q 0.106923,-0.3985315 0.422832,-0.6172378 0.315909,-0.2235664 0.70472,-0.2235664 0.281888,0 0.515175,0.1215035 0.233287,0.1166434 0.369371,0.3499301 0.140944,0.2284265 0.140944,0.5540559 0,0.3159091 -0.155525,0.5977972 -0.155524,0.2818881 -0.544335,0.7095804 z"
       id="path298" /><path
       d="m 15.784911,4.9300945 q 0,0.903986 -0.301328,1.3705594 -0.296469,0.4617133 -0.855385,0.4617133 -0.554056,0 -0.855385,-0.4665734 -0.296468,-0.4665734 -0.296468,-1.3656993 0,-0.903986 0.296468,-1.3705594 0.301329,-0.4714336 0.855385,-0.4714336 0.558916,0 0.855385,0.4665734 0.301328,0.4665735 0.301328,1.3754196 z m -1.846853,0 q 0,0.7241609 0.165245,1.0789511 0.170105,0.3547902 0.524895,0.3547902 0.35479,0 0.524895,-0.3499301 0.170105,-0.3547902 0.170105,-1.0838112 0,-0.7338811 -0.170105,-1.0886713 -0.170105,-0.3596504 -0.524895,-0.3596504 -0.35479,0 -0.524895,0.3596504 -0.165245,0.3547902 -0.165245,1.0886713 z"
       id="path300" /></g></svg>
