<?xml version="1.0" encoding="UTF-8" standalone="no"?>
<svg
   gorn="0"
   height="29.702366"
   id="Layer_1"
   version="1.2"
   viewBox="0 0 18.031494 33.002628"
   width="16.228346"
   x="0px"
   xml:space="preserve"
   y="0px"
   sodipodi:docname="svg.breadboard.PC817_9ee982c12a8813a71e233e10b9406004_1_breadboard.svg"
   inkscape:version="1.2.1 (9c6d41e410, 2022-07-14)"
   xmlns:inkscape="http://www.inkscape.org/namespaces/inkscape"
   xmlns:sodipodi="http://sodipodi.sourceforge.net/DTD/sodipodi-0.dtd"
   xmlns="http://www.w3.org/2000/svg"
   xmlns:svg="http://www.w3.org/2000/svg"><defs
     id="defs271" /><sodipodi:namedview
     id="namedview269"
     pagecolor="#ffffff"
     bordercolor="#000000"
     borderopacity="0.25"
     inkscape:showpageshadow="2"
     inkscape:pageopacity="0.0"
     inkscape:pagecheckerboard="0"
     inkscape:deskcolor="#d1d1d1"
     showgrid="false"
     inkscape:zoom="34.57637"
     inkscape:cx="2.8053841"
     inkscape:cy="14.836722"
     inkscape:window-width="3840"
     inkscape:window-height="2036"
     inkscape:window-x="-12"
     inkscape:window-y="-12"
     inkscape:window-maximized="1"
     inkscape:current-layer="g152" /><g
     gorn="0.0"
     id="breadboard"><g
       gorn="0.0.4"
       id="g6605"><rect
         gorn="0.0.4.0"
         height="4.3400002"
         id="connector0pin"
         style="fill:#8c8c8c"
         width="3"
         x="2.5144427"
         y="28.662626" /><rect
         gorn="0.0.4.1"
         height="4.3400002"
         id="connector1pin"
         style="fill:#8c8c8c"
         width="3"
         x="12.514442"
         y="28.662626" /><rect
         gorn="0.0.4.2"
         height="4.3400002"
         id="connector3pin"
         style="fill:#8c8c8c"
         width="3"
         x="2.5144427"
         y="0.037584879" /><rect
         gorn="0.0.4.3"
         height="3"
         id="connector0terminal"
         style="fill:#8c8c8c"
         width="3"
         x="2.5144427"
         y="30.002626" /><rect
         gorn="0.0.4.4"
         height="3"
         id="connector1terminal"
         style="fill:#8c8c8c"
         width="3"
         x="12.514442"
         y="30.002626" /><rect
         gorn="0.0.4.5"
         height="3"
         id="connector2terminal"
         style="fill:#8c8c8c"
         width="3"
         x="12.514442"
         y="0.0026272479" /><rect
         gorn="0.0.4.6"
         height="3"
         id="connector3terminal"
         style="fill:#8c8c8c"
         width="3"
         x="2.5144427"
         y="0.0026272479" /><g
         transform="matrix(0.60104985,0,0,1,-8.6238307e-7,0.00262725)"
         id="g81"><g
           id="g79"><g
             id="g77"><g
               id="g75"><g
                 id="g73"><polygon
                   gorn="0.0.4.11.0.0.0.0.0"
                   id="polygon3332"
                   points="0,11.5 0,3 30,3 29.25,11.5 "
                   style="fill:#3d3d3d;fill-opacity:1" /></g></g></g></g></g><g
         transform="matrix(0.60104985,0,0,1,-8.6238307e-7,0.00262725)"
         id="g92"><g
           id="g90"><g
             id="g88"><g
               id="g86"><g
                 id="g84"><polygon
                   gorn="0.0.4.12.0.0.0.0.0"
                   id="polygon3334"
                   points="0,30 0,21.5 29.25,21.5 30,30 "
                   style="fill:#000000;fill-opacity:1" /></g></g></g></g></g><g
         transform="translate(-0.98555704,0.00262725)"
         id="g103"><g
           id="g101"><g
             id="g99"><g
               id="g97"><g
                 id="g95"><polygon
                   gorn="0.0.4.13.0.0.0.0.0"
                   id="polygon3336"
                   points="6.5,2.34 3.5,2.34 3.5,4.34 8.5,4.34 8.5,3.26 "
                   style="fill:#8c8c8c" /></g></g></g></g></g><g
         transform="translate(-10.983335,0.02010606)"
         id="g114"><g
           id="g112"><g
             id="g110"><g
               id="g108"><g
                 id="g106"><polygon
                   gorn="0.0.4.14.0.0.0.0.0"
                   id="polygon3340"
                   points="21.5,3.26 21.5,4.34 26.5,4.34 26.5,2.34 23.5,2.34 "
                   style="fill:#8c8c8c" /></g></g></g></g></g><g
         transform="translate(-0.98555715,0.00262725)"
         id="g125"><g
           id="g123"><g
             id="g121"><g
               id="g119"><g
                 id="g117"><polygon
                   gorn="0.0.4.15.0.0.0.0.0"
                   id="polygon3342"
                   points="6.5,30.66 8.5,29.74 8.5,28.66 3.5,28.66 3.5,30.66 "
                   style="fill:#8c8c8c" /></g></g></g></g></g><g
         transform="translate(-10.983439,0.00262725)"
         id="g136"><g
           id="g134"><g
             id="g132"><g
               id="g130"><g
                 id="g128"><polygon
                   gorn="0.0.4.16.0.0.0.0.0"
                   id="polygon3344"
                   points="26.5,30.66 26.5,28.66 21.5,28.66 21.5,29.74 23.5,30.66 "
                   style="fill:#8c8c8c" /></g></g></g></g></g><g
         transform="translate(-11.972988,-0.01485156)"
         id="g147"><g
           id="g145"><g
             id="g143"><g
               id="g141"><g
                 id="g139"><polygon
                   gorn="0.0.4.17.0.0.0.0.0"
                   id="polygon3348"
                   points="28.438,27.53 29.25,27.54 30,30 30,3 29.25,5.46 28.438,5.46 "
                   style="fill:#141414;fill-opacity:1" /></g></g></g></g></g><g
         transform="translate(-8.6238307e-7,0.00262725)"
         id="g158"><g
           id="g156"><g
             id="g154"><g
               id="g152"><g
                 id="g150"><polygon
                   gorn="0.0.4.18.0.0.0.0.0"
                   id="polygon3350"
                   points="0.75,11.5 5,11.5 5,21.5 0.75,21.5 0.75,27.54 0,30 0,3 0.75,5.46 "
                   style="fill:#1f1f1f;fill-opacity:1" /></g></g></g></g></g><rect
         fill="#303030"
         fill-opacity="1"
         gorn="0.0.4.19"
         height="22.070866"
         id="rect6573"
         stroke="none"
         stroke-opacity="1"
         stroke-width="0.1"
         style="opacity:1;fill-rule:evenodd;stroke-linecap:butt;stroke-linejoin:round;stroke-miterlimit:4;stroke-dasharray:none;stroke-dashoffset:0;"
         width="16.468504"
         x="0.74977905"
         y="5.4621944" /><circle
         cx="3.666666"
         cy="24.083735"
         gorn="0.0.4.20"
         id="circle3360"
         r="1.4488889"
         style="fill:#3d3d3d;fill-opacity:1" /><rect
         gorn="0.0.4.21"
         height="3.9429872"
         id="connector2pin"
         style="fill:none"
         width="2.283637"
         x="12.70319"
         y="0.27918559" /><rect
         gorn="0.0.4.22"
         height="4.3400002"
         id="rect44"
         style="fill:#8c8c8c"
         width="3"
         x="12.514442"
         y="0" /><g
         transform="matrix(0,-0.99999991,1.0000001,0,0,0)"
         id="g264"><g
           id="g262"><g
             id="g260"><g
               id="g258"><g
                 id="g256"><g
                   fill="#e6e6e6"
                   fill-opacity="1"
                   font-size="6.17284"
                   gorn="0.0.4.24.0.0.0.0.0"
                   id="text6569"
                   stroke="none"
                   stroke-opacity="1"
                   stroke-width="1.11111"
                   style="font-style:normal;font-weight:normal;line-height:125%;font-family:Droid Sans;letter-spacing:0px;word-spacing:0px;stroke-linecap:butt;stroke-linejoin:miter;"><path
                     d="m -20.292998,8.3706268 q 0,0.18514 -0.05697,0.3560384 -0.05493,0.1708985 -0.183106,0.3031413 -0.128174,0.1302083 -0.339762,0.209554 -0.209554,0.077311 -0.518799,0.077311 l -0.305176,0 0,1.1576333 -0.378418,0 0,-2.9744463 0.736491,0 q 0.272624,0 0.469971,0.059001 0.197347,0.056966 0.325521,0.1688639 0.128174,0.1098633 0.189209,0.2726237 0.06104,0.1627604 0.06104,0.3702799 z m -1.403809,0.6245931 0.262452,0 q 0.189209,0 0.329589,-0.032552 0.142416,-0.032552 0.233968,-0.1037597 0.09359,-0.073242 0.140381,-0.1871745 0.04679,-0.1159668 0.04679,-0.2807617 0,-0.2888997 -0.166829,-0.4272461 -0.16683,-0.1403808 -0.520834,-0.1403808 l -0.325521,0 0,1.1718749 z"
                     gorn="0.0.4.24.0.0.0.0.0.0"
                     id="path6595"
                     style="font-style:normal;font-variant:normal;font-weight:normal;font-stretch:normal;font-size:4.16666651px;font-family:'Droid Droid Sans';-inkscape-font-specification:'Droid Droid Sans';fill:#e6e6e6;fill-opacity:1" /><path
                     d="m -18.506703,7.7907929 q -0.217692,0 -0.394694,0.083415 -0.177002,0.08138 -0.303141,0.2360026 -0.124105,0.1546224 -0.193278,0.3763834 -0.06714,0.2217611 -0.06714,0.5004883 0,0.2868652 0.059,0.5106608 0.06104,0.221761 0.181071,0.3743489 0.120036,0.1525884 0.299072,0.2319334 0.179037,0.07935 0.419108,0.07935 0.181071,0 0.343832,-0.03459 0.16276,-0.03662 0.321452,-0.08341 l 0,0.329589 q -0.07935,0.03052 -0.158692,0.05493 -0.07935,0.02238 -0.166829,0.03662 -0.08545,0.01424 -0.18514,0.02035 -0.09766,0.0081 -0.217692,0.0081 -0.333659,0 -0.5778,-0.109863 -0.24414,-0.109863 -0.404866,-0.311279 -0.158692,-0.2014163 -0.236003,-0.4842125 -0.07731,-0.2827962 -0.07731,-0.6266276 0,-0.3377279 0.08748,-0.6184896 0.08952,-0.2807617 0.260416,-0.4821777 0.172933,-0.201416 0.427246,-0.3133138 0.254314,-0.1118978 0.583903,-0.1118978 0.219727,0 0.419108,0.044759 0.199382,0.044759 0.360108,0.1302083 l -0.158692,0.3173828 q -0.128173,-0.065104 -0.278727,-0.1118978 -0.150553,-0.046794 -0.341797,-0.046794 z"
                     gorn="0.0.4.24.0.0.0.0.0.1"
                     id="path6597"
                     style="font-style:normal;font-variant:normal;font-weight:normal;font-stretch:normal;font-size:4.16666651px;font-family:'Droid Droid Sans';-inkscape-font-specification:'Droid Droid Sans';fill:#e6e6e6;fill-opacity:1" /><path
                     d="m -16.455921,7.453065 q 0.170898,0 0.321451,0.044759 0.152588,0.044759 0.266521,0.1342774 0.115966,0.089518 0.183105,0.2237955 0.06714,0.1342774 0.06714,0.3133138 0,0.1363119 -0.04069,0.2461752 -0.04069,0.1098632 -0.111898,0.1993815 -0.07121,0.087484 -0.168864,0.1586914 -0.09766,0.069173 -0.211589,0.1261393 0.118002,0.06307 0.229899,0.1403808 0.113933,0.077311 0.201416,0.1749675 0.08952,0.095622 0.142416,0.2156575 0.05493,0.1200358 0.05493,0.2685547 0,0.1871745 -0.06917,0.3397623 -0.06714,0.150553 -0.191243,0.256348 -0.12207,0.105794 -0.295003,0.16276 -0.170899,0.05697 -0.378418,0.05697 -0.223796,0 -0.398763,-0.05493 -0.172933,-0.05493 -0.292969,-0.156657 -0.118001,-0.10376 -0.181071,-0.252279 -0.06104,-0.1485188 -0.06104,-0.3356933 0,-0.1525878 0.04476,-0.2746582 0.04679,-0.1220703 0.124105,-0.2197265 0.07731,-0.097656 0.183105,-0.1729329 0.105794,-0.075277 0.223796,-0.1322429 -0.09969,-0.06307 -0.187175,-0.1363118 -0.08748,-0.075277 -0.152588,-0.1668294 -0.06307,-0.091553 -0.101725,-0.201416 -0.03662,-0.1118978 -0.03662,-0.2461752 0,-0.1770019 0.06714,-0.3092448 0.06917,-0.1342773 0.18514,-0.2237955 0.115966,-0.089518 0.26652,-0.1342774 0.152588,-0.044759 0.317383,-0.044759 z m -0.569662,2.2664387 q 0,0.1078288 0.03255,0.1993816 0.03255,0.089518 0.101726,0.1546227 0.06917,0.06307 0.174967,0.09969 0.105794,0.03459 0.252279,0.03459 0.142415,0 0.250244,-0.03459 0.109863,-0.03662 0.183105,-0.101725 0.07324,-0.06714 0.109863,-0.1607258 0.03662,-0.093587 0.03662,-0.2075195 0,-0.1057943 -0.04069,-0.1912435 -0.03866,-0.085449 -0.113932,-0.1586914 -0.07324,-0.073242 -0.177002,-0.1383463 -0.10376,-0.065104 -0.231933,-0.1281738 l -0.06104,-0.028483 q -0.256347,0.1220703 -0.386555,0.2807617 -0.130209,0.1566569 -0.130209,0.3804524 z m 0.565593,-1.9571939 q -0.215658,0 -0.343832,0.1078288 -0.126139,0.1078288 -0.126139,0.3133138 0,0.1159668 0.03459,0.1993815 0.03662,0.083415 0.09969,0.1485189 0.06307,0.065104 0.150554,0.1180013 0.08952,0.050863 0.193278,0.099691 0.09766,-0.044759 0.183105,-0.097656 0.08748,-0.052897 0.150553,-0.1200358 0.0651,-0.067139 0.101726,-0.1525879 0.03662,-0.085449 0.03662,-0.1953125 0,-0.205485 -0.128174,-0.3133138 -0.128174,-0.1078288 -0.351969,-0.1078288 z"
                     gorn="0.0.4.24.0.0.0.0.0.2"
                     id="path6599"
                     style="font-style:normal;font-variant:normal;font-weight:normal;font-stretch:normal;font-size:4.16666651px;font-family:'Droid Droid Sans';-inkscape-font-specification:'Droid Droid Sans';fill:#e6e6e6;fill-opacity:1" /><path
                     d="m -13.863962,10.474305 -0.358073,0 0,-1.857503 q 0,-0.087484 0,-0.1871745 0.002,-0.099691 0.0041,-0.197347 0.0041,-0.099691 0.0061,-0.189209 0.0041,-0.091553 0.0061,-0.1607259 -0.03459,0.036621 -0.06104,0.06307 -0.02645,0.026449 -0.05493,0.050863 -0.02645,0.024414 -0.05697,0.052897 -0.03052,0.026449 -0.07324,0.06307 l -0.301106,0.2461751 -0.195313,-0.2502441 0.779215,-0.608317 0.305176,0 0,2.9744463 z"
                     gorn="0.0.4.24.0.0.0.0.0.3"
                     id="path6601"
                     style="font-style:normal;font-variant:normal;font-weight:normal;font-stretch:normal;font-size:4.16666651px;font-family:'Droid Droid Sans';-inkscape-font-specification:'Droid Droid Sans';fill:#e6e6e6;fill-opacity:1" /><path
                     d="m -12.443878,10.474305 1.145427,-2.6367185 -1.534017,0 0,-0.3377278 1.912435,0 0,0.2950032 -1.129151,2.6794431 -0.394694,0 z"
                     gorn="0.0.4.24.0.0.0.0.0.4"
                     id="path6603"
                     style="font-style:normal;font-variant:normal;font-weight:normal;font-stretch:normal;font-size:4.16666651px;font-family:'Droid Droid Sans';-inkscape-font-specification:'Droid Droid Sans';fill:#e6e6e6;fill-opacity:1" /></g></g></g></g></g></g></g></g></svg>
