<?xml version="1.0" encoding="UTF-8" standalone="no"?>
<svg
   width="12.5mm"
   height="17.6mm"
   viewBox="0 0 49.212039 69.290085"
   version="1.1"
   id="svg1932"
   xmlns="http://www.w3.org/2000/svg"
   xmlns:svg="http://www.w3.org/2000/svg">
  <defs
     id="defs1936">
    <marker
       orient="auto"
       refY="0"
       refX="0"
       id="DimmArrow_Start_n00001"
       style="overflow:visible">
      <path
         d="M 0,0 -10,1.76327 V -1.76327 Z"
         style="fill:#000000;fill-opacity:1;fill-rule:evenodd;stroke:none;stroke-width:1;stroke-opacity:1"
         transform="rotate(180,-5,0)"
         id="path678" />
    </marker>
    <marker
       orient="auto"
       refY="0"
       refX="0"
       id="DimmArrow_End_n00001"
       style="overflow:visible">
      <path
         d="M 0,0 -10,1.76327 V -1.76327 Z"
         style="fill:#000000;fill-opacity:1;fill-rule:evenodd;stroke:none;stroke-width:1;stroke-opacity:1"
         transform="translate(10)"
         id="path681" />
    </marker>
    <marker
       orient="auto"
       refY="0"
       refX="0"
       id="DimmArrow_Start_n00002"
       style="overflow:visible">
      <path
         d="M 0,0 -10,1.76327 V -1.76327 Z"
         style="fill:#000000;fill-opacity:1;fill-rule:evenodd;stroke:none;stroke-width:1;stroke-opacity:1"
         transform="rotate(180,-5,0)"
         id="path1947" />
    </marker>
    <marker
       orient="auto"
       refY="0"
       refX="0"
       id="DimmArrow_End_n00002"
       style="overflow:visible">
      <path
         d="M 0,0 -10,1.76327 V -1.76327 Z"
         style="fill:#000000;fill-opacity:1;fill-rule:evenodd;stroke:none;stroke-width:1;stroke-opacity:1"
         transform="translate(10)"
         id="path1950" />
    </marker>
    <marker
       orient="auto"
       refY="0"
       refX="0"
       id="DimmArrow_Start_n00003"
       style="overflow:visible">
      <path
         d="M 0,0 -10,1.76327 V -1.76327 Z"
         style="fill:#000000;fill-opacity:1;fill-rule:evenodd;stroke:none;stroke-width:1;stroke-opacity:1"
         transform="rotate(180,-5,0)"
         id="path7694" />
    </marker>
    <marker
       orient="auto"
       refY="0"
       refX="0"
       id="DimmArrow_End_n00003"
       style="overflow:visible">
      <path
         d="M 0,0 -10,1.76327 V -1.76327 Z"
         style="fill:#000000;fill-opacity:1;fill-rule:evenodd;stroke:none;stroke-width:1;stroke-opacity:1"
         transform="translate(10)"
         id="path7697" />
    </marker>
    <marker
       orient="auto"
       refY="0"
       refX="0"
       id="DimmArrow_Start_n00004"
       style="overflow:visible">
      <path
         d="M 0,0 -10,1.76327 V -1.76327 Z"
         style="fill:#000000;fill-opacity:1;fill-rule:evenodd;stroke:none;stroke-width:1;stroke-opacity:1"
         transform="rotate(180,-5,0)"
         id="path8686" />
    </marker>
    <marker
       orient="auto"
       refY="0"
       refX="0"
       id="DimmArrow_End_n00004"
       style="overflow:visible">
      <path
         d="M 0,0 -10,1.76327 V -1.76327 Z"
         style="fill:#000000;fill-opacity:1;fill-rule:evenodd;stroke:none;stroke-width:1;stroke-opacity:1"
         transform="translate(10)"
         id="path8689" />
    </marker>
    <marker
       orient="auto"
       refY="0"
       refX="0"
       id="DimmArrow_Start_n00005"
       style="overflow:visible">
      <path
         d="M 0,0 -10,1.76327 V -1.76327 Z"
         style="fill:#000000;fill-opacity:1;fill-rule:evenodd;stroke:none;stroke-width:1;stroke-opacity:1"
         transform="rotate(180,-5,0)"
         id="path9674" />
    </marker>
    <marker
       orient="auto"
       refY="0"
       refX="0"
       id="DimmArrow_End_n00005"
       style="overflow:visible">
      <path
         d="M 0,0 -10,1.76327 V -1.76327 Z"
         style="fill:#000000;fill-opacity:1;fill-rule:evenodd;stroke:none;stroke-width:1;stroke-opacity:1"
         transform="translate(10)"
         id="path9677" />
    </marker>
    <marker
       orient="auto"
       refY="0"
       refX="0"
       id="DimmArrow_Start_n00006"
       style="overflow:visible">
      <path
         d="M 0,0 -10,1.76327 V -1.76327 Z"
         style="fill:#000000;fill-opacity:1;fill-rule:evenodd;stroke:none;stroke-width:1;stroke-opacity:1"
         transform="rotate(180,-5,0)"
         id="path11576" />
    </marker>
    <marker
       orient="auto"
       refY="0"
       refX="0"
       id="DimmArrow_End_n00006"
       style="overflow:visible">
      <path
         d="M 0,0 -10,1.76327 V -1.76327 Z"
         style="fill:#000000;fill-opacity:1;fill-rule:evenodd;stroke:none;stroke-width:1;stroke-opacity:1"
         transform="translate(10)"
         id="path11579" />
    </marker>
    <marker
       orient="auto"
       refY="0"
       refX="0"
       id="DimmArrow_Start_n00007"
       style="overflow:visible">
      <path
         d="M 0,0 -10,1.76327 V -1.76327 Z"
         style="fill:#000000;fill-opacity:1;fill-rule:evenodd;stroke:none;stroke-width:1;stroke-opacity:1"
         transform="rotate(180,-5,0)"
         id="path13980" />
    </marker>
    <marker
       orient="auto"
       refY="0"
       refX="0"
       id="DimmArrow_End_n00007"
       style="overflow:visible">
      <path
         d="M 0,0 -10,1.76327 V -1.76327 Z"
         style="fill:#000000;fill-opacity:1;fill-rule:evenodd;stroke:none;stroke-width:1;stroke-opacity:1"
         transform="translate(10)"
         id="path13983" />
    </marker>
    <marker
       orient="auto"
       refY="0"
       refX="0"
       id="DimmArrow_Start_n00008"
       style="overflow:visible">
      <path
         d="M 0,0 -10,1.76327 V -1.76327 Z"
         style="fill:#000000;fill-opacity:1;fill-rule:evenodd;stroke:none;stroke-width:1;stroke-opacity:1"
         transform="rotate(180,-5,0)"
         id="path14218" />
    </marker>
    <marker
       orient="auto"
       refY="0"
       refX="0"
       id="DimmArrow_End_n00008"
       style="overflow:visible">
      <path
         d="M 0,0 -10,1.76327 V -1.76327 Z"
         style="fill:#000000;fill-opacity:1;fill-rule:evenodd;stroke:none;stroke-width:1;stroke-opacity:1"
         transform="translate(10)"
         id="path14221" />
    </marker>
    <marker
       orient="auto"
       refY="0"
       refX="0"
       id="DimmArrow_Start_n00009"
       style="overflow:visible">
      <path
         d="M 0,0 -10,1.76327 V -1.76327 Z"
         style="fill:#000000;fill-opacity:1;fill-rule:evenodd;stroke:none;stroke-width:1;stroke-opacity:1"
         transform="rotate(180,-5,0)"
         id="path16504" />
    </marker>
    <marker
       orient="auto"
       refY="0"
       refX="0"
       id="DimmArrow_End_n00009"
       style="overflow:visible">
      <path
         d="M 0,0 -10,1.76327 V -1.76327 Z"
         style="fill:#000000;fill-opacity:1;fill-rule:evenodd;stroke:none;stroke-width:1;stroke-opacity:1"
         transform="translate(10)"
         id="path16507" />
    </marker>
    <marker
       orient="auto"
       refY="0"
       refX="0"
       id="DimmArrow_Start_n00010"
       style="overflow:visible">
      <path
         d="M 0,0 -10,1.76327 V -1.76327 Z"
         style="fill:#000000;fill-opacity:1;fill-rule:evenodd;stroke:none;stroke-width:1;stroke-opacity:1"
         transform="rotate(180,-5,0)"
         id="path27846" />
    </marker>
    <marker
       orient="auto"
       refY="0"
       refX="0"
       id="DimmArrow_End_n00010"
       style="overflow:visible">
      <path
         d="M 0,0 -10,1.76327 V -1.76327 Z"
         style="fill:#000000;fill-opacity:1;fill-rule:evenodd;stroke:none;stroke-width:1;stroke-opacity:1"
         transform="translate(10)"
         id="path27849" />
    </marker>
  </defs>
  <title
     id="title1896" />
  <style
     type="text/css"
     id="style1898">
*[layerid=&quot;1&quot;] {stroke:#000000;fill:#000000;}
*[layerid=&quot;2&quot;] {stroke:#000000;fill:#000000;}
*[layerid=&quot;3&quot;] {stroke:#000000;fill:#000000;}
*[layerid=&quot;4&quot;] {stroke:#000000;fill:#000000;}
*[layerid=&quot;5&quot;] {stroke:#000000;fill:#000000;}
*[layerid=&quot;6&quot;] {stroke:#000000;fill:#000000;}
*[layerid=&quot;7&quot;] {stroke:#000000;fill:#000000;}
*[layerid=&quot;8&quot;] {stroke:#000000;fill:#000000;}
*[layerid=&quot;9&quot;] {stroke:#000000;fill:#000000;}
*[layerid=&quot;10&quot;] {stroke:#000000;fill:#000000;}
*[layerid=&quot;11&quot;] {stroke:#000000;fill:#000000;}
*[layerid=&quot;12&quot;] {stroke:#000000;fill:#000000;}
*[layerid=&quot;13&quot;] {stroke:#000000;fill:#000000;}
*[layerid=&quot;14&quot;] {stroke:#000000;fill:#000000;}
*[layerid=&quot;15&quot;] {stroke:#000000;fill:#000000;}
*[layerid=&quot;19&quot;] {stroke:#000000;fill:#000000;}
*[layerid=&quot;21&quot;] {stroke:#000000;fill:#000000;}
*[layerid=&quot;22&quot;] {stroke:#000000;fill:#000000;}
*[layerid=&quot;23&quot;] {stroke:#000000;fill:#000000;}
*[layerid=&quot;24&quot;] {stroke:#000000;fill:#000000;}
*[layerid=&quot;25&quot;] {stroke:#000000;fill:#000000;}
*[layerid=&quot;26&quot;] {stroke:#000000;fill:#000000;}
*[layerid=&quot;27&quot;] {stroke:#000000;fill:#000000;}
*[layerid=&quot;28&quot;] {stroke:#000000;fill:#000000;}
*[layerid=&quot;29&quot;] {stroke:#000000;fill:#000000;}
*[layerid=&quot;30&quot;] {stroke:#000000;fill:#000000;}
*[layerid=&quot;31&quot;] {stroke:#000000;fill:#000000;}
*[layerid=&quot;32&quot;] {stroke:#000000;fill:#000000;}
*[layerid=&quot;33&quot;] {stroke:#000000;fill:#000000;}
*[layerid=&quot;34&quot;] {stroke:#000000;fill:#000000;}
*[layerid=&quot;35&quot;] {stroke:#000000;fill:#000000;}
*[layerid=&quot;36&quot;] {stroke:#000000;fill:#000000;}
*[layerid=&quot;37&quot;] {stroke:#000000;fill:#000000;}
*[layerid=&quot;38&quot;] {stroke:#000000;fill:#000000;}
*[layerid=&quot;39&quot;] {stroke:#000000;fill:#000000;}
*[layerid=&quot;40&quot;] {stroke:#000000;fill:#000000;}
*[layerid=&quot;41&quot;] {stroke:#000000;fill:#000000;}
*[layerid=&quot;42&quot;] {stroke:#000000;fill:#000000;}
*[layerid=&quot;43&quot;] {stroke:#000000;fill:#000000;}
*[layerid=&quot;44&quot;] {stroke:#000000;fill:#000000;}
*[layerid=&quot;45&quot;] {stroke:#000000;fill:#000000;}
*[layerid=&quot;46&quot;] {stroke:#000000;fill:#000000;}
*[layerid=&quot;47&quot;] {stroke:#000000;fill:#000000;}
*[layerid=&quot;48&quot;] {stroke:#000000;fill:#000000;}
*[layerid=&quot;49&quot;] {stroke:#000000;fill:#000000;}
*[layerid=&quot;50&quot;] {stroke:#000000;fill:#000000;}
*[layerid=&quot;51&quot;] {stroke:#000000;fill:#000000;}
*[layerid=&quot;52&quot;] {stroke:#000000;fill:#000000;}
*[layerid=&quot;99&quot;] {stroke:#000000;fill:#000000;}
*[layerid=&quot;100&quot;] {stroke:#000000;fill:#000000;}
*[layerid=&quot;101&quot;] {stroke:#000000;fill:#000000;}
*[layerid=&quot;Hole&quot;] {stroke:#000000;fill:#000000;}
*[layerid=&quot;DRCError&quot;] {stroke:#000000;fill:#000000;}
*[fill=&quot;none&quot;] {fill: none;}
*[stroke=&quot;none&quot;] {stroke: none;}
path, polyline, polygon, line {stroke-linecap:round;}
g[c_partid=&quot;part_pad&quot;][layerid=&quot;1&quot;] ellipse:not([c_etype=&quot;pad_outer&quot;]) {fill:#000000;}
g[c_partid=&quot;part_pad&quot;][layerid=&quot;1&quot;] polygon:not([c_etype=&quot;pad_outer&quot;]) {fill:#000000;}
g[c_partid=&quot;part_pad&quot;][layerid=&quot;1&quot;] polyline:not([c_etype=&quot;pad_outer&quot;]) {stroke:#000000;}
g[c_partid=&quot;part_pad&quot;][layerid=&quot;2&quot;] ellipse:not([c_etype=&quot;pad_outer&quot;]) {fill:#000000;}
g[c_partid=&quot;part_pad&quot;][layerid=&quot;2&quot;] polygon:not([c_etype=&quot;pad_outer&quot;]) {fill:#000000;}
g[c_partid=&quot;part_pad&quot;][layerid=&quot;2&quot;] polyline:not([c_etype=&quot;pad_outer&quot;]) {stroke:#000000;}
g[c_partid=&quot;part_pad&quot;][layerid=&quot;11&quot;] ellipse:not([c_etype=&quot;pad_outer&quot;]) {fill:#000000;}
g[c_partid=&quot;part_pad&quot;][layerid=&quot;11&quot;] polygon:not([c_etype=&quot;pad_outer&quot;]) {fill:#000000;}
g[c_partid=&quot;part_pad&quot;][layerid=&quot;11&quot;] polyline:not([c_etype=&quot;pad_outer&quot;]) {stroke:#000000;}
g[c_partid=&quot;part_pad&quot;][layerid=&quot;11&quot;] circle {fill:#FFFFFF;}
g[c_partid=&quot;part_pad&quot;][layerid=&quot;11&quot;] &gt; polyline:nth-of-type(2) {stroke:#FFFFFF;}
g[c_partid=&quot;part_pad&quot;][layerid=&quot;11&quot;][c_shape=&quot;ELLIPSE&quot;]  polyline:nth-last-of-type(1) {stroke:#FFFFFF;}
g[c_partid=&quot;part_pad&quot;][layerid=&quot;11&quot;][c_shape=&quot;RECT&quot;]  polyline:nth-last-of-type(1) {stroke:#FFFFFF;}
g[c_partid=&quot;part_pad&quot;][layerid=&quot;11&quot;][c_shape=&quot;POLYGON&quot;]  polyline:nth-last-of-type(1) {stroke:#FFFFFF;}
g[c_partid=&quot;part_via&quot;] &gt; * + circle, #gCurParts g[c_partid=&quot;part_via&quot;] &gt; * + circle {fill:#FFFFFF;}
g[c_partid=&quot;part_pad&quot;] &gt; polygon[c_etype=&quot;pad_outer&quot;], #gCurParts g[c_partid=&quot;part_pad&quot;] &gt; polygon[c_etype=&quot;pad_outer&quot;] {stroke-linejoin: round;stroke-miterlimit: 100;}
g[c_partid=&quot;part_hole&quot;] &gt; circle {fill: #FFFFFF;}path, polyline, polygon {stroke-linejoin:round;}
rect, circle, ellipse, polyline, line, polygon, path {shape-rendering:crispEdges;}
</style>
  <g
     id="copper1"
     transform="translate(-4004.0355,-2927.8671)">
    <g
       id="copper0">
      <g
         c_partid="part_pad"
         c_etype="pinpart"
         c_origin="4014.5,2981.98"
         layerid="11"
         number="2"
         net=""
         plated="Y"
         id="connector3pin"
         locked="0"
         c_rotation="0"
         c_width="7.0866"
         c_height="7.0866"
         title="N.O."
         c_shape="ELLIPSE"
         pasteexpansion="0"
         solderexpansion="0.1575"
         style="fill:none;stroke:none"
         transform="translate(-0.18930312,0.18930312)">
        <path
           id="ellipse1912"
           style="fill:#000000;stroke-width:0;stroke-linecap:round;stroke-linejoin:round;shape-rendering:crispEdges"
           d="m 4018.0433,2981.98 a 3.5432999,3.5432999 0 0 1 -3.5433,3.5433 3.5432999,3.5432999 0 0 1 -3.5433,-3.5433 3.5432999,3.5432999 0 0 1 3.5433,-3.5433 3.5432999,3.5432999 0 0 1 3.5433,3.5433 z" />
        <path
           id="circle1914"
           style="fill:#ffffff;stroke-width:0;stroke-linecap:round;stroke-linejoin:round;shape-rendering:crispEdges"
           d="m 4016.4685,2981.98 a 1.9685,1.9685 0 0 1 -1.9685,1.9685 1.9685,1.9685 0 0 1 -1.9685,-1.9685 1.9685,1.9685 0 0 1 1.9685,-1.9685 1.9685,1.9685 0 0 1 1.9685,1.9685 z" />
      </g>
      <g
         c_partid="part_pad"
         c_etype="pinpart"
         c_origin="4044.5,2961.98"
         layerid="11"
         number="1."
         net=""
         plated="Y"
         id="connector2pin"
         locked="0"
         c_rotation="0"
         c_width="7.0866"
         c_height="7.0866"
         title=""
         c_shape="RECT"
         pasteexpansion="0"
         solderexpansion="0.1575"
         transform="translate(-0.18930312,0.18930312)"
         style="fill:#000000;stroke:#000000">
        <path
           id="polygon1907"
           style="stroke-width:0;stroke-linecap:round;stroke-linejoin:round;shape-rendering:crispEdges"
           d="m 4040.9567,2965.5233 v -7.0866 h 7.0866 v 7.0866 z" />
        <path
           id="circle1909"
           style="fill:#ffffff;stroke-width:0;stroke-linecap:round;stroke-linejoin:round;shape-rendering:crispEdges"
           d="m 4046.4685,2961.98 a 1.9685,1.9685 0 0 1 -1.9685,1.9685 1.9685,1.9685 0 0 1 -1.9685,-1.9685 1.9685,1.9685 0 0 1 1.9685,-1.9685 1.9685,1.9685 0 0 1 1.9685,1.9685 z" />
      </g>
      <g
         c_partid="part_pad"
         c_etype="pinpart"
         c_origin="4014.5,2961.98"
         layerid="11"
         number="1"
         net=""
         plated="Y"
         id="connector1pin"
         locked="0"
         c_rotation="0"
         c_width="7.0866"
         c_height="7.0866"
         title=""
         c_shape="RECT"
         pasteexpansion="0"
         solderexpansion="0.1575"
         transform="translate(-0.18930312,0.18930312)"
         style="fill:#000000;stroke:#000000">
        <path
           id="polygon1902"
           style="stroke-width:0;stroke-linecap:round;stroke-linejoin:round;shape-rendering:crispEdges"
           d="m 4010.9567,2965.5233 v -7.0866 h 7.0866 v 7.0866 z" />
        <path
           id="circle1904"
           style="fill:#ffffff;stroke-width:0;stroke-linecap:round;stroke-linejoin:round;shape-rendering:crispEdges"
           d="m 4016.4685,2961.98 a 1.9685,1.9685 0 0 1 -1.9685,1.9685 1.9685,1.9685 0 0 1 -1.9685,-1.9685 1.9685,1.9685 0 0 1 1.9685,-1.9685 1.9685,1.9685 0 0 1 1.9685,1.9685 z" />
      </g>
      <g
         c_partid="part_pad"
         c_etype="pinpart"
         c_origin="4044.5,2981.98"
         layerid="11"
         number="3"
         net=""
         plated="Y"
         id="connector4pin"
         locked="0"
         c_rotation="0"
         c_width="7.0866"
         c_height="7.0866"
         title="NC"
         c_shape="ELLIPSE"
         pasteexpansion="0"
         solderexpansion="0.1575"
         style="fill:none;stroke:none"
         transform="translate(-0.18930312,0.18930312)">
        <path
           id="ellipse1917"
           style="fill:#000000;stroke-width:0;stroke-linecap:round;stroke-linejoin:round;shape-rendering:crispEdges"
           d="m 4048.0433,2981.98 a 3.5432999,3.5432999 0 0 1 -3.5433,3.5433 3.5432999,3.5432999 0 0 1 -3.5433,-3.5433 3.5432999,3.5432999 0 0 1 3.5433,-3.5433 3.5432999,3.5432999 0 0 1 3.5433,3.5433 z" />
        <path
           id="circle1919"
           style="fill:#ffffff;stroke-width:0;stroke-linecap:round;stroke-linejoin:round;shape-rendering:crispEdges"
           d="m 4046.4685,2981.98 a 1.9685,1.9685 0 0 1 -1.9685,1.9685 1.9685,1.9685 0 0 1 -1.9685,-1.9685 1.9685,1.9685 0 0 1 1.9685,-1.9685 1.9685,1.9685 0 0 1 1.9685,1.9685 z" />
      </g>
    </g>
  </g>
  <g
     id="silkscreen"
     transform="translate(-3994.381,-2918.7805)">
    <rect
       style="fill:none;fill-rule:evenodd;stroke:#000000;stroke-width:0.590544;stroke-dasharray:none;paint-order:stroke fill markers;shape-rendering:crispEdges"
       id="rect34334"
       width="49.408115"
       height="68.811684"
       x="3994.5505"
       y="2919.1184" />
    <g
       c_partid="part_hole"
       c_etype="pinpart"
       c_shapetype="group"
       c_origin="4014.5,2992"
       layerid="11"
       id="gge271"
       locked="0"
       transform="translate(-9.6836031,-8.1905734)"
       style="fill:#000000;stroke:#000000">
      <path
         id="circle1925"
         style="fill:#ffffff;fill-opacity:0;stroke-linecap:round;stroke-linejoin:round;shape-rendering:crispEdges"
         d="m 4016.8622,2992 a 2.3622,2.3622 0 0 1 -2.3622,2.3622 2.3622,2.3622 0 0 1 -2.3622,-2.3622 2.3622,2.3622 0 0 1 2.3622,-2.3622 2.3622,2.3622 0 0 1 2.3622,2.3622 z" />
    </g>
    <g
       c_partid="part_hole"
       c_etype="pinpart"
       c_shapetype="group"
       c_origin="4044.5,2931.96"
       layerid="11"
       id="gge256"
       locked="0"
       transform="translate(-9.7782547,-9.0424374)"
       style="fill:#000000;stroke:#000000">
      <path
         id="circle1922"
         style="fill:#ffffff;fill-opacity:0;stroke-linecap:round;stroke-linejoin:round;shape-rendering:crispEdges"
         d="m 4046.8622,2931.96 a 2.3622,2.3622 0 0 1 -2.3622,2.3622 2.3622,2.3622 0 0 1 -2.3622,-2.3622 2.3622,2.3622 0 0 1 2.3622,-2.3622 2.3622,2.3622 0 0 1 2.3622,2.3622 z" />
    </g>
    <g
       aria-label="COM"
       id="text31164"
       style="font-size:3.47218px;-inkscape-font-specification:'sans-serif, Normal';fill:none;fill-rule:evenodd;stroke:#000000;stroke-width:0.590544;paint-order:stroke fill markers">
      <path
         d="m 4032.7778,2947.7534 q -0.093,0.041 -0.1695,0.076 -0.075,0.036 -0.1967,0.075 -0.1034,0.032 -0.2255,0.054 -0.1204,0.024 -0.2662,0.024 -0.2746,0 -0.5001,-0.076 -0.2238,-0.078 -0.39,-0.2424 -0.1627,-0.1611 -0.2543,-0.4086 -0.091,-0.2493 -0.091,-0.5782 0,-0.3119 0.088,-0.5577 0.088,-0.2459 0.2544,-0.4154 0.161,-0.1645 0.3882,-0.2509 0.2289,-0.086 0.5069,-0.086 0.2035,0 0.4052,0.049 0.2035,0.049 0.451,0.1729 v 0.3984 h -0.025 q -0.2086,-0.1746 -0.4137,-0.2543 -0.2051,-0.08 -0.4391,-0.08 -0.1916,0 -0.3459,0.063 -0.1526,0.061 -0.2729,0.1916 -0.117,0.1272 -0.1831,0.3222 -0.064,0.1932 -0.064,0.4475 0,0.2662 0.071,0.4578 0.073,0.1916 0.1865,0.312 0.1187,0.1254 0.2764,0.1864 0.1594,0.059 0.3357,0.059 0.2424,0 0.4543,-0.083 0.212,-0.083 0.3968,-0.2492 h 0.024 z"
         id="path33842"
         style="stroke-linecap:round;stroke-linejoin:round;shape-rendering:crispEdges" />
      <path
         d="m 4035.1344,2945.702 q 0.1543,0.1695 0.2357,0.4154 0.083,0.2458 0.083,0.5577 0,0.312 -0.085,0.5595 -0.083,0.2459 -0.234,0.4103 -0.156,0.1713 -0.3696,0.2577 -0.2119,0.086 -0.4849,0.086 -0.2661,0 -0.4849,-0.088 -0.217,-0.088 -0.3696,-0.256 -0.1525,-0.1678 -0.2356,-0.412 -0.081,-0.2441 -0.081,-0.5578 0,-0.3085 0.081,-0.5527 0.081,-0.2458 0.2373,-0.4204 0.1492,-0.1662 0.3696,-0.2543 0.2221,-0.088 0.4832,-0.088 0.2713,0 0.4866,0.09 0.217,0.088 0.3679,0.2526 z m -0.03,0.9731 q 0,-0.4916 -0.2204,-0.7578 -0.2204,-0.2679 -0.6019,-0.2679 -0.3848,0 -0.6052,0.2679 -0.2187,0.2662 -0.2187,0.7578 0,0.4968 0.2238,0.7613 0.2237,0.2628 0.6001,0.2628 0.3764,0 0.5985,-0.2628 0.2238,-0.2645 0.2238,-0.7613 z"
         id="path33844"
         style="stroke-linecap:round;stroke-linejoin:round;shape-rendering:crispEdges" />
      <path
         d="m 4038.2336,2947.9365 h -0.3357 v -2.1752 l -0.7019,1.4801 h -0.2 l -0.6968,-1.4801 v 2.1752 h -0.3137 v -2.5244 h 0.4578 l 0.673,1.4055 0.6511,-1.4055 h 0.4662 z"
         id="path33846"
         style="stroke-linecap:round;stroke-linejoin:round;shape-rendering:crispEdges" />
    </g>
    <g
       aria-label="N.C."
       id="text31163"
       style="font-size:3.47218px;-inkscape-font-specification:'sans-serif, Normal';fill:none;fill-rule:evenodd;stroke:#000000;stroke-width:0.590544;paint-order:stroke fill markers">
      <path
         d="m 4033.1327,2968.4758 h -0.4153 l -1.197,-2.2582 v 2.2582 h -0.3136 v -2.5244 h 0.5204 l 1.0919,2.0616 v -2.0616 h 0.3136 z"
         id="path33849"
         style="stroke-linecap:round;stroke-linejoin:round;shape-rendering:crispEdges" />
      <path
         d="m 4034.2992,2968.4758 h -0.4052 v -0.4832 h 0.4052 z"
         id="path33851"
         style="stroke-linecap:round;stroke-linejoin:round;shape-rendering:crispEdges" />
      <path
         d="m 4037.0169,2968.2927 q -0.093,0.041 -0.1695,0.076 -0.075,0.036 -0.1967,0.075 -0.1034,0.032 -0.2255,0.054 -0.1204,0.024 -0.2662,0.024 -0.2746,0 -0.5001,-0.076 -0.2238,-0.078 -0.39,-0.2424 -0.1627,-0.1611 -0.2543,-0.4086 -0.091,-0.2492 -0.091,-0.5782 0,-0.3119 0.088,-0.5577 0.088,-0.2459 0.2543,-0.4154 0.1611,-0.1645 0.3883,-0.2509 0.2289,-0.086 0.5069,-0.086 0.2035,0 0.4052,0.049 0.2035,0.049 0.451,0.1729 v 0.3984 h -0.025 q -0.2086,-0.1746 -0.4137,-0.2543 -0.2052,-0.08 -0.4391,-0.08 -0.1916,0 -0.3459,0.063 -0.1526,0.061 -0.2729,0.1915 -0.117,0.1272 -0.1831,0.3222 -0.064,0.1932 -0.064,0.4475 0,0.2662 0.071,0.4578 0.073,0.1916 0.1865,0.312 0.1187,0.1254 0.2764,0.1865 0.1593,0.059 0.3357,0.059 0.2424,0 0.4543,-0.083 0.212,-0.083 0.3968,-0.2492 h 0.024 z"
         id="path33853"
         style="stroke-linecap:round;stroke-linejoin:round;shape-rendering:crispEdges" />
      <path
         d="m 4037.9867,2968.4758 h -0.4052 v -0.4832 h 0.4052 z"
         id="path33855"
         style="stroke-linecap:round;stroke-linejoin:round;shape-rendering:crispEdges" />
    </g>
    <g
       aria-label="COM"
       id="text31162"
       style="font-size:3.47218px;-inkscape-font-specification:'sans-serif, Normal';fill:none;fill-rule:evenodd;stroke:#000000;stroke-width:0.590544;paint-order:stroke fill markers">
      <path
         d="m 4002.8681,2948.1321 q -0.093,0.041 -0.1695,0.076 -0.075,0.036 -0.1967,0.075 -0.1034,0.032 -0.2255,0.054 -0.1203,0.024 -0.2661,0.024 -0.2747,0 -0.5002,-0.076 -0.2238,-0.078 -0.3899,-0.2425 -0.1628,-0.161 -0.2543,-0.4086 -0.092,-0.2492 -0.092,-0.5781 0,-0.312 0.088,-0.5578 0.088,-0.2458 0.2543,-0.4154 0.1611,-0.1644 0.3882,-0.2509 0.2289,-0.086 0.507,-0.086 0.2034,0 0.4052,0.049 0.2034,0.049 0.4509,0.173 v 0.3984 h -0.025 q -0.2085,-0.1747 -0.4137,-0.2543 -0.2051,-0.08 -0.4391,-0.08 -0.1916,0 -0.3458,0.063 -0.1526,0.061 -0.273,0.1916 -0.117,0.1271 -0.1831,0.3221 -0.064,0.1933 -0.064,0.4476 0,0.2662 0.071,0.4578 0.073,0.1915 0.1865,0.3119 0.1186,0.1255 0.2763,0.1865 0.1594,0.059 0.3357,0.059 0.2425,0 0.4544,-0.083 0.2119,-0.083 0.3967,-0.2493 h 0.024 z"
         id="path33835"
         style="stroke-linecap:round;stroke-linejoin:round;shape-rendering:crispEdges" />
      <path
         d="m 4005.2247,2946.0806 q 0.1543,0.1696 0.2357,0.4154 0.083,0.2459 0.083,0.5578 0,0.312 -0.085,0.5595 -0.083,0.2458 -0.234,0.4103 -0.1559,0.1712 -0.3696,0.2577 -0.2119,0.086 -0.4848,0.086 -0.2662,0 -0.4849,-0.088 -0.217,-0.088 -0.3696,-0.256 -0.1526,-0.1679 -0.2357,-0.412 -0.081,-0.2441 -0.081,-0.5578 0,-0.3086 0.081,-0.5527 0.081,-0.2458 0.2374,-0.4205 0.1492,-0.1661 0.3696,-0.2543 0.2221,-0.088 0.4832,-0.088 0.2712,0 0.4865,0.09 0.2171,0.088 0.3679,0.2526 z m -0.031,0.9732 q 0,-0.4917 -0.2204,-0.7578 -0.2204,-0.2679 -0.6018,-0.2679 -0.3849,0 -0.6053,0.2679 -0.2187,0.2661 -0.2187,0.7578 0,0.4968 0.2238,0.7612 0.2238,0.2628 0.6002,0.2628 0.3763,0 0.5984,-0.2628 0.2238,-0.2644 0.2238,-0.7612 z"
         id="path33837"
         style="stroke-linecap:round;stroke-linejoin:round;shape-rendering:crispEdges" />
      <path
         d="m 4008.3239,2948.3152 h -0.3357 v -2.1752 l -0.7019,1.4801 h -0.2 l -0.6968,-1.4801 v 2.1752 h -0.3137 v -2.5245 h 0.4578 l 0.6731,1.4055 0.651,-1.4055 h 0.4662 z"
         id="path33839"
         style="stroke-linecap:round;stroke-linejoin:round;shape-rendering:crispEdges" />
    </g>
    <g
       aria-label="N.O."
       id="text31161"
       style="font-size:3.47218px;-inkscape-font-specification:'sans-serif, Normal';fill:none;fill-rule:evenodd;stroke:#000000;stroke-width:0.590544;paint-order:stroke fill markers">
      <path
         d="m 4003.1281,2968.4761 h -0.4154 l -1.1969,-2.2583 v 2.2583 h -0.3137 v -2.5245 h 0.5205 l 1.0918,2.0616 v -2.0616 h 0.3137 z"
         id="path33826"
         style="stroke-linecap:round;stroke-linejoin:round;shape-rendering:crispEdges" />
      <path
         d="m 4004.2945,2968.4761 h -0.4052 v -0.4832 h 0.4052 z"
         id="path33828"
         style="stroke-linecap:round;stroke-linejoin:round;shape-rendering:crispEdges" />
      <path
         d="m 4006.9444,2966.2415 q 0.1543,0.1696 0.2357,0.4154 0.083,0.2458 0.083,0.5578 0,0.312 -0.085,0.5595 -0.083,0.2458 -0.234,0.4103 -0.1559,0.1712 -0.3696,0.2577 -0.2119,0.086 -0.4848,0.086 -0.2662,0 -0.4849,-0.088 -0.217,-0.088 -0.3696,-0.256 -0.1526,-0.1679 -0.2357,-0.412 -0.081,-0.2442 -0.081,-0.5578 0,-0.3086 0.081,-0.5527 0.081,-0.2458 0.2374,-0.4205 0.1492,-0.1661 0.3696,-0.2543 0.2221,-0.088 0.4832,-0.088 0.2712,0 0.4865,0.09 0.217,0.088 0.3679,0.2526 z m -0.03,0.9732 q 0,-0.4917 -0.2204,-0.7578 -0.2204,-0.2679 -0.6018,-0.2679 -0.3849,0 -0.6053,0.2679 -0.2187,0.2661 -0.2187,0.7578 0,0.4967 0.2238,0.7612 0.2238,0.2628 0.6002,0.2628 0.3763,0 0.5984,-0.2628 0.2238,-0.2645 0.2238,-0.7612 z"
         id="path33830"
         style="stroke-linecap:round;stroke-linejoin:round;shape-rendering:crispEdges" />
      <path
         d="m 4008.2397,2968.4761 h -0.4052 v -0.4832 h 0.4052 z"
         id="path33832"
         style="stroke-linecap:round;stroke-linejoin:round;shape-rendering:crispEdges" />
    </g>
  </g>
</svg>
