<?xml version='1.0' encoding='UTF-8' standalone='no'?>
<svg xmlns="http://www.w3.org/2000/svg" xml:space="preserve" xmlns:xml="http://www.w3.org/XML/1998/namespace"  viewBox="0 0 41.226 29.248" id="svg2" y="0px" gorn="0" width="0.572583in" version="1.1" height="0.406222in" x="0px" enable-background="new 0 0 41.226 29.248">
    <metadata  id="metadata53">
        <rdf:RDF xmlns:rdf="http://www.w3.org/1999/02/22-rdf-syntax-ns#">
            <cc:Work xmlns:rdf="http://www.w3.org/1999/02/22-rdf-syntax-ns#" rdf:about="" xmlns:cc="http://creativecommons.org/ns#">
                <dc:format xmlns:dc="http://purl.org/dc/elements/1.1/">image/svg+xml</dc:format>
                <dc:type rdf:resource="http://purl.org/dc/dcmitype/StillImage" xmlns:rdf="http://www.w3.org/1999/02/22-rdf-syntax-ns#" xmlns:dc="http://purl.org/dc/elements/1.1/"/>
                <dc:title xmlns:dc="http://purl.org/dc/elements/1.1/"/>
            </cc:Work>
        </rdf:RDF>
    </metadata>
    <defs  id="defs51"/>
    <desc  id="desc3">
        <referenceFile >DUO_LED_RG_schematic.svg</referenceFile>
    </desc>
    <g  id="g4220" gorn="0.3">
        <rect  id="connector0terminal" y="28.877001" gorn="0.3.0" width="0.071000002" height="0.071000002" x="4.434"/>
        <rect  id="connector0pin" y="25.493999" gorn="0.3.1" width="0.46799999" height="3.5380001" x="4.224"/>
        <rect  id="connector1terminal" y="0.28799999" gorn="0.3.2" width="0.071000002" height="0.071000002" x="18.768999"/>
        <rect  id="connector1pin" y="0.252" gorn="0.3.3" width="0.46799999" height="7.539" x="18.563"/>
        <rect  id="rect10" y="28.877001" width="0.071000002" gorn="0.3.4" height="0.071000002" x="33.257999"/>
        <g transform="matrix(1,0,0,-1,42.473222,36.571005)" >
            <g >
                <g  id="g12" gorn="0.3.5.0.0">
                    <g  id="g_x5F_g" gorn="0.3.5.0.0.0">
                        <g  id="g36" gorn="0.3.5.0.0.0.0">
                            <path d="m -5.704,14.518 c 0.123,0 0.236,0.065 0.296,0.173 l 0,0 c 0.062,0.106 0.059,0.237 -0.004,0.342 l 0,0 -3.587,6.011 c -0.061,0.103 -0.172,0.167 -0.292,0.167 l 0,0 c -0.119,0 -0.231,-0.064 -0.292,-0.166 l 0,0 -3.595,-6.01 c -0.063,-0.106 -0.064,-0.237 -0.004,-0.343 l 0,0 c 0.061,-0.107 0.173,-0.173 0.297,-0.173 l 0,0 7.181,0 m -3.586,5.686 2.987,-5.005 -5.981,0 2.994,5.005 0,0 z"  id="path38" gorn="0.3.5.0.0.0.0.0"/>
                            <path d="m -12.964,21.21 c -0.188,0 -0.341,-0.151 -0.341,-0.34 l 0,0 c 0,-0.189 0.152,-0.341 0.341,-0.341 l 0,0 7.173,0 c 0.189,0 0.341,0.152 0.341,0.341 l 0,0 c 0,0.188 -0.152,0.34 -0.341,0.34 l 0,0 -7.173,0 0,0 z"  id="path40" gorn="0.3.5.0.0.0.0.1"/>
                            <path d="m -9.63,14.813 0,-7.361 c 0,-0.071 0.152,-0.128 0.341,-0.128 l 0,0 c 0.188,0 0.341,0.057 0.341,0.128 l 0,0 0,7.361 c 0,0.071 -0.152,0.128 -0.341,0.128 l 0,0 C -9.478,14.942 -9.63,14.884 -9.63,14.813 l 0,0 z"  id="path42" gorn="0.3.5.0.0.0.0.2"/>
                            <path d="m -9.63,28.907 0,-8.071 c 0,-0.188 0.153,-0.341 0.341,-0.341 l 0,0 c 0.188,0 0.341,0.152 0.341,0.341 l 0,0 0,8.071 c 0,0.188 -0.152,0.34 -0.341,0.34 l 0,0 c -0.189,0.001 -0.341,-0.152 -0.341,-0.34 l 0,0 z"  id="path44" gorn="0.3.5.0.0.0.0.3"/>
                            <polygon  points="-2.586,21.778 -1.91,23.649 -3.585,22.575 -3.086,22.176 " id="polygon46" gorn="0.3.5.0.0.0.0.4"/>
                            <path d="m -4.17,22.604 0.872,-0.694 0.5,-0.399 0.372,-0.296 1.179,3.264 -2.923,-1.875 0,0 z"  id="path48" gorn="0.3.5.0.0.0.0.5"/>
                            <path d="m -2.371,23.618 -3.205,-4.016 c -0.117,-0.148 -0.092,-0.362 0.055,-0.479 l 0,0 c 0.148,-0.117 0.362,-0.093 0.479,0.054 l 0,0 3.204,4.016 c 0.117,0.147 0.093,0.362 -0.054,0.479 l 0,0 c -0.064,0.05 -0.138,0.074 -0.212,0.074 l 0,0 c -0.101,0 -0.2,-0.044 -0.267,-0.128 l 0,0 z"  id="path50" gorn="0.3.5.0.0.0.0.6"/>
                            <polygon  points="-4.818,23.478 -4.143,25.349 -5.817,24.274 -5.317,23.876 " id="polygon52" gorn="0.3.5.0.0.0.0.7"/>
                            <path d="m -6.401,24.304 0.872,-0.695 0.499,-0.398 0.371,-0.296 1.182,3.265 -2.924,-1.876 0,0 0,0 z"  id="path54" gorn="0.3.5.0.0.0.0.8"/>
                            <path d="M -4.603,25.318 -7.1,22.188 c -0.118,-0.147 -0.092,-0.361 0.053,-0.479 l 0,0 c 0.147,-0.118 0.362,-0.093 0.479,0.054 l 0,0 2.496,3.129 c 0.118,0.147 0.093,0.361 -0.053,0.479 l 0,0 c -0.064,0.049 -0.138,0.075 -0.212,0.075 l 0,0 c -0.099,0 -0.198,-0.044 -0.266,-0.128 l 0,0 z"  id="path56" gorn="0.3.5.0.0.0.0.9"/>
                        </g>
                    </g>
                </g>
            </g>
        </g>
        <g transform="matrix(1,0,0,-1,0,36.398005)" >
            <g >
                <g  id="g_x5F_r" gorn="0.3.6.0.0">
                    <g  id="g59" gorn="0.3.6.0.0.0">
                        <path d="m 8.051,14.519 c 0.123,0 0.236,0.065 0.296,0.173 l 0,0 c 0.061,0.106 0.06,0.237 -0.004,0.342 l 0,0 -3.586,6.011 c -0.061,0.103 -0.172,0.167 -0.292,0.167 l 0,0 c -0.12,0 -0.232,-0.064 -0.292,-0.166 l 0,0 -3.595,-6.011 C 0.515,14.929 0.514,14.798 0.574,14.692 l 0,0 c 0.061,-0.107 0.173,-0.173 0.297,-0.173 l 0,0 7.18,0 m -3.587,5.687 2.987,-5.006 -5.981,0 2.994,5.006 0,0 z"  id="path61" gorn="0.3.6.0.0.0.0"/>
                        <path d="m 0.79,21.21 c -0.189,0 -0.341,-0.151 -0.341,-0.34 l 0,0 c 0,-0.189 0.152,-0.341 0.341,-0.341 l 0,0 7.173,0 c 0.188,0 0.341,0.152 0.341,0.341 l 0,0 c 0,0.188 -0.153,0.34 -0.341,0.34 l 0,0 -7.173,0 0,0 z"  id="path63" gorn="0.3.6.0.0.0.1"/>
                        <path d="m 4.124,14.778 0,-7.287 c 0,-0.188 0.153,-0.34 0.341,-0.34 l 0,0 c 0.188,0 0.34,0.152 0.34,0.34 l 0,0 0,7.287 c 0,0.188 -0.152,0.341 -0.34,0.341 l 0,0 c -0.189,0 -0.341,-0.153 -0.341,-0.341 l 0,0 z"  id="path65" gorn="0.3.6.0.0.0.2"/>
                        <path d="m 4.124,28.907 0,-8.07 c 0,-0.188 0.152,-0.341 0.34,-0.341 l 0,0 c 0.188,0 0.341,0.152 0.341,0.341 l 0,0 0,8.07 c 0,0.188 -0.153,0.34 -0.341,0.34 l 0,0 c -0.188,0.001 -0.34,-0.152 -0.34,-0.34 l 0,0 z"  id="path67" gorn="0.3.6.0.0.0.3"/>
                        <polygon  points="10.669,22.176 11.168,21.778 11.843,23.649 10.169,22.575 " id="polygon69" gorn="0.3.6.0.0.0.4"/>
                        <path d="m 9.585,22.604 0.871,-0.694 0.499,-0.399 0.372,-0.296 1.179,3.264 -2.921,-1.875 0,0 z"  id="path71" gorn="0.3.6.0.0.0.5"/>
                        <path d="M 11.382,23.618 8.177,19.602 C 8.059,19.454 8.084,19.24 8.231,19.123 l 0,0 C 8.378,19.006 8.593,19.03 8.71,19.177 l 0,0 3.205,4.016 c 0.117,0.147 0.093,0.362 -0.054,0.479 l 0,0 c -0.063,0.05 -0.138,0.074 -0.212,0.074 l 0,0 c -0.1,0.001 -0.199,-0.043 -0.267,-0.128 l 0,0 z"  id="path73" gorn="0.3.6.0.0.0.6"/>
                        <polygon  points="8.437,23.877 8.936,23.479 9.612,25.349 7.938,24.275 " id="polygon75" gorn="0.3.6.0.0.0.7"/>
                        <path d="m 7.354,24.305 0.871,-0.695 0.499,-0.398 0.372,-0.296 1.182,3.265 -2.924,-1.876 0,0 z"  id="path77" gorn="0.3.6.0.0.0.8"/>
                        <path d="M 9.151,25.318 6.654,22.188 C 6.536,22.041 6.561,21.827 6.708,21.709 l 0,0 c 0.147,-0.118 0.362,-0.093 0.479,0.054 l 0,0 2.496,3.129 c 0.118,0.147 0.093,0.361 -0.054,0.479 l 0,0 C 9.566,25.42 9.491,25.446 9.417,25.446 l 0,0 c -0.1,10e-4 -0.199,-0.043 -0.266,-0.128 l 0,0 z"  id="path79" gorn="0.3.6.0.0.0.9"/>
                    </g>
                </g>
            </g>
        </g>
        <line x2="33.193001" stroke="#000000" stroke-width="0.68150002" x1="4.4650002"  y1="7.4970002" id="line81" style="stroke-linecap:round;stroke-linejoin:round" gorn="0.3.7" y2="7.4970002" fill="none"/>
        <g transform="translate(0.5005,27.247001)" >
            <g >
                <g  id="g39" gorn="0.3.8.0.0">
                    <text font-size="4.7705"  id="text83" style="font-size:4.77050018px;font-family:DroidSans" gorn="0.3.8.0.0.0">R</text>
                </g>
            </g>
        </g>
        <g transform="translate(29.2197,27.246501)" >
            <g >
                <g  id="g42" gorn="0.3.9.0.0">
                    <text font-size="4.7705"  id="text85" style="font-size:4.77050018px;font-family:DroidSans" gorn="0.3.9.0.0.0">G</text>
                </g>
            </g>
        </g>
        <rect  id="connector4" y="25.700001" style="fill:none" gorn="0.3.10" width="0.78399998" height="3.461" x="32.765999"/>
        <rect  id="connector4_1_" y="25.700001" style="fill:none" gorn="0.3.11" width="0.78399998" height="3.461" x="32.765999"/>
        <rect  id="connector4_2_" y="25.700001" style="fill:none" gorn="0.3.12" width="0.78399998" height="3.461" x="32.765999"/>
        <rect  id="connector4_3_" y="25.700001" style="fill:none" gorn="0.3.13" width="0.78399998" height="3.461" x="32.765999"/>
    </g>
</svg>
