<?xml version='1.0' encoding='utf-8'?>
<!DOCTYPE svg>
<!-- Generator: Adobe Illustrator 16.0.0, SVG Export Plug-In . SVG Version: 6.00 Build 0)  -->
<svg xmlns="http://www.w3.org/2000/svg" xml:space="preserve" xmlns:xml="http://www.w3.org/XML/1998/namespace"  viewBox="0 0 23.76 32.551" id="svg2" y="0px" version="1.1" width="0.33in" gorn="0" x="0px" height="0.452097in" enable-background="new 0 0 23.76 32.551">
    <desc>
        <referenceFile>DUO_LED_RG_breadboard.svg</referenceFile>
    </desc>
    <g  id="breadboard" gorn="0.0">
        <g  id="icon" gorn="0.0.0">
            <path d="M6.963,18.013c0,0,0,3.993,0,5.186c0,1.193-1.271,2.303-2.39,3.429c-1.462,1.472-1.061,2.992-1.061,4.732v1.188l0,0h2.16l0,0v-1.022c0-1.096-0.666-2.271,0.433-3.373c1.483-1.492,3.019-3.038,3.019-4.82v-5.313L6.963,18.013L6.963,18.013z"  id="path16" gorn="0.0.0.0" fill="#8C8C8C"/>
            <line stroke="#8C8C8C" x2="11.81" stroke-width="2.16" x1="11.81"  y1="18.357" stroke-linecap="round" y2="53.508" fill="none"/>
            <path d="M19.187,26.625c-1.121-1.127-2.392-2.235-2.392-3.429c0-1.192,0-5.186,0-5.186h-2.16v5.313c0,1.784,1.535,3.329,3.019,4.822c1.103,1.104,0.238,2.273,0.238,3.373v1.021l0,0h2.16l0,0v-1.186C20.052,29.618,20.647,28.098,19.187,26.625z"  id="path20" gorn="0.0.0.2" fill="#8C8C8C"/>
            <polygon  id="polygon30" points="15.692,8.638 16.133,9.154 12.981,12.519 15.978,12.519 15.978,13.269 15.978,16.325 16.903,16.325 16.903,8.638 " gorn="0.0.0.3" fill="#999999"/>
            <polygon  id="polygon32" points="12.729,8.921 12.223,9.796 10.278,9.796 9.772,8.921 8.22,8.921 6.999,9.777 6.999,16.325 8.865,16.323 8.865,12.519 11.563,12.519 14.916,8.921 " gorn="0.0.0.4" fill="#999999"/>
            <line stroke="#8C8C8C" x2="4.592" stroke-width="2.16" x1="4.592"  y1="32.551" stroke-linecap="round" y2="53.551" fill="none"/>
            <line stroke="#8C8C8C" x2="18.972" stroke-width="2.16" x1="18.972"  y1="32.551" stroke-linecap="round" y2="53.551" fill="none"/>
        </g>
        <g >
            <rect  id="connector1pin" y="31.353" width="2.296" gorn="0.0.1.0" x="10.646" height="2.08" fill="none"/>
            <rect  id="connector4pin" y="31.572" width="2.16" gorn="0.0.1.1" x="17.892" height="1.813" fill="none"/>
            <rect  id="connector0pin" y="31.471" width="2.16" gorn="0.0.1.2" x="3.512" height="2.07" fill="none"/>
        </g>
        <g >
            <path d="M19.133,13.177V7.185C19.133,3.217,15.916,0,11.948,0C7.982,0,4.765,3.217,4.765,7.185v13.834c1.5,1.674,4.153,2.789,7.184,2.789c4.687,0,8.479-2.658,8.479-5.938v-1.547C20.433,15.167,19.95,14.089,19.133,13.177z"  opacity="0.5" fill="#E6E6E6" enable-background="new    "/>
            <path d="M19.133,13.177v3.146c0,2.777-3.217,5.029-7.185,5.029c-3.966,0-7.184-2.252-7.184-5.029v3.148v1.547c1.5,1.672,4.153,2.789,7.184,2.789c4.687,0,8.481-2.658,8.481-5.938v-1.546C20.433,15.167,19.95,14.089,19.133,13.177z"  opacity="0.9" fill="#D1D1D1" enable-background="new    "/>
            <path d="M19.133,13.177v3.146c0,2.777-3.217,5.029-7.185,5.029c-3.966,0-7.184-2.252-7.184-5.029v3.148c1.5,1.674,4.153,2.789,7.184,2.789c4.687,0,8.481-2.658,8.481-5.938C20.433,15.167,19.95,14.089,19.133,13.177z"  opacity="0.24" enable-background="new    "/>
            <ellipse cy="16.323" cx="11.95"  opacity="0.5" rx="7.183" fill="#CCCCCC" enable-background="new    " ry="5.029"/>
            <polygon  points="15.692,8.638 16.133,9.154 12.981,12.519 15.978,12.519 15.978,13.269 15.978,16.325 16.903,16.325 16.903,8.638 " fill="#999999"/>
            <polygon  points="12.729,8.921 12.223,9.796 10.278,9.796 9.772,8.921 8.22,8.921 6.999,9.777 6.999,16.325 8.865,16.323 8.865,12.519 11.563,12.519 14.916,8.921 " fill="#999999"/>
            <path d="M15.295,3.802l1.459-0.277c-0.849-1.149-2.108-1.986-3.588-2.271l0.252,1.098C14.194,2.625,14.847,3.142,15.295,3.802z"  opacity="0.6" fill="#FFFFFF" enable-background="new    "/>
            <path d="M15.987,20.482c-0.264,0.125-0.537,0.232-0.821,0.334c-0.06,0.021-0.119,0.041-0.181,0.062c-0.569,0.188-1.185,0.321-1.821,0.397c-0.076,0.011-0.154,0.019-0.229,0.025c-0.322,0.029-0.647,0.053-0.983,0.053c-0.148,0-0.312-0.01-0.478-0.024c-1.223-0.058-2.362-0.316-3.344-0.75v-8.507V7.185c0-1.49,0.86-2.767,2.104-3.396l-0.021-0.051L8.946,2.203C7.257,3.224,6.115,5.066,6.115,7.183V19.25c-0.049-0.049-0.313-0.312-0.485-0.533l-0.312,0.698c1.426,1.503,3.861,2.497,6.632,2.497c1.703,0,3.277-0.379,4.572-1.019l-0.531-0.412C15.987,20.482,15.987,20.482,15.987,20.482z"  opacity="0.6" fill="#FFFFFF" enable-background="new    "/>
        </g>
    </g>
</svg>
