<?xml version="1.0" encoding="UTF-8" standalone="no"?>
<!-- Created with Fritzing (http://www.fritzing.org/) -->

<svg
   width="0.5in"
   viewBox="0 0 500 600"
   x="0in"
   y="0in"
   height="0.6in"
   version="1.2"
   id="svg301"
   xmlns="http://www.w3.org/2000/svg"
   xmlns:svg="http://www.w3.org/2000/svg">
  <defs
     id="defs305" />
  <desc
     id="desc2">
    <referenceFile>sparkfun-poweric_msop-10_breadboard.svg</referenceFile>
  </desc>
  <desc
     id="desc4">Fritzing breadboard generated by brd2svg</desc>
  <g
     id="breadboard"
     gorn="0.1">
    <g
       id="icon"
       gorn="0.1.0">
      <path
         fill="#1F7A34"
         d="M0,0L0,270A30,30 0 0 1 0,330L0,600L500,600L500,0L0,0z"
         stroke="none"
         stroke-width="0"
         id="path6" />
      <g
         transform="matrix(2.7416489,0,0,2.2709526,62.390419,76.544276)"
         id="g46">
        <g
           id="g44"
           transform="translate(1.2785574)">
          <g
             transform="matrix(0.5,0,0,0.5,33.7461,50.2756)"
             id="g42">
            <g
               id="g40">
              <rect
                 width="12.0079"
                 x="61.488098"
                 fill="#8c8c8c"
                 y="0"
                 stroke-linecap="round"
                 height="34.999901"
                 stroke="none"
                 connectorname="8"
                 stroke-width="0"
                 id="rect8" />
              <rect
                 width="12.0079"
                 x="81.173103"
                 fill="#8c8c8c"
                 y="0"
                 stroke-linecap="round"
                 height="34.999901"
                 stroke="none"
                 connectorname="7"
                 stroke-width="0"
                 id="rect10" />
              <rect
                 width="12.0079"
                 x="100.858"
                 fill="#8c8c8c"
                 y="0"
                 stroke-linecap="round"
                 height="34.999901"
                 stroke="none"
                 connectorname="6"
                 stroke-width="0"
                 id="rect12" />
              <rect
                 width="12.0079"
                 x="41.803101"
                 fill="#8c8c8c"
                 y="0"
                 stroke-linecap="round"
                 height="34.999901"
                 stroke="none"
                 connectorname="9"
                 stroke-width="0"
                 id="rect14" />
              <rect
                 width="12.0079"
                 x="22.118099"
                 fill="#8c8c8c"
                 y="0"
                 stroke-linecap="round"
                 height="34.999901"
                 stroke="none"
                 connectorname="10"
                 stroke-width="0"
                 id="rect16" />
              <rect
                 width="12.0079"
                 x="61.488098"
                 fill="#8c8c8c"
                 y="166.10201"
                 stroke-linecap="round"
                 height="34.999901"
                 stroke="none"
                 connectorname="3"
                 stroke-width="0"
                 id="rect18" />
              <rect
                 width="12.0079"
                 x="81.173103"
                 fill="#8c8c8c"
                 y="166.10201"
                 stroke-linecap="round"
                 height="34.999901"
                 stroke="none"
                 connectorname="4"
                 stroke-width="0"
                 id="rect20" />
              <rect
                 width="12.0079"
                 x="100.858"
                 fill="#8c8c8c"
                 y="166.10201"
                 stroke-linecap="round"
                 height="34.999901"
                 stroke="none"
                 connectorname="5"
                 stroke-width="0"
                 id="rect22" />
              <rect
                 width="12.0079"
                 x="41.803101"
                 fill="#8c8c8c"
                 y="166.10201"
                 stroke-linecap="round"
                 height="34.999901"
                 stroke="none"
                 connectorname="2"
                 stroke-width="0"
                 id="rect24" />
              <rect
                 width="12.0079"
                 x="22.118099"
                 fill="#8c8c8c"
                 y="166.10201"
                 stroke-linecap="round"
                 height="34.999901"
                 stroke="none"
                 connectorname="1"
                 stroke-width="0"
                 id="rect26" />
              <rect
                 width="134.98399"
                 x="0"
                 fill="#303030"
                 y="38.996101"
                 height="123.11"
                 stroke="none"
                 stroke-width="0"
                 id="rect28" />
              <polygon
                 fill="#1f1f1f"
                 points="124.984,48.9961 10,48.9961 0,38.9961 134.984,38.9961 "
                 id="polygon30" />
              <polygon
                 fill="#1f1f1f"
                 points="124.984,152.106 10,152.106 0,162.106 134.984,162.106 "
                 id="polygon32" />
              <polygon
                 fill="#000000"
                 points="10,152.106 10,48.9961 0,38.9961 0,162.106 "
                 id="polygon34" />
              <polygon
                 fill="#3d3d3d"
                 points="124.984,152.106 124.984,48.9961 134.984,38.9961 134.984,162.106 "
                 id="polygon36" />
              <circle
                 r="10"
                 fill="#1f1f1f"
                 cy="132.106"
                 cx="30"
                 stroke="none"
                 stroke-width="0"
                 id="circle38" />
            </g>
          </g>
        </g>
      </g>
      <text
         id="label-3"
         font-size="65px"
         x="170.98796"
         fill="#ffffff"
         y="316.91055"
         font-family="OCRA"
         text-anchor="start"
         stroke="none"
         stroke-width="0"
         gorn="0.1.0.2"
         style="font-size:38.8889px">CH340X</text>
      <g
         transform="translate(63.5,526.05)"
         id="g57">
        <g
           id="g55">
          <g
             transform="rotate(-90)"
             id="g53">
            <g
               id="g51">
              <text
                 font-size="45"
                 x="0"
                 fill="white"
                 y="0"
                 font-family="OCRA"
                 text-anchor="start"
                 stroke="none"
                 stroke-width="0"
                 id="text49">1</text>
            </g>
          </g>
        </g>
      </g>
      <g
         transform="translate(63.5,73.95)"
         id="g67">
        <g
           id="g65">
          <g
             transform="rotate(-90)"
             id="g63">
            <g
               id="g61">
              <text
                 font-size="45"
                 x="0"
                 fill="white"
                 y="0"
                 font-family="OCRA"
                 text-anchor="end"
                 stroke="none"
                 stroke-width="0"
                 id="text59">10</text>
            </g>
          </g>
        </g>
      </g>
      <g
         transform="translate(163.5,526.05)"
         id="g77">
        <g
           id="g75">
          <g
             transform="rotate(-90)"
             id="g73">
            <g
               id="g71">
              <text
                 font-size="45"
                 x="0"
                 fill="white"
                 y="0"
                 font-family="OCRA"
                 text-anchor="start"
                 stroke="none"
                 stroke-width="0"
                 id="text69">2</text>
            </g>
          </g>
        </g>
      </g>
      <g
         transform="translate(163.5,73.95)"
         id="g87">
        <g
           id="g85">
          <g
             transform="rotate(-90)"
             id="g83">
            <g
               id="g81">
              <text
                 font-size="45"
                 x="0"
                 fill="white"
                 y="0"
                 font-family="OCRA"
                 text-anchor="end"
                 stroke="none"
                 stroke-width="0"
                 id="text79">9</text>
            </g>
          </g>
        </g>
      </g>
      <g
         transform="translate(263.5,526.05)"
         id="g97">
        <g
           id="g95">
          <g
             transform="rotate(-90)"
             id="g93">
            <g
               id="g91">
              <text
                 font-size="45"
                 x="0"
                 fill="white"
                 y="0"
                 font-family="OCRA"
                 text-anchor="start"
                 stroke="none"
                 stroke-width="0"
                 id="text89">3</text>
            </g>
          </g>
        </g>
      </g>
      <g
         transform="translate(263.5,73.95)"
         id="g107">
        <g
           id="g105">
          <g
             transform="rotate(-90)"
             id="g103">
            <g
               id="g101">
              <text
                 font-size="45"
                 x="0"
                 fill="white"
                 y="0"
                 font-family="OCRA"
                 text-anchor="end"
                 stroke="none"
                 stroke-width="0"
                 id="text99">8</text>
            </g>
          </g>
        </g>
      </g>
      <g
         transform="translate(363.5,526.05)"
         id="g117">
        <g
           id="g115">
          <g
             transform="rotate(-90)"
             id="g113">
            <g
               id="g111">
              <text
                 font-size="45"
                 x="0"
                 fill="white"
                 y="0"
                 font-family="OCRA"
                 text-anchor="start"
                 stroke="none"
                 stroke-width="0"
                 id="text109">4</text>
            </g>
          </g>
        </g>
      </g>
      <g
         transform="translate(363.5,73.95)"
         id="g127">
        <g
           id="g125">
          <g
             transform="rotate(-90)"
             id="g123">
            <g
               id="g121">
              <text
                 font-size="45"
                 x="0"
                 fill="white"
                 y="0"
                 font-family="OCRA"
                 text-anchor="end"
                 stroke="none"
                 stroke-width="0"
                 id="text119">7</text>
            </g>
          </g>
        </g>
      </g>
      <g
         transform="translate(463.5,526.05)"
         id="g137">
        <g
           id="g135">
          <g
             transform="rotate(-90)"
             id="g133">
            <g
               id="g131">
              <text
                 font-size="45"
                 x="0"
                 fill="white"
                 y="0"
                 font-family="OCRA"
                 text-anchor="start"
                 stroke="none"
                 stroke-width="0"
                 id="text129">5</text>
            </g>
          </g>
        </g>
      </g>
      <g
         transform="translate(463.5,73.95)"
         id="g147">
        <g
           id="g145">
          <g
             transform="rotate(-90)"
             id="g143">
            <g
               id="g141">
              <text
                 font-size="45"
                 x="0"
                 fill="white"
                 y="0"
                 font-family="OCRA"
                 text-anchor="end"
                 stroke="none"
                 stroke-width="0"
                 id="text139">6</text>
            </g>
          </g>
        </g>
      </g>
    </g>
    <g
       transform="translate(34.035,534.05)"
       id="g163">
      <g
         id="g161">
        <rect
           width="31.93"
           id="connector0pin"
           x="0"
           fill="#8D8C8C"
           y="0"
           height="31.9"
           gorn="0.1.1.0.0" />
        <rect
           width="16.4442"
           x="7.79153"
           fill="#8C8663"
           y="7.73544"
           height="16.4152"
           id="rect151" />
        <polygon
           fill="#B8AF82"
           points="0,31.9,7.79153,24.1368,7.79153,6.97162,0,0"
           id="polygon153" />
        <polygon
           fill="#80795B"
           points="24.2079,7.76321,7.90264,7.76321,0,0,31.93,0"
           id="polygon155" />
        <polygon
           fill="#5E5B43"
           points="24.2079,24.1368,24.2079,7.76321,31.93,0,31.93,31.9"
           id="polygon157" />
        <polygon
           fill="#9A916C"
           points="0,31.9,7.87486,24.1368,24.2079,24.1368,31.93,31.9"
           id="polygon159" />
      </g>
    </g>
    <g
       transform="translate(34.035,34.05)"
       id="g178">
      <g
         id="g176">
        <rect
           width="31.93"
           id="connector9pin"
           x="0"
           fill="#8D8C8C"
           y="0"
           height="31.9"
           gorn="0.1.2.0.0" />
        <rect
           width="16.4442"
           x="7.79153"
           fill="#8C8663"
           y="7.73544"
           height="16.4152"
           id="rect166" />
        <polygon
           fill="#B8AF82"
           points="0,31.9,7.79153,24.1368,7.79153,6.97162,0,0"
           id="polygon168" />
        <polygon
           fill="#80795B"
           points="24.2079,7.76321,7.90264,7.76321,0,0,31.93,0"
           id="polygon170" />
        <polygon
           fill="#5E5B43"
           points="24.2079,24.1368,24.2079,7.76321,31.93,0,31.93,31.9"
           id="polygon172" />
        <polygon
           fill="#9A916C"
           points="0,31.9,7.87486,24.1368,24.2079,24.1368,31.93,31.9"
           id="polygon174" />
      </g>
    </g>
    <g
       transform="translate(134.035,534.05)"
       id="g193">
      <g
         id="g191">
        <rect
           width="31.93"
           id="connector1pin"
           x="0"
           fill="#8D8C8C"
           y="0"
           height="31.9"
           gorn="0.1.3.0.0" />
        <rect
           width="16.4442"
           x="7.79153"
           fill="#8C8663"
           y="7.73544"
           height="16.4152"
           id="rect181" />
        <polygon
           fill="#B8AF82"
           points="0,31.9,7.79153,24.1368,7.79153,6.97162,0,0"
           id="polygon183" />
        <polygon
           fill="#80795B"
           points="24.2079,7.76321,7.90264,7.76321,0,0,31.93,0"
           id="polygon185" />
        <polygon
           fill="#5E5B43"
           points="24.2079,24.1368,24.2079,7.76321,31.93,0,31.93,31.9"
           id="polygon187" />
        <polygon
           fill="#9A916C"
           points="0,31.9,7.87486,24.1368,24.2079,24.1368,31.93,31.9"
           id="polygon189" />
      </g>
    </g>
    <g
       transform="translate(134.035,34.05)"
       id="g208">
      <g
         id="g206">
        <rect
           width="31.93"
           id="connector8pin"
           x="0"
           fill="#8D8C8C"
           y="0"
           height="31.9"
           gorn="0.1.4.0.0" />
        <rect
           width="16.4442"
           x="7.79153"
           fill="#8C8663"
           y="7.73544"
           height="16.4152"
           id="rect196" />
        <polygon
           fill="#B8AF82"
           points="0,31.9,7.79153,24.1368,7.79153,6.97162,0,0"
           id="polygon198" />
        <polygon
           fill="#80795B"
           points="24.2079,7.76321,7.90264,7.76321,0,0,31.93,0"
           id="polygon200" />
        <polygon
           fill="#5E5B43"
           points="24.2079,24.1368,24.2079,7.76321,31.93,0,31.93,31.9"
           id="polygon202" />
        <polygon
           fill="#9A916C"
           points="0,31.9,7.87486,24.1368,24.2079,24.1368,31.93,31.9"
           id="polygon204" />
      </g>
    </g>
    <g
       transform="translate(234.035,534.05)"
       id="g223">
      <g
         id="g221">
        <rect
           width="31.93"
           id="connector2pin"
           x="0"
           fill="#8D8C8C"
           y="0"
           height="31.9"
           gorn="0.1.5.0.0" />
        <rect
           width="16.4442"
           x="7.79153"
           fill="#8C8663"
           y="7.73544"
           height="16.4152"
           id="rect211" />
        <polygon
           fill="#B8AF82"
           points="0,31.9,7.79153,24.1368,7.79153,6.97162,0,0"
           id="polygon213" />
        <polygon
           fill="#80795B"
           points="24.2079,7.76321,7.90264,7.76321,0,0,31.93,0"
           id="polygon215" />
        <polygon
           fill="#5E5B43"
           points="24.2079,24.1368,24.2079,7.76321,31.93,0,31.93,31.9"
           id="polygon217" />
        <polygon
           fill="#9A916C"
           points="0,31.9,7.87486,24.1368,24.2079,24.1368,31.93,31.9"
           id="polygon219" />
      </g>
    </g>
    <g
       transform="translate(234.035,34.05)"
       id="g238">
      <g
         id="g236">
        <rect
           width="31.93"
           id="connector7pin"
           x="0"
           fill="#8D8C8C"
           y="0"
           height="31.9"
           gorn="0.1.6.0.0" />
        <rect
           width="16.4442"
           x="7.79153"
           fill="#8C8663"
           y="7.73544"
           height="16.4152"
           id="rect226" />
        <polygon
           fill="#B8AF82"
           points="0,31.9,7.79153,24.1368,7.79153,6.97162,0,0"
           id="polygon228" />
        <polygon
           fill="#80795B"
           points="24.2079,7.76321,7.90264,7.76321,0,0,31.93,0"
           id="polygon230" />
        <polygon
           fill="#5E5B43"
           points="24.2079,24.1368,24.2079,7.76321,31.93,0,31.93,31.9"
           id="polygon232" />
        <polygon
           fill="#9A916C"
           points="0,31.9,7.87486,24.1368,24.2079,24.1368,31.93,31.9"
           id="polygon234" />
      </g>
    </g>
    <g
       transform="translate(334.035,534.05)"
       id="g253">
      <g
         id="g251">
        <rect
           width="31.93"
           id="connector3pin"
           x="0"
           fill="#8D8C8C"
           y="0"
           height="31.9"
           gorn="0.1.7.0.0" />
        <rect
           width="16.4442"
           x="7.79153"
           fill="#8C8663"
           y="7.73544"
           height="16.4152"
           id="rect241" />
        <polygon
           fill="#B8AF82"
           points="0,31.9,7.79153,24.1368,7.79153,6.97162,0,0"
           id="polygon243" />
        <polygon
           fill="#80795B"
           points="24.2079,7.76321,7.90264,7.76321,0,0,31.93,0"
           id="polygon245" />
        <polygon
           fill="#5E5B43"
           points="24.2079,24.1368,24.2079,7.76321,31.93,0,31.93,31.9"
           id="polygon247" />
        <polygon
           fill="#9A916C"
           points="0,31.9,7.87486,24.1368,24.2079,24.1368,31.93,31.9"
           id="polygon249" />
      </g>
    </g>
    <g
       transform="translate(334.035,34.05)"
       id="g268">
      <g
         id="g266">
        <rect
           width="31.93"
           id="connector6pin"
           x="0"
           fill="#8D8C8C"
           y="0"
           height="31.9"
           gorn="0.1.8.0.0" />
        <rect
           width="16.4442"
           x="7.79153"
           fill="#8C8663"
           y="7.73544"
           height="16.4152"
           id="rect256" />
        <polygon
           fill="#B8AF82"
           points="0,31.9,7.79153,24.1368,7.79153,6.97162,0,0"
           id="polygon258" />
        <polygon
           fill="#80795B"
           points="24.2079,7.76321,7.90264,7.76321,0,0,31.93,0"
           id="polygon260" />
        <polygon
           fill="#5E5B43"
           points="24.2079,24.1368,24.2079,7.76321,31.93,0,31.93,31.9"
           id="polygon262" />
        <polygon
           fill="#9A916C"
           points="0,31.9,7.87486,24.1368,24.2079,24.1368,31.93,31.9"
           id="polygon264" />
      </g>
    </g>
    <g
       transform="translate(434.035,534.05)"
       id="g283">
      <g
         id="g281">
        <rect
           width="31.93"
           id="connector4pin"
           x="0"
           fill="#8D8C8C"
           y="0"
           height="31.9"
           gorn="0.1.9.0.0" />
        <rect
           width="16.4442"
           x="7.79153"
           fill="#8C8663"
           y="7.73544"
           height="16.4152"
           id="rect271" />
        <polygon
           fill="#B8AF82"
           points="0,31.9,7.79153,24.1368,7.79153,6.97162,0,0"
           id="polygon273" />
        <polygon
           fill="#80795B"
           points="24.2079,7.76321,7.90264,7.76321,0,0,31.93,0"
           id="polygon275" />
        <polygon
           fill="#5E5B43"
           points="24.2079,24.1368,24.2079,7.76321,31.93,0,31.93,31.9"
           id="polygon277" />
        <polygon
           fill="#9A916C"
           points="0,31.9,7.87486,24.1368,24.2079,24.1368,31.93,31.9"
           id="polygon279" />
      </g>
    </g>
    <g
       transform="translate(434.035,34.05)"
       id="g298">
      <g
         id="g296">
        <rect
           width="31.93"
           id="connector5pin"
           x="0"
           fill="#8D8C8C"
           y="0"
           height="31.9"
           gorn="0.1.10.0.0" />
        <rect
           width="16.4442"
           x="7.79153"
           fill="#8C8663"
           y="7.73544"
           height="16.4152"
           id="rect286" />
        <polygon
           fill="#B8AF82"
           points="0,31.9,7.79153,24.1368,7.79153,6.97162,0,0"
           id="polygon288" />
        <polygon
           fill="#80795B"
           points="24.2079,7.76321,7.90264,7.76321,0,0,31.93,0"
           id="polygon290" />
        <polygon
           fill="#5E5B43"
           points="24.2079,24.1368,24.2079,7.76321,31.93,0,31.93,31.9"
           id="polygon292" />
        <polygon
           fill="#9A916C"
           points="0,31.9,7.87486,24.1368,24.2079,24.1368,31.93,31.9"
           id="polygon294" />
      </g>
    </g>
  </g>
</svg>
