<?xml version="1.0" encoding="UTF-8" standalone="no"?>
<!-- Created with Fritzing (http://www.fritzing.org/) -->

<svg
   width="0.5in"
   viewBox="0 0 500 600"
   x="0in"
   y="0in"
   height="0.6in"
   version="1.2"
   id="svg301"
   sodipodi:docname="svg.icon.CH340X_ad06d7c23acb066920f45661ff7d5ca4_1_icon.svg"
   inkscape:version="1.2.1 (9c6d41e410, 2022-07-14)"
   xmlns:inkscape="http://www.inkscape.org/namespaces/inkscape"
   xmlns:sodipodi="http://sodipodi.sourceforge.net/DTD/sodipodi-0.dtd"
   xmlns="http://www.w3.org/2000/svg"
   xmlns:svg="http://www.w3.org/2000/svg">
  <sodipodi:namedview
     id="namedview158"
     pagecolor="#ffffff"
     bordercolor="#000000"
     borderopacity="0.25"
     inkscape:showpageshadow="2"
     inkscape:pageopacity="0.0"
     inkscape:pagecheckerboard="0"
     inkscape:deskcolor="#d1d1d1"
     inkscape:document-units="in"
     showgrid="false"
     inkscape:zoom="17.82986"
     inkscape:cx="13.684908"
     inkscape:cy="28.771958"
     inkscape:window-width="3840"
     inkscape:window-height="2036"
     inkscape:window-x="-12"
     inkscape:window-y="-12"
     inkscape:window-maximized="1"
     inkscape:current-layer="icon" />
  <defs
     id="defs305" />
  <g
     id="breadboard"
     gorn="0.1">
    <g
       id="icon"
       gorn="0.1.0">
      <path
         fill="#1F7A34"
         d="M0,0L0,270A30,30 0 0 1 0,330L0,600L500,600L500,0L0,0z"
         stroke="none"
         stroke-width="0"
         id="path6" />
      <g
         transform="translate(182.508,199.449)"
         id="g46">
        <g
           id="g44">
          <g
             transform="matrix(0.5, 0, 0, 0.5, 33.7461, 50.2756)"
             id="g42">
            <g
               id="g40">
              <rect
                 width="12.0079"
                 x="61.4881"
                 fill="#8c8c8c"
                 y="0"
                 stroke-linecap="round"
                 height="34.9999"
                 stroke="none"
                 connectorname="8"
                 stroke-width="0"
                 id="rect8" />
              <rect
                 width="12.0079"
                 x="81.1731"
                 fill="#8c8c8c"
                 y="0"
                 stroke-linecap="round"
                 height="34.9999"
                 stroke="none"
                 connectorname="7"
                 stroke-width="0"
                 id="rect10" />
              <rect
                 width="12.0079"
                 x="100.858"
                 fill="#8c8c8c"
                 y="0"
                 stroke-linecap="round"
                 height="34.9999"
                 stroke="none"
                 connectorname="6"
                 stroke-width="0"
                 id="rect12" />
              <rect
                 width="12.0079"
                 x="41.8031"
                 fill="#8c8c8c"
                 y="0"
                 stroke-linecap="round"
                 height="34.9999"
                 stroke="none"
                 connectorname="9"
                 stroke-width="0"
                 id="rect14" />
              <rect
                 width="12.0079"
                 x="22.1181"
                 fill="#8c8c8c"
                 y="0"
                 stroke-linecap="round"
                 height="34.9999"
                 stroke="none"
                 connectorname="10"
                 stroke-width="0"
                 id="rect16" />
              <rect
                 width="12.0079"
                 x="61.4881"
                 fill="#8c8c8c"
                 y="166.102"
                 stroke-linecap="round"
                 height="34.9999"
                 stroke="none"
                 connectorname="3"
                 stroke-width="0"
                 id="rect18" />
              <rect
                 width="12.0079"
                 x="81.1731"
                 fill="#8c8c8c"
                 y="166.102"
                 stroke-linecap="round"
                 height="34.9999"
                 stroke="none"
                 connectorname="4"
                 stroke-width="0"
                 id="rect20" />
              <rect
                 width="12.0079"
                 x="100.858"
                 fill="#8c8c8c"
                 y="166.102"
                 stroke-linecap="round"
                 height="34.9999"
                 stroke="none"
                 connectorname="5"
                 stroke-width="0"
                 id="rect22" />
              <rect
                 width="12.0079"
                 x="41.8031"
                 fill="#8c8c8c"
                 y="166.102"
                 stroke-linecap="round"
                 height="34.9999"
                 stroke="none"
                 connectorname="2"
                 stroke-width="0"
                 id="rect24" />
              <rect
                 width="12.0079"
                 x="22.1181"
                 fill="#8c8c8c"
                 y="166.102"
                 stroke-linecap="round"
                 height="34.9999"
                 stroke="none"
                 connectorname="1"
                 stroke-width="0"
                 id="rect26" />
              <rect
                 width="134.984"
                 x="0"
                 fill="#303030"
                 y="38.9961"
                 height="123.11"
                 stroke="none"
                 stroke-width="0"
                 id="rect28" />
              <polygon
                 fill="#1f1f1f"
                 points="0,38.9961 134.984,38.9961 124.984,48.9961 10,48.9961"
                 id="polygon30" />
              <polygon
                 fill="#1f1f1f"
                 points="0,162.106 134.984,162.106 124.984,152.106 10,152.106"
                 id="polygon32" />
              <polygon
                 fill="#000000"
                 points="0,38.9961 0,162.106 10,152.106 10,48.9961"
                 id="polygon34" />
              <polygon
                 fill="#3d3d3d"
                 points="134.984,38.9961 134.984,162.106 124.984,152.106 124.984,48.9961"
                 id="polygon36" />
              <circle
                 r="10"
                 fill="#1f1f1f"
                 cy="132.106"
                 cx="30"
                 stroke="none"
                 stroke-width="0"
                 id="circle38" />
            </g>
          </g>
        </g>
      </g>
      <g
         aria-label="CH340X"
         id="label"
         style="font-size:65px;font-family:OCRA;fill:#ffffff;stroke-width:0">
        <path
           d="m 155.94308,316.8577 q -1.74561,0.76172 -3.17383,1.42822 -1.39649,0.6665 -3.68164,1.39648 -1.93604,0.60303 -4.22119,1.01563 -2.25342,0.44433 -4.98291,0.44433 -5.1416,0 -9.3628,-1.42822 -4.18945,-1.45996 -7.2998,-4.53857 -3.04688,-3.01514 -4.76074,-7.64893 -1.71387,-4.66553 -1.71387,-10.82275 0,-5.83985 1.65039,-10.4419 1.65039,-4.60205 4.76074,-7.77588 3.01514,-3.07861 7.26807,-4.69726 4.28467,-1.61865 9.48975,-1.61865 3.80859,0 7.58544,0.92041 3.8086,0.92041 8.44239,3.2373 v 7.4585 H 155.467 q -3.90381,-3.26905 -7.74414,-4.76074 -3.84033,-1.4917 -8.22021,-1.4917 -3.58643,0 -6.47461,1.17431 -2.85645,1.14258 -5.10987,3.58643 -2.18994,2.38037 -3.42773,6.03027 -1.20605,3.61817 -1.20605,8.37891 0,4.98291 1.333,8.56933 1.36475,3.58643 3.49121,5.83985 2.22168,2.34863 5.17334,3.49121 2.9834,1.11084 6.28418,1.11084 4.53858,0 8.50586,-1.55518 3.96729,-1.55517 7.42676,-4.66552 h 0.44434 z"
           id="path543" />
        <path
           d="m 200.9797,320.28543 h -6.28418 v -23.13721 h -23.58154 v 23.13721 h -6.28418 v -47.2583 h 6.28418 v 18.53516 h 23.58154 v -18.53516 h 6.28418 z"
           id="path545" />
        <path
           d="m 240.27169,297.52908 q 1.52344,1.36475 2.50732,3.42774 0.98389,2.06299 0.98389,5.33203 0,3.2373 -1.17432,5.93506 -1.17431,2.69775 -3.30078,4.69726 -2.38037,2.22168 -5.61767,3.30078 -3.20557,1.04737 -7.0459,1.04737 -3.93555,0 -7.74414,-0.95215 -3.80859,-0.92041 -6.25244,-2.03125 v -6.6333 h 0.47607 q 2.69776,1.77734 6.34766,2.95166 3.6499,1.17431 7.0459,1.17431 1.99951,0 4.25293,-0.6665 2.25341,-0.6665 3.6499,-1.96777 1.45996,-1.39649 2.1582,-3.07862 0.72998,-1.68212 0.72998,-4.25293 0,-2.53906 -0.82519,-4.18945 -0.79346,-1.68213 -2.22168,-2.63428 -1.42823,-0.98388 -3.45948,-1.333 -2.03125,-0.38086 -4.37988,-0.38086 h -2.85644 v -5.26856 h 2.22168 q 4.82421,0 7.68066,-1.99951 2.88818,-2.03125 2.88818,-5.90332 0,-1.71387 -0.72998,-2.9834 -0.72998,-1.30127 -2.03125,-2.12646 -1.36474,-0.8252 -2.91992,-1.14258 -1.55517,-0.31738 -3.52295,-0.31738 -3.01513,0 -6.41113,1.0791 -3.396,1.0791 -6.41113,3.04687 h -0.31739 v -6.6333 q 2.25342,-1.11084 5.99854,-2.03125 3.77685,-0.95215 7.2998,-0.95215 3.45948,0 6.09375,0.63477 2.63428,0.63476 4.76075,2.03125 2.28515,1.52344 3.45947,3.68164 1.17431,2.1582 1.17431,5.04639 0,3.93554 -2.79296,6.8872 -2.76123,2.91993 -6.53809,3.68164 v 0.44434 q 1.52344,0.25391 3.49121,1.0791 1.96777,0.79346 3.33252,1.99951 z"
           id="path547" />
        <path
           d="m 286.83175,306.98709 h -7.01416 v 13.29834 h -6.09375 v -13.29834 h -22.6294 v -7.2998 l 22.88331,-26.66016 h 5.83984 v 28.88184 h 7.01416 z m -13.10791,-5.07812 v -21.32813 l -18.31299,21.32813 z"
           id="path549" />
        <path
           d="m 327.01241,296.64041 q 0,12.72705 -3.99902,18.69385 -3.96729,5.93506 -12.34619,5.93506 -8.50586,0 -12.44141,-6.03028 -3.90381,-6.03027 -3.90381,-18.53515 0,-12.6001 3.96729,-18.59863 3.96728,-6.03028 12.37793,-6.03028 8.50586,0 12.40967,6.12549 3.93554,6.09375 3.93554,18.43994 z m -8.34716,14.40918 q 1.11083,-2.5708 1.49169,-6.03027 0.4126,-3.49121 0.4126,-8.37891 0,-4.82422 -0.4126,-8.3789 -0.38086,-3.55469 -1.52343,-6.03028 -1.11084,-2.44385 -3.04688,-3.68164 -1.9043,-1.23779 -4.91943,-1.23779 -2.9834,0 -4.95117,1.23779 -1.93604,1.23779 -3.07862,3.74512 -1.0791,2.34863 -1.4917,6.12549 -0.38086,3.77685 -0.38086,8.28369 0,4.95117 0.34913,8.28369 0.34912,3.33252 1.49169,5.9668 1.04737,2.47558 2.95166,3.77685 1.93604,1.30127 5.10987,1.30127 2.9834,0 4.95117,-1.23779 1.96777,-1.23779 3.04688,-3.74512 z"
           id="path551" />
        <path
           d="m 373.69942,273.02713 -16.31347,23.35938 16.28174,23.89892 h -7.26807 l -12.88574,-19.45557 -13.20313,19.45557 h -6.85547 l 16.47217,-23.61328 -16.09131,-23.64502 h 7.23633 l 12.72705,19.20166 13.0127,-19.20166 z"
           id="path553" />
      </g>
      <g
         transform="translate(63.5,526.05)"
         id="g57">
        <g
           id="g55">
          <g
             transform="rotate(-90)"
             id="g53">
            <g
               id="g51">
              <g
                 aria-label="1 UD+"
                 id="text49"
                 style="font-size:45px;font-family:OCRA;fill:#ffffff;stroke-width:0">
                <path
                   d="M 23.818359,0 H 6.1083984 V -3.3398438 H 12.919922 V -25.268555 H 6.1083984 v -2.988281 q 1.3842774,0 2.9663086,-0.219726 1.582031,-0.2417 2.39502,-0.681153 1.010742,-0.549316 1.582031,-1.384277 0.593262,-0.856934 0.681152,-2.285156 h 3.405762 v 29.4873042 h 6.679687 z"
                   id="path556" />
                <path
                   d="m 73.45459,-13.139648 q 0,3.5595699 -0.791016,6.2182613 -0.769043,2.6367187 -2.548828,4.3945312 -1.691894,1.66992191 -3.955078,2.43896488 -2.263184,0.76904296 -5.273438,0.76904296 -3.076171,0 -5.361328,-0.81298828 -2.285156,-0.81298828 -3.845215,-2.39501956 -1.779785,-1.8017578 -2.5708,-4.3505859 -0.769043,-2.5488281 -0.769043,-6.2622066 v -19.577637 h 4.350586 v 19.797363 q 0,2.658692 0.351562,4.1967775 0.373535,1.5380859 1.230469,2.7905273 0.966797,1.4282227 2.614746,2.1533203 1.669922,0.7250977 3.999023,0.7250977 2.351075,0 3.999024,-0.703125 1.647949,-0.7250977 2.636719,-2.175293 0.856933,-1.2524414 1.208496,-2.8564453 0.373535,-1.6259765 0.373535,-4.0209965 v -19.907226 h 4.350586 z"
                   id="path558" />
                <path
                   d="m 109.40186,-16.325684 q 0,4.46045 -1.95557,8.0859379 -1.93359,3.6254883 -5.16358,5.625 -2.24121,1.3842774 -5.009761,1.99951173 Q 94.526367,0 90.021973,0 h -8.261719 v -32.717285 h 8.173828 q 4.790039,0 7.602539,0.703125 2.834469,0.681152 4.790039,1.889648 3.33984,2.087403 5.20752,5.559082 1.86768,3.47168 1.86768,8.239746 z m -4.54834,-0.06592 q 0,-3.845214 -1.34034,-6.481933 -1.34033,-2.636719 -3.99902,-4.152832 -1.933594,-1.098633 -4.108887,-1.516113 -2.175293,-0.439454 -5.207519,-0.439454 H 86.11084 v 25.2465824 h 4.086914 q 3.14209,0 5.471191,-0.4614257 2.351075,-0.4614258 4.306641,-1.7138672 2.438964,-1.5600586 3.647464,-4.1088865 1.23047,-2.548828 1.23047,-6.372071 z"
                   id="path560" />
                <path
                   d="m 144.25049,-12.568359 h -11.9751 v 11.97509728 h -3.64746 V -12.568359 h -11.9751 v -3.515625 h 11.9751 v -11.975098 h 3.64746 v 11.975098 h 11.9751 z"
                   id="path562" />
              </g>
            </g>
          </g>
        </g>
      </g>
      <g
         transform="translate(63.5,73.95)"
         id="g67">
        <g
           id="g65">
          <g
             transform="rotate(-90)"
             id="g63">
            <g
               id="g61">
              <g
                 aria-label="V3 10"
                 id="text59"
                 style="font-size:45px;font-family:OCRA;text-anchor:end;fill:#ffffff;stroke-width:0">
                <path
                   d="M -102.2168,-32.717285 -114.12598,0 h -5.80078 l -11.90918,-32.717285 h 4.65821 l 10.26123,28.7841795 10.26123,-28.7841795 z"
                   id="path605" />
                <path
                   d="m -78.837891,-15.754395 q 1.054688,0.944825 1.73584,2.373047 0.681153,1.428223 0.681153,3.6914066 0,2.2412109 -0.812989,4.1088867 -0.812988,1.8676758 -2.285156,3.2519531 -1.647949,1.53808598 -3.88916,2.28515629 -2.219238,0.72509765 -4.87793,0.72509765 -2.724609,0 -5.361328,-0.65917968 -2.636719,-0.63720703 -4.328613,-1.40624996 v -4.5922852 h 0.32959 q 1.867675,1.2304688 4.394531,2.043457 2.526855,0.8129883 4.87793,0.8129883 1.384277,0 2.944336,-0.4614258 1.560058,-0.4614257 2.526855,-1.3623047 1.010742,-0.9667968 1.494141,-2.1313476 0.505371,-1.1645508 0.505371,-2.9443357 0,-1.757813 -0.571289,-2.900391 -0.549317,-1.164551 -1.538086,-1.82373 -0.98877,-0.681153 -2.39502,-0.922852 -1.40625,-0.263672 -3.032226,-0.263672 h -1.977539 v -3.647461 h 1.538085 q 3.339844,0 5.317383,-1.384277 1.999512,-1.40625 1.999512,-4.086914 0,-1.186524 -0.505371,-2.06543 -0.505371,-0.900879 -1.40625,-1.472168 -0.944824,-0.571289 -2.021484,-0.791015 -1.076661,-0.219727 -2.438965,-0.219727 -2.087403,0 -4.438477,0.74707 -2.351074,0.747071 -4.438476,2.109375 h -0.219727 v -4.592285 q 1.560059,-0.769043 4.152832,-1.40625 2.614746,-0.659179 5.053711,-0.659179 2.39502,0 4.21875,0.439453 1.82373,0.439453 3.295898,1.40625 1.582032,1.054687 2.39502,2.548828 0.812988,1.49414 0.812988,3.493652 0,2.724609 -1.933594,4.768067 -1.911621,2.021484 -4.526367,2.548828 v 0.307617 q 1.054688,0.175781 2.416992,0.74707 1.362305,0.549317 2.307129,1.384277 z"
                   id="path607" />
                <path
                   d="m -33.398437,0 h -17.709961 v -3.3398438 h 6.811523 V -25.268555 h -6.811523 v -2.988281 q 1.384277,0 2.966308,-0.219726 1.582031,-0.2417 2.39502,-0.681153 1.010742,-0.549316 1.582031,-1.384277 0.593262,-0.856934 0.681152,-2.285156 h 3.405762 v 29.4873042 h 6.679688 z"
                   id="path609" />
                <path
                   d="m -2.9663086,-16.369629 q 0,8.8110353 -2.7685547,12.9418946 -2.746582,4.10888674 -8.5473637,4.10888674 -5.888671,0 -8.613281,-4.17480464 -2.702637,-4.1748047 -2.702637,-12.8320317 0,-8.723144 2.746583,-12.875976 2.746582,-4.174805 8.569335,-4.174805 5.8886723,0 8.591309,4.240723 2.7246094,4.21875 2.7246094,12.766113 z m -5.7788086,9.975586 q 0.769043,-1.7797851 1.0327149,-4.174805 0.2856445,-2.416992 0.2856445,-5.800781 0,-3.339844 -0.2856445,-5.800781 -0.2636719,-2.460938 -1.0546875,-4.174805 -0.769043,-1.691894 -2.1093752,-2.548828 -1.318359,-0.856934 -3.405762,-0.856934 -2.065429,0 -3.427734,0.856934 -1.340332,0.856934 -2.131348,2.592773 -0.74707,1.625977 -1.032714,4.240723 -0.263672,2.614746 -0.263672,5.734863 0,3.427735 0.241699,5.734864 0.241699,2.3071286 1.032715,4.1308591 0.725097,1.7138672 2.043457,2.6147461 1.340332,0.9008789 3.537597,0.9008789 2.06543,0 3.427735,-0.8569336 1.3623045,-0.8569336 2.1093748,-2.5927735 z"
                   id="path611" />
              </g>
            </g>
          </g>
        </g>
      </g>
      <g
         transform="translate(163.5,526.05)"
         id="g77">
        <g
           id="g75">
          <g
             transform="rotate(-90)"
             id="g73">
            <g
               id="g71">
              <g
                 aria-label="2 UD-"
                 id="text69"
                 style="font-size:45px;font-family:OCRA;fill:#ffffff;stroke-width:0">
                <path
                   d="M 25.686035,0 H 3.5375977 v -4.5922852 q 2.3071289,-1.977539 4.6142578,-3.9550781 2.3291015,-1.9775387 4.3286135,-3.9331057 4.21875,-4.086914 5.778808,-6.481933 1.560059,-2.416993 1.560059,-5.20752 0,-2.548828 -1.691895,-3.977051 -1.669921,-1.450195 -4.680175,-1.450195 -1.999512,0 -4.3286137,0.703125 -2.3291015,0.703125 -4.5483398,2.15332 H 4.3505859 v -4.614257 q 1.5600586,-0.769043 4.1528321,-1.40625 2.614746,-0.637207 5.053711,-0.637207 5.031738,0 7.888183,2.438964 2.856446,2.416993 2.856446,6.569825 0,1.867675 -0.483399,3.493652 -0.461425,1.604004 -1.384277,3.054199 -0.856934,1.362305 -2.021484,2.680664 -1.142578,1.31836 -2.790528,2.922363 -2.351074,2.3071294 -4.855957,4.4824223 -2.504883,2.1533204 -4.6801755,3.9990235 H 25.686035 Z"
                   id="path565" />
                <path
                   d="m 73.45459,-13.139648 q 0,3.5595699 -0.791016,6.2182613 -0.769043,2.6367187 -2.548828,4.3945312 -1.691894,1.66992191 -3.955078,2.43896488 -2.263184,0.76904296 -5.273438,0.76904296 -3.076171,0 -5.361328,-0.81298828 -2.285156,-0.81298828 -3.845215,-2.39501956 -1.779785,-1.8017578 -2.5708,-4.3505859 -0.769043,-2.5488281 -0.769043,-6.2622066 v -19.577637 h 4.350586 v 19.797363 q 0,2.658692 0.351562,4.1967775 0.373535,1.5380859 1.230469,2.7905273 0.966797,1.4282227 2.614746,2.1533203 1.669922,0.7250977 3.999023,0.7250977 2.351075,0 3.999024,-0.703125 1.647949,-0.7250977 2.636719,-2.175293 0.856933,-1.2524414 1.208496,-2.8564453 0.373535,-1.6259765 0.373535,-4.0209965 v -19.907226 h 4.350586 z"
                   id="path567" />
                <path
                   d="m 109.40186,-16.325684 q 0,4.46045 -1.95557,8.0859379 -1.93359,3.6254883 -5.16358,5.625 -2.24121,1.3842774 -5.009761,1.99951173 Q 94.526367,0 90.021973,0 h -8.261719 v -32.717285 h 8.173828 q 4.790039,0 7.602539,0.703125 2.834469,0.681152 4.790039,1.889648 3.33984,2.087403 5.20752,5.559082 1.86768,3.47168 1.86768,8.239746 z m -4.54834,-0.06592 q 0,-3.845214 -1.34034,-6.481933 -1.34033,-2.636719 -3.99902,-4.152832 -1.933594,-1.098633 -4.108887,-1.516113 -2.175293,-0.439454 -5.207519,-0.439454 H 86.11084 v 25.2465824 h 4.086914 q 3.14209,0 5.471191,-0.4614257 2.351075,-0.4614258 4.306641,-1.7138672 2.438964,-1.5600586 3.647464,-4.1088865 1.23047,-2.548828 1.23047,-6.372071 z"
                   id="path569" />
                <path
                   d="m 129.11133,-12.32666 h -13.71094 v -3.977051 h 13.71094 z"
                   id="path571" />
              </g>
            </g>
          </g>
        </g>
      </g>
      <g
         transform="translate(163.5,73.95)"
         id="g87">
        <g
           id="g85">
          <g
             transform="rotate(-90)"
             id="g83">
            <g
               id="g81">
              <g
                 aria-label="RXD 9"
                 id="text79"
                 style="font-size:45px;font-family:OCRA;text-anchor:end;fill:#ffffff;stroke-width:0">
                <path
                   d="m -109.75342,0 h -5.64697 l -10.94238,-13.007813 h -6.13037 V 0 h -4.35059 v -32.717285 h 9.1626 q 2.96631,0 4.94384,0.395508 1.97754,0.373535 3.55958,1.362304 1.77978,1.120606 2.76855,2.834473 1.01074,1.691895 1.01074,4.306641 0,3.537597 -1.77978,5.932617 -1.77979,2.373047 -4.89991,3.581543 z m -10.17334,-23.510742 q 0,-1.40625 -0.50537,-2.48291 -0.4834,-1.098633 -1.62598,-1.845703 -0.94482,-0.637207 -2.24121,-0.878907 -1.29638,-0.263672 -3.0542,-0.263672 h -5.11962 v 12.348633 h 4.39453 q 2.06543,0 3.60351,-0.351562 1.53809,-0.373535 2.61475,-1.362305 0.98877,-0.922852 1.45019,-2.109375 0.4834,-1.208496 0.4834,-3.054199 z"
                   id="path803" />
                <path
                   d="M -80.57373,-32.717285 -91.867676,-16.54541 -80.595703,0 h -5.031738 L -94.54834,-13.469238 -103.68896,0 h -4.7461 l 11.40381,-16.347656 -11.14014,-16.369629 h 5.00977 l 8.811034,13.293457 9.008789,-13.293457 z"
                   id="path805" />
                <path
                   d="m -47.06543,-16.325684 q 0,4.46045 -1.955566,8.0859379 -1.933594,3.6254883 -5.163574,5.625 -2.241211,1.3842774 -5.009766,1.99951173 Q -61.940918,0 -66.445312,0 h -8.261719 v -32.717285 h 8.173828 q 4.790039,0 7.602539,0.703125 2.834473,0.681152 4.790039,1.889648 3.339844,2.087403 5.20752,5.559082 1.867675,3.47168 1.867675,8.239746 z m -4.54834,-0.06592 q 0,-3.845214 -1.340332,-6.481933 -1.340332,-2.636719 -3.999023,-4.152832 -1.933594,-1.098633 -4.108887,-1.516113 -2.175293,-0.439454 -5.207519,-0.439454 h -4.086914 v 25.2465824 h 4.086914 q 3.14209,0 5.471191,-0.4614257 2.351074,-0.4614258 4.306641,-1.7138672 2.438965,-1.5600586 3.647461,-4.1088865 1.230468,-2.548828 1.230468,-6.372071 z"
                   id="path807" />
                <path
                   d="m -2.9663086,-18.325195 q 0,4.284668 -0.9887695,7.77832 -0.9667969,3.4936523 -2.944336,5.9545898 -1.9995117,2.5048829 -5.0097659,3.86718754 -3.010254,1.36230469 -7.075195,1.36230469 -1.142578,0 -2.15332,-0.13183594 -1.010742,-0.10986328 -1.801758,-0.37353515 V -4.0649414 h 0.219726 q 0.637207,0.3295898 1.801758,0.637207 1.164551,0.2856446 2.592774,0.2856446 4.855957,0 7.602539,-2.9003907 2.7685544,-2.9223633 3.2080076,-8.0419925 -2.0434571,1.230469 -3.8452146,1.757813 -1.801758,0.527344 -3.933106,0.527344 -2.021484,0 -3.669433,-0.395508 -1.625977,-0.395508 -3.273926,-1.538086 -1.933594,-1.340332 -2.922363,-3.405762 -0.966797,-2.06543 -0.966797,-4.943848 0,-5.009765 3.295898,-8.151855 3.295899,-3.14209 8.041992,-3.14209 2.373047,0 4.394532,0.74707 2.021484,0.725098 3.5375973,2.197266 1.8676757,1.823731 2.8784179,4.702149 1.0107422,2.856445 1.0107422,7.404785 z m -4.4384766,-0.944825 q 0,-3.405761 -0.703125,-5.471191 -0.703125,-2.06543 -1.9335938,-3.208008 -1.032715,-0.988769 -2.219238,-1.40625 -1.186524,-0.439453 -2.570801,-0.439453 -3.164062,0 -5.009766,1.977539 -1.82373,1.977539 -1.82373,5.559082 0,2.087403 0.593262,3.405762 0.593261,1.318359 1.999511,2.307129 0.98877,0.681152 2.175293,0.922851 1.186524,0.219727 2.636719,0.219727 1.713867,0 3.47168,-0.461426 1.7578123,-0.461426 3.2958982,-1.340332 0.021973,-0.461426 0.043945,-0.900879 0.043945,-0.461426 0.043945,-1.164551 z"
                   id="path809" />
              </g>
            </g>
          </g>
        </g>
      </g>
      <g
         transform="translate(263.5,526.05)"
         id="g97">
        <g
           id="g95">
          <g
             transform="rotate(-90)"
             id="g93">
            <g
               id="g91">
              <g
                 aria-label="3 GND"
                 id="text89"
                 style="font-size:45px;font-family:OCRA;fill:#ffffff;stroke-width:0">
                <path
                   d="m 22.807617,-15.754395 q 1.054688,0.944825 1.73584,2.373047 0.681152,1.428223 0.681152,3.6914066 0,2.2412109 -0.812988,4.1088867 -0.812988,1.8676758 -2.285156,3.2519531 -1.647949,1.53808598 -3.88916,2.28515629 -2.219239,0.72509765 -4.87793,0.72509765 -2.724609,0 -5.3613281,-0.65917968 Q 5.3613281,-0.61523437 3.6694336,-1.3842773 v -4.5922852 h 0.3295898 q 1.8676758,1.2304688 4.3945313,2.043457 2.5268553,0.8129883 4.8779293,0.8129883 1.384278,0 2.944336,-0.4614258 1.560059,-0.4614257 2.526856,-1.3623047 1.010742,-0.9667968 1.49414,-2.1313476 0.505371,-1.1645508 0.505371,-2.9443357 0,-1.757813 -0.571289,-2.900391 -0.549316,-1.164551 -1.538086,-1.82373 -0.988769,-0.681153 -2.395019,-0.922852 -1.40625,-0.263672 -3.032227,-0.263672 h -1.977539 v -3.647461 h 1.538086 q 3.339844,0 5.317383,-1.384277 1.999512,-1.40625 1.999512,-4.086914 0,-1.186524 -0.505371,-2.06543 -0.505371,-0.900879 -1.40625,-1.472168 -0.944825,-0.571289 -2.021485,-0.791015 -1.07666,-0.219727 -2.438964,-0.219727 -2.087403,0 -4.4384771,0.74707 -2.3510742,0.747071 -4.4384765,2.109375 H 4.6142578 v -4.592285 q 1.5600586,-0.769043 4.152832,-1.40625 2.6147462,-0.659179 5.0537112,-0.659179 2.395019,0 4.21875,0.439453 1.82373,0.439453 3.295898,1.40625 1.582031,1.054687 2.39502,2.548828 0.812988,1.49414 0.812988,3.493652 0,2.724609 -1.933594,4.768067 -1.911621,2.021484 -4.526367,2.548828 v 0.307617 q 1.054688,0.175781 2.416992,0.74707 1.362305,0.549317 2.307129,1.384277 z"
                   id="path574" />
                <path
                   d="m 76.113281,-2.4169922 q -2.680664,1.2304688 -5.866699,2.15332032 -3.164062,0.90087891 -6.130371,0.90087891 -3.823242,0 -7.009277,-1.0546875 -3.186036,-1.05468753 -5.427247,-3.16406253 -2.263183,-2.1313476 -3.493652,-5.3173828 -1.230469,-3.2080082 -1.230469,-7.4926762 0,-7.844238 4.570313,-12.370605 4.592285,-4.54834 12.590332,-4.54834 2.790527,0 5.690918,0.681152 2.922363,0.65918 6.28418,2.263184 v 5.163574 h -0.395508 q -0.681153,-0.527343 -1.977539,-1.384277 -1.296387,-0.856934 -2.548828,-1.428223 -1.516114,-0.681152 -3.449707,-1.120605 -1.911622,-0.461426 -4.350586,-0.461426 -5.493164,0 -8.701172,3.537598 -3.186035,3.515625 -3.186035,9.536133 0,6.350097 3.339843,9.8876948 3.339844,3.515625 9.09668,3.515625 2.109375,0 4.196777,-0.4174805 2.109375,-0.4174804 3.691407,-1.0766601 v -8.0200192 h -8.76709 v -3.823243 h 13.07373 z"
                   id="path576" />
                <path
                   d="m 108.67676,0 h -5.3833 L 87.780762,-29.267578 V 0 H 83.71582 v -32.717285 h 6.745606 L 104.61182,-5.9985352 V -32.717285 h 4.06494 z"
                   id="path578" />
                <path
                   d="m 145.01953,-16.325684 q 0,4.46045 -1.95557,8.0859379 -1.93359,3.6254883 -5.16357,5.625 -2.24121,1.3842774 -5.00977,1.99951173 Q 130.14404,0 125.63965,0 h -8.26172 v -32.717285 h 8.17383 q 4.79004,0 7.60254,0.703125 2.83447,0.681152 4.79004,1.889648 3.33984,2.087403 5.20752,5.559082 1.86767,3.47168 1.86767,8.239746 z m -4.54834,-0.06592 q 0,-3.845214 -1.34033,-6.481933 -1.34033,-2.636719 -3.99902,-4.152832 -1.9336,-1.098633 -4.10889,-1.516113 -2.17529,-0.439454 -5.20752,-0.439454 h -4.08691 v 25.2465824 h 4.08691 q 3.14209,0 5.47119,-0.4614257 2.35108,-0.4614258 4.30664,-1.7138672 2.43897,-1.5600586 3.64746,-4.1088865 1.23047,-2.548828 1.23047,-6.372071 z"
                   id="path580" />
              </g>
            </g>
          </g>
        </g>
      </g>
      <g
         transform="translate(263.5,73.95)"
         id="g107">
        <g
           id="g105">
          <g
             transform="rotate(-90)"
             id="g103">
            <g
               id="g101">
              <g
                 aria-label="TXD 8"
                 id="text99"
                 style="font-size:45px;font-family:OCRA;text-anchor:end;fill:#ffffff;stroke-width:0">
                <path
                   d="m -109.9292,-28.850098 h -11.68945 V 0 h -4.35059 v -28.850098 h -11.68945 v -3.867187 h 27.72949 z"
                   id="path812" />
                <path
                   d="M -80.57373,-32.717285 -91.867676,-16.54541 -80.595703,0 h -5.031738 L -94.54834,-13.469238 -103.68896,0 h -4.7461 l 11.40381,-16.347656 -11.14014,-16.369629 h 5.00977 l 8.811034,13.293457 9.008789,-13.293457 z"
                   id="path814" />
                <path
                   d="m -47.06543,-16.325684 q 0,4.46045 -1.955566,8.0859379 -1.933594,3.6254883 -5.163574,5.625 -2.241211,1.3842774 -5.009766,1.99951173 Q -61.940918,0 -66.445312,0 h -8.261719 v -32.717285 h 8.173828 q 4.790039,0 7.602539,0.703125 2.834473,0.681152 4.790039,1.889648 3.339844,2.087403 5.20752,5.559082 1.867675,3.47168 1.867675,8.239746 z m -4.54834,-0.06592 q 0,-3.845214 -1.340332,-6.481933 -1.340332,-2.636719 -3.999023,-4.152832 -1.933594,-1.098633 -4.108887,-1.516113 -2.175293,-0.439454 -5.207519,-0.439454 h -4.086914 v 25.2465824 h 4.086914 q 3.14209,0 5.471191,-0.4614257 2.351074,-0.4614258 4.306641,-1.7138672 2.438965,-1.5600586 3.647461,-4.1088865 1.230468,-2.548828 1.230468,-6.372071 z"
                   id="path816" />
                <path
                   d="m -2.6806641,-9.1186523 q 0,4.2407226 -3.3178711,7.0532226 -3.2958984,2.81250001 -8.3056638,2.81250001 -5.317383,0 -8.481446,-2.74658201 -3.142089,-2.746582 -3.142089,-7.03125 0,-2.7246093 1.582031,-4.9218753 1.582031,-2.219238 4.460449,-3.515625 v -0.131836 q -2.636719,-1.40625 -3.911133,-3.076172 -1.252441,-1.669921 -1.252441,-4.174804 0,-3.691406 3.032226,-6.152344 3.032227,-2.460937 7.712403,-2.460937 4.8999021,0 7.8222654,2.351074 2.9223633,2.351074 2.9223633,5.976562 0,2.219239 -1.3842774,4.372559 -1.3842773,2.131348 -4.0649414,3.339844 v 0.131836 q 3.0761719,1.318359 4.7021485,3.251953 1.6259765,1.933593 1.6259765,4.9218747 z M -7.8881836,-25.092773 q 0,-2.351075 -1.8237305,-3.735352 -1.8017579,-1.40625 -4.6142579,-1.40625 -2.768555,0 -4.54834,1.318359 -1.757812,1.31836 -1.757812,3.559571 0,1.582031 0.878906,2.746582 0.900879,1.142578 2.702637,2.043457 0.812988,0.395508 2.329101,1.032715 1.538086,0.637207 2.988282,1.054687 2.1752925,-1.450195 3.0102535,-3.010254 0.8349609,-1.560058 0.8349609,-3.603515 z m 0.6811524,16.3916011 q 0,-2.0214841 -0.900879,-3.2299801 -0.8789062,-1.230469 -3.4716798,-2.460938 -1.032715,-0.483398 -2.263183,-0.900879 -1.230469,-0.41748 -3.273926,-1.164551 -1.977539,1.076661 -3.186035,2.922364 -1.186524,1.845703 -1.186524,4.1748044 0,2.9663086 2.043457,4.8999024 2.043457,1.9335937 5.185547,1.9335937 3.208008,0 5.119629,-1.6479492 1.9335938,-1.6479492 1.9335938,-4.5263672 z"
                   id="path818" />
              </g>
            </g>
          </g>
        </g>
      </g>
      <g
         transform="translate(363.5,526.05)"
         id="g117">
        <g
           id="g115">
          <g
             transform="rotate(-90)"
             id="g113">
            <g
               id="g111">
              <g
                 aria-label="4 RTS#"
                 id="text109"
                 style="font-size:45px;font-family:OCRA;fill:#ffffff;stroke-width:0">
                <path
                   d="M 26.433105,-9.206543 H 21.577148 V 0 h -4.21875 V -9.206543 H 1.6918945 v -5.053711 L 17.53418,-32.717285 h 4.042968 v 19.995117 h 4.855957 z m -9.074707,-3.515625 V -27.487793 L 4.6801758,-12.722168 Z"
                   id="path583" />
                <path
                   d="M 75.893555,0 H 70.246582 L 59.304199,-13.007813 H 53.173828 V 0 h -4.350586 v -32.717285 h 9.162598 q 2.966308,0 4.943847,0.395508 1.97754,0.373535 3.559571,1.362304 1.779785,1.120606 2.768554,2.834473 1.010743,1.691895 1.010743,4.306641 0,3.537597 -1.779785,5.932617 -1.779786,2.373047 -4.899903,3.581543 z m -10.17334,-23.510742 q 0,-1.40625 -0.505371,-2.48291 -0.483399,-1.098633 -1.625977,-1.845703 -0.944824,-0.637207 -2.241211,-0.878907 -1.296386,-0.263672 -3.054199,-0.263672 h -5.119629 v 12.348633 h 4.394531 q 2.06543,0 3.603516,-0.351562 1.538086,-0.373535 2.614746,-1.362305 0.98877,-0.922852 1.450195,-2.109375 0.483399,-1.208496 0.483399,-3.054199 z"
                   id="path585" />
                <path
                   d="M 102.12891,-28.850098 H 90.439453 V 0 H 86.088867 V -28.850098 H 74.399414 v -3.867187 h 27.729496 z"
                   id="path587" />
                <path
                   d="m 130.03418,-9.3383789 q 0,1.9116211 -0.90088,3.7792969 -0.87891,1.8676757 -2.48291,3.1640625 -1.75781,1.40624997 -4.10889,2.19726559 -2.3291,0.79101563 -5.625,0.79101563 -3.53759,0 -6.37207,-0.65917969 -2.8125,-0.65917969 -5.73486,-1.95556643 v -5.4492187 h 0.30762 q 2.48291,2.0654297 5.73486,3.1860351 3.25195,1.1206055 6.1084,1.1206055 4.04297,0 6.28418,-1.5161133 2.26318,-1.5161133 2.26318,-4.0429687 0,-2.1752935 -1.07666,-3.2080075 -1.05469,-1.032715 -3.22998,-1.604004 -1.64795,-0.439453 -3.58154,-0.725098 -1.91162,-0.285644 -4.06494,-0.725098 -4.35059,-0.922851 -6.45996,-3.142089 -2.08741,-2.241211 -2.08741,-5.822754 0,-4.108887 3.47168,-6.723633 3.47168,-2.636719 8.81104,-2.636719 3.44971,0 6.32812,0.65918 2.87842,0.65918 5.09766,1.625976 v 5.141602 h -0.30762 q -1.86767,-1.582031 -4.92187,-2.614746 -3.03223,-1.054688 -6.21826,-1.054688 -3.49366,0 -5.625,1.450196 -2.10938,1.450195 -2.10938,3.735351 0,2.043457 1.05469,3.208008 1.05469,1.164551 3.71338,1.779785 1.40625,0.307617 3.99902,0.747071 2.59277,0.439453 4.39453,0.900878 3.64746,0.966797 5.49317,2.922364 1.8457,1.955566 1.8457,5.4711911 z"
                   id="path589" />
                <path
                   d="m 165.16846,-20.478516 h -7.3169 l -2.02148,8.261719 h 6.76758 v 2.9663087 h -7.53662 L 152.77588,0 h -2.83447 l 2.28515,-9.2504883 h -5.93261 L 144.00879,0 h -2.83447 l 2.28515,-9.2504883 h -6.54785 v -2.9663087 h 7.3169 l 2.02148,-8.261719 h -6.76758 v -2.966308 h 7.53662 l 2.30713,-9.272461 h 2.83447 l -2.30712,9.272461 h 5.93261 l 2.30713,-9.272461 h 2.83447 l -2.30712,9.272461 h 6.54785 z m -10.08545,-0.04395 h -6.02051 l -2.06543,8.349609 h 6.02051 z"
                   id="path591" />
              </g>
            </g>
          </g>
        </g>
      </g>
      <g
         transform="translate(363.5,73.95)"
         id="g127">
        <g
           id="g125">
          <g
             transform="rotate(-90)"
             id="g123">
            <g
               id="g121">
              <g
                 aria-label="VCC 7"
                 id="text119"
                 style="font-size:45px;font-family:OCRA;text-anchor:end;fill:#ffffff;stroke-width:0">
                <path
                   d="M -107.8418,-32.717285 -119.75098,0 h -5.80078 l -11.90918,-32.717285 h 4.65821 l 10.26123,28.7841795 10.26123,-28.7841795 z"
                   id="path821" />
                <path
                   d="m -77.607422,-2.3730469 q -1.208496,0.5273438 -2.197265,0.9887696 -0.966797,0.46142574 -2.548829,0.96679683 Q -83.693848,0 -85.275879,0.28564453 q -1.560058,0.30761719 -3.449707,0.30761719 -3.55957,0 -6.481934,-0.98876953 -2.90039,-1.01074219 -5.05371,-3.14208989 -2.10938,-2.0874023 -3.2959,-5.2954101 -1.18652,-3.2299802 -1.18652,-7.4926762 0,-4.042968 1.14258,-7.229003 1.14257,-3.186036 3.29589,-5.383301 2.087407,-2.131348 5.031743,-3.251953 2.966308,-1.120606 6.569824,-1.120606 2.636718,0 5.251465,0.637207 2.636718,0.637207 5.844726,2.241211 v 5.163574 h -0.32959 q -2.702636,-2.263183 -5.361328,-3.295898 -2.658691,-1.032715 -5.690918,-1.032715 -2.48291,0 -4.482422,0.812988 -1.977539,0.791016 -3.537597,2.48291 -1.516114,1.64795 -2.373047,4.174805 -0.834966,2.504883 -0.834966,5.800781 0,3.449707 0.922856,5.932618 0.944825,2.4829098 2.416993,4.0429683 1.538086,1.6259766 3.581543,2.4169922 2.065429,0.769043 4.350586,0.769043 3.142089,0 5.888671,-1.0766602 2.746582,-1.0766601 5.141602,-3.2299804 h 0.307617 z"
                   id="path823" />
                <path
                   d="m -46.186523,-2.3730469 q -1.208497,0.5273438 -2.197266,0.9887696 -0.966797,0.46142574 -2.548828,0.96679683 Q -52.272949,0 -53.85498,0.28564453 q -1.560059,0.30761719 -3.449707,0.30761719 -3.559571,0 -6.481934,-0.98876953 Q -66.687012,-1.40625 -68.840332,-3.5375977 -70.949707,-5.625 -72.13623,-8.8330078 q -1.186524,-3.2299802 -1.186524,-7.4926762 0,-4.042968 1.142578,-7.229003 1.142578,-3.186036 3.295899,-5.383301 2.087402,-2.131348 5.031738,-3.251953 2.966309,-1.120606 6.569824,-1.120606 2.636719,0 5.251465,0.637207 2.636719,0.637207 5.844727,2.241211 v 5.163574 h -0.32959 q -2.702637,-2.263183 -5.361328,-3.295898 -2.658692,-1.032715 -5.690918,-1.032715 -2.482911,0 -4.482422,0.812988 -1.977539,0.791016 -3.537598,2.48291 -1.516113,1.64795 -2.373047,4.174805 -0.834961,2.504883 -0.834961,5.800781 0,3.449707 0.922852,5.932618 0.944824,2.4829098 2.416992,4.0429683 1.538086,1.6259766 3.581543,2.4169922 2.06543,0.769043 4.350586,0.769043 3.14209,0 5.888672,-1.0766602 2.746582,-1.0766601 5.141601,-3.2299804 h 0.307618 z"
                   id="path825" />
                <path
                   d="M -2.8344727,-27.817383 -17.644043,0 h -4.702148 L -6.5917969,-28.87207 H -25.224609 v -3.845215 h 22.3901363 z"
                   id="path827" />
              </g>
            </g>
          </g>
        </g>
      </g>
      <g
         transform="translate(463.5,526.05)"
         id="g137">
        <g
           id="g135">
          <g
             transform="rotate(-90)"
             id="g133">
            <g
               id="g131">
              <g
                 aria-label="5 CTS#"
                 id="text129"
                 style="font-size:45px;font-family:OCRA;fill:#ffffff;stroke-width:0">
                <path
                   d="m 25.422363,-10.393066 q 0,2.2851558 -0.834961,4.3725582 -0.834961,2.0874023 -2.285156,3.515625 -1.582031,1.53808592 -3.779297,2.37304686 -2.175293,0.81298828 -5.053711,0.81298828 -2.680664,0 -5.1635739,-0.57128906 Q 5.8227539,-0.43945313 4.1088867,-1.2304687 v -4.6362305 h 0.3076172 q 1.8017578,1.1425781 4.21875,1.9555664 2.4169921,0.7910156 4.7460941,0.7910156 1.560058,0 3.010254,-0.4394531 1.472168,-0.4394531 2.614746,-1.5380859 0.966797,-0.9448243 1.450195,-2.2631836 0.505371,-1.3183594 0.505371,-3.0541992 0,-1.691895 -0.593262,-2.856445 -0.571289,-1.164551 -1.604004,-1.867676 -1.142578,-0.834961 -2.790527,-1.164551 -1.625976,-0.351562 -3.647461,-0.351562 -1.933594,0 -3.7353514,0.263671 -1.7797852,0.263672 -3.0761719,0.527344 V -32.717285 H 25.202637 v 3.845215 H 9.7558594 v 8.701172 q 0.9448246,-0.08789 1.9335936,-0.131836 0.98877,-0.04395 1.713867,-0.04395 2.658692,0 4.658203,0.461426 1.999512,0.439453 3.669434,1.582031 1.757813,1.208496 2.724609,3.120118 0.966797,1.911621 0.966797,4.790039 z"
                   id="path594" />
                <path
                   d="m 74.091797,-2.3730469 q -1.208496,0.5273438 -2.197266,0.9887696 -0.966797,0.46142574 -2.548828,0.96679683 Q 68.005371,0 66.42334,0.28564453 q -1.560059,0.30761719 -3.449707,0.30761719 -3.559571,0 -6.481934,-0.98876953 Q 53.591309,-1.40625 51.437988,-3.5375977 49.328613,-5.625 48.14209,-8.8330078 q -1.186524,-3.2299802 -1.186524,-7.4926762 0,-4.042968 1.142579,-7.229003 1.142578,-3.186036 3.295898,-5.383301 2.087402,-2.131348 5.031738,-3.251953 2.966309,-1.120606 6.569824,-1.120606 2.636719,0 5.251465,0.637207 2.636719,0.637207 5.844727,2.241211 v 5.163574 h -0.32959 q -2.702637,-2.263183 -5.361328,-3.295898 -2.658692,-1.032715 -5.690918,-1.032715 -2.48291,0 -4.482422,0.812988 -1.977539,0.791016 -3.537598,2.48291 -1.516113,1.64795 -2.373046,4.174805 -0.834961,2.504883 -0.834961,5.800781 0,3.449707 0.922851,5.932618 0.944824,2.4829098 2.416992,4.0429683 1.538086,1.6259766 3.581543,2.4169922 2.06543,0.769043 4.350586,0.769043 3.14209,0 5.888672,-1.0766602 2.746582,-1.0766601 5.141602,-3.2299804 h 0.307617 z"
                   id="path596" />
                <path
                   d="M 103.5791,-28.850098 H 91.889648 V 0 H 87.539062 V -28.850098 H 75.849609 v -3.867187 H 103.5791 Z"
                   id="path598" />
                <path
                   d="m 131.48437,-9.3383789 q 0,1.9116211 -0.90087,3.7792969 -0.87891,1.8676757 -2.48291,3.1640625 -1.75782,1.40624997 -4.10889,2.19726559 -2.3291,0.79101563 -5.625,0.79101563 -3.5376,0 -6.37207,-0.65917969 -2.8125,-0.65917969 -5.73486,-1.95556643 v -5.4492187 h 0.30761 q 2.48291,2.0654297 5.73487,3.1860351 3.25195,1.1206055 6.10839,1.1206055 4.04297,0 6.28418,-1.5161133 2.26319,-1.5161133 2.26319,-4.0429687 0,-2.1752935 -1.07666,-3.2080075 -1.05469,-1.032715 -3.22998,-1.604004 -1.64795,-0.439453 -3.58155,-0.725098 -1.91162,-0.285644 -4.06494,-0.725098 -4.35058,-0.922851 -6.45996,-3.142089 -2.0874,-2.241211 -2.0874,-5.822754 0,-4.108887 3.47168,-6.723633 3.47168,-2.636719 8.81103,-2.636719 3.44971,0 6.32813,0.65918 2.87842,0.65918 5.09766,1.625976 v 5.141602 h -0.30762 q -1.86768,-1.582031 -4.92188,-2.614746 -3.03222,-1.054688 -6.21826,-1.054688 -3.49365,0 -5.625,1.450196 -2.10937,1.450195 -2.10937,3.735351 0,2.043457 1.05468,3.208008 1.05469,1.164551 3.71338,1.779785 1.40625,0.307617 3.99903,0.747071 2.59277,0.439453 4.39453,0.900878 3.64746,0.966797 5.49316,2.922364 1.8457,1.955566 1.8457,5.4711911 z"
                   id="path600" />
                <path
                   d="m 166.61865,-20.478516 h -7.31689 l -2.02149,8.261719 h 6.76758 v 2.9663087 h -7.53662 L 154.22607,0 h -2.83447 l 2.28516,-9.2504883 h -5.93262 L 145.45898,0 h -2.83447 l 2.28516,-9.2504883 h -6.54785 v -2.9663087 h 7.31689 l 2.02149,-8.261719 h -6.76758 v -2.966308 h 7.53662 l 2.30713,-9.272461 h 2.83447 l -2.30713,9.272461 h 5.93262 l 2.30713,-9.272461 h 2.83447 l -2.30713,9.272461 h 6.54785 z m -10.08545,-0.04395 h -6.0205 l -2.06543,8.349609 h 6.0205 z"
                   id="path602" />
              </g>
            </g>
          </g>
        </g>
      </g>
      <g
         transform="translate(463.5,73.95)"
         id="g147">
        <g
           id="g145">
          <g
             transform="rotate(-90)"
             id="g143">
            <g
               id="g141">
              <g
                 aria-label="DTR 6"
                 id="text139"
                 style="font-size:45px;font-family:OCRA;text-anchor:end;fill:#ffffff;stroke-width:0">
                <path
                   d="m -104.98535,-16.325684 q 0,4.46045 -1.95557,8.0859379 -1.93359,3.6254883 -5.16357,5.625 -2.24121,1.3842774 -5.00977,1.99951173 Q -119.86084,0 -124.36523,0 h -8.26172 v -32.717285 h 8.17382 q 4.79004,0 7.60254,0.703125 2.83448,0.681152 4.79004,1.889648 3.33985,2.087403 5.20752,5.559082 1.86768,3.47168 1.86768,8.239746 z m -4.54834,-0.06592 q 0,-3.845214 -1.34033,-6.481933 -1.34034,-2.636719 -3.99903,-4.152832 -1.93359,-1.098633 -4.10888,-1.516113 -2.1753,-0.439454 -5.20752,-0.439454 h -4.08692 v 25.2465824 h 4.08692 q 3.14209,0 5.47119,-0.4614257 2.35107,-0.4614258 4.30664,-1.7138672 2.43896,-1.5600586 3.64746,-4.1088865 1.23047,-2.548828 1.23047,-6.372071 z"
                   id="path830" />
                <path
                   d="M -75.717773,-28.850098 H -87.407227 V 0 h -4.350585 v -28.850098 h -11.689458 v -3.867187 h 27.729497 z"
                   id="path832" />
                <path
                   d="m -44.25293,0 h -5.646972 l -10.942383,-13.007813 h -6.130371 V 0 h -4.350586 v -32.717285 h 9.162597 q 2.966309,0 4.943848,0.395508 1.977539,0.373535 3.55957,1.362304 1.779786,1.120606 2.768555,2.834473 1.010742,1.691895 1.010742,4.306641 0,3.537597 -1.779785,5.932617 -1.779785,2.373047 -4.899902,3.581543 z m -10.17334,-23.510742 q 0,-1.40625 -0.505371,-2.48291 -0.483398,-1.098633 -1.625976,-1.845703 -0.944824,-0.637207 -2.241211,-0.878907 -1.296387,-0.263672 -3.054199,-0.263672 h -5.119629 v 12.348633 h 4.394531 q 2.06543,0 3.603516,-0.351562 1.538086,-0.373535 2.614746,-1.362305 0.988769,-0.922852 1.450195,-2.109375 0.483398,-1.208496 0.483398,-3.054199 z"
                   id="path834" />
                <path
                   d="m -2.4389648,-10.612793 q 0,4.987793 -3.2958985,8.1518555 -3.2739258,3.14208984 -8.0419917,3.14208984 -2.416993,0 -4.394532,-0.74707031 -1.977539,-0.74707031 -3.493652,-2.21923833 -1.889648,-1.8237304 -2.922363,-4.8339843 -1.010743,-3.0102544 -1.010743,-7.2509764 0,-4.350586 0.922852,-7.712403 0.944824,-3.361816 2.988281,-5.976562 1.933594,-2.48291 4.987793,-3.867188 3.054199,-1.40625 7.1191409,-1.40625 1.2963867,0 2.1752929,0.109864 0.8789063,0.109863 1.7797852,0.395508 v 4.196777 h -0.2197266 q -0.6152343,-0.32959 -1.8676757,-0.615234 -1.2304688,-0.307618 -2.5268557,-0.307618 -4.724121,0 -7.536621,2.966309 -2.8125,2.944336 -3.273926,7.976074 1.845703,-1.120605 3.625489,-1.691894 1.801757,-0.593262 4.152832,-0.593262 2.087402,0 3.6694332,0.395508 1.6040039,0.373535 3.2739258,1.538086 1.9335938,1.340332 2.9003906,3.383789 0.9887696,2.043457 0.9887696,4.96582 z m -4.4604493,0.175781 q 0,-2.043457 -0.6152343,-3.383789 -0.5932618,-1.340332 -1.9775391,-2.329101 -1.0107425,-0.703125 -2.2412105,-0.922852 -1.230469,-0.219726 -2.570801,-0.219726 -1.867676,0 -3.47168,0.439453 -1.604004,0.439453 -3.295898,1.362304 -0.04395,0.483399 -0.06592,0.944825 -0.02197,0.439453 -0.02197,1.120605 0,3.4716797 0.703125,5.4931641 0.725098,1.9995117 1.977539,3.1640625 1.010742,0.9667969 2.175293,1.4282226 1.186523,0.4394532 2.570801,0.4394532 3.186035,0 5.0097655,-1.9335938 1.8237304,-1.9555664 1.8237304,-5.6030276 z"
                   id="path836" />
              </g>
            </g>
          </g>
        </g>
      </g>
    </g>
    <g
       transform="translate(34.035,534.05)"
       id="g163">
      <g
         id="g161">
        <rect
           width="31.93"
           id="connector0pin"
           x="0"
           fill="#8D8C8C"
           y="0"
           height="31.9"
           gorn="0.1.1.0.0" />
        <rect
           width="16.4442"
           x="7.79153"
           fill="#8C8663"
           y="7.73544"
           height="16.4152"
           id="rect151" />
        <polygon
           fill="#B8AF82"
           points="0,31.9,7.79153,24.1368,7.79153,6.97162,0,0"
           id="polygon153" />
        <polygon
           fill="#80795B"
           points="24.2079,7.76321,7.90264,7.76321,0,0,31.93,0"
           id="polygon155" />
        <polygon
           fill="#5E5B43"
           points="24.2079,24.1368,24.2079,7.76321,31.93,0,31.93,31.9"
           id="polygon157" />
        <polygon
           fill="#9A916C"
           points="0,31.9,7.87486,24.1368,24.2079,24.1368,31.93,31.9"
           id="polygon159" />
      </g>
    </g>
    <g
       transform="translate(34.035,34.05)"
       id="g178">
      <g
         id="g176">
        <rect
           width="31.93"
           id="connector9pin"
           x="0"
           fill="#8D8C8C"
           y="0"
           height="31.9"
           gorn="0.1.2.0.0" />
        <rect
           width="16.4442"
           x="7.79153"
           fill="#8C8663"
           y="7.73544"
           height="16.4152"
           id="rect166" />
        <polygon
           fill="#B8AF82"
           points="0,31.9,7.79153,24.1368,7.79153,6.97162,0,0"
           id="polygon168" />
        <polygon
           fill="#80795B"
           points="24.2079,7.76321,7.90264,7.76321,0,0,31.93,0"
           id="polygon170" />
        <polygon
           fill="#5E5B43"
           points="24.2079,24.1368,24.2079,7.76321,31.93,0,31.93,31.9"
           id="polygon172" />
        <polygon
           fill="#9A916C"
           points="0,31.9,7.87486,24.1368,24.2079,24.1368,31.93,31.9"
           id="polygon174" />
      </g>
    </g>
    <g
       transform="translate(134.035,534.05)"
       id="g193">
      <g
         id="g191">
        <rect
           width="31.93"
           id="connector1pin"
           x="0"
           fill="#8D8C8C"
           y="0"
           height="31.9"
           gorn="0.1.3.0.0" />
        <rect
           width="16.4442"
           x="7.79153"
           fill="#8C8663"
           y="7.73544"
           height="16.4152"
           id="rect181" />
        <polygon
           fill="#B8AF82"
           points="0,31.9,7.79153,24.1368,7.79153,6.97162,0,0"
           id="polygon183" />
        <polygon
           fill="#80795B"
           points="24.2079,7.76321,7.90264,7.76321,0,0,31.93,0"
           id="polygon185" />
        <polygon
           fill="#5E5B43"
           points="24.2079,24.1368,24.2079,7.76321,31.93,0,31.93,31.9"
           id="polygon187" />
        <polygon
           fill="#9A916C"
           points="0,31.9,7.87486,24.1368,24.2079,24.1368,31.93,31.9"
           id="polygon189" />
      </g>
    </g>
    <g
       transform="translate(134.035,34.05)"
       id="g208">
      <g
         id="g206">
        <rect
           width="31.93"
           id="connector8pin"
           x="0"
           fill="#8D8C8C"
           y="0"
           height="31.9"
           gorn="0.1.4.0.0" />
        <rect
           width="16.4442"
           x="7.79153"
           fill="#8C8663"
           y="7.73544"
           height="16.4152"
           id="rect196" />
        <polygon
           fill="#B8AF82"
           points="0,31.9,7.79153,24.1368,7.79153,6.97162,0,0"
           id="polygon198" />
        <polygon
           fill="#80795B"
           points="24.2079,7.76321,7.90264,7.76321,0,0,31.93,0"
           id="polygon200" />
        <polygon
           fill="#5E5B43"
           points="24.2079,24.1368,24.2079,7.76321,31.93,0,31.93,31.9"
           id="polygon202" />
        <polygon
           fill="#9A916C"
           points="0,31.9,7.87486,24.1368,24.2079,24.1368,31.93,31.9"
           id="polygon204" />
      </g>
    </g>
    <g
       transform="translate(234.035,534.05)"
       id="g223">
      <g
         id="g221">
        <rect
           width="31.93"
           id="connector2pin"
           x="0"
           fill="#8D8C8C"
           y="0"
           height="31.9"
           gorn="0.1.5.0.0" />
        <rect
           width="16.4442"
           x="7.79153"
           fill="#8C8663"
           y="7.73544"
           height="16.4152"
           id="rect211" />
        <polygon
           fill="#B8AF82"
           points="0,31.9,7.79153,24.1368,7.79153,6.97162,0,0"
           id="polygon213" />
        <polygon
           fill="#80795B"
           points="24.2079,7.76321,7.90264,7.76321,0,0,31.93,0"
           id="polygon215" />
        <polygon
           fill="#5E5B43"
           points="24.2079,24.1368,24.2079,7.76321,31.93,0,31.93,31.9"
           id="polygon217" />
        <polygon
           fill="#9A916C"
           points="0,31.9,7.87486,24.1368,24.2079,24.1368,31.93,31.9"
           id="polygon219" />
      </g>
    </g>
    <g
       transform="translate(234.035,34.05)"
       id="g238">
      <g
         id="g236">
        <rect
           width="31.93"
           id="connector7pin"
           x="0"
           fill="#8D8C8C"
           y="0"
           height="31.9"
           gorn="0.1.6.0.0" />
        <rect
           width="16.4442"
           x="7.79153"
           fill="#8C8663"
           y="7.73544"
           height="16.4152"
           id="rect226" />
        <polygon
           fill="#B8AF82"
           points="0,31.9,7.79153,24.1368,7.79153,6.97162,0,0"
           id="polygon228" />
        <polygon
           fill="#80795B"
           points="24.2079,7.76321,7.90264,7.76321,0,0,31.93,0"
           id="polygon230" />
        <polygon
           fill="#5E5B43"
           points="24.2079,24.1368,24.2079,7.76321,31.93,0,31.93,31.9"
           id="polygon232" />
        <polygon
           fill="#9A916C"
           points="0,31.9,7.87486,24.1368,24.2079,24.1368,31.93,31.9"
           id="polygon234" />
      </g>
    </g>
    <g
       transform="translate(334.035,534.05)"
       id="g253">
      <g
         id="g251">
        <rect
           width="31.93"
           id="connector3pin"
           x="0"
           fill="#8D8C8C"
           y="0"
           height="31.9"
           gorn="0.1.7.0.0" />
        <rect
           width="16.4442"
           x="7.79153"
           fill="#8C8663"
           y="7.73544"
           height="16.4152"
           id="rect241" />
        <polygon
           fill="#B8AF82"
           points="0,31.9,7.79153,24.1368,7.79153,6.97162,0,0"
           id="polygon243" />
        <polygon
           fill="#80795B"
           points="24.2079,7.76321,7.90264,7.76321,0,0,31.93,0"
           id="polygon245" />
        <polygon
           fill="#5E5B43"
           points="24.2079,24.1368,24.2079,7.76321,31.93,0,31.93,31.9"
           id="polygon247" />
        <polygon
           fill="#9A916C"
           points="0,31.9,7.87486,24.1368,24.2079,24.1368,31.93,31.9"
           id="polygon249" />
      </g>
    </g>
    <g
       transform="translate(334.035,34.05)"
       id="g268">
      <g
         id="g266">
        <rect
           width="31.93"
           id="connector6pin"
           x="0"
           fill="#8D8C8C"
           y="0"
           height="31.9"
           gorn="0.1.8.0.0" />
        <rect
           width="16.4442"
           x="7.79153"
           fill="#8C8663"
           y="7.73544"
           height="16.4152"
           id="rect256" />
        <polygon
           fill="#B8AF82"
           points="0,31.9,7.79153,24.1368,7.79153,6.97162,0,0"
           id="polygon258" />
        <polygon
           fill="#80795B"
           points="24.2079,7.76321,7.90264,7.76321,0,0,31.93,0"
           id="polygon260" />
        <polygon
           fill="#5E5B43"
           points="24.2079,24.1368,24.2079,7.76321,31.93,0,31.93,31.9"
           id="polygon262" />
        <polygon
           fill="#9A916C"
           points="0,31.9,7.87486,24.1368,24.2079,24.1368,31.93,31.9"
           id="polygon264" />
      </g>
    </g>
    <g
       transform="translate(434.035,534.05)"
       id="g283">
      <g
         id="g281">
        <rect
           width="31.93"
           id="connector4pin"
           x="0"
           fill="#8D8C8C"
           y="0"
           height="31.9"
           gorn="0.1.9.0.0" />
        <rect
           width="16.4442"
           x="7.79153"
           fill="#8C8663"
           y="7.73544"
           height="16.4152"
           id="rect271" />
        <polygon
           fill="#B8AF82"
           points="0,31.9,7.79153,24.1368,7.79153,6.97162,0,0"
           id="polygon273" />
        <polygon
           fill="#80795B"
           points="24.2079,7.76321,7.90264,7.76321,0,0,31.93,0"
           id="polygon275" />
        <polygon
           fill="#5E5B43"
           points="24.2079,24.1368,24.2079,7.76321,31.93,0,31.93,31.9"
           id="polygon277" />
        <polygon
           fill="#9A916C"
           points="0,31.9,7.87486,24.1368,24.2079,24.1368,31.93,31.9"
           id="polygon279" />
      </g>
    </g>
    <g
       transform="translate(434.035,34.05)"
       id="g298">
      <g
         id="g296">
        <rect
           width="31.93"
           id="connector5pin"
           x="0"
           fill="#8D8C8C"
           y="0"
           height="31.9"
           gorn="0.1.10.0.0" />
        <rect
           width="16.4442"
           x="7.79153"
           fill="#8C8663"
           y="7.73544"
           height="16.4152"
           id="rect286" />
        <polygon
           fill="#B8AF82"
           points="0,31.9,7.79153,24.1368,7.79153,6.97162,0,0"
           id="polygon288" />
        <polygon
           fill="#80795B"
           points="24.2079,7.76321,7.90264,7.76321,0,0,31.93,0"
           id="polygon290" />
        <polygon
           fill="#5E5B43"
           points="24.2079,24.1368,24.2079,7.76321,31.93,0,31.93,31.9"
           id="polygon292" />
        <polygon
           fill="#9A916C"
           points="0,31.9,7.87486,24.1368,24.2079,24.1368,31.93,31.9"
           id="polygon294" />
      </g>
    </g>
  </g>
</svg>
