<?xml version="1.0" encoding="UTF-8" standalone="no"?>
<!-- Created with Fritzing (http://www.fritzing.org/) -->

<svg
   width="1.20972in"
   viewBox="0 0 30.7269 28.194"
   x="0in"
   y="0in"
   height="1.11in"
   version="1.2"
   id="svg68"
   xmlns="http://www.w3.org/2000/svg"
   xmlns:svg="http://www.w3.org/2000/svg">
  <defs
     id="defs72" />
  <g
     id="schematic"
     gorn="0.0"
     transform="translate(-0.08235834,0.05490556)">
    <rect
       width="20.32"
       x="5.2034702"
       fill="#ffffff"
       y="0.127"
       height="27.940001"
       stroke="none"
       class="interior rect"
       stroke-width="0"
       id="rect4" />
    <g
       aria-label="CH340X"
       id="label"
       style="font-weight:bold;font-size:2.11667px;font-family:'Droid Sans';-inkscape-font-specification:'Droid Sans, Bold';text-anchor:middle;stroke-width:0"
       class="text">
      <path
         d="m 11.647673,14.351938 q -0.171566,0 -0.317294,-0.05064 -0.144694,-0.05064 -0.249081,-0.150896 -0.104387,-0.100252 -0.162264,-0.250114 -0.05684,-0.149862 -0.05684,-0.346233 0,-0.182935 0.05478,-0.331763 0.05478,-0.148828 0.159163,-0.255282 0.100253,-0.102319 0.248048,-0.15813 0.148828,-0.05581 0.324528,-0.05581 0.09715,0 0.174667,0.01137 0.07855,0.01033 0.144694,0.0279 0.06925,0.01964 0.125057,0.04444 0.05684,0.02377 0.09922,0.04444 v 0.373104 h -0.04547 q -0.02894,-0.0248 -0.07338,-0.05891 -0.04341,-0.03411 -0.09922,-0.06718 -0.05684,-0.03307 -0.12299,-0.05581 -0.06615,-0.02274 -0.141594,-0.02274 -0.08372,0 -0.159163,0.02687 -0.07545,0.02584 -0.139527,0.08682 -0.06098,0.05891 -0.09922,0.156063 -0.03721,0.09715 -0.03721,0.235645 0,0.144694 0.04031,0.241846 0.04134,0.09715 0.103353,0.152962 0.06305,0.05684 0.14056,0.08165 0.07752,0.02377 0.152962,0.02377 0.07235,0 0.142628,-0.0217 0.07131,-0.0217 0.131258,-0.05891 0.05064,-0.02997 0.09405,-0.06408 0.04341,-0.03411 0.07131,-0.05891 h 0.04134 v 0.367937 q -0.05788,0.02584 -0.110588,0.04858 -0.05271,0.02274 -0.110587,0.03927 -0.07545,0.0217 -0.141594,0.03307 -0.06615,0.01137 -0.181901,0.01137 z"
         id="path449" />
      <path
         d="m 13.863561,14.321965 h -0.396875 v -0.677996 h -0.586012 v 0.677996 h -0.396875 v -1.538926 h 0.396875 v 0.563274 h 0.586012 v -0.563274 h 0.396875 z"
         id="path451" />
      <path
         d="m 15.308437,13.600561 q 0.05064,0.04341 0.08061,0.101286 0.02997,0.05788 0.02997,0.153996 0,0.108521 -0.04341,0.202572 -0.04238,0.09405 -0.131258,0.161231 -0.08682,0.06511 -0.204639,0.100252 -0.116789,0.03411 -0.284221,0.03411 -0.191203,0 -0.328663,-0.02997 -0.136426,-0.02997 -0.222209,-0.06718 v -0.337965 h 0.04031 q 0.08888,0.05374 0.211874,0.09302 0.124023,0.03927 0.226343,0.03927 0.05994,0 0.130225,-0.0093 0.07028,-0.01034 0.118856,-0.04341 0.03824,-0.02584 0.06098,-0.06201 0.02274,-0.03721 0.02274,-0.106453 0,-0.06718 -0.03101,-0.103353 -0.03101,-0.03721 -0.08165,-0.05271 -0.05064,-0.01654 -0.121957,-0.01757 -0.07131,-0.0021 -0.132292,-0.0021 h -0.08475 v -0.274919 h 0.08785 q 0.08061,0 0.142627,-0.0052 0.06201,-0.0052 0.10542,-0.02377 0.04548,-0.01964 0.06821,-0.05168 0.02274,-0.03307 0.02274,-0.09612 0,-0.04651 -0.02377,-0.07441 -0.02377,-0.02894 -0.05994,-0.04548 -0.04031,-0.0186 -0.09509,-0.0248 -0.05478,-0.0062 -0.09405,-0.0062 -0.09715,0 -0.21084,0.03411 -0.113689,0.03307 -0.220142,0.09612 h -0.03824 v -0.33383 q 0.08475,-0.03411 0.230477,-0.06511 0.145728,-0.03204 0.29559,-0.03204 0.145728,0 0.255282,0.02584 0.109554,0.0248 0.180868,0.06718 0.08475,0.05064 0.12609,0.12299 0.04134,0.07235 0.04134,0.169499 0,0.128158 -0.07958,0.229444 -0.07958,0.100252 -0.209807,0.128158 v 0.01447 q 0.05271,0.0072 0.111622,0.02894 0.05891,0.0217 0.107487,0.06305 z"
         id="path453" />
      <path
         d="M 16.985856,13.967464 H 16.77605 v 0.358635 h -0.379306 v -0.358635 h -0.745175 v -0.291455 l 0.72037,-0.89297 h 0.404111 v 0.903305 h 0.209806 z m -0.589112,-0.28112 v -0.556039 l -0.447519,0.556039 z"
         id="path455" />
      <path
         d="m 18.458637,13.551985 q 0,0.194304 -0.03514,0.3483 -0.03514,0.152962 -0.109554,0.251148 -0.07648,0.100252 -0.196371,0.151929 -0.11989,0.05064 -0.29559,0.05064 -0.172599,0 -0.294556,-0.05168 -0.121957,-0.05168 -0.197404,-0.152962 -0.07648,-0.101286 -0.110588,-0.251148 -0.03411,-0.150896 -0.03411,-0.345199 0,-0.200505 0.03514,-0.3483 0.03514,-0.147795 0.111621,-0.250114 0.07648,-0.101286 0.198438,-0.151929 0.121956,-0.05064 0.291455,-0.05064 0.176734,0 0.296623,0.05271 0.11989,0.05168 0.196371,0.155029 0.07545,0.101286 0.109554,0.250115 0.03411,0.147795 0.03411,0.342098 z m -0.399976,0 q 0,-0.279053 -0.05478,-0.396875 -0.05478,-0.118856 -0.181901,-0.118856 -0.127124,0 -0.181901,0.118856 -0.05478,0.117822 -0.05478,0.398942 0,0.273886 0.05581,0.394809 0.05581,0.120923 0.180868,0.120923 0.125057,0 0.180868,-0.120923 0.05581,-0.120923 0.05581,-0.396876 z"
         id="path457" />
      <path
         d="m 20.166029,14.321965 h -0.458888 l -0.331763,-0.50643 -0.337964,0.50643 h -0.438217 l 0.545704,-0.775147 -0.534335,-0.763779 h 0.457853 l 0.320395,0.479558 0.329696,-0.479558 h 0.43925 l -0.537435,0.748276 z"
         id="path459" />
    </g>
    <line
       x2="5.2034702"
       stroke-linecap="round"
       x1="5.2034702"
       y2="28.066999"
       stroke="#000000"
       y1="0.127"
       class="other"
       stroke-width="0.3175"
       id="line7" />
    <line
       x2="25.5235"
       stroke-linecap="round"
       x1="5.2034702"
       y2="28.066999"
       stroke="#000000"
       y1="28.066999"
       class="other"
       stroke-width="0.3175"
       id="line9" />
    <line
       x2="25.5235"
       stroke-linecap="round"
       x1="25.5235"
       y2="0.127"
       stroke="#000000"
       y1="28.066999"
       class="other"
       stroke-width="0.3175"
       id="line11" />
    <line
       x2="5.2034702"
       stroke-linecap="round"
       x1="25.5235"
       y2="0.127"
       stroke="#000000"
       y1="0.127"
       class="other"
       stroke-width="0.3175"
       id="line13" />
    <line
       x2="5.2034702"
       id="connector0pin"
       stroke-linecap="round"
       x1="0.123472"
       y2="2.6670001"
       stroke="#787878"
       connectorname="VDD"
       y1="2.6670001"
       class="pin"
       stroke-width="0.246944"
       gorn="0.0.6" />
    <rect
       width="9.9999997e-05"
       id="connector0terminal"
       x="0.123472"
       fill="none"
       y="2.6670001"
       height="9.9999997e-05"
       stroke="none"
       class="terminal"
       stroke-width="0"
       gorn="0.0.7" />
    <g
       aria-label="1"
       id="text17"
       style="font-size:1.05833px;font-family:'Droid Sans';-inkscape-font-specification:'Droid Sans, Normal';text-anchor:middle;fill:#8c8c8c;stroke-width:0"
       class="text">
      <path
         d="M 2.6477087,2.2965801 V 1.6118672 q -0.023771,0.023771 -0.080615,0.053227 -0.056327,0.029455 -0.1043864,0.041341 v -0.099219 q 0.063562,-0.01757 0.135909,-0.055811 0.072347,-0.038757 0.1111043,-0.072864 h 0.038241 v 0.8180381 z"
         id="path347" />
    </g>
    <g
       aria-label="UD+"
       id="text19"
       style="font-weight:bold;font-size:1.23472px;font-family:'Droid Sans';-inkscape-font-specification:'Droid Sans, Bold';fill:#787878;stroke-width:0"
       class="text">
      <path
         d="m 6.6387114,2.5889819 q 0,0.1663978 -0.1012857,0.2550227 -0.1012856,0.088625 -0.2984308,0.088625 -0.1971453,0 -0.2984309,-0.088625 Q 5.8398813,2.7553797 5.8398813,2.5895848 v -0.573349 h 0.2327158 v 0.5600854 q 0,0.093448 0.039188,0.1392677 0.039188,0.04582 0.12721,0.04582 0.086816,0 0.126607,-0.044011 0.040394,-0.044011 0.040394,-0.1410764 V 2.0162358 h 0.2327158 z"
         id="path410" />
      <path
         d="m 7.7034162,2.4659922 q 0,0.1254013 -0.057275,0.2248782 Q 7.588867,2.7897445 7.5014478,2.8427989 7.4357328,2.8825896 7.357357,2.8982648 7.2789812,2.91394 7.1716667,2.91394 H 6.8551491 V 2.0162358 H 7.18071 q 0.1097261,0 0.1893077,0.01869 0.079581,0.018087 0.1338417,0.051849 0.092845,0.056672 0.1458995,0.1531342 0.053657,0.09586 0.053657,0.226084 z m -0.2393476,-0.00181 q 0,-0.088625 -0.032556,-0.1513255 -0.031953,-0.063303 -0.1018885,-0.098874 -0.03557,-0.017484 -0.07295,-0.023513 -0.036776,-0.00663 -0.1115347,-0.00663 h -0.05848 v 0.5618941 h 0.05848 q 0.082596,0 0.121181,-0.00723 0.038585,-0.00784 0.075361,-0.027733 0.063303,-0.036173 0.092845,-0.096462 0.029542,-0.060892 0.029542,-0.1501198 z"
         id="path412" />
      <path
         d="M 8.7048175,2.5956137 H 8.3834768 V 2.91394 H 8.2182848 V 2.5956137 H 7.8969441 V 2.434039 H 8.2182848 V 2.1157128 h 0.165192 V 2.434039 h 0.3213407 z"
         id="path414" />
    </g>
    <line
       x2="5.2034702"
       id="line284"
       stroke-linecap="round"
       x1="0.123472"
       y2="2.6670001"
       stroke="#787878"
       connectorname="VDD"
       y1="2.6670001"
       class="pin"
       stroke-width="0"
       gorn="0.0.10" />
    <rect
       width="9.9999997e-05"
       id="connector1terminal"
       x="0.13315836"
       fill="none"
       y="8.2508965"
       height="9.9999997e-05"
       stroke="none"
       class="terminal"
       stroke-width="0"
       gorn="0.0.11" />
    <line
       x2="5.2034702"
       id="connector1pin"
       stroke-linecap="round"
       x1="0.123472"
       y2="8.2893963"
       stroke="#787878"
       connectorname="STAT1"
       y1="8.2893963"
       class="pin"
       stroke-width="0.246944"
       gorn="0.0.12" />
    <line
       x2="5.2034702"
       id="connector2pin"
       stroke-linecap="round"
       x1="0.123472"
       y2="14.035265"
       stroke="#787878"
       connectorname="STAT2"
       y1="14.035265"
       class="pin"
       stroke-width="0.246944"
       gorn="0.0.16" />
    <rect
       width="9.9999997e-05"
       id="connector2terminal"
       x="0.12347201"
       fill="none"
       y="14.042097"
       height="9.9999997e-05"
       stroke="none"
       class="terminal"
       stroke-width="0"
       gorn="0.0.13" />
    <g
       aria-label="2"
       id="text25"
       style="font-size:1.05833px;font-family:'Droid Sans';-inkscape-font-specification:'Droid Sans, Normal';text-anchor:middle;fill:#8c8c8c;stroke-width:0"
       class="text">
      <path
         d="m 2.8214058,7.3636825 q 0,-0.064596 -0.040824,-0.1012858 -0.040824,-0.037207 -0.1111044,-0.037207 -0.049609,0 -0.1002523,0.025321 -0.050643,0.025322 -0.094568,0.072347 v -0.098185 q 0.039274,-0.040824 0.088884,-0.062528 0.050126,-0.021704 0.1173055,-0.021704 0.1085206,0 0.1746664,0.058394 0.066146,0.057878 0.066146,0.1570964 0,0.088367 -0.040824,0.1529622 -0.040308,0.064596 -0.1384929,0.1322917 -0.1002523,0.069247 -0.1343588,0.099219 -0.03359,0.029972 -0.047025,0.057361 -0.013436,0.027388 -0.013436,0.066663 h 0.3979086 v 0.089917 H 2.4421007 v -0.039791 q 0,-0.069246 0.018603,-0.1173055 0.01912,-0.048576 0.062528,-0.094051 0.043408,-0.045992 0.1353923,-0.1100709 0.094051,-0.066146 0.1281575,-0.1157552 0.034623,-0.050126 0.034623,-0.1136882 z"
         id="path344" />
    </g>
    <g
       aria-label="UD-"
       id="text27"
       style="font-weight:bold;font-size:1.23472px;font-family:'Droid Sans';-inkscape-font-specification:'Droid Sans, Bold';fill:#787878;stroke-width:0"
       class="text">
      <path
         d="m 6.6387114,8.2926672 q 0,0.1663978 -0.1012857,0.2550227 -0.1012856,0.088625 -0.2984308,0.088625 -0.1971453,0 -0.2984309,-0.088625 Q 5.8398813,8.459065 5.8398813,8.2932701 v -0.573349 h 0.2327158 v 0.5600854 q 0,0.093448 0.039188,0.1392677 0.039188,0.04582 0.12721,0.04582 0.086816,0 0.126607,-0.044011 0.040394,-0.044011 0.040394,-0.1410764 V 7.7199211 h 0.2327158 z"
         id="path417" />
      <path
         d="m 7.7034162,8.1696775 q 0,0.1254013 -0.057275,0.2248782 -0.057275,0.098874 -0.1446938,0.1519284 -0.065715,0.039791 -0.1440908,0.055466 -0.078376,0.015675 -0.1856903,0.015675 H 6.8551491 V 7.7199211 H 7.18071 q 0.1097261,0 0.1893077,0.01869 0.079581,0.018087 0.1338417,0.051849 0.092845,0.056672 0.1458995,0.1531342 0.053657,0.09586 0.053657,0.226084 z m -0.2393476,-0.00181 q 0,-0.088625 -0.032556,-0.1513255 -0.031953,-0.063303 -0.1018885,-0.098874 -0.03557,-0.017484 -0.07295,-0.023513 -0.036776,-0.00663 -0.1115347,-0.00663 h -0.05848 v 0.5618941 h 0.05848 q 0.082596,0 0.121181,-0.00723 0.038585,-0.00784 0.075361,-0.027733 0.063303,-0.036173 0.092845,-0.096463 0.029542,-0.060892 0.029542,-0.1501198 z"
         id="path419" />
      <path
         d="M 8.2918374,8.3053279 H 7.8318319 V 8.1316954 h 0.4600055 z"
         id="path421" />
    </g>
    <line
       x2="5.2034702"
       id="connector3pin"
       stroke-linecap="round"
       x1="0.123472"
       y2="19.781132"
       stroke="#787878"
       connectorname="~PG"
       y1="19.781132"
       class="pin"
       stroke-width="0.246944"
       gorn="0.0.28" />
    <rect
       width="9.9999997e-05"
       id="connector3terminal"
       x="0.123472"
       fill="none"
       y="19.757099"
       height="9.9999997e-05"
       stroke="none"
       class="terminal"
       stroke-width="0"
       gorn="0.0.17" />
    <g
       aria-label="3"
       id="text31"
       style="font-size:1.05833px;font-family:'Droid Sans';-inkscape-font-specification:'Droid Sans, Normal';text-anchor:middle;fill:#8c8c8c;stroke-width:0"
       class="text">
      <path
         d="m 2.4270503,13.520198 q 0.082166,0.06356 0.1855184,0.06356 0.082682,0 0.1307414,-0.04031 0.048576,-0.04082 0.048576,-0.109038 0,-0.151928 -0.2175578,-0.151928 h -0.066663 v -0.08372 h 0.063562 q 0.1927531,0 0.1927531,-0.142627 0,-0.131775 -0.1472778,-0.131775 -0.084233,0 -0.1586467,0.05684 v -0.0956 q 0.078548,-0.04548 0.1834513,-0.04548 0.1023194,0 0.1643311,0.05374 0.062012,0.05323 0.062012,0.138493 0,0.157096 -0.160197,0.202055 v 0.0021 q 0.086816,0.0093 0.1369426,0.0615 0.050643,0.05168 0.050643,0.129191 0,0.108004 -0.078031,0.174149 -0.077515,0.06615 -0.2067057,0.06615 -0.1136882,0 -0.1834514,-0.04237 z"
         id="path341" />
    </g>
    <g
       aria-label="GND"
       id="text33"
       style="font-weight:bold;font-size:1.23472px;font-family:'Droid Sans';-inkscape-font-specification:'Droid Sans, Bold';fill:#787878;stroke-width:0"
       class="text">
      <path
         d="m 6.6845309,14.286344 q -0.060289,0.02351 -0.159766,0.04702 -0.099477,0.02291 -0.198351,0.02291 -0.2290984,0 -0.3587199,-0.124196 -0.1296215,-0.124798 -0.1296215,-0.34425 0,-0.209203 0.1308272,-0.337016 0.1308273,-0.128416 0.3647489,-0.128416 0.088625,0 0.1688093,0.01628 0.080185,0.01568 0.1784557,0.0633 v 0.210409 h -0.025924 q -0.016881,-0.01266 -0.049437,-0.03557 -0.032556,-0.02351 -0.062701,-0.03979 -0.034968,-0.01929 -0.081993,-0.03316 -0.046423,-0.01387 -0.098874,-0.01387 -0.061495,0 -0.1115347,0.01809 -0.05004,0.01809 -0.089831,0.05547 -0.037982,0.03617 -0.060289,0.09224 -0.021704,0.05547 -0.021704,0.128416 0,0.148914 0.078979,0.227892 0.078979,0.07898 0.2333187,0.07898 0.013264,0 0.028939,-6.03e-4 0.016278,-6.03e-4 0.029542,-0.0018 V 14.012631 H 6.2703451 v -0.169412 h 0.4141858 z"
         id="path424" />
      <path
         d="M 7.7082392,14.337589 H 7.4851696 L 7.1041428,13.721435 v 0.616154 H 6.8919253 v -0.897704 h 0.2767268 l 0.3273696,0.514266 v -0.514266 h 0.2122175 z"
         id="path426" />
      <path
         d="m 8.7856046,13.889642 q 0,0.125401 -0.057275,0.224878 -0.057275,0.09887 -0.1446938,0.151928 -0.065715,0.03979 -0.1440909,0.05547 -0.078376,0.01567 -0.1856903,0.01567 H 7.9373375 v -0.897704 h 0.3255609 q 0.1097261,0 0.1893076,0.01869 0.079582,0.01809 0.1338418,0.05185 0.092845,0.05667 0.1458995,0.153135 0.053657,0.09586 0.053657,0.226084 z m -0.2393476,-0.0018 q 0,-0.08863 -0.032556,-0.151326 -0.031953,-0.0633 -0.1018885,-0.09887 -0.035571,-0.01748 -0.07295,-0.02351 -0.036776,-0.0066 -0.1115348,-0.0066 h -0.05848 v 0.561894 h 0.05848 q 0.082596,0 0.1211811,-0.0072 0.038585,-0.0078 0.075361,-0.02773 0.063303,-0.03617 0.092845,-0.09646 0.029542,-0.06089 0.029542,-0.15012 z"
         id="path428" />
    </g>
    <line
       x2="5.2034702"
       id="connector4pin"
       stroke-linecap="round"
       x1="0.123472"
       y2="25.527"
       stroke="#787878"
       connectorname="VSS"
       y1="25.527"
       class="pin"
       stroke-width="0.246944"
       gorn="0.0.20" />
    <rect
       width="9.9999997e-05"
       id="connector4terminal"
       x="0.123472"
       fill="none"
       y="25.527"
       height="9.9999997e-05"
       stroke="none"
       class="terminal"
       stroke-width="0"
       gorn="0.0.21" />
    <g
       aria-label="5"
       id="text37"
       style="font-size:1.05833px;font-family:'Droid Sans';-inkscape-font-specification:'Droid Sans, Normal';text-anchor:middle;fill:#8c8c8c;stroke-width:0"
       class="text">
      <path
         d="m 2.8978227,24.909588 q 0,0.117305 -0.078031,0.189135 -0.077515,0.07183 -0.2087729,0.07183 -0.1126546,0 -0.1679484,-0.03359 v -0.103353 q 0.081132,0.05271 0.1653646,0.05271 0.083716,0 0.1348755,-0.04599 0.051677,-0.04651 0.051677,-0.12299 0,-0.07648 -0.053743,-0.118856 -0.053227,-0.04289 -0.1508952,-0.04289 -0.075448,0 -0.1359091,0.0067 l 0.029456,-0.406177 h 0.3741374 v 0.08888 H 2.5691605 l -0.016536,0.22686 0.072864,-0.0031 q 0.1271241,0 0.1994711,0.06356 0.072864,0.06305 0.072864,0.177251 z"
         id="path335" />
    </g>
    <g
       aria-label="CTS#"
       id="text39"
       style="font-weight:bold;font-size:1.23472px;font-family:'Droid Sans';-inkscape-font-specification:'Droid Sans, Bold';fill:#787878;stroke-width:0"
       class="text">
      <path
         d="m 6.2962694,25.791383 q -0.1000799,0 -0.1850875,-0.02954 -0.084405,-0.02954 -0.1452966,-0.08802 -0.060892,-0.05848 -0.094654,-0.145899 -0.033159,-0.08742 -0.033159,-0.201969 0,-0.106711 0.031953,-0.193528 0.031953,-0.08682 0.092845,-0.148914 0.05848,-0.05969 0.1446938,-0.09224 0.086816,-0.03256 0.1893076,-0.03256 0.056672,0 0.1018886,0.0066 0.04582,0.006 0.084405,0.01628 0.040394,0.01146 0.07295,0.02592 0.033159,0.01387 0.057878,0.02593 v 0.217643 h -0.026527 q -0.016881,-0.01447 -0.042805,-0.03436 -0.025321,-0.0199 -0.057878,-0.03919 -0.033159,-0.01929 -0.071744,-0.03256 -0.038585,-0.01326 -0.082596,-0.01326 -0.048834,0 -0.092845,0.01567 -0.044011,0.01507 -0.08139,0.05064 -0.035571,0.03436 -0.057878,0.09104 -0.021704,0.05667 -0.021704,0.137459 0,0.0844 0.023513,0.141077 0.024116,0.05667 0.060289,0.08923 0.036776,0.03316 0.081993,0.04763 0.045217,0.01387 0.089228,0.01387 0.042202,0 0.083199,-0.01266 0.041599,-0.01266 0.076567,-0.03436 0.029542,-0.01748 0.054863,-0.03738 0.025321,-0.0199 0.0416,-0.03437 h 0.024116 v 0.214629 q -0.033762,0.01507 -0.064509,0.02834 -0.030747,0.01326 -0.064509,0.02291 -0.044011,0.01266 -0.082596,0.01929 -0.038585,0.0066 -0.1061087,0.0066 z"
         id="path440" />
      <path
         d="M 7.4863754,25.049827 H 7.2060313 v 0.724072 h -0.23151 V 25.049827 H 6.6941771 v -0.173632 h 0.7921983 z"
         id="path442" />
      <path
         d="m 8.3442887,25.491746 q 0,0.132636 -0.1127406,0.215835 -0.1121376,0.0826 -0.3050626,0.0826 -0.1115348,0 -0.1947337,-0.01929 -0.082596,-0.0199 -0.1549429,-0.05004 v -0.215232 h 0.025321 q 0.071744,0.05727 0.1603689,0.08802 0.089228,0.03075 0.171221,0.03075 0.021101,0 0.055466,-0.0036 0.034365,-0.0036 0.056069,-0.01206 0.026527,-0.01085 0.043408,-0.02713 0.017484,-0.01628 0.017484,-0.04823 0,-0.02954 -0.025321,-0.05064 -0.024718,-0.0217 -0.07295,-0.03316 -0.050643,-0.01206 -0.1073145,-0.02231 -0.056069,-0.01085 -0.1055059,-0.02713 -0.1133434,-0.03678 -0.1633833,-0.09948 -0.049437,-0.0633 -0.049437,-0.156752 0,-0.125401 0.1121377,-0.20438 0.1127405,-0.07958 0.2893875,-0.07958 0.088625,0 0.1748383,0.01748 0.086816,0.01688 0.1501197,0.04281 v 0.206791 h -0.024719 q -0.05426,-0.04341 -0.1332388,-0.07235 -0.078376,-0.02954 -0.1603689,-0.02954 -0.028939,0 -0.057878,0.0042 -0.028336,0.0036 -0.054863,0.01447 -0.023513,0.009 -0.040394,0.02773 -0.016881,0.01809 -0.016881,0.0416 0,0.03557 0.02713,0.05486 0.02713,0.01869 0.1024914,0.03437 0.049437,0.01025 0.094654,0.01989 0.04582,0.0096 0.098271,0.02653 0.1030943,0.03376 0.1519285,0.09224 0.049437,0.05788 0.049437,0.150722 z"
         id="path444" />
      <path
         d="M 9.3673941,25.228283 H 9.1768806 l -0.047025,0.187499 h 0.1700151 v 0.144694 H 9.0936817 l -0.054863,0.213423 H 8.893522 l 0.053657,-0.213423 H 8.7880162 l -0.053657,0.213423 H 8.5866507 l 0.05426,-0.213423 H 8.4781304 v -0.144694 h 0.1989539 l 0.046423,-0.187499 h -0.176647 v -0.144091 h 0.2128204 l 0.051849,-0.207997 h 0.1477082 l -0.051849,0.207997 h 0.1585603 l 0.052451,-0.207997 h 0.1477082 l -0.052451,0.207997 h 0.1537371 z m -0.3352072,-0.0012 H 8.8706122 l -0.048231,0.190514 h 0.1621775 z"
         id="path446" />
    </g>
    <g
       aria-label="4"
       id="text49"
       style="font-size:1.05833px;font-family:'Droid Sans';-inkscape-font-specification:'Droid Sans, Normal';text-anchor:middle;fill:#8c8c8c;stroke-width:0"
       class="text">
      <path
         d="m 2.7239583,18.672987 v 0.52865 h 0.1198894 v 0.08372 H 2.7239583 v 0.188102 H 2.6257731 V 19.285353 H 2.2521524 v -0.07906 Q 2.351888,19.09415 2.452657,18.947906 2.5534261,18.801662 2.6190552,18.672987 Z m -0.3581177,0.52865 h 0.2599325 v -0.381372 q -0.053743,0.09663 -0.1152385,0.187586 -0.061495,0.09043 -0.144694,0.193786 z"
         id="path338" />
    </g>
    <line
       x2="30.873823"
       id="connector9pin"
       stroke-linecap="round"
       x1="25.793825"
       y2="2.6736126"
       stroke="#787878"
       connectorname="VDD"
       y1="2.6736126"
       class="pin"
       stroke-width="0.246944"
       gorn="0.0.6" />
    <rect
       width="9.9999997e-05"
       id="connector9terminal"
       x="30.867165"
       fill="none"
       y="2.6736126"
       height="9.9999997e-05"
       stroke="none"
       class="terminal"
       stroke-width="0"
       gorn="0.0.7" />
    <g
       aria-label="10"
       id="text17-7"
       style="font-size:1.05833px;font-family:'Droid Sans';-inkscape-font-specification:'Droid Sans, Normal';text-anchor:middle;fill:#8c8c8c;stroke-width:0"
       class="text">
      <path
         d="M 28.007744,2.3031926 V 1.6184798 q -0.02377,0.023771 -0.08061,0.053227 -0.05633,0.029456 -0.104387,0.041341 v -0.099219 q 0.06356,-0.01757 0.135909,-0.055811 0.07235,-0.038757 0.111105,-0.072864 h 0.03824 v 0.818038 z"
         id="path350" />
      <path
         d="m 28.380848,1.9187199 q 0,-0.2118734 0.07028,-0.3203939 0.07028,-0.1090373 0.203605,-0.1090373 0.254248,0 0.254248,0.4103109 0,0.2025717 -0.07183,0.3100587 -0.07131,0.1069702 -0.200505,0.1069702 -0.121956,0 -0.189136,-0.1018026 -0.06666,-0.1018026 -0.06666,-0.296106 z m 0.103353,-0.00465 q 0,0.3188437 0.161747,0.3188437 0.159163,0 0.159163,-0.3240113 0,-0.3353801 -0.156062,-0.3353801 -0.164848,0 -0.164848,0.3405477 z"
         id="path352" />
    </g>
    <line
       x2="30.873823"
       id="connector8pin"
       stroke-linecap="round"
       x1="25.793825"
       y2="8.2960091"
       stroke="#787878"
       connectorname="STAT1"
       y1="8.2960091"
       class="pin"
       stroke-width="0.246944"
       gorn="0.0.12" />
    <rect
       width="9.9999997e-05"
       id="connector8terminal"
       x="30.867165"
       fill="none"
       y="8.2762966"
       height="9.9999997e-05"
       stroke="none"
       class="terminal"
       stroke-width="0"
       gorn="0.0.13" />
    <g
       aria-label="9"
       id="text25-8"
       style="font-size:1.05833px;font-family:'Droid Sans';-inkscape-font-specification:'Droid Sans, Normal';text-anchor:middle;fill:#8c8c8c;stroke-width:0"
       class="text">
      <path
         d="m 28.146557,7.8524356 q 0.06615,0.038241 0.142627,0.038241 0.107487,0 0.166398,-0.084749 0.05943,-0.084749 0.05943,-0.2408122 -0.001,0.00103 -0.0021,0 -0.05271,0.1002523 -0.17725,0.1002523 -0.100769,0 -0.166915,-0.069247 -0.06615,-0.069246 -0.06615,-0.179834 0,-0.1178223 0.07235,-0.1932699 0.07235,-0.075964 0.187586,-0.075964 0.119372,0 0.186552,0.094051 0.06718,0.093534 0.06718,0.2728516 0,0.2216919 -0.08682,0.3410645 -0.08682,0.1193726 -0.240296,0.1193726 -0.08423,0 -0.142627,-0.027388 z m 0.05839,-0.4490683 q 0,0.080615 0.04134,0.1281576 0.04134,0.047026 0.114205,0.047026 0.06304,0 0.105936,-0.042891 0.04289,-0.043408 0.04289,-0.1049032 0,-0.0863 -0.04289,-0.142627 -0.04237,-0.056844 -0.112138,-0.056844 -0.0646,0 -0.10697,0.049093 -0.04237,0.049093 -0.04237,0.1229899 z"
         id="path355" />
    </g>
    <line
       x2="30.873823"
       id="connector7pin"
       stroke-linecap="round"
       x1="25.793825"
       y2="14.041878"
       stroke="#787878"
       connectorname="STAT2"
       y1="14.041878"
       class="pin"
       stroke-width="0.246944"
       gorn="0.0.16" />
    <rect
       width="9.9999997e-05"
       id="connector7terminal"
       x="30.867165"
       fill="none"
       y="14.016698"
       height="9.9999997e-05"
       stroke="none"
       class="terminal"
       stroke-width="0"
       gorn="0.0.17" />
    <g
       aria-label="8"
       id="text31-5"
       style="font-size:1.05833px;font-family:'Droid Sans';-inkscape-font-specification:'Droid Sans, Normal';text-anchor:middle;fill:#8c8c8c;stroke-width:0"
       class="text">
      <path
         d="m 28.074148,13.437411 q 0,-0.06925 0.04134,-0.127641 0.04134,-0.05839 0.106454,-0.0832 -0.05219,-0.02946 -0.08268,-0.07545 -0.03049,-0.04599 -0.03049,-0.09974 0,-0.05684 0.02894,-0.10387 0.02946,-0.04702 0.08113,-0.0739 0.05219,-0.02687 0.114722,-0.02687 0.06305,0 0.115238,0.02687 0.05219,0.02636 0.08113,0.07338 0.02894,0.04703 0.02894,0.104387 0,0.05271 -0.02997,0.09922 -0.02946,0.04599 -0.08217,0.07596 0.06511,0.02532 0.105937,0.08372 0.04082,0.05839 0.04082,0.127124 0,0.06821 -0.03256,0.122473 -0.03256,0.05374 -0.0925,0.08372 -0.05994,0.02997 -0.134875,0.02997 -0.07441,0 -0.133842,-0.02997 -0.05943,-0.02997 -0.0925,-0.08423 -0.03307,-0.05426 -0.03307,-0.121956 z m 0.09922,-0.0047 q 0,0.07131 0.04393,0.114205 0.04392,0.04289 0.116789,0.04289 0.07131,0 0.116272,-0.04341 0.04547,-0.04392 0.04547,-0.113688 0,-0.06615 -0.04599,-0.111104 -0.04547,-0.04548 -0.115755,-0.04548 -0.06976,0 -0.115239,0.04444 -0.04547,0.04392 -0.04547,0.112138 z m 0.02894,-0.373104 q 0,0.05374 0.03824,0.0925 0.03824,0.03824 0.09354,0.03824 0.05426,0 0.09353,-0.03876 0.03979,-0.03876 0.03979,-0.09198 0,-0.05426 -0.03824,-0.09198 -0.03772,-0.03772 -0.09508,-0.03772 -0.05684,0 -0.09457,0.03721 -0.03721,0.03669 -0.03721,0.0925 z"
         id="path358" />
    </g>
    <line
       x2="30.873823"
       id="connector5pin"
       stroke-linecap="round"
       x1="25.793825"
       y2="25.533613"
       stroke="#787878"
       connectorname="VSS"
       y1="25.533613"
       class="pin"
       stroke-width="0.246944"
       gorn="0.0.20" />
    <rect
       width="9.9999997e-05"
       id="connector5terminal"
       x="30.867165"
       fill="none"
       y="25.533613"
       height="9.9999997e-05"
       stroke="none"
       class="terminal"
       stroke-width="0"
       gorn="0.0.21" />
    <g
       aria-label="6"
       id="text37-5"
       style="font-size:1.05833px;font-family:'Droid Sans';-inkscape-font-specification:'Droid Sans, Normal';text-anchor:middle;fill:#8c8c8c;stroke-width:0"
       class="text">
      <path
         d="m 28.549571,24.465582 q -0.06253,-0.03204 -0.130741,-0.03204 -0.10387,0 -0.166915,0.09043 -0.06304,0.09043 -0.06408,0.247014 h 0.0026 q 0.05684,-0.110071 0.181384,-0.110071 0.10387,0 0.165882,0.0677 0.06201,0.0677 0.06201,0.179834 0,0.117305 -0.07183,0.192753 -0.07131,0.07545 -0.182418,0.07545 -0.121956,0 -0.191719,-0.09508 -0.06925,-0.0956 -0.06925,-0.270785 0,-0.211873 0.09095,-0.336413 0.09147,-0.125057 0.240295,-0.125057 0.08527,0 0.133842,0.02325 z m -0.355534,0.435632 q 0,0.07906 0.04186,0.135392 0.04237,0.05633 0.112138,0.05633 0.06615,0 0.107487,-0.04858 0.04134,-0.04858 0.04134,-0.125057 0,-0.08268 -0.03927,-0.128674 -0.03876,-0.04599 -0.110587,-0.04599 -0.06821,0 -0.110588,0.04651 -0.04237,0.04651 -0.04237,0.110071 z"
         id="path364" />
    </g>
    <line
       x2="30.873823"
       id="connector6pin"
       stroke-linecap="round"
       x1="25.793825"
       y2="19.787745"
       stroke="#787878"
       connectorname="~PG"
       y1="19.787745"
       class="pin"
       stroke-width="0.246944"
       gorn="0.0.28" />
    <rect
       width="9.9999997e-05"
       id="connector6terminal"
       x="30.765566"
       fill="none"
       y="19.807899"
       height="9.9999997e-05"
       stroke="none"
       class="terminal"
       stroke-width="0"
       gorn="0.0.29" />
    <g
       aria-label="7"
       id="text49-2"
       style="font-size:1.05833px;font-family:'Droid Sans';-inkscape-font-specification:'Droid Sans, Normal';text-anchor:middle;fill:#8c8c8c;stroke-width:0"
       class="text">
      <path
         d="m 28.479575,18.742129 q -0.12609,0.220141 -0.198437,0.407727 -0.07183,0.187068 -0.08888,0.330212 h -0.10542 q 0.01912,-0.141076 0.09043,-0.321944 0.07131,-0.180868 0.190686,-0.389124 h -0.396875 v -0.0894 h 0.508496 z"
         id="path361" />
    </g>
    <g
       aria-label="RTS#"
       id="text51"
       style="font-weight:bold;font-size:1.23472px;font-family:'Droid Sans';-inkscape-font-specification:'Droid Sans, Bold';fill:#787878;stroke-width:0"
       class="text">
      <path
         d="m 6.3426919,19.433561 q 0,-0.03376 -0.013866,-0.05788 -0.013866,-0.02411 -0.047628,-0.03798 -0.023513,-0.0096 -0.054863,-0.01145 -0.03135,-0.0024 -0.07295,-0.0024 h -0.083802 v 0.241759 h 0.071141 q 0.055466,0 0.092845,-0.0054 0.037379,-0.0054 0.062701,-0.02472 0.024116,-0.01869 0.034968,-0.041 0.011455,-0.02291 0.011455,-0.06089 z m 0.3611315,0.622786 H 6.4210677 L 6.1762941,19.727169 H 6.0695825 v 0.329178 H 5.8392783 v -0.897704 h 0.3882615 q 0.079582,0 0.1368562,0.009 0.057275,0.009 0.1073145,0.03919 0.050643,0.03015 0.080184,0.07838 0.030144,0.04763 0.030144,0.119975 0,0.09948 -0.046423,0.162178 -0.04582,0.0627 -0.1314301,0.1043 z"
         id="path431" />
      <path
         d="M 7.5074767,19.332275 H 7.2271325 v 0.724072 h -0.23151 V 19.332275 H 6.7152784 v -0.173632 h 0.7921983 z"
         id="path433" />
      <path
         d="m 8.3653899,19.774194 q 0,0.132636 -0.1127405,0.215835 -0.1121377,0.0826 -0.3050627,0.0826 -0.1115347,0 -0.1947336,-0.01929 -0.082596,-0.0199 -0.1549429,-0.05004 v -0.215232 h 0.025321 q 0.071744,0.05727 0.1603689,0.08802 0.089228,0.03075 0.1712209,0.03075 0.021101,0 0.055466,-0.0036 0.034365,-0.0036 0.056069,-0.01206 0.026527,-0.01085 0.043408,-0.02713 0.017484,-0.01628 0.017484,-0.04823 0,-0.02954 -0.025321,-0.05064 -0.024719,-0.0217 -0.07295,-0.03316 -0.050643,-0.01206 -0.1073146,-0.02231 -0.056069,-0.01085 -0.1055058,-0.02713 -0.1133435,-0.03678 -0.1633834,-0.09948 -0.049437,-0.0633 -0.049437,-0.156752 0,-0.125401 0.1121376,-0.20438 0.1127406,-0.07958 0.2893875,-0.07958 0.088625,0 0.1748383,0.01748 0.086816,0.01688 0.1501198,0.0428 v 0.206791 h -0.024719 q -0.05426,-0.04341 -0.1332389,-0.07235 -0.078376,-0.02954 -0.1603689,-0.02954 -0.028939,0 -0.057877,0.0042 -0.028336,0.0036 -0.054863,0.01447 -0.023513,0.009 -0.040394,0.02773 -0.016881,0.01809 -0.016881,0.0416 0,0.03557 0.02713,0.05486 0.02713,0.01869 0.1024914,0.03437 0.049437,0.01025 0.094654,0.0199 0.04582,0.0096 0.098271,0.02653 0.1030943,0.03376 0.1519284,0.09224 0.049437,0.05788 0.049437,0.150723 z"
         id="path435" />
      <path
         d="M 9.3884953,19.510731 H 9.1979819 l -0.047026,0.187499 h 0.1700152 v 0.144694 H 9.114783 l -0.054863,0.213423 H 8.9146233 l 0.053657,-0.213423 H 8.8091174 l -0.053657,0.213423 H 8.607752 l 0.05426,-0.213423 H 8.4992316 V 19.69823 h 0.1989539 l 0.046423,-0.187499 H 8.5679612 V 19.36664 h 0.2128204 l 0.051849,-0.207997 H 8.9803384 L 8.9284898,19.36664 H 9.08705 l 0.052452,-0.207997 h 0.1477082 l -0.052452,0.207997 h 0.1537371 z m -0.3352072,-0.0012 H 8.8917134 l -0.048231,0.190514 h 0.1621776 z"
         id="path437" />
    </g>
    <g
       aria-label="V3"
       id="text19-1"
       style="font-weight:bold;font-size:1.23472px;font-family:'Droid Sans';-inkscape-font-specification:'Droid Sans, Bold';fill:#787878;stroke-width:0"
       class="text">
      <path
         d="m 24.207489,2.027895 -0.32737,0.8977041 H 23.620876 L 23.293507,2.027895 h 0.242965 l 0.21704,0.6306236 0.217041,-0.6306236 z"
         id="path405" />
      <path
         d="m 24.95025,2.5047814 q 0.02954,0.025322 0.04703,0.059083 0.01748,0.033762 0.01748,0.089831 0,0.063303 -0.02532,0.1181666 -0.02472,0.054863 -0.07657,0.094051 -0.05064,0.037982 -0.119372,0.05848 -0.06813,0.019895 -0.165795,0.019895 -0.111535,0 -0.191719,-0.017484 -0.07958,-0.017484 -0.129622,-0.039188 V 2.6904718 h 0.02351 q 0.05185,0.03135 0.123592,0.05426 0.07235,0.02291 0.132033,0.02291 0.03497,0 0.07597,-0.00543 0.041,-0.00603 0.06933,-0.025321 0.02231,-0.015072 0.03557,-0.036173 0.01326,-0.021704 0.01326,-0.062098 0,-0.039188 -0.01809,-0.060289 -0.01809,-0.021704 -0.04763,-0.030747 -0.02954,-0.00965 -0.07114,-0.010249 -0.0416,-0.00121 -0.07717,-0.00121 h -0.04944 V 2.3757629 h 0.05125 q 0.04702,0 0.0832,-0.00301 0.03617,-0.00301 0.06149,-0.013866 0.02653,-0.011455 0.03979,-0.030145 0.01326,-0.019293 0.01326,-0.056069 0,-0.02713 -0.01387,-0.043408 -0.01387,-0.016881 -0.03497,-0.026527 -0.02351,-0.010852 -0.05547,-0.014469 -0.03195,-0.00362 -0.05486,-0.00362 -0.05667,0 -0.12299,0.019895 -0.06632,0.019292 -0.128416,0.056069 h -0.02231 V 2.0658771 q 0.04944,-0.019895 0.134445,-0.037982 0.08501,-0.01869 0.172427,-0.01869 0.08501,0 0.148914,0.015072 0.06391,0.014469 0.105506,0.039188 0.04944,0.029542 0.07355,0.071744 0.02412,0.042202 0.02412,0.098874 0,0.074758 -0.04642,0.1338417 -0.04642,0.05848 -0.122387,0.074758 v 0.00844 q 0.03075,0.00422 0.06511,0.016881 0.03436,0.012661 0.0627,0.036776 z"
         id="path407" />
    </g>
    <g
       aria-label="RXD"
       id="text27-4"
       style="font-weight:bold;font-size:1.23472px;font-family:'Droid Sans';-inkscape-font-specification:'Droid Sans, Bold';fill:#787878;stroke-width:0"
       class="text">
      <path
         d="m 22.84978,8.0064988 q 0,-0.033762 -0.01387,-0.057877 -0.01387,-0.024116 -0.04763,-0.037982 -0.02351,-0.00965 -0.05486,-0.011455 -0.03135,-0.00241 -0.07295,-0.00241 h -0.0838 v 0.2417591 h 0.07114 q 0.05547,0 0.09285,-0.00543 0.03738,-0.00543 0.0627,-0.024719 0.02412,-0.01869 0.03497,-0.040997 0.01145,-0.02291 0.01145,-0.060892 z m 0.361132,0.6227861 H 22.928156 L 22.683382,8.3001066 H 22.576671 V 8.6292849 H 22.346366 V 7.7315807 h 0.388262 q 0.07958,0 0.136856,0.00904 0.05728,0.00904 0.107315,0.039188 0.05064,0.030145 0.08018,0.078376 0.03014,0.047628 0.03014,0.1199752 0,0.099477 -0.04642,0.1621776 -0.04582,0.062701 -0.13143,0.1043 z"
         id="path398" />
      <path
         d="M 24.1261,8.6292849 H 23.858416 L 23.664888,8.3338685 23.467743,8.6292849 h -0.255626 l 0.318327,-0.452168 -0.311695,-0.4455362 h 0.267081 l 0.186896,0.2797413 0.192322,-0.2797413 h 0.256228 l -0.313503,0.4364928 z"
         id="path400" />
      <path
         d="m 25.103385,8.1813371 q 0,0.1254013 -0.05727,0.2248782 -0.05728,0.098874 -0.144694,0.1519285 -0.06571,0.039791 -0.144091,0.055466 -0.07838,0.015675 -0.18569,0.015675 H 24.255118 V 7.7315807 h 0.325561 q 0.109726,0 0.189308,0.01869 0.07958,0.018087 0.133841,0.051849 0.09285,0.056672 0.1459,0.1531342 0.05366,0.09586 0.05366,0.226084 z m -0.239347,-0.00181 q 0,-0.088625 -0.03256,-0.1513256 -0.03195,-0.063303 -0.101889,-0.098874 -0.03557,-0.017484 -0.07295,-0.023513 -0.03678,-0.00663 -0.111534,-0.00663 h -0.05848 v 0.5618941 h 0.05848 q 0.0826,0 0.121181,-0.00723 0.03859,-0.00784 0.07536,-0.027733 0.0633,-0.036173 0.09285,-0.096463 0.02954,-0.060892 0.02954,-0.1501197 z"
         id="path402" />
    </g>
    <g
       aria-label="TXD"
       id="text33-8"
       style="font-weight:bold;font-size:1.23472px;font-family:'Droid Sans';-inkscape-font-specification:'Droid Sans, Bold';fill:#787878;stroke-width:0"
       class="text">
      <path
         d="m 23.146402,13.625177 h -0.280344 v 0.724072 h -0.23151 v -0.724072 h -0.280345 v -0.173632 h 0.792199 z"
         id="path391" />
      <path
         d="M 24.099572,14.349249 H 23.831888 L 23.63836,14.053832 23.441215,14.349249 H 23.18559 l 0.318326,-0.452168 -0.311695,-0.445536 h 0.267081 l 0.186896,0.279741 0.192322,-0.279741 h 0.256229 l -0.313503,0.436493 z"
         id="path393" />
      <path
         d="m 25.076857,13.901301 q 0,0.125401 -0.05727,0.224878 -0.05728,0.09887 -0.144694,0.151929 -0.06572,0.03979 -0.144091,0.05547 -0.07838,0.01567 -0.18569,0.01567 H 24.22859 v -0.897704 h 0.325561 q 0.109726,0 0.189308,0.01869 0.07958,0.01809 0.133842,0.05185 0.09285,0.05667 0.145899,0.153134 0.05366,0.09586 0.05366,0.226084 z m -0.239347,-0.0018 q 0,-0.08862 -0.03256,-0.151325 -0.03195,-0.0633 -0.101889,-0.09887 -0.03557,-0.01748 -0.07295,-0.02351 -0.03678,-0.0066 -0.111534,-0.0066 H 24.4601 v 0.561894 h 0.05848 q 0.0826,0 0.121181,-0.0072 0.03858,-0.0078 0.07536,-0.02773 0.0633,-0.03617 0.09285,-0.09646 0.02954,-0.06089 0.02954,-0.15012 z"
         id="path395" />
    </g>
    <g
       aria-label="TNOW/DTR"
       id="text39-5"
       style="font-weight:bold;font-size:1.23472px;font-family:'Droid Sans';-inkscape-font-specification:'Droid Sans, Bold';fill:#787878;stroke-width:0"
       class="text">
      <path
         d="m 17.880159,25.034035 h -0.280344 v 0.724071 h -0.23151 V 25.034035 H 17.08796 v -0.173633 h 0.792199 z"
         id="path367" />
      <path
         d="m 18.83574,25.758106 h -0.223069 l -0.381027,-0.616154 v 0.616154 h -0.212218 v -0.897704 h 0.276727 l 0.32737,0.514266 v -0.514266 h 0.212217 z"
         id="path369" />
      <path
         d="m 19.937824,25.309556 q 0,0.214629 -0.122989,0.341236 -0.12299,0.126004 -0.340031,0.126004 -0.216437,0 -0.339427,-0.126004 -0.12299,-0.126607 -0.12299,-0.341236 0,-0.216438 0.12299,-0.341839 0.12299,-0.126005 0.339427,-0.126005 0.215835,0 0.339428,0.126005 0.123592,0.125401 0.123592,0.341839 z m -0.306871,0.227289 q 0.03376,-0.041 0.05004,-0.09646 0.01628,-0.05607 0.01628,-0.13143 0,-0.08079 -0.01869,-0.137459 -0.01869,-0.05667 -0.04883,-0.09164 -0.03075,-0.03617 -0.07114,-0.05245 -0.03979,-0.01628 -0.0832,-0.01628 -0.04401,0 -0.0832,0.01568 -0.03859,0.01567 -0.07114,0.05185 -0.03014,0.03376 -0.04944,0.09345 -0.01869,0.05908 -0.01869,0.137459 0,0.08018 0.01809,0.136856 0.01869,0.05607 0.04883,0.09164 0.03015,0.03557 0.07054,0.05245 0.04039,0.01688 0.08501,0.01688 0.04461,0 0.08501,-0.01688 0.04039,-0.01748 0.07054,-0.05366 z"
         id="path371" />
      <path
         d="m 21.353411,24.860402 -0.241759,0.897704 H 20.855424 L 20.694452,25.173302 20.5377,25.758106 h -0.256228 l -0.241759,-0.897704 h 0.241759 l 0.138062,0.617963 0.165192,-0.617963 h 0.230907 l 0.157354,0.617963 0.144694,-0.617963 z"
         id="path373" />
      <path
         d="m 22.130538,24.820008 -0.478093,1.133435 h -0.185087 l 0.476283,-1.133435 z"
         id="path375" />
      <path
         d="m 23.2073,25.310159 q 0,0.125401 -0.05727,0.224878 -0.05728,0.09887 -0.144694,0.151928 -0.06572,0.03979 -0.144091,0.05547 -0.07838,0.01568 -0.18569,0.01568 h -0.316518 v -0.897704 h 0.325561 q 0.109726,0 0.189308,0.01869 0.07958,0.01809 0.133841,0.05185 0.09285,0.05667 0.1459,0.153135 0.05366,0.09586 0.05366,0.226084 z m -0.239347,-0.0018 q 0,-0.08863 -0.03256,-0.151326 -0.03195,-0.0633 -0.101889,-0.09887 -0.03557,-0.01748 -0.07295,-0.02351 -0.03678,-0.0066 -0.111534,-0.0066 h -0.05848 V 25.5899 h 0.05848 q 0.0826,0 0.121181,-0.0072 0.03858,-0.0078 0.07536,-0.02773 0.0633,-0.03617 0.09284,-0.09646 0.02954,-0.06089 0.02954,-0.15012 z"
         id="path377" />
      <path
         d="M 24.086315,25.034035 H 23.80597 v 0.724071 h -0.23151 v -0.724071 h -0.280344 v -0.173633 h 0.792199 z"
         id="path379" />
      <path
         d="m 24.728996,25.13532 q 0,-0.03376 -0.01387,-0.05788 -0.01387,-0.02412 -0.04763,-0.03798 -0.02351,-0.0096 -0.05486,-0.01145 -0.03135,-0.0024 -0.07295,-0.0024 h -0.0838 v 0.241759 h 0.07114 q 0.05547,0 0.09284,-0.0054 0.03738,-0.0054 0.0627,-0.02472 0.02412,-0.01869 0.03497,-0.041 0.01145,-0.02291 0.01145,-0.06089 z m 0.361132,0.622786 h -0.282756 l -0.244773,-0.329178 h -0.106712 v 0.329178 h -0.230304 v -0.897704 h 0.388261 q 0.07958,0 0.136856,0.009 0.05728,0.009 0.107315,0.03919 0.05064,0.03015 0.08018,0.07838 0.03014,0.04763 0.03014,0.119975 0,0.09948 -0.04642,0.162178 -0.04582,0.0627 -0.13143,0.1043 z"
         id="path381" />
    </g>
    <g
       aria-label="VCC"
       id="text51-2"
       style="font-weight:bold;font-size:1.23472px;font-family:'Droid Sans';-inkscape-font-specification:'Droid Sans, Bold';fill:#787878;stroke-width:0"
       class="text">
      <path
         d="m 23.223572,19.170302 -0.32737,0.897705 H 22.636959 L 22.30959,19.170302 h 0.242965 l 0.21704,0.630624 0.217041,-0.630624 z"
         id="path384" />
      <path
         d="m 23.758336,20.08549 q -0.10008,0 -0.185088,-0.02954 -0.0844,-0.02954 -0.145296,-0.08802 -0.06089,-0.05848 -0.09465,-0.1459 -0.03316,-0.08742 -0.03316,-0.201968 0,-0.106712 0.03195,-0.193528 0.03195,-0.08682 0.09285,-0.148914 0.05848,-0.05969 0.144694,-0.09224 0.08682,-0.03256 0.189308,-0.03256 0.05667,0 0.101888,0.0066 0.04582,0.006 0.08441,0.01628 0.04039,0.01146 0.07295,0.02593 0.03316,0.01387 0.05788,0.02592 v 0.217644 h -0.02653 q -0.01688,-0.01447 -0.0428,-0.03437 -0.02532,-0.0199 -0.05788,-0.03919 -0.03316,-0.01929 -0.07174,-0.03256 -0.03859,-0.01326 -0.0826,-0.01326 -0.04883,0 -0.09285,0.01567 -0.04401,0.01507 -0.08139,0.05064 -0.03557,0.03437 -0.05788,0.09104 -0.0217,0.05667 -0.0217,0.137459 0,0.0844 0.02351,0.141076 0.02412,0.05667 0.06029,0.08923 0.03678,0.03316 0.08199,0.04763 0.04522,0.01387 0.08923,0.01387 0.0422,0 0.0832,-0.01266 0.0416,-0.01266 0.07657,-0.03436 0.02954,-0.01748 0.05486,-0.03738 0.02532,-0.0199 0.0416,-0.03437 h 0.02412 v 0.214629 q -0.03376,0.01507 -0.06451,0.02834 -0.03075,0.01326 -0.06451,0.02291 -0.04401,0.01266 -0.0826,0.01929 -0.03859,0.0066 -0.106109,0.0066 z"
         id="path386" />
      <path
         d="m 24.65182,20.08549 q -0.10008,0 -0.185088,-0.02954 -0.0844,-0.02954 -0.145296,-0.08802 -0.06089,-0.05848 -0.09465,-0.1459 -0.03316,-0.08742 -0.03316,-0.201968 0,-0.106712 0.03195,-0.193528 0.03195,-0.08682 0.09285,-0.148914 0.05848,-0.05969 0.144694,-0.09224 0.08682,-0.03256 0.189308,-0.03256 0.05667,0 0.101888,0.0066 0.04582,0.006 0.08441,0.01628 0.04039,0.01146 0.07295,0.02593 0.03316,0.01387 0.05788,0.02592 v 0.217644 h -0.02653 q -0.01688,-0.01447 -0.04281,-0.03437 -0.02532,-0.0199 -0.05788,-0.03919 -0.03316,-0.01929 -0.07174,-0.03256 -0.03859,-0.01326 -0.0826,-0.01326 -0.04883,0 -0.09285,0.01567 -0.04401,0.01507 -0.08139,0.05064 -0.03557,0.03437 -0.05788,0.09104 -0.0217,0.05667 -0.0217,0.137459 0,0.0844 0.02351,0.141076 0.02412,0.05667 0.06029,0.08923 0.03678,0.03316 0.08199,0.04763 0.04522,0.01387 0.08923,0.01387 0.0422,0 0.0832,-0.01266 0.0416,-0.01266 0.07657,-0.03436 0.02954,-0.01748 0.05486,-0.03738 0.02532,-0.0199 0.0416,-0.03437 h 0.02412 v 0.214629 q -0.03376,0.01507 -0.06451,0.02834 -0.03075,0.01326 -0.06451,0.02291 -0.04401,0.01266 -0.0826,0.01929 -0.03859,0.0066 -0.106108,0.0066 z"
         id="path388" />
    </g>
  </g>
</svg>
