<?xml version="1.0" encoding="UTF-8" standalone="no"?>
<!-- Created with Inkscape (http://www.inkscape.org/) -->

<svg
   gorn="0"
   height="62.070114mm"
   id="svg8"
   version="1.1"
   viewBox="0 0 27.300142 62.070114"
   width="27.300142mm"
   xmlns="http://www.w3.org/2000/svg"
   xmlns:svg="http://www.w3.org/2000/svg">
  <defs
     id="defs2">
    <filter
       id="mask-powermask-path-effect1018_inverse"
       style="color-interpolation-filters:sRGB"
       height="100"
       width="100"
       x="-50"
       y="-50">
      <feColorMatrix
         id="mask-powermask-path-effect1018_primitive1"
         values="1"
         type="saturate"
         result="fbSourceGraphic" />
      <feColorMatrix
         id="mask-powermask-path-effect1018_primitive2"
         values="-1 0 0 0 1 0 -1 0 0 1 0 0 -1 0 1 0 0 0 1 0 "
         in="fbSourceGraphic" />
    </filter>
  </defs>
  <g
     id="copper1"
     transform="translate(-70.100112,-88.380135)">
    <path
       id="circle850"
       style="display:inline;fill:#005500;fill-opacity:1;stroke:none;stroke-width:0.3875"
       d="M 70.100112,88.380135 V 150.45025 H 97.400254 V 88.380135 Z m 1.850016,0.383439 a 1.3562499,1.3562502 0 0 1 1.35599,1.356506 1.3562499,1.3562502 0 0 1 -1.35599,1.35599 1.3562499,1.3562502 0 0 1 -1.356506,-1.35599 1.3562499,1.3562502 0 0 1 1.356506,-1.356506 z m 23.60011,0 a 1.3562499,1.3562502 0 0 1 1.35599,1.356506 1.3562499,1.3562502 0 0 1 -1.35599,1.35599 1.3562499,1.3562502 0 0 1 -1.356506,-1.35599 1.3562499,1.3562502 0 0 1 1.356506,-1.356506 z m -23.60011,58.370086 a 1.3562499,1.3562502 0 0 1 1.35599,1.3565 1.3562499,1.3562502 0 0 1 -1.35599,1.35599 1.3562499,1.3562502 0 0 1 -1.356506,-1.35599 1.3562499,1.3562502 0 0 1 1.356506,-1.3565 z m 23.60011,0 a 1.3562499,1.3562502 0 0 1 1.35599,1.3565 1.3562499,1.3562502 0 0 1 -1.35599,1.35599 1.3562499,1.3562502 0 0 1 -1.356506,-1.35599 1.3562499,1.3562502 0 0 1 1.356506,-1.3565 z m -17.76274,0.85782 a 0.5,0.5 0 0 1 0.500228,0.49972 0.5,0.5 0 0 1 -0.500228,0.50022 0.5,0.5 0 0 1 -0.500228,-0.50022 0.5,0.5 0 0 1 0.500228,-0.49972 z m 2.539897,0 a 0.5,0.5 0 0 1 0.500228,0.49972 0.5,0.5 0 0 1 -0.500228,0.50022 0.5,0.5 0 0 1 -0.499711,-0.50022 0.5,0.5 0 0 1 0.499711,-0.49972 z m 2.539896,0 a 0.5,0.5 0 0 1 0.500228,0.49972 0.5,0.5 0 0 1 -0.500228,0.50022 0.5,0.5 0 0 1 -0.499711,-0.50022 0.5,0.5 0 0 1 0.499711,-0.49972 z m 2.540414,0 a 0.5,0.5 0 0 1 0.499711,0.49972 0.5,0.5 0 0 1 -0.499711,0.50022 0.5,0.5 0 0 1 -0.500228,-0.50022 0.5,0.5 0 0 1 0.500228,-0.49972 z m 2.539896,0 a 0.5,0.5 0 0 1 0.499712,0.49972 0.5,0.5 0 0 1 -0.499712,0.50022 0.5,0.5 0 0 1 -0.500227,-0.50022 0.5,0.5 0 0 1 0.500227,-0.49972 z m 2.539897,0 a 0.5,0.5 0 0 1 0.500228,0.49972 0.5,0.5 0 0 1 -0.500228,0.50022 0.5,0.5 0 0 1 -0.500228,-0.50022 0.5,0.5 0 0 1 0.500228,-0.49972 z" />
    <rect
       fill="#000000"
       fill-opacity="1"
       gorn="0.3.0.0.0.0.9"
       height="51.5"
       id="rect832"
       rx="0.30000001"
       ry="0.063965619"
       stroke="none"
       stroke-opacity="1"
       stroke-width="0.528946"
       style="stroke-miterlimit:4;stroke-dasharray:none;fill:#333333"
       width="26.700001"
       x="70.391579"
       y="93.880135" />
    <rect
       fill="#1a1a1a"
       fill-opacity="1"
       gorn="0.3.0.0.0.0.10"
       height="43.32"
       id="rect834-4"
       rx="0.026179774"
       ry="0.32370129"
       stroke="none"
       stroke-opacity="1"
       stroke-width="1.11156"
       style="fill:#1a1a1a;stroke-miterlimit:4;stroke-dasharray:none"
       width="23.299999"
       x="72.100113"
       y="100.01013" />
    <rect
       fill="#1a1a1a"
       fill-opacity="1"
       gorn="0.3.0.0.0.0.10"
       height="42.720001"
       id="rect834"
       rx="0.025505617"
       ry="0.31921789"
       stroke="none"
       stroke-opacity="1"
       stroke-width="1.08953"
       style="fill:#000000;stroke-miterlimit:4;stroke-dasharray:none"
       width="22.700001"
       x="72.400108"
       y="100.31013" />
    <g
       id="g2207"
       transform="translate(31.742789,24.133603)">
      <path
         id="circle850-3"
         style="display:inline;fill:none;stroke:#9a916c;stroke-width:0.3875"
         d="m 41.563573,66.096532 a 1.3562499,1.3562502 0 0 1 -1.35625,1.35625 1.3562499,1.3562502 0 0 1 -1.35625,-1.35625 1.3562499,1.3562502 0 0 1 1.35625,-1.35625 1.3562499,1.3562502 0 0 1 1.35625,1.35625 z" />
      <path
         id="circle852-6"
         style="display:inline;fill:none;stroke:#9a916c;stroke-width:0.3875"
         d="m 65.163572,66.096532 a 1.3562499,1.3562502 0 0 1 -1.35625,1.35625 1.3562499,1.3562502 0 0 1 -1.35625,-1.35625 1.3562499,1.3562502 0 0 1 1.35625,-1.35625 1.3562499,1.3562502 0 0 1 1.35625,1.35625 z" />
      <path
         id="circle854-0"
         style="display:inline;fill:none;stroke:#9a916c;stroke-width:0.3875"
         d="m 41.563573,124.46653 a 1.3562499,1.3562502 0 0 1 -1.35625,1.35625 1.3562499,1.3562502 0 0 1 -1.35625,-1.35625 1.3562499,1.3562502 0 0 1 1.35625,-1.35625 1.3562499,1.3562502 0 0 1 1.35625,1.35625 z" />
      <path
         id="circle856-0"
         style="display:inline;fill:none;stroke:#9a916c;stroke-width:0.3875"
         d="m 65.163572,124.46653 a 1.3562499,1.3562502 0 0 1 -1.35625,1.35625 1.3562499,1.3562502 0 0 1 -1.35625,-1.35625 1.3562499,1.3562502 0 0 1 1.35625,-1.35625 1.3562499,1.3562502 0 0 1 1.35625,1.35625 z" />
      <path
         id="connector6pin-1"
         style="fill:none;stroke:#9a916c;stroke-width:0.5"
         d="m 59.244707,124.46775 a 0.5,0.5 0 0 1 -0.5,0.5 0.5,0.5 0 0 1 -0.5,-0.5 0.5,0.5 0 0 1 0.5,-0.5 0.5,0.5 0 0 1 0.5,0.5 z" />
      <path
         id="connector3pin"
         style="fill:none;stroke:#9a916c;stroke-width:0.5"
         d="m 56.704707,124.46775 a 0.5,0.5 0 0 1 -0.5,0.5 0.5,0.5 0 0 1 -0.5,-0.5 0.5,0.5 0 0 1 0.5,-0.5 0.5,0.5 0 0 1 0.5,0.5 z" />
      <path
         id="connector2pin"
         style="fill:none;stroke:#9a916c;stroke-width:0.5"
         d="m 54.164706,124.46775 a 0.5,0.5 0 0 1 -0.5,0.5 0.5,0.5 0 0 1 -0.5,-0.5 0.5,0.5 0 0 1 0.5,-0.5 0.5,0.5 0 0 1 0.5,0.5 z" />
      <path
         id="connector1pin"
         style="fill:none;stroke:#9a916c;stroke-width:0.5"
         d="m 51.624712,124.46775 a 0.5,0.5 0 0 1 -0.5,0.5 0.5,0.5 0 0 1 -0.5,-0.5 0.5,0.5 0 0 1 0.5,-0.5 0.5,0.5 0 0 1 0.5,0.5 z" />
      <path
         id="connector0pin"
         style="fill:none;stroke:#9a916c;stroke-width:0.5"
         d="m 49.084711,124.46775 a 0.5,0.5 0 0 1 -0.5,0.5 0.5,0.5 0 0 1 -0.5,-0.5 0.5,0.5 0 0 1 0.5,-0.5 0.5,0.5 0 0 1 0.5,0.5 z" />
      <path
         id="connector1pin-8"
         style="fill:none;stroke:#9a916c;stroke-width:0.5"
         d="m 46.54471,124.46775 a 0.5,0.5 0 0 1 -0.5,0.5 0.5,0.5 0 0 1 -0.5,-0.5 0.5,0.5 0 0 1 0.5,-0.5 0.5,0.5 0 0 1 0.5,0.5 z" />
      <g
         aria-label="GND"
         id="text3487"
         style="font-size:0.987778px;-inkscape-font-specification:'sans-serif, Normal';opacity:1;fill:#ffffff;fill-rule:evenodd;stroke-width:0.254;stroke-linejoin:round;stroke-miterlimit:3.9">
        <path
           d="m 55.711422,126.06474 q -0.05884,0.027 -0.128777,0.0473 -0.06945,0.0198 -0.134566,0.0198 -0.08392,0 -0.153858,-0.0232 -0.06994,-0.0232 -0.119131,-0.0695 -0.04968,-0.0468 -0.07669,-0.11672 -0.02701,-0.0704 -0.02701,-0.16447 0,-0.17218 0.100322,-0.27154 0.100803,-0.0998 0.276365,-0.0998 0.06125,0 0.124919,0.0149 0.06415,0.0145 0.137942,0.0497 v 0.11335 h -0.0087 q -0.01495,-0.0116 -0.04341,-0.0304 -0.02846,-0.0188 -0.05595,-0.0313 -0.03328,-0.015 -0.07572,-0.0246 -0.04196,-0.0101 -0.0955,-0.0101 -0.120579,0 -0.190997,0.0777 -0.06994,0.0772 -0.06994,0.20932 0,0.13939 0.07331,0.21704 0.07331,0.0772 0.199677,0.0772 0.0463,0 0.09212,-0.009 0.0463,-0.009 0.08103,-0.0236 v -0.17604 h -0.192443 v -0.0839 h 0.286976 z"
           id="path3960" />
        <path
           d="m 56.426211,126.11779 h -0.118167 l -0.340513,-0.64244 v 0.64244 h -0.08923 v -0.71816 h 0.14807 l 0.31061,0.58649 v -0.58649 h 0.08923 z"
           id="path3962" />
        <path
           d="m 57.223957,125.75943 q 0,0.0979 -0.04293,0.17749 -0.04244,0.0796 -0.113343,0.12347 -0.0492,0.0304 -0.109968,0.0439 -0.06029,0.0135 -0.159163,0.0135 h -0.18135 v -0.71816 h 0.179421 q 0.105144,0 0.16688,0.0154 0.06222,0.0149 0.105144,0.0415 0.07331,0.0458 0.114309,0.12202 0.041,0.0762 0.041,0.18087 z m -0.09984,-10e-4 q 0,-0.0844 -0.02942,-0.14228 -0.02942,-0.0579 -0.08778,-0.0912 -0.04244,-0.0241 -0.09019,-0.0333 -0.04775,-0.01 -0.114309,-0.01 h -0.08971 v 0.55418 h 0.08971 q 0.06897,0 0.120096,-0.0101 0.05161,-0.0101 0.09453,-0.0376 0.05354,-0.0343 0.08006,-0.0902 0.02701,-0.0559 0.02701,-0.13988 z"
           id="path3964" />
      </g>
      <g
         aria-label="TX"
         id="text3487-7"
         style="font-size:0.987778px;-inkscape-font-specification:'sans-serif, Normal';fill:#ffffff;fill-rule:evenodd;stroke-width:0.254;stroke-linejoin:round;stroke-miterlimit:3.9">
        <path
           d="m 51.055674,125.48451 h -0.25659 v 0.63328 h -0.0955 v -0.63328 h -0.256591 v -0.0849 h 0.608679 z"
           id="path3972" />
        <path
           d="m 51.700045,125.39963 -0.247909,0.35498 0.247427,0.36318 h -0.11045 l -0.195819,-0.29566 -0.200643,0.29566 h -0.104179 l 0.25032,-0.35884 -0.244533,-0.35932 h 0.109968 l 0.193408,0.2918 0.197748,-0.2918 z"
           id="path3974" />
      </g>
      <g
         aria-label="RX"
         id="text3487-0"
         style="font-size:0.987778px;-inkscape-font-specification:'sans-serif, Normal';fill:#ffffff;fill-rule:evenodd;stroke-width:0.254;stroke-linejoin:round;stroke-miterlimit:3.9">
        <path
           d="m 53.606223,126.11779 h -0.123954 l -0.240193,-0.28553 h -0.134565 v 0.28553 h -0.0955 v -0.71816 h 0.201125 q 0.06511,0 0.10852,0.009 0.04341,0.008 0.07814,0.0299 0.03907,0.0246 0.06077,0.0622 0.02219,0.0371 0.02219,0.0945 0,0.0777 -0.03907,0.13023 -0.03907,0.0521 -0.107555,0.0786 z m -0.223311,-0.51608 q 0,-0.0309 -0.01109,-0.0545 -0.01061,-0.0241 -0.03569,-0.0405 -0.02074,-0.014 -0.0492,-0.0193 -0.02846,-0.006 -0.06704,-0.006 h -0.112379 v 0.27106 h 0.09646 q 0.04534,0 0.0791,-0.008 0.03376,-0.008 0.05739,-0.0299 0.0217,-0.0203 0.03183,-0.0463 0.01061,-0.0265 0.01061,-0.0671 z"
           id="path3967" />
        <path
           d="m 54.246735,125.39963 -0.247909,0.35498 0.247427,0.36318 h -0.11045 l -0.195819,-0.29566 -0.200642,0.29566 h -0.10418 l 0.250321,-0.35884 -0.244533,-0.35932 h 0.109967 l 0.193408,0.2918 0.197748,-0.2918 z"
           id="path3969" />
      </g>
      <g
         aria-label="VDD"
         id="text3487-4"
         style="font-size:0.987778px;-inkscape-font-specification:'sans-serif, Normal';fill:#ffffff;fill-rule:evenodd;stroke-width:0.254;stroke-linejoin:round;stroke-miterlimit:3.9">
        <path
           d="m 48.013536,125.39963 -0.261413,0.71816 h -0.127331 l -0.261414,-0.71816 h 0.10225 l 0.225241,0.63183 0.22524,-0.63183 z"
           id="path3977" />
        <path
           d="m 48.72929,125.75943 q 0,0.0979 -0.04293,0.17749 -0.04244,0.0796 -0.113344,0.12347 -0.0492,0.0304 -0.109967,0.0439 -0.06029,0.0135 -0.159164,0.0135 h -0.18135 v -0.71816 h 0.179421 q 0.105144,0 0.16688,0.0154 0.06222,0.0149 0.105145,0.0415 0.07331,0.0458 0.114308,0.12202 0.041,0.0762 0.041,0.18087 z m -0.09984,-10e-4 q 0,-0.0844 -0.02942,-0.14228 -0.02942,-0.0579 -0.08778,-0.0912 -0.04244,-0.0241 -0.09019,-0.0333 -0.04775,-0.01 -0.114308,-0.01 h -0.08971 v 0.55418 h 0.08971 q 0.06897,0 0.120096,-0.0101 0.05161,-0.0101 0.09453,-0.0376 0.05354,-0.0343 0.08006,-0.0902 0.02701,-0.0559 0.02701,-0.13988 z"
           id="path3979" />
        <path
           d="m 49.49038,125.75943 q 0,0.0979 -0.04293,0.17749 -0.04244,0.0796 -0.113343,0.12347 -0.0492,0.0304 -0.109968,0.0439 -0.06029,0.0135 -0.159163,0.0135 h -0.18135 v -0.71816 h 0.179421 q 0.105144,0 0.16688,0.0154 0.06222,0.0149 0.105144,0.0415 0.07331,0.0458 0.114309,0.12202 0.041,0.0762 0.041,0.18087 z m -0.09984,-10e-4 q 0,-0.0844 -0.02942,-0.14228 -0.02942,-0.0579 -0.08778,-0.0912 -0.04244,-0.0241 -0.09019,-0.0333 -0.04775,-0.01 -0.114309,-0.01 h -0.08971 v 0.55418 h 0.08971 q 0.06897,0 0.120096,-0.0101 0.05161,-0.0101 0.09453,-0.0376 0.05354,-0.0343 0.08006,-0.0902 0.02701,-0.0559 0.02701,-0.13988 z"
           id="path3981" />
      </g>
    </g>
  </g>
</svg>
