<?xml version="1.0" encoding="UTF-8" standalone="no"?>
<!-- Created with Fritzing (http://www.fritzing.org/) -->

<svg
   gorn="0"
   height="0.4in"
   id="svg193"
   version="1.2"
   viewBox="0 0 300 400"
   width="0.3in"
   x="0in"
   y="0in"
   sodipodi:docname="svg.breadboard.ME4054_b52b3af44ac0fe9f1dd99211c870cee3_1_breadboard.svg"
   inkscape:version="1.2.1 (9c6d41e410, 2022-07-14)"
   xmlns:inkscape="http://www.inkscape.org/namespaces/inkscape"
   xmlns:sodipodi="http://sodipodi.sourceforge.net/DTD/sodipodi-0.dtd"
   xmlns="http://www.w3.org/2000/svg"
   xmlns:svg="http://www.w3.org/2000/svg">
  <sodipodi:namedview
     id="namedview165"
     pagecolor="#ffffff"
     bordercolor="#000000"
     borderopacity="0.25"
     inkscape:showpageshadow="2"
     inkscape:pageopacity="0.0"
     inkscape:pagecheckerboard="0"
     inkscape:deskcolor="#d1d1d1"
     inkscape:document-units="in"
     showgrid="false"
     inkscape:zoom="26.744791"
     inkscape:cx="0.6356378"
     inkscape:cy="19.181305"
     inkscape:window-width="3840"
     inkscape:window-height="2036"
     inkscape:window-x="-12"
     inkscape:window-y="-12"
     inkscape:window-maximized="1"
     inkscape:current-layer="g37" />
  <defs
     id="defs197" />
  <g
     gorn="0.1"
     id="breadboard">
    <g
       gorn="0.1.0"
       id="icon">
      <path
         d="M0,0L0,170A30,30 0 0 1 0,230L0,400L300,400L300,0L0,0z"
         fill="#1F7A34"
         gorn="0.1.0.0"
         id="path6"
         stroke="none"
         stroke-width="0" />
      <g
         transform="matrix(2.6098669,0,0,2.4442288,-9.7078852,17.425005)"
         id="g26">
        <g
           gorn="0.1.0.1.0"
           id="g24">
          <g
             gorn="0.1.0.1.0.0"
             id="g38">
            <g
               gorn="0.1.0.1.0.0.0"
               id="g36">
              <g
                 transform="matrix(0.5,0,0,0.5,30,37.4035)"
                 id="g21">
                <g
                   gorn="0.1.0.1.0.0.0.0.0"
                   id="g20">
                  <g
                     gorn="0.1.0.1.0.0.0.0.0.0"
                     id="g34">
                    <g
                       gorn="0.1.0.1.0.0.0.0.0.0.0"
                       id="g32">
                      <rect
                         connectorname="3"
                         fill="#8c8c8c"
                         gorn="0.1.0.1.0.0.0.0.0.0.0.0"
                         height="47.243999"
                         id="rect8"
                         stroke="none"
                         stroke-linecap="round"
                         stroke-width="0"
                         width="21.6535"
                         x="11.7717"
                         y="102.37" />
                      <rect
                         connectorname="2"
                         fill="#8c8c8c"
                         gorn="0.1.0.1.0.0.0.0.0.0.0.1"
                         height="47.243999"
                         id="rect10"
                         stroke="none"
                         stroke-linecap="round"
                         stroke-width="0"
                         width="21.6535"
                         x="49.173199"
                         y="102.37" />
                      <rect
                         connectorname="1"
                         fill="#8c8c8c"
                         gorn="0.1.0.1.0.0.0.0.0.0.0.2"
                         height="47.243999"
                         id="rect12"
                         stroke="none"
                         stroke-linecap="round"
                         stroke-width="0"
                         width="21.6535"
                         x="86.574799"
                         y="102.37" />
                      <rect
                         connectorname="6"
                         fill="#8c8c8c"
                         gorn="0.1.0.1.0.0.0.0.0.0.0.3"
                         height="47.243999"
                         id="rect14"
                         stroke="none"
                         stroke-linecap="round"
                         stroke-width="0"
                         width="21.6535"
                         x="86.574799"
                         y="0" />
                      <rect
                         connectorname="4"
                         fill="#8c8c8c"
                         gorn="0.1.0.1.0.0.0.0.0.0.0.4"
                         height="47.243999"
                         id="rect16"
                         stroke="none"
                         stroke-linecap="round"
                         stroke-width="0"
                         width="21.6535"
                         x="11.7717"
                         y="0" />
                      <rect
                         connectorname="5"
                         fill="#8c8c8c"
                         gorn="0.1.0.1.0.0.0.0.0.0.0.5"
                         height="47.243999"
                         id="rect18"
                         stroke="none"
                         stroke-linecap="round"
                         stroke-width="0"
                         width="21.6535"
                         x="49.173199"
                         y="0" />
                      <rect
                         fill="#303030"
                         gorn="0.1.0.1.0.0.0.0.0.0.0.6"
                         height="71.810997"
                         id="rect20"
                         stroke="none"
                         stroke-width="0"
                         width="120"
                         x="0"
                         y="38.9016" />
                      <polygon
                         fill="#1f1f1f"
                         gorn="0.1.0.1.0.0.0.0.0.0.0.7"
                         id="polygon22"
                         points="120,38.9016 110,48.9016 10,48.9016 0,38.9016 " />
                      <polygon
                         fill="#1f1f1f"
                         gorn="0.1.0.1.0.0.0.0.0.0.0.8"
                         id="polygon24"
                         points="120,110.713 110,100.713 10,100.713 0,110.713 " />
                      <polygon
                         fill="#000000"
                         gorn="0.1.0.1.0.0.0.0.0.0.0.9"
                         id="polygon26"
                         points="0,110.713 10,100.713 10,48.9016 0,38.9016 " />
                      <polygon
                         fill="#3d3d3d"
                         gorn="0.1.0.1.0.0.0.0.0.0.0.10"
                         id="polygon28"
                         points="120,110.713 110,100.713 110,48.9016 120,38.9016 " />
                      <circle
                         cx="30"
                         cy="80.712601"
                         fill="#1f1f1f"
                         gorn="0.1.0.1.0.0.0.0.0.0.0.11"
                         id="circle30"
                         r="10"
                         stroke="none"
                         stroke-width="0" />
                    </g>
                  </g>
                </g>
              </g>
            </g>
          </g>
        </g>
      </g>
      <g
         transform="translate(19.86368,28.042843)"
         id="g37">
        <g
           aria-label="ME4054"
           id="text502"
           style="font-size:62.5px;-inkscape-font-specification:sans-serif;opacity:1;fill:#ffffff;fill-rule:evenodd;stroke-width:6.92914;stroke-linejoin:round;stroke-miterlimit:3.9">
          <path
             d="M 58.25434,194.35246 H 52.21186 V 155.19841 L 39.577582,181.84026 H 35.976508 L 23.433784,155.19841 v 39.15405 h -5.645752 v -45.44067 h 8.239746 l 12.115478,25.29907 11.71875,-25.29907 h 8.392334 z"
             style="stroke-width:6.92913"
             id="path732" />
          <path
             d="M 100.39912,194.35246 H 70.461371 v -45.44067 h 29.937749 v 5.37109 H 76.503852 v 12.45117 h 23.895268 v 5.3711 H 76.503852 v 16.87622 h 23.895268 z"
             style="stroke-width:6.92913"
             id="path734" />
          <path
             d="m 140.59077,181.5656 h -6.74439 v 12.78686 h -5.85937 V 181.5656 h -21.75904 v -7.01905 l 22.00318,-25.63476 h 5.61523 v 27.771 h 6.74439 z m -12.60376,-4.88281 v -20.50782 l -17.60865,20.50782 z"
             style="stroke-width:6.92913"
             id="path736" />
          <path
             d="m 179.22602,171.61687 q 0,12.23755 -3.84521,17.97485 -3.8147,5.70679 -11.87134,5.70679 -8.17871,0 -11.96289,-5.79834 -3.75367,-5.79834 -3.75367,-17.82227 0,-12.11548 3.8147,-17.8833 3.8147,-5.79834 11.90186,-5.79834 8.17871,0 11.93237,5.88989 3.78418,5.85938 3.78418,17.73072 z m -8.02612,13.85498 q 1.06811,-2.47193 1.43432,-5.79834 0.39673,-3.35694 0.39673,-8.05664 0,-4.63867 -0.39673,-8.05664 -0.36621,-3.41797 -1.46484,-5.79834 -1.06812,-2.34986 -2.92969,-3.54004 -1.83105,-1.19019 -4.73022,-1.19019 -2.86866,0 -4.76075,1.19019 -1.86157,1.19018 -2.9602,3.60107 -1.0376,2.2583 -1.43433,5.88989 -0.36621,3.6316 -0.36621,7.96509 0,4.76074 0.3357,7.96509 0.33569,3.20435 1.43432,5.7373 1.00708,2.38038 2.83814,3.6316 1.86157,1.25122 4.91333,1.25122 2.86865,0 4.76074,-1.19019 1.89209,-1.19018 2.92969,-3.60107 z"
             style="stroke-width:6.92913"
             id="path738" />
          <path
             d="m 218.65473,179.91765 q 0,3.17383 -1.15967,6.073 -1.15967,2.89917 -3.17383,4.88281 -2.19726,2.13623 -5.24902,3.2959 -3.02124,1.12915 -7.01904,1.12915 -3.72315,0 -7.17163,-0.79346 -3.44849,-0.76294 -5.82886,-1.86157 v -6.43921 h 0.42725 q 2.50244,1.58691 5.85937,2.71606 3.35693,1.09864 6.5918,1.09864 2.16675,0 4.18091,-0.61035 2.04467,-0.61036 3.63159,-2.13624 1.34277,-1.31225 2.01416,-3.14331 0.7019,-1.83105 0.7019,-4.24194 0,-2.34985 -0.82397,-3.96728 -0.79346,-1.61744 -2.22779,-2.594 -1.58691,-1.15967 -3.87573,-1.61743 -2.2583,-0.48828 -5.06592,-0.48828 -2.68554,0 -5.18798,0.36621 -2.47193,0.36621 -4.27246,0.73242 v -23.40698 h 27.34375 v 5.34058 H 196.8957 v 12.08496 q 1.31225,-0.12207 2.68554,-0.18311 1.3733,-0.061 2.38038,-0.061 3.69262,0 6.46972,0.64086 2.7771,0.61036 5.09644,2.19727 2.4414,1.67847 3.78418,4.3335 1.34277,2.65503 1.34277,6.65283 z"
             style="stroke-width:6.92913"
             id="path740" />
          <path
             d="m 259.79243,181.5656 h -6.74439 v 12.78686 h -5.85937 V 181.5656 h -21.75904 v -7.01905 l 22.00318,-25.63476 h 5.61523 v 27.771 h 6.74439 z m -12.60376,-4.88281 v -20.50782 l -17.60865,20.50782 z"
             style="stroke-width:6.92913"
             id="path742" />
        </g>
      </g>
      <g
         transform="translate(63.5,326.05)"
         id="g50">
        <g
           gorn="0.1.0.3.0"
           id="g39">
          <g
             gorn="0.1.0.3.0.0"
             id="g49">
            <g
               gorn="0.1.0.3.0.0.0"
               id="g47">
              <g
                 transform="rotate(-90)"
                 id="g44">
                <g
                   gorn="0.1.0.3.0.0.0.0.0"
                   id="g35">
                  <g
                     gorn="0.1.0.3.0.0.0.0.0.0"
                     id="g45">
                    <g
                       gorn="0.1.0.3.0.0.0.0.0.0.0"
                       id="g43">
                      <text
                         fill="white"
                         font-family="OCRA"
                         font-size="45"
                         gorn="0.1.0.3.0.0.0.0.0.0.0.0"
                         id="text41"
                         stroke="none"
                         stroke-width="0"
                         text-anchor="start"
                         x="0"
                         y="0">1</text>
                    </g>
                  </g>
                </g>
              </g>
            </g>
          </g>
        </g>
      </g>
      <g
         transform="translate(163.5,326.05)"
         id="g61">
        <g
           gorn="0.1.0.4.0"
           id="g58">
          <g
             gorn="0.1.0.4.0.0"
             id="g69">
            <g
               gorn="0.1.0.4.0.0.0"
               id="g67">
              <g
                 transform="rotate(-90)"
                 id="g56">
                <g
                   gorn="0.1.0.4.0.0.0.0.0"
                   id="g54">
                  <g
                     gorn="0.1.0.4.0.0.0.0.0.0"
                     id="g65">
                    <g
                       gorn="0.1.0.4.0.0.0.0.0.0.0"
                       id="g63">
                      <text
                         fill="white"
                         font-family="OCRA"
                         font-size="45"
                         gorn="0.1.0.4.0.0.0.0.0.0.0.0"
                         id="text61"
                         stroke="none"
                         stroke-width="0"
                         text-anchor="start"
                         x="0"
                         y="0">2</text>
                    </g>
                  </g>
                </g>
              </g>
            </g>
          </g>
        </g>
      </g>
      <g
         transform="translate(263.5,326.05)"
         id="g73">
        <g
           gorn="0.1.0.5.0"
           id="g78">
          <g
             gorn="0.1.0.5.0.0"
             id="g89">
            <g
               gorn="0.1.0.5.0.0.0"
               id="g87">
              <g
                 transform="rotate(-90)"
                 id="g68">
                <g
                   gorn="0.1.0.5.0.0.0.0.0"
                   id="g74">
                  <g
                     gorn="0.1.0.5.0.0.0.0.0.0"
                     id="g85">
                    <g
                       gorn="0.1.0.5.0.0.0.0.0.0.0"
                       id="g83">
                      <text
                         fill="white"
                         font-family="OCRA"
                         font-size="45"
                         gorn="0.1.0.5.0.0.0.0.0.0.0.0"
                         id="text81"
                         stroke="none"
                         stroke-width="0"
                         text-anchor="start"
                         x="0"
                         y="0">3</text>
                    </g>
                  </g>
                </g>
              </g>
            </g>
          </g>
        </g>
      </g>
      <g
         transform="translate(263.5,73.95)"
         id="g86">
        <g
           gorn="0.1.0.6.0"
           id="g88">
          <g
             gorn="0.1.0.6.0.0"
             id="g99">
            <g
               gorn="0.1.0.6.0.0.0"
               id="g97">
              <g
                 transform="rotate(-90)"
                 id="g79">
                <g
                   gorn="0.1.0.6.0.0.0.0.0"
                   id="g84">
                  <g
                     gorn="0.1.0.6.0.0.0.0.0.0"
                     id="g95">
                    <g
                       gorn="0.1.0.6.0.0.0.0.0.0.0"
                       id="g93">
                      <text
                         fill="white"
                         font-family="OCRA"
                         font-size="45"
                         gorn="0.1.0.6.0.0.0.0.0.0.0.0"
                         id="text91"
                         stroke="none"
                         stroke-width="0"
                         text-anchor="end"
                         x="0"
                         y="0">4</text>
                    </g>
                  </g>
                </g>
              </g>
            </g>
          </g>
        </g>
      </g>
      <g
         transform="translate(66.129014,73.95)"
         id="g102">
        <g
           gorn="0.1.0.7.0"
           id="g100">
          <g
             gorn="0.1.0.7.0.0"
             id="g98">
            <g
               gorn="0.1.0.7.0.0.0"
               id="g77">
              <g
                 transform="rotate(-90)"
                 id="g94">
                <g
                   gorn="0.1.0.7.0.0.0.0.0"
                   id="g64">
                  <g
                     gorn="0.1.0.7.0.0.0.0.0.0"
                     id="g75">
                    <g
                       gorn="0.1.0.7.0.0.0.0.0.0.0"
                       id="g90">
                      <g
                         aria-label="5"
                         gorn="0.1.0.7.0.0.0.0.0.0.0.0"
                         id="text71"
                         style="font-size:45px;font-family:OCRA;text-anchor:end;fill:#ffffff;stroke-width:0">
                        <path
                           d="m -3.2299805,-10.50293 q 0,4.9877933 -3.3178711,8.0419925 -3.2958984,3.05419922 -8.8769534,3.05419922 -4.790039,0 -7.141113,-1.42822266 V -5.2294922 q 3.449707,2.2412109 7.03125,2.2412109 3.55957,0 5.7348633,-1.9555664 2.1972656,-1.977539 2.1972656,-5.2294923 0,-3.251953 -2.2851562,-5.053711 -2.2631837,-1.82373 -6.4160157,-1.82373 -3.208008,0 -5.778809,0.285644 l 1.252442,-17.270508 h 15.908203 v 3.779297 H -17.20459 l -0.703125,9.645996 3.098145,-0.131835 q 5.4052731,0 8.481445,2.702636 3.0981445,2.680664 3.0981445,7.536621 z"
                           gorn="0.1.0.7.0.0.0.0.0.0.0.0.0"
                           id="path394" />
                      </g>
                    </g>
                  </g>
                </g>
              </g>
            </g>
          </g>
        </g>
      </g>
    </g>
    <g
       transform="translate(34.035,334.05)"
       id="g116">
      <g
         gorn="0.1.1.0"
         id="g114">
        <g
           gorn="0.1.1.0.0"
           id="g115">
          <g
             gorn="0.1.1.0.0.0"
             id="g113">
            <rect
               fill="#8D8C8C"
               gorn="0.1.1.0.0.0.0"
               height="31.9"
               id="connector0pin"
               width="31.93"
               x="0"
               y="0" />
            <rect
               fill="#8C8663"
               gorn="0.1.1.0.0.0.1"
               height="16.4152"
               id="rect103"
               width="16.4442"
               x="7.79153"
               y="7.73544" />
            <polygon
               fill="#B8AF82"
               gorn="0.1.1.0.0.0.2"
               id="polygon105"
               points="0,31.9,7.79153,24.1368,7.79153,6.97162,0,0" />
            <polygon
               fill="#80795B"
               gorn="0.1.1.0.0.0.3"
               id="polygon107"
               points="24.2079,7.76321,7.90264,7.76321,0,0,31.93,0" />
            <polygon
               fill="#5E5B43"
               gorn="0.1.1.0.0.0.4"
               id="polygon109"
               points="24.2079,24.1368,24.2079,7.76321,31.93,0,31.93,31.9" />
            <polygon
               fill="#9A916C"
               gorn="0.1.1.0.0.0.5"
               id="polygon111"
               points="0,31.9,7.87486,24.1368,24.2079,24.1368,31.93,31.9" />
          </g>
        </g>
      </g>
    </g>
    <g
       transform="translate(134.035,334.05)"
       id="g127">
      <g
         gorn="0.1.2.0"
         id="g120">
        <g
           gorn="0.1.2.0.0"
           id="g145">
          <g
             gorn="0.1.2.0.0.0"
             id="g143">
            <rect
               fill="#8D8C8C"
               gorn="0.1.2.0.0.0.0"
               height="31.9"
               id="connector1pin"
               width="31.93"
               x="0"
               y="0" />
            <rect
               fill="#8C8663"
               gorn="0.1.2.0.0.0.1"
               height="16.4152"
               id="rect133"
               width="16.4442"
               x="7.79153"
               y="7.73544" />
            <polygon
               fill="#B8AF82"
               gorn="0.1.2.0.0.0.2"
               id="polygon135"
               points="0,31.9,7.79153,24.1368,7.79153,6.97162,0,0" />
            <polygon
               fill="#80795B"
               gorn="0.1.2.0.0.0.3"
               id="polygon137"
               points="24.2079,7.76321,7.90264,7.76321,0,0,31.93,0" />
            <polygon
               fill="#5E5B43"
               gorn="0.1.2.0.0.0.4"
               id="polygon139"
               points="24.2079,24.1368,24.2079,7.76321,31.93,0,31.93,31.9" />
            <polygon
               fill="#9A916C"
               gorn="0.1.2.0.0.0.5"
               id="polygon141"
               points="0,31.9,7.87486,24.1368,24.2079,24.1368,31.93,31.9" />
          </g>
        </g>
      </g>
    </g>
    <g
       transform="translate(33.548148,34.05)"
       id="g138">
      <g
         gorn="0.1.3.0"
         id="g131">
        <g
           gorn="0.1.3.0.0"
           id="g160">
          <g
             gorn="0.1.3.0.0.0"
             id="g158">
            <rect
               fill="#8d8c8c"
               gorn="0.1.3.0.0.0.0"
               height="31.9"
               id="connector4pin"
               width="31.93"
               x="0"
               y="0" />
            <rect
               fill="#8c8663"
               gorn="0.1.3.0.0.0.1"
               height="16.415199"
               id="rect148"
               width="16.444201"
               x="7.7915301"
               y="7.7354398" />
            <polygon
               fill="#b8af82"
               gorn="0.1.3.0.0.0.2"
               id="polygon150"
               points="7.79153,24.1368 7.79153,6.97162 0,0 0,31.9 " />
            <polygon
               fill="#80795b"
               gorn="0.1.3.0.0.0.3"
               id="polygon152"
               points="7.90264,7.76321 0,0 31.93,0 24.2079,7.76321 " />
            <polygon
               fill="#5e5b43"
               gorn="0.1.3.0.0.0.4"
               id="polygon154"
               points="24.2079,7.76321 31.93,0 31.93,31.9 24.2079,24.1368 " />
            <polygon
               fill="#9a916c"
               gorn="0.1.3.0.0.0.5"
               id="polygon156"
               points="7.87486,24.1368 24.2079,24.1368 31.93,31.9 0,31.9 " />
          </g>
        </g>
      </g>
    </g>
    <g
       transform="translate(234.035,334.05)"
       id="g149">
      <g
         gorn="0.1.4.0"
         id="g141">
        <g
           gorn="0.1.4.0.0"
           id="g175">
          <g
             gorn="0.1.4.0.0.0"
             id="g173">
            <rect
               fill="#8D8C8C"
               gorn="0.1.4.0.0.0.0"
               height="31.9"
               id="connector2pin"
               width="31.93"
               x="0"
               y="0" />
            <rect
               fill="#8C8663"
               gorn="0.1.4.0.0.0.1"
               height="16.4152"
               id="rect163"
               width="16.4442"
               x="7.79153"
               y="7.73544" />
            <polygon
               fill="#B8AF82"
               gorn="0.1.4.0.0.0.2"
               id="polygon165"
               points="0,31.9,7.79153,24.1368,7.79153,6.97162,0,0" />
            <polygon
               fill="#80795B"
               gorn="0.1.4.0.0.0.3"
               id="polygon167"
               points="24.2079,7.76321,7.90264,7.76321,0,0,31.93,0" />
            <polygon
               fill="#5E5B43"
               gorn="0.1.4.0.0.0.4"
               id="polygon169"
               points="24.2079,24.1368,24.2079,7.76321,31.93,0,31.93,31.9" />
            <polygon
               fill="#9A916C"
               gorn="0.1.4.0.0.0.5"
               id="polygon171"
               points="0,31.9,7.87486,24.1368,24.2079,24.1368,31.93,31.9" />
          </g>
        </g>
      </g>
    </g>
    <g
       transform="translate(234.035,34.05)"
       id="g161">
      <g
         gorn="0.1.5.0"
         id="g151">
        <g
           gorn="0.1.5.0.0"
           id="g190">
          <g
             gorn="0.1.5.0.0.0"
             id="g188">
            <rect
               fill="#8D8C8C"
               gorn="0.1.5.0.0.0.0"
               height="31.9"
               id="connector3pin"
               width="31.93"
               x="0"
               y="0" />
            <rect
               fill="#8C8663"
               gorn="0.1.5.0.0.0.1"
               height="16.4152"
               id="rect178"
               width="16.4442"
               x="7.79153"
               y="7.73544" />
            <polygon
               fill="#B8AF82"
               gorn="0.1.5.0.0.0.2"
               id="polygon180"
               points="0,31.9,7.79153,24.1368,7.79153,6.97162,0,0" />
            <polygon
               fill="#80795B"
               gorn="0.1.5.0.0.0.3"
               id="polygon182"
               points="24.2079,7.76321,7.90264,7.76321,0,0,31.93,0" />
            <polygon
               fill="#5E5B43"
               gorn="0.1.5.0.0.0.4"
               id="polygon184"
               points="24.2079,24.1368,24.2079,7.76321,31.93,0,31.93,31.9" />
            <polygon
               fill="#9A916C"
               gorn="0.1.5.0.0.0.5"
               id="polygon186"
               points="0,31.9,7.87486,24.1368,24.2079,24.1368,31.93,31.9" />
          </g>
        </g>
      </g>
    </g>
  </g>
</svg>
