<?xml version='1.0' encoding='UTF-8' standalone='no'?>
<!-- Generator: Adobe Illustrator 20.0.0, SVG Export Plug-In . SVG Version: 6.00 Build 0)  -->
<svg xmlns="http://www.w3.org/2000/svg" gorn="0" height="1.45669in" id="svg13574" version="1.2" viewBox="0 0 56.693 104.882" width="0.787403in" x="0px" xml:space="preserve"  xmlns:xml="http://www.w3.org/XML/1998/namespace" y="0px">
    <desc>
        <referenceFile>Li300mAh_44006848175b5b567dc5abeb26412ea1_1_icon.svg</referenceFile>
    </desc>
    <defs id="defs19813" />
    <g transform="translate(0,-656.35975)" >
        <g gorn="0.1.0" id="g19765" >
            <g gorn="0.1.0.0" id="g19763" >
                <g gorn="0.1.0.0.0" id="g19761" >
                    <g gorn="0.1.0.0.0.0" id="layer1" />
                </g>
            </g>
        </g>
    </g>
    <g transform="translate(0,-54)" >
        <g gorn="0.2.0" id="g19772" >
            <g gorn="0.2.0.0" id="g19770" >
                <g gorn="0.2.0.0.0" id="g19768" >
                    <g gorn="0.2.0.0.0.0" id="layer2" />
                </g>
            </g>
        </g>
    </g>
    <g transform="translate(0,-54)" >
        <g gorn="0.3.0" id="g19779" >
            <g gorn="0.3.0.0" id="g19777" >
                <g gorn="0.3.0.0.0" id="g19775" >
                    <g gorn="0.3.0.0.0.0" id="layer3" />
                </g>
            </g>
        </g>
    </g>
    <g transform="translate(0,-54)" >
        <g gorn="0.4.0" id="g19786" >
            <g gorn="0.4.0.0" id="g19784" >
                <g gorn="0.4.0.0.0" id="g19782" >
                    <g gorn="0.4.0.0.0.0" id="layer4" />
                </g>
            </g>
        </g>
    </g>
    <g gorn="0.5" id="g19808" >
        <path d="M0,16.395h56.693v87.192c0,0.715-0.592,1.295-1.323,1.295H1.323c-0.73,0-1.323-0.58-1.323-1.295V16.395z" fill="#E6E6E6" gorn="0.5.0" id="rect2997_5_" />
        <rect fill="#F3F3F3" gorn="0.5.1" height="84.831" id="rect19789" width="3.616" x="1.75"  y="16.396"/>
        <path d="M55.37,104.882c0.73,0,1.323-0.58,1.323-1.295v-0.533h-1.75V16.395h-3.616v86.659H0v0.533c0,0.715,0.592,1.295,1.323,1.295H55.37z" fill="#ADADAD" gorn="0.5.2" id="path19791" />
        <path d="M56.693,18.966H0V1.309C0,0.586,0.586,0,1.309,0h54.075c0.723,0,1.309,0.586,1.309,1.309V18.966z" fill="#FFCC00" gorn="0.5.3" id="path19793" />
        <rect fill="#C09900" gorn="0.5.4" height="18.966" id="rect19795" width="3.616" x="51.327" />
        <rect fill="#FFE680" gorn="0.5.5" height="18.966" id="rect19797" width="3.616" x="1.75"  y="0"/>
        <g gorn="0.5.6" id="tspan3851_6_" >
            <g transform="matrix(0 1 -1 0 24.957 35.8033)" >
                <g gorn="0.5.6.0.0" id="g19805" >
                    <g gorn="0.5.6.0.0.0" id="g19803" >
                        <g gorn="0.5.6.0.0.0.0" id="g19801" >
                            <text fill="#808080" font-family="OCRA" font-size="8" gorn="0.5.6.0.0.0.0.0" id="text19799" >300mAh</text>
                        </g>
                    </g>
                </g>
            </g>
        </g>
    </g>
</svg>
