<?xml version="1.0" encoding="UTF-8" standalone="no"?>
<!-- This xml file is generated through a template. Please don't edit it directly -->

<svg
   gorn="0"
   height="5.1023622"
   id="Layer_1"
   version="1.1"
   viewBox="0 0 7.9370081 5.1023622"
   width="7.9370079"
   x="0px"
   xml:space="preserve"
   y="0px"
   xmlns="http://www.w3.org/2000/svg"
   xmlns:svg="http://www.w3.org/2000/svg"><defs
     id="defs435" /><rect
     gorn="0.2"
     height="4.7244096"
     id="connector0pad"
     style="fill:#e3e2db;fill-opacity:1;stroke:none;stroke-width:0"
     width="1.511811"
     x="-1.7007874"
     y="0.18897638"
     transform="scale(-1,1)" /><rect
     gorn="0.3"
     height="4.7244096"
     id="connector1pad"
     style="fill:#e3e2db;fill-opacity:1;stroke:none;stroke-width:0"
     width="1.511811"
     x="6.2362204"
     y="0.18897638" /><rect
     gorn="0.4"
     height="5.1023622"
     id="silkscreen"
     style="fill:none;stroke:none;stroke-width:0.191876;stroke-opacity:1"
     width="7.9370079"
     x="0"
     y="0" /><rect
     gorn="0.5"
     height="4.7244096"
     id="rect787"
     style="opacity:0.75;fill:#000000;fill-rule:evenodd;stroke:none;stroke-width:0.520321"
     width="4.5354333"
     x="1.690667"
     y="0.18897638" /><g
     aria-label="2201"
     transform="scale(0.88918283,1.1246281)"
     id="text361"
     style="font-size:1.79223px;font-family:'HarmonyOS Sans SC';-inkscape-font-specification:'HarmonyOS Sans SC';opacity:1;fill:#ffffff;fill-rule:evenodd;stroke:#ffffff;stroke-width:0.101607;stroke-miterlimit:3.9"><path
       d="M 2.8527377,2.8046757 H 3.4459659 V 2.9462619 H 2.6089945 V 2.8441048 L 3.033753,2.370956 Q 3.1538324,2.238331 3.1986381,2.1630574 3.2434439,2.0859915 3.2434439,1.99638 q 0,-0.1147027 -0.062728,-0.1774308 -0.062728,-0.062728 -0.1577162,-0.062728 -0.09678,0 -0.1702619,0.066312 -0.073481,0.06452 -0.1057415,0.172054 L 2.6179556,1.9211063 q 0.039429,-0.1469628 0.155924,-0.2276132 0.116495,-0.082443 0.2598734,-0.082443 0.1039493,0 0.1899763,0.044806 0.086027,0.043014 0.1362095,0.1290405 0.051975,0.084235 0.051975,0.2043143 0,0.1164949 -0.057351,0.2204442 -0.057351,0.1039494 -0.2007297,0.2616656 z"
       id="path294" /><path
       d="M 3.8743083,2.8046757 H 4.4675364 V 2.9462619 H 3.630565 V 2.8441048 L 4.0553235,2.370956 Q 4.1754029,2.238331 4.2202087,2.1630574 4.2650144,2.0859915 4.2650144,1.99638 q 0,-0.1147027 -0.062728,-0.1774308 -0.062728,-0.062728 -0.1577163,-0.062728 -0.09678,0 -0.1702618,0.066312 -0.073481,0.06452 -0.1057416,0.172054 L 3.6395262,1.9211063 q 0.039429,-0.1469628 0.155924,-0.2276132 0.1164949,-0.082443 0.2598733,-0.082443 0.1039494,0 0.1899764,0.044806 0.086027,0.043014 0.1362095,0.1290405 0.051975,0.084235 0.051975,0.2043143 0,0.1164949 -0.057351,0.2204442 -0.057351,0.1039494 -0.2007298,0.2616656 z"
       id="path296" /><path
       d="m 5.4998604,2.2903057 q 0,0.3333548 -0.1111183,0.5054089 -0.109326,0.1702618 -0.3154325,0.1702618 -0.2043142,0 -0.3154324,-0.1720541 -0.1093261,-0.172054 -0.1093261,-0.5036166 0,-0.3333548 0.1093261,-0.5054089 0.1111182,-0.1738463 0.3154324,-0.1738463 0.2061065,0 0.3154325,0.1720541 0.1111183,0.1720541 0.1111183,0.5072011 z m -0.6810474,0 q 0,0.2670423 0.060936,0.3978751 0.062728,0.1308328 0.1935608,0.1308328 0.1308328,0 0.1935609,-0.1290406 0.062728,-0.1308328 0.062728,-0.3996673 0,-0.2706267 -0.062728,-0.4014595 -0.062728,-0.132625 -0.1935609,-0.132625 -0.1308328,0 -0.1935608,0.132625 Q 4.818813,2.019679 4.818813,2.2903057 Z"
       id="path298" /><path
       d="M 5.7615253,2.019679 V 1.8547938 L 6.1432703,1.6325573 H 6.2651419 V 2.9462619 H 6.1038412 v -1.121936 z"
       id="path300" /></g></svg>
