<?xml version="1.0" encoding="UTF-8" standalone="no"?>
<!-- Generator: Adobe Illustrator 14.0.0, SVG Export Plug-In . SVG Version: 6.00 Build 43363)  -->

<svg
   gorn="0"
   height="0.1in"
   id="Layer_1"
   version="1.1"
   viewBox="0 0 29.879 7.2"
   width="0.414986in"
   x="0px"
   y="0px"
   xmlns="http://www.w3.org/2000/svg"
   xmlns:svg="http://www.w3.org/2000/svg">
  <defs
     id="defs19" />
  <g
     gorn="0.0"
     id="breadboard">
    <rect
       fill="none"
       gorn="0.0.0"
       height="1"
       id="connector0pin"
       width="1"
       x="0.011"
       y="3.094" />
    <rect
       fill="none"
       gorn="0.0.1"
       height="1"
       id="connector1pin"
       width="1"
       x="28.871"
       y="3.208" />
    <line
       fill="none"
       gorn="0.0.2"
       id="connector0leg"
       stroke="#8C8C8C"
       stroke-linecap="round"
       stroke-width="2.094"
       x1="1.047"
       x2="2.094"
       y1="3.63"
       y2="3.63" />
    <line
       fill="none"
       gorn="0.0.3"
       id="connector1leg"
       stroke="#8C8C8C"
       stroke-linecap="round"
       stroke-width="2.094"
       x1="27.785"
       x2="28.832"
       y1="3.63"
       y2="3.63" />
    <rect
       fill="#8C8C8C"
       gorn="0.0.4"
       height="2.094"
       id="rect7"
       width="25.691"
       x="2.094"
       y="2.583" />
    <g
       id="g13">
      <path
         d="M9.159,0H7.002c-0.475,0-0.393,7.193,0,7.193h2.157c0.396,0,11.114,0,11.508,0h2.158     c0.515,0,0.558-7.193,0-7.193h-2.158C20.27,0,9.553,0,9.159,0z"
         fill="#1A1A1A"
         gorn="0.0.5.0"
         id="Body_1_" />
      <rect
         enable-background="new    "
         fill="#FFFFFF"
         gorn="0.0.5.1"
         height="7.193"
         id="rect16"
         opacity="0.74"
         width="1.992"
         x="9.783"
         y="0" />
      <path
         d="M7.289,0.358c0.726,0,1.145,0,1.866,0     c0.719,0,10.786,0,11.508,0c0.021,0,0.229,0,0.479,0c0.563,0,1.066,0,1.311,0c0.354,0,1.146,0.36-0.354,0.36     c-1.08,0-0.726,0-1.438,0c-0.717,0-10.791,0-11.508,0c-0.723,0-1.145,0-1.866,0C6.931,0.719,6.573,0.358,7.289,0.358z"
         enable-background="new    "
         fill="#FFFFFF"
         gorn="0.0.5.2"
         id="Reflex_1_"
         opacity="0.4" />
      <path
         d="M22.822,7.194c-0.727,0.014-1.438,0-2.156,0     c-0.902,0-12.942,0-13.667,0c-0.091,0-0.202-0.723-0.182-0.723c1.293,0,1.613,0,2.336,0c0.723,0,10.789,0,11.509,0     c0.721,0,1.67,0,2.393,0C23.076,6.471,22.969,7.192,22.822,7.194z"
         enable-background="new    "
         gorn="0.0.5.3"
         id="Shaddow_1_"
         opacity="0.4" />
    </g>
  </g>
</svg>
