<?xml version="1.0" encoding="UTF-8" standalone="no"?>
<!-- Created with Fritzing (http://www.fritzing.org/) -->

<svg
   gorn="0"
   height="0.3567673in"
   id="svg193"
   version="1.2"
   viewBox="0 0 300 356.76729"
   width="0.30000001in"
   x="0in"
   y="0in"
   sodipodi:docname="svg.breadboard.CH213K_bc8801d14fe98272e3bf75c11b6c136b_1_breadboard.svg"
   inkscape:version="1.2.1 (9c6d41e410, 2022-07-14)"
   xmlns:inkscape="http://www.inkscape.org/namespaces/inkscape"
   xmlns:sodipodi="http://sodipodi.sourceforge.net/DTD/sodipodi-0.dtd"
   xmlns="http://www.w3.org/2000/svg"
   xmlns:svg="http://www.w3.org/2000/svg">
  <sodipodi:namedview
     id="namedview183"
     pagecolor="#ffffff"
     bordercolor="#000000"
     borderopacity="0.25"
     inkscape:showpageshadow="2"
     inkscape:pageopacity="0.0"
     inkscape:pagecheckerboard="0"
     inkscape:deskcolor="#d1d1d1"
     inkscape:document-units="in"
     showgrid="false"
     inkscape:zoom="26.744791"
     inkscape:cx="-0.71041871"
     inkscape:cy="9.1980528"
     inkscape:window-width="3840"
     inkscape:window-height="2036"
     inkscape:window-x="-12"
     inkscape:window-y="-12"
     inkscape:window-maximized="1"
     inkscape:current-layer="g43" />
  <defs
     id="defs197" />
  <g
     gorn="0.1"
     id="breadboard"
     transform="translate(0,-43.232716)">
    <g
       gorn="0.1.0"
       id="icon">
      <path
         d="M 0,43.232716 V 194.85881 A 30,26.757546 0 0 1 0,248.3739 V 400 H 300 V 43.232716 Z"
         fill="#1f7a34"
         gorn="0.1.0.0"
         id="path6"
         stroke="none"
         stroke-width="0" />
      <g
         transform="matrix(-2.6098669,0,0,-2.4442288,303.47614,362.28252)"
         id="g26">
        <g
           gorn="0.1.0.1.0"
           id="g24">
          <g
             gorn="0.1.0.1.0.0"
             id="g38">
            <g
               gorn="0.1.0.1.0.0.0"
               id="g36">
              <g
                 transform="matrix(0.5,0,0,0.5,30,37.4035)"
                 id="g21">
                <g
                   gorn="0.1.0.1.0.0.0.0.0"
                   id="g20">
                  <g
                     gorn="0.1.0.1.0.0.0.0.0.0"
                     id="g34">
                    <g
                       gorn="0.1.0.1.0.0.0.0.0.0.0"
                       id="g32">
                      <rect
                         connectorname="3"
                         fill="#8c8c8c"
                         gorn="0.1.0.1.0.0.0.0.0.0.0.0"
                         height="47.243999"
                         id="rect8"
                         stroke="none"
                         stroke-linecap="round"
                         stroke-width="0"
                         width="21.6535"
                         x="11.7717"
                         y="102.37" />
                      <rect
                         connectorname="1"
                         fill="#8c8c8c"
                         gorn="0.1.0.1.0.0.0.0.0.0.0.2"
                         height="47.243999"
                         id="rect12"
                         stroke="none"
                         stroke-linecap="round"
                         stroke-width="0"
                         width="21.6535"
                         x="86.574799"
                         y="102.37" />
                      <rect
                         connectorname="5"
                         fill="#8c8c8c"
                         gorn="0.1.0.1.0.0.0.0.0.0.0.5"
                         height="47.243999"
                         id="rect18"
                         stroke="none"
                         stroke-linecap="round"
                         stroke-width="0"
                         width="21.6535"
                         x="49.173199"
                         y="0" />
                      <rect
                         fill="#303030"
                         gorn="0.1.0.1.0.0.0.0.0.0.0.6"
                         height="71.810997"
                         id="rect20"
                         stroke="none"
                         stroke-width="0"
                         width="120"
                         x="0"
                         y="38.9016" />
                      <polygon
                         fill="#1f1f1f"
                         gorn="0.1.0.1.0.0.0.0.0.0.0.7"
                         id="polygon22"
                         points="0,38.9016 120,38.9016 110,48.9016 10,48.9016 " />
                      <polygon
                         fill="#1f1f1f"
                         gorn="0.1.0.1.0.0.0.0.0.0.0.8"
                         id="polygon24"
                         points="0,110.713 120,110.713 110,100.713 10,100.713 " />
                      <polygon
                         fill="#000000"
                         gorn="0.1.0.1.0.0.0.0.0.0.0.9"
                         id="polygon26"
                         points="0,38.9016 0,110.713 10,100.713 10,48.9016 " />
                      <polygon
                         fill="#3d3d3d"
                         gorn="0.1.0.1.0.0.0.0.0.0.0.10"
                         id="polygon28"
                         points="120,38.9016 120,110.713 110,100.713 110,48.9016 " />
                      <circle
                         cx="30"
                         cy="80.712601"
                         fill="#1f1f1f"
                         gorn="0.1.0.1.0.0.0.0.0.0.0.11"
                         id="circle30"
                         r="10"
                         stroke="none"
                         stroke-width="0" />
                    </g>
                  </g>
                </g>
              </g>
            </g>
          </g>
        </g>
      </g>
      <g
         transform="translate(63.5,326.05)"
         id="g40">
        <g
           gorn="0.1.0.2.0"
           id="g39">
          <g
             gorn="0.1.0.2.0.0"
             id="g49">
            <g
               gorn="0.1.0.2.0.0.0"
               id="g47">
              <g
                 transform="rotate(-90)"
                 id="g33">
                <g
                   gorn="0.1.0.2.0.0.0.0.0"
                   id="g35">
                  <g
                     gorn="0.1.0.2.0.0.0.0.0.0"
                     id="g45">
                    <g
                       gorn="0.1.0.2.0.0.0.0.0.0.0"
                       id="g43">
                      <text
                         fill="#ffffff"
                         font-family="OCRA"
                         font-size="45"
                         gorn="0.1.0.2.0.0.0.0.0.0.0.0"
                         id="text41"
                         stroke="none"
                         stroke-width="0"
                         text-anchor="start"
                         x="0"
                         y="200.03497">1</text>
                    </g>
                  </g>
                </g>
              </g>
            </g>
          </g>
        </g>
      </g>
      <g
         transform="translate(63.5,73.95)"
         id="g51">
        <g
           gorn="0.1.0.3.0"
           id="g48">
          <g
             gorn="0.1.0.3.0.0"
             id="g59">
            <g
               gorn="0.1.0.3.0.0.0"
               id="g57">
              <g
                 transform="rotate(-90)"
                 id="g46">
                <g
                   gorn="0.1.0.3.0.0.0.0.0"
                   id="g44">
                  <g
                     gorn="0.1.0.3.0.0.0.0.0.0"
                     id="g55">
                    <g
                       gorn="0.1.0.3.0.0.0.0.0.0.0"
                       id="g53" />
                  </g>
                </g>
              </g>
            </g>
          </g>
        </g>
      </g>
      <g
         transform="translate(265.54479,326.05)"
         id="g64">
        <g
           gorn="0.1.0.4.0"
           id="g62">
          <g
             gorn="0.1.0.4.0.0"
             id="g69">
            <g
               gorn="0.1.0.4.0.0.0"
               id="g67">
              <g
                 transform="rotate(-90)"
                 id="g58">
                <g
                   gorn="0.1.0.4.0.0.0.0.0"
                   id="g54">
                  <g
                     gorn="0.1.0.4.0.0.0.0.0.0"
                     id="g65">
                    <g
                       gorn="0.1.0.4.0.0.0.0.0.0.0"
                       id="g63">
                      <text
                         fill="#ffffff"
                         font-family="OCRA"
                         font-size="45"
                         gorn="0.1.0.4.0.0.0.0.0.0.0.0"
                         id="text61"
                         stroke="none"
                         stroke-width="0"
                         text-anchor="start"
                         x="0"
                         y="-199.965">2</text>
                    </g>
                  </g>
                </g>
              </g>
            </g>
          </g>
        </g>
      </g>
      <g
         transform="translate(169.63437,98.980872)"
         id="g90">
        <g
           gorn="0.1.0.6.0"
           id="g88">
          <g
             gorn="0.1.0.6.0.0"
             id="g89">
            <g
               gorn="0.1.0.6.0.0.0"
               id="g87">
              <g
                 transform="rotate(-90)"
                 id="g84">
                <g
                   gorn="0.1.0.6.0.0.0.0.0"
                   id="g74">
                  <g
                     gorn="0.1.0.6.0.0.0.0.0.0"
                     id="g85">
                    <g
                       gorn="0.1.0.6.0.0.0.0.0.0.0"
                       id="g83">
                      <text
                         fill="#ffffff"
                         font-family="OCRA"
                         font-size="45"
                         gorn="0.1.0.6.0.0.0.0.0.0.0.0"
                         id="text81"
                         stroke="none"
                         stroke-width="0"
                         text-anchor="start"
                         x="-229.01654"
                         y="-4.6738071">3</text>
                    </g>
                  </g>
                </g>
              </g>
            </g>
          </g>
        </g>
      </g>
      <g
         aria-label="CH213K"
         transform="matrix(0.92464897,0,0,1.0814915,8.1791606,14.999188)"
         id="text857"
         style="font-size:66.111;-inkscape-font-specification:sans-serif;opacity:1;fill:#ffffff;fill-rule:evenodd;stroke-width:8.24567;stroke-linejoin:round;stroke-miterlimit:3.9">
        <path
           d="m 76.517192,205.88962 q -1.775442,0.77474 -3.228076,1.45264 -1.420354,0.67789 -3.744568,1.42035 -1.969127,0.61334 -4.293342,1.03299 -2.291934,0.45193 -5.068079,0.45193 -5.229484,0 -9.522825,-1.45264 -4.261061,-1.48491 -7.424575,-4.61615 -3.098953,-3.06667 -4.842115,-7.77966 -1.743161,-4.74527 -1.743161,-11.00774 0,-5.93966 1.6786,-10.62037 1.6786,-4.68071 4.842114,-7.90879 3.066673,-3.13123 7.392295,-4.77755 4.357903,-1.64632 9.651947,-1.64632 3.873692,0 7.715102,0.93614 3.873692,0.93615 8.586683,3.29264 v 7.58598 h -0.484211 q -3.970534,-3.32492 -7.876506,-4.84211 -3.905972,-1.5172 -8.360717,-1.5172 -3.647727,0 -6.585276,1.19439 -2.905268,1.16211 -5.197203,3.64772 -2.227372,2.42106 -3.486322,6.13335 -1.226669,3.68001 -1.226669,8.52212 0,5.06808 1.355792,8.71581 1.388073,3.64772 3.550884,5.93966 2.259653,2.38877 5.261764,3.55088 3.034392,1.12983 6.391591,1.12983 4.616149,0 8.651244,-1.58176 4.035095,-1.58176 7.553698,-4.74527 h 0.451931 z"
           style="stroke-width:8.24566"
           id="path373" />
        <path
           d="M 122.32359,209.37595 H 115.932 V 185.84327 H 91.947395 v 23.53268 h -6.391591 v -48.06606 h 6.391591 v 18.85197 H 115.932 v -18.85197 h 6.39159 z"
           style="stroke-width:8.24566"
           id="path375" />
        <path
           d="m 166.51596,209.37595 h -32.53901 v -6.74668 q 3.38948,-2.90527 6.77896,-5.81054 3.42176,-2.90527 6.35931,-5.77826 6.19791,-6.00422 8.48984,-9.52282 2.29193,-3.55089 2.29193,-7.65054 0,-3.74457 -2.48561,-5.84282 -2.45334,-2.13053 -6.87581,-2.13053 -2.93755,0 -6.35931,1.03298 -3.42176,1.03299 -6.68211,3.16352 h -0.32281 v -6.77896 q 2.29193,-1.12983 6.10106,-2.06597 3.84141,-0.93614 7.42458,-0.93614 7.39229,0 11.58879,3.58316 4.1965,3.55089 4.1965,9.65195 0,2.74387 -0.71018,5.13264 -0.67789,2.3565 -2.03369,4.48703 -1.25894,2.0014 -2.96983,3.93825 -1.67859,1.93685 -4.09965,4.29334 -3.45404,3.38948 -7.13405,6.58528 -3.68001,3.16351 -6.8758,5.8751 h 25.85689 z"
           style="stroke-width:8.24566"
           id="path377" />
        <path
           d="m 205.80163,209.37595 h -26.01829 v -4.90668 h 10.00704 v -32.2162 h -10.00704 v -4.39018 q 2.03369,0 4.3579,-0.32281 2.32422,-0.35509 3.51861,-1.0007 1.48491,-0.80702 2.32421,-2.03369 0.87158,-1.25895 1.0007,-3.3572 h 5.00352 v 43.32078 h 9.81335 z"
           style="stroke-width:8.24566"
           id="path379" />
        <path
           d="m 246.34627,186.23064 q 1.54948,1.38807 2.55019,3.48632 1.0007,2.09825 1.0007,5.42317 0,3.29264 -1.19439,6.0365 -1.19439,2.74387 -3.3572,4.77756 -2.42106,2.25965 -5.71369,3.35719 -3.26036,1.06527 -7.16633,1.06527 -4.00282,0 -7.87651,-0.96842 -3.87369,-0.93615 -6.35931,-2.06597 v -6.74668 h 0.48421 q 2.74387,1.80772 6.45616,3.00211 3.71228,1.19439 7.16632,1.19439 2.03369,0 4.32563,-0.6779 2.29193,-0.67789 3.71228,-2.00141 1.48492,-1.42035 2.1951,-3.13123 0.74245,-1.71088 0.74245,-4.32562 0,-2.58246 -0.8393,-4.26106 -0.80702,-1.71088 -2.25965,-2.67931 -1.45263,-1.0007 -3.5186,-1.35579 -2.06597,-0.38737 -4.45475,-0.38737 h -2.90527 v -5.3586 h 2.25966 q 4.90667,0 7.81194,-2.03369 2.93755,-2.06597 2.93755,-6.00422 0,-1.74316 -0.74246,-3.03439 -0.74245,-1.32352 -2.06597,-2.16281 -1.38807,-0.8393 -2.96983,-1.16211 -1.58175,-0.32281 -3.58316,-0.32281 -3.06667,0 -6.52071,1.09755 -3.45405,1.09754 -6.52072,3.09895 h -0.32281 v -6.74668 q 2.29194,-1.12983 6.10107,-2.06597 3.84141,-0.96842 7.42457,-0.96842 3.51861,0 6.19791,0.64561 2.6793,0.64562 4.84211,2.06597 2.32422,1.54948 3.51861,3.74457 1.19439,2.19509 1.19439,5.13264 0,4.00282 -2.84071,7.00493 -2.80843,2.96983 -6.64984,3.74457 v 0.45193 q 1.54948,0.25824 3.55089,1.09754 2.0014,0.80702 3.38947,2.03369 z"
           style="stroke-width:8.24566"
           id="path381" />
        <path
           d="m 299.96462,209.37595 h -8.29615 l -19.01337,-21.40215 -4.77755,5.10036 v 16.30179 h -6.39159 v -48.06606 h 6.39159 v 25.08215 l 23.33899,-25.08215 h 7.74738 l -21.46671,22.59654 z"
           style="stroke-width:8.24566"
           id="path383" />
      </g>
    </g>
    <g
       transform="translate(234.06999,334.05)"
       id="g123">
      <g
         gorn="0.1.1.0"
         id="g100">
        <g
           gorn="0.1.1.0.0"
           id="g115">
          <g
             gorn="0.1.1.0.0.0"
             id="g113">
            <rect
               fill="#8d8c8c"
               gorn="0.1.1.0.0.0.0"
               height="31.9"
               id="connector0pin"
               width="31.93"
               x="0"
               y="0" />
            <rect
               fill="#8c8663"
               gorn="0.1.1.0.0.0.1"
               height="16.415199"
               id="rect103"
               width="16.444201"
               x="7.7915301"
               y="7.7354398" />
            <polygon
               fill="#b8af82"
               gorn="0.1.1.0.0.0.2"
               id="polygon105"
               points="0,31.9 7.79153,24.1368 7.79153,6.97162 0,0 " />
            <polygon
               fill="#80795b"
               gorn="0.1.1.0.0.0.3"
               id="polygon107"
               points="24.2079,7.76321 7.90264,7.76321 0,0 31.93,0 " />
            <polygon
               fill="#5e5b43"
               gorn="0.1.1.0.0.0.4"
               id="polygon109"
               points="24.2079,24.1368 24.2079,7.76321 31.93,0 31.93,31.9 " />
            <polygon
               fill="#9a916c"
               gorn="0.1.1.0.0.0.5"
               id="polygon111"
               points="0,31.9 7.87486,24.1368 24.2079,24.1368 31.93,31.9 " />
          </g>
        </g>
      </g>
    </g>
    <g
       transform="translate(134.06999,333.95262)"
       id="g157">
      <g
         gorn="0.1.4.0"
         id="g131">
        <g
           gorn="0.1.4.0.0"
           id="g160">
          <g
             gorn="0.1.4.0.0.0"
             id="g158">
            <rect
               fill="#8d8c8c"
               gorn="0.1.4.0.0.0.0"
               height="31.9"
               id="connector2pin"
               width="31.93"
               x="0"
               y="0" />
            <rect
               fill="#8c8663"
               gorn="0.1.4.0.0.0.1"
               height="16.415199"
               id="rect148"
               width="16.444201"
               x="7.7915301"
               y="7.7354398" />
            <polygon
               fill="#b8af82"
               gorn="0.1.4.0.0.0.2"
               id="polygon150"
               points="0,31.9 7.79153,24.1368 7.79153,6.97162 0,0 " />
            <polygon
               fill="#80795b"
               gorn="0.1.4.0.0.0.3"
               id="polygon152"
               points="24.2079,7.76321 7.90264,7.76321 0,0 31.93,0 " />
            <polygon
               fill="#5e5b43"
               gorn="0.1.4.0.0.0.4"
               id="polygon154"
               points="24.2079,24.1368 24.2079,7.76321 31.93,0 31.93,31.9 " />
            <polygon
               fill="#9a916c"
               gorn="0.1.4.0.0.0.5"
               id="polygon156"
               points="0,31.9 7.87486,24.1368 24.2079,24.1368 31.93,31.9 " />
          </g>
        </g>
      </g>
    </g>
    <g
       transform="translate(34.069997,334.05)"
       id="g168">
      <g
         gorn="0.1.5.0"
         id="g141">
        <g
           gorn="0.1.5.0.0"
           id="g175">
          <g
             gorn="0.1.5.0.0.0"
             id="g173">
            <rect
               fill="#8d8c8c"
               gorn="0.1.5.0.0.0.0"
               height="31.9"
               id="connector1pin"
               width="31.93"
               x="0"
               y="0" />
            <rect
               fill="#8c8663"
               gorn="0.1.5.0.0.0.1"
               height="16.415199"
               id="rect163"
               width="16.444201"
               x="7.7915301"
               y="7.7354398" />
            <polygon
               fill="#b8af82"
               gorn="0.1.5.0.0.0.2"
               id="polygon165"
               points="0,0 0,31.9 7.79153,24.1368 7.79153,6.97162 " />
            <polygon
               fill="#80795b"
               gorn="0.1.5.0.0.0.3"
               id="polygon167"
               points="31.93,0 24.2079,7.76321 7.90264,7.76321 0,0 " />
            <polygon
               fill="#5e5b43"
               gorn="0.1.5.0.0.0.4"
               id="polygon169"
               points="31.93,31.9 24.2079,24.1368 24.2079,7.76321 31.93,0 " />
            <polygon
               fill="#9a916c"
               gorn="0.1.5.0.0.0.5"
               id="polygon171"
               points="31.93,31.9 0,31.9 7.87486,24.1368 24.2079,24.1368 " />
          </g>
        </g>
      </g>
    </g>
  </g>
</svg>
