<?xml version="1.0" encoding="UTF-8" standalone="no"?>
<svg
   gorn="0"
   height="32"
   id="0"
   version="1.0"
   width="32"
   x="0px"
   xml:space="preserve"
   y="0px"
   xmlns="http://www.w3.org/2000/svg"
   xmlns:svg="http://www.w3.org/2000/svg"><defs
     id="defs17" /><g
     gorn="0.1"
     id="breadboard"
     style="display:inline"><g
       transform="matrix(0.7261827,0,0,0.7261735,0,11.718518)"
       id="g14"><g
         gorn="0.1.0.0"
         id="g11"><g
           gorn="0.1.0.0.0"
           id="g2406"><rect
             gorn="0.1.0.0.0.0"
             height="2.9100001"
             id="connector0pin"
             style="fill:#868584"
             width="2.5"
             x="0"
             y="4.2971067" /><rect
             gorn="0.1.0.0.0.1"
             height="2.9100001"
             id="connector1pin"
             style="fill:#868584"
             width="2.5"
             x="41.566048"
             y="4.2971067" /><rect
             gorn="0.1.0.0.0.2"
             height="2.9100001"
             id="rect7"
             style="fill:#868584"
             width="44.066048"
             x="-2.0934836e-08"
             y="4.2971067" /><path
             d="m 13.963672,0.70710675 h -3.39163 c -0.7409927,0 -0.6111422,10.00000025 0,10.00000025 h 3.39163 c 0.621799,0 17.468023,0 18.090952,0 h 3.39163 c 0.805919,0 0.870844,-10.00000025 0,-10.00000025 h -3.39163 c -0.622929,0 -17.469153,0 -18.090952,0 z"
             gorn="0.1.0.0.0.3"
             id="Body_1_"
             style="fill:#1a1a1a;stroke-width:1.06327" /><rect
             gorn="0.1.0.0.0.4"
             height="10"
             id="rect16"
             style="opacity:0.74;fill:#ffffff"
             width="2.7733099"
             x="12.446234"
             y="0.70710677" /><path
             d="m 10.995894,1.2071067 c 1.132129,0 1.804331,0 2.936461,0 1.132129,0 16.983074,0 18.115203,0 0.04755,0 0.353224,0 0.765319,0 0.883061,0 1.688005,0 2.065005,0 0.566064,0 1.804614,0.5 -0.566065,0.5 -1.698194,0 -1.13213,0 -2.264259,0 -1.132129,0 -16.983074,0 -18.115203,0 -1.13213,0 -1.804332,0 -2.936461,0 -0.566065,0 -1.132129,-0.5 0,-0.5 z"
             gorn="0.1.0.0.0.5"
             id="Reflex_1_"
             style="opacity:0.4;fill:#ffffff;stroke-width:1.06402" /><path
             d="m 35.305396,10.707107 c -1.125217,0.01941 -2.250856,0 -3.376283,0 -1.416914,0 -20.254636,0 -21.380064,0 -0.14089,0 -0.321415,-1.0000003 -0.281146,-1.0000003 2.022956,0 2.527816,0 3.653244,0 1.125427,0 16.882538,0 18.007966,0 1.125427,0 2.612791,0 3.738219,0 0.03517,0 -0.131109,0.9960943 -0.361936,1.0000003 z"
             gorn="0.1.0.0.0.6"
             id="Shaddow_1_"
             style="opacity:0.4;stroke-width:1.06086" /></g></g></g></g></svg>
