<?xml version="1.0" encoding="UTF-8" standalone="no"?>
<svg
   width="29.299999mm"
   height="13.8mm"
   viewBox="0 0 1153.5433 543.30708"
   version="1.2"
   id="svg22"
   xmlns="http://www.w3.org/2000/svg"
   xmlns:svg="http://www.w3.org/2000/svg">
  <defs
     id="defs26" />
  <desc
     id="desc2">
    <referenceFile>lm393-hall-a3144-breakout-3pins_pcb.svg</referenceFile>
  </desc>
  <desc
     id="desc4">Fritzing footprint SVG</desc>
  <g
     gorn="0.3"
     id="copper1">
    <g
       gorn="0.3.0"
       id="copper0">
      <circle
         cx="70"
         cy="174.16666"
         fill="none"
         stroke-width="20"
         gorn="0.3.0.0"
         stroke="#ffbf00"
         id="connector1pin"
         r="29" />
      <circle
         cx="70"
         cy="274.16666"
         fill="none"
         stroke-width="20"
         gorn="0.3.0.1"
         stroke="#ffbf00"
         id="connector2pin"
         r="29" />
      <circle
         cx="70"
         cy="374.16672"
         fill="none"
         stroke-width="20"
         gorn="0.3.0.2"
         stroke="#ffbf00"
         id="connector3pin"
         r="29" />
    </g>
  </g>
  <g
     id="silkscreen">
    <path
       gorn="0.4.0.0.0.0"
       id="path355"
       d="M -0.76003951,1.7880819 V 541.41885 H 1152.1043 V 1.7880819 Z M 243.28886,214.29925 c 31.52099,-8.9e-4 57.07719,25.72518 57.08753,57.46702 8.6e-4,31.74983 -25.55861,57.48838 -57.08753,57.48749 -31.52893,8.8e-4 -57.08839,-25.73766 -57.08751,-57.48749 0.0103,-31.74184 25.56652,-57.4679 57.08751,-57.46702 z"
       stroke-width="4.02154"
       fill="none"
       fill-opacity="1"
       stroke-opacity="1"
       style="opacity:0.99;stroke-miterlimit:4;stroke-dasharray:none;stroke-dashoffset:0"
       stroke="#000000" />
    <path
       d="m 136.89615,370.86294 -7.03129,19.31658 h -3.42483 l -7.03129,-19.31658 h 2.75025 l 6.05832,16.99444 6.05832,-16.99444 z"
       id="path429"
       style="fill:#000000;stroke:#000000" />
    <path
       d="m 154.74679,388.77845 q -0.71351,0.31135 -1.29729,0.58378 -0.5708,0.27243 -1.50485,0.5708 -0.79134,0.24649 -1.72539,0.41513 -0.92107,0.18162 -2.03673,0.18162 -2.10161,0 -3.82699,-0.58377 -1.71242,-0.59676 -2.98376,-1.85512 -1.24539,-1.23242 -1.94593,-3.12646 -0.70053,-1.90701 -0.70053,-4.42374 0,-2.38701 0.67459,-4.26807 0.67458,-1.88106 1.94592,-3.17835 1.23242,-1.25837 2.97079,-1.91998 1.75133,-0.66162 3.87888,-0.66162 1.55674,0 3.10051,0.37622 1.55674,0.37621 3.45078,1.32323 v 3.04862 h -0.19459 q -1.59566,-1.33621 -3.16538,-1.94593 -1.56971,-0.60972 -3.35997,-0.60972 -1.46593,0 -2.64646,0.47999 -1.16756,0.46702 -2.08863,1.46593 -0.89513,0.97297 -1.40107,2.46485 -0.49297,1.4789 -0.49297,3.42483 0,2.03674 0.54486,3.50267 0.55784,1.46593 1.42702,2.387 0.9081,0.95999 2.11457,1.42702 1.21945,0.45405 2.56863,0.45405 1.85512,0 3.47672,-0.63567 1.62161,-0.63567 3.03565,-1.90701 h 0.18162 z"
       id="path431"
       style="fill:#000000;stroke:#000000" />
    <path
       d="m 173.29797,388.77845 q -0.71351,0.31135 -1.29729,0.58378 -0.5708,0.27243 -1.50485,0.5708 -0.79134,0.24649 -1.72539,0.41513 -0.92107,0.18162 -2.03674,0.18162 -2.1016,0 -3.82699,-0.58377 -1.71241,-0.59676 -2.98375,-1.85512 -1.2454,-1.23242 -1.94593,-3.12646 -0.70053,-1.90701 -0.70053,-4.42374 0,-2.38701 0.67458,-4.26807 0.67459,-1.88106 1.94593,-3.17835 1.23242,-1.25837 2.97078,-1.91998 1.75134,-0.66162 3.87889,-0.66162 1.55674,0 3.10051,0.37622 1.55674,0.37621 3.45078,1.32323 v 3.04862 h -0.1946 q -1.59566,-1.33621 -3.16537,-1.94593 -1.56972,-0.60972 -3.35997,-0.60972 -1.46593,0 -2.64646,0.47999 -1.16756,0.46702 -2.08863,1.46593 -0.89513,0.97297 -1.40107,2.46485 -0.49297,1.4789 -0.49297,3.42483 0,2.03674 0.54486,3.50267 0.55784,1.46593 1.42702,2.387 0.9081,0.95999 2.11457,1.42702 1.21945,0.45405 2.56863,0.45405 1.85511,0 3.47672,-0.63567 1.62161,-0.63567 3.03565,-1.90701 h 0.18162 z"
       id="path433"
       style="fill:#000000;stroke:#000000" />
    <path
       d="m 131.45341,265.63814 q 1.31926,1.44974 2.01514,3.55185 0.71037,2.10212 0.71037,4.76964 0,2.66751 -0.72487,4.78413 -0.71037,2.10211 -2.00064,3.50836 -1.33375,1.46423 -3.16042,2.2036 -1.81217,0.73936 -4.14625,0.73936 -2.27608,0 -4.14624,-0.75386 -1.85567,-0.75386 -3.16043,-2.1891 -1.30476,-1.43524 -2.01513,-3.52286 -0.69587,-2.08762 -0.69587,-4.76963 0,-2.63852 0.69587,-4.72614 0.69587,-2.10212 2.02963,-3.59535 1.27577,-1.42074 3.16042,-2.1746 1.89916,-0.75387 4.13175,-0.75387 2.31958,0 4.16075,0.76836 1.85566,0.75387 3.14592,2.16011 z m -0.26095,8.32149 q 0,-4.20424 -1.88466,-6.48033 -1.88465,-2.29058 -5.14656,-2.29058 -3.2909,0 -5.17556,2.29058 -1.87016,2.27609 -1.87016,6.48033 0,4.24772 1.91365,6.50931 1.91366,2.24709 5.13207,2.24709 3.21841,0 5.11757,-2.24709 1.91365,-2.26159 1.91365,-6.50931 z"
       id="path436"
       style="fill:#000000;stroke:#000000" />
    <path
       d="m 154.98263,276.07624 q 0,2.34857 -0.5219,4.10275 -0.50741,1.73969 -1.6817,2.89948 -1.11629,1.1018 -2.60952,1.6092 -1.49323,0.50741 -3.47937,0.50741 -2.02963,0 -3.53735,-0.5364 -1.50773,-0.5364 -2.53704,-1.58021 -1.17429,-1.18879 -1.69619,-2.87048 -0.50741,-1.68169 -0.50741,-4.13175 v -12.91715 h 2.87048 v 13.06212 q 0,1.75419 0.23195,2.769 0.24646,1.01482 0.81186,1.84117 0.63788,0.94232 1.72518,1.42074 1.1018,0.47841 2.63852,0.47841 1.55122,0 2.63852,-0.46391 1.0873,-0.47842 1.73969,-1.43524 0.56539,-0.82635 0.79735,-1.88466 0.24646,-1.07281 0.24646,-2.65302 v -13.13461 h 2.87047 z"
       id="path438"
       style="fill:#000000;stroke:#000000" />
    <path
       d="m 175.85884,265.71063 h -7.7126 v 19.03503 h -2.87048 v -19.03503 h -7.7126 v -2.55154 h 18.29568 z"
       id="path440"
       style="fill:#000000;stroke:#000000" />
    <path
       d="m 134.10538,182.79924 q -1.65124,0.75794 -3.61378,1.32641 -1.94901,0.55492 -3.7762,0.55492 -2.35505,0 -4.31759,-0.64967 -1.96254,-0.64967 -3.34309,-1.949 -1.39408,-1.31288 -2.15203,-3.27542 -0.75794,-1.97607 -0.75794,-4.61535 0,-4.83191 2.81523,-7.62008 2.82876,-2.80169 7.75542,-2.80169 1.71891,0 3.5055,0.41958 1.80013,0.40604 3.87095,1.39408 v 3.18067 h -0.24363 q -0.41958,-0.32484 -1.21813,-0.85269 -0.79855,-0.52786 -1.57003,-0.87976 -0.9339,-0.41958 -2.12496,-0.69028 -1.17753,-0.28423 -2.67988,-0.28423 -3.3837,0 -5.35977,2.1791 -1.96254,2.16556 -1.96254,5.87409 0,3.91155 2.05728,6.09064 2.05729,2.16557 5.60339,2.16557 1.29934,0 2.58515,-0.25716 1.29933,-0.25717 2.27384,-0.66321 v -4.94019 h -5.40038 v -2.35505 h 8.05319 z"
       id="path689"
       style="fill:#000000"
       class="UnoptimicedTransforms" />
    <path
       d="m 133.80047,183.97065 c 0.3647,-0.15324 0.30491,-1.17141 0.30491,-1.17141 0,0 -0.72793,-0.71178 -1.04098,-0.58022 -0.87706,0.36856 -1.82216,0.70015 -2.83294,0.99294 -1.22356,0.34837 -2.39486,0.51861 -3.51606,0.51861 -1.48199,0 -2.81915,-0.20433 -4.01904,-0.60154 -1.18844,-0.39342 -2.17955,-0.97564 -2.99033,-1.73872 -0.81311,-0.76575 -1.45951,-1.74118 -1.91635,-2.92404 -0.45544,-1.18741 -0.69493,-2.60514 -0.69493,-4.27514 0,-3.01371 0.87623,-5.30352 2.53374,-6.94511 1.66544,-1.64949 4.00506,-2.52666 7.08691,-2.52666 1.06804,0 2.16377,0.13032 3.29647,0.3963 1.11768,0.2521 2.33966,0.6896 3.67089,1.32477 l -0.54091,-0.85741 v 3.18067 l 0.95,-0.95 h -0.24363 l 0.58157,0.19882 c -0.30502,-0.23615 -0.73528,-0.5367 -1.27584,-0.89402 -0.56847,-0.37577 -1.13514,-0.69409 -1.70456,-0.95381 -0.68959,-0.30981 -1.45939,-0.55819 -2.30375,-0.7501 l 0.0124,0.003 c -0.8718,-0.21043 -1.84319,-0.31075 -2.90279,-0.31075 -2.51072,0 -4.51955,0.78835 -6.06371,2.49116 -1.51221,1.66864 -2.2086,3.85115 -2.2086,6.51203 0,2.78466 0.73802,5.07086 2.31853,6.74495 1.58272,1.66602 3.71051,2.46126 6.29214,2.46126 0.92939,0 1.85344,-0.092 2.7696,-0.27524 0.91373,-0.18085 1.73473,-0.41819 2.45477,-0.71821 a 9.4406535,9.4406535 0 0 0 0.58462,-0.26729 v -6.49982 h -6.35038 l 0.95,0.95 v -2.35505 l -0.95,0.95 h 8.05319 l -0.95,-0.95 0,6.91898 c 0,0.86487 0.95,1.72974 0.95,1.72974 0,0 0.95,-0.86487 0.95,-1.72974 l 0,-7.86898 h -9.95319 v 4.25505 h 6.35038 l -0.95,-0.95 v 4.94019 l 0.58462,-0.87692 c -0.5793,0.24137 -1.2742,0.44616 -2.09477,0.60858 -0.79639,0.15928 -1.59578,0.23871 -2.39884,0.23871 -2.14651,0 -3.7543,-0.64847 -4.91261,-1.86774 -1.16456,-1.23351 -1.79806,-3.00773 -1.79806,-5.43847 0,-2.28383 0.61197,-4.01738 1.71627,-5.23592 1.09081,-1.20288 2.65516,-1.86727 4.65604,-1.86727 0.94353,0 1.75873,0.0892 2.45697,0.25771 a 7.3988299,7.3988299 0 0 1 0.006,0.001 13.809452,13.809452 0 0 1 0.006,0.001 c 0.74372,0.16903 1.39056,0.38083 1.94125,0.62823 0.46414,0.21171 0.94415,0.4799 1.44042,0.80794 0.52417,0.34648 0.906,0.61439 1.16042,0.81136 a 7.0891263,7.0891263 0 0 1 0.24531,0.19882 h 1.52989 v -4.72245 a 26.678956,26.678956 0 0 0 -0.54091,-0.26563 c -1.42987,-0.68222 -2.78851,-1.17411 -4.06284,-1.46151 -1.25759,-0.29534 -2.49886,-0.44474 -3.7227,-0.44474 -3.48703,0 -6.31769,0.99063 -8.42392,3.0767 -2.09614,2.07599 -3.09673,4.86623 -3.09673,8.29507 0,1.84904 0.2658,3.50821 0.82174,4.95761 0.55297,1.43181 1.34126,2.63999 2.38714,3.62495 1.02974,0.96916 2.26735,1.68627 3.69563,2.15908 1.41683,0.46902 2.95807,0.6978 4.61614,0.6978 1.31505,0 2.66122,-0.19971 4.04051,-0.59243 1.07843,-0.31238 2.09388,-0.66799 3.04456,-1.06749 z"
       id="path443"
       style="fill:#000000;stroke:none;fill-rule:nonzero"
       class="UnoptimicedTransforms" />
    <path
       d="m 154.1639,184.28806 h -3.31601 l -9.55555,-18.02831 v 18.02831 h -2.50393 V 164.1348 h 4.15517 l 8.71639,16.45827 V 164.1348 h 2.50393 z"
       id="path445"
       style="fill:#000000;stroke:#000000" />
    <path
       d="m 176.55041,174.23173 q 0,2.74756 -1.2046,4.9808 -1.19106,2.23323 -3.18067,3.4649 -1.38054,0.85269 -3.08592,1.23166 -1.69185,0.37897 -4.46648,0.37897 h -5.08907 V 164.1348 h 5.03493 q 2.95058,0 4.68303,0.43311 1.74599,0.41958 2.95058,1.16399 2.05729,1.2858 3.20774,3.42429 1.15046,2.1385 1.15046,5.07554 z m -2.8017,-0.0406 q 0,-2.36859 -0.82562,-3.99276 -0.82562,-1.62417 -2.46333,-2.55807 -1.19106,-0.67674 -2.531,-0.9339 -1.33994,-0.27069 -3.20774,-0.27069 h -2.51747 v 15.55144 h 2.51747 q 1.93547,0 3.37016,-0.28423 1.44822,-0.28423 2.65281,-1.05571 1.50236,-0.96097 2.24677,-2.531 0.75795,-1.57003 0.75795,-3.92508 z"
       id="path447"
       style="fill:#000000;stroke:#000000" />
  </g>
</svg>
