<?xml version="1.0" encoding="UTF-8" standalone="no"?>
<!-- Created with Fritzing (http://www.fritzing.org/) -->

<svg
   gorn="0"
   height="0.41338584in"
   id="svg301"
   version="1.2"
   viewBox="0 0 405.5118 413.38582"
   width="0.4055118in"
   x="0in"
   y="0in"
   xmlns="http://www.w3.org/2000/svg"
   xmlns:svg="http://www.w3.org/2000/svg">
  <defs
     id="defs305" />
  <g
     gorn="0.1"
     id="breadboard">
    <g
       gorn="0.1.0"
       id="icon">
      <path
         d="m 0,0 v 186.02363 a 24.330709,20.669293 0 0 1 0,41.33858 V 413.38584 H 405.5118 V 0 Z"
         fill="#1f7a34"
         gorn="0.1.0.0"
         id="path6"
         stroke="none"
         stroke-width="0" />
      <g
         transform="matrix(2.8151644,0,0,1.0425848,30.919195,109.35038)"
         id="g43">
        <g
           gorn="0.1.0.1.0"
           id="g30">
          <g
             gorn="0.1.0.1.0.0"
             id="g46">
            <g
               transform="translate(1.2785574)"
               id="g39">
              <g
                 gorn="0.1.0.1.0.0.0.0"
                 id="g37">
                <g
                   gorn="0.1.0.1.0.0.0.0.0"
                   id="g44">
                  <g
                     transform="matrix(0.5,0,0,0.5,33.7461,50.2756)"
                     id="g34">
                    <g
                       gorn="0.1.0.1.0.0.0.0.0.0.0"
                       id="g32">
                      <g
                         gorn="0.1.0.1.0.0.0.0.0.0.0.0"
                         id="g42">
                        <g
                           gorn="0.1.0.1.0.0.0.0.0.0.0.0.0"
                           id="g40">
                          <rect
                             connectorname="8"
                             fill="#8c8c8c"
                             gorn="0.1.0.1.0.0.0.0.0.0.0.0.0.0"
                             height="34.999901"
                             id="rect8"
                             stroke="none"
                             stroke-linecap="round"
                             stroke-width="0"
                             width="12.0079"
                             x="75.184914"
                             y="-19.052341" />
                          <rect
                             connectorname="10"
                             fill="#8c8c8c"
                             gorn="0.1.0.1.0.0.0.0.0.0.0.0.0.4"
                             height="34.999901"
                             id="rect16"
                             stroke="none"
                             stroke-linecap="round"
                             stroke-width="0"
                             width="12.0079"
                             x="21.237604"
                             y="-19.052341" />
                          <rect
                             connectorname="3"
                             fill="#8c8c8c"
                             gorn="0.1.0.1.0.0.0.0.0.0.0.0.0.5"
                             height="34.999901"
                             id="rect18"
                             stroke="none"
                             stroke-linecap="round"
                             stroke-width="0"
                             width="12.0079"
                             x="75.184914"
                             y="147.04967" />
                          <rect
                             connectorname="2"
                             fill="#8c8c8c"
                             gorn="0.1.0.1.0.0.0.0.0.0.0.0.0.8"
                             height="34.999901"
                             id="rect24"
                             stroke="none"
                             stroke-linecap="round"
                             stroke-width="0"
                             width="12.0079"
                             x="48.211262"
                             y="147.04967" />
                          <rect
                             connectorname="1"
                             fill="#8c8c8c"
                             gorn="0.1.0.1.0.0.0.0.0.0.0.0.0.9"
                             height="34.999901"
                             id="rect26"
                             stroke="none"
                             stroke-linecap="round"
                             stroke-width="0"
                             width="12.0079"
                             x="21.237604"
                             y="147.04967" />
                          <rect
                             fill="#303030"
                             gorn="0.1.0.1.0.0.0.0.0.0.0.0.0.10"
                             height="128.18202"
                             id="rect28"
                             stroke="none"
                             stroke-width="0"
                             width="82.571091"
                             x="13.696859"
                             y="17.517565" />
                          <g
                             transform="matrix(0.61256817,0,0,1,13.69686,-21.478536)"
                             id="g18">
                            <polygon
                               fill="#1f1f1f"
                               gorn="0.1.0.1.0.0.0.0.0.0.0.0.0.11.0"
                               id="polygon30"
                               points="134.984,38.9961 124.984,48.9961 10,48.9961 0,38.9961 " />
                          </g>
                          <g
                             transform="matrix(0.61871787,0,0,1.0485238,13.288069,-24.9774)"
                             id="g21">
                            <polygon
                               fill="#1f1f1f"
                               gorn="0.1.0.1.0.0.0.0.0.0.0.0.0.12.0"
                               id="polygon32"
                               points="10,152.106 0,162.106 134.984,162.106 124.984,152.106 " />
                          </g>
                          <g
                             transform="matrix(1,0,0,1.0354736,13.69686,-23.347107)"
                             id="g24">
                            <polygon
                               fill="#000000"
                               gorn="0.1.0.1.0.0.0.0.0.0.0.0.0.13.0"
                               id="polygon34"
                               points="10,48.9961 0,38.9961 0,162.106 10,152.106 " />
                          </g>
                          <g
                             transform="matrix(1,0,0,1.0354735,-39.131099,-23.982594)"
                             id="g27">
                            <polygon
                               fill="#3d3d3d"
                               gorn="0.1.0.1.0.0.0.0.0.0.0.0.0.14.0"
                               id="polygon36"
                               points="124.984,152.106 124.984,48.9961 134.984,38.9961 134.984,162.106 " />
                          </g>
                        </g>
                      </g>
                    </g>
                  </g>
                </g>
              </g>
            </g>
          </g>
        </g>
      </g>
      <g
         aria-label="LLVB"
         transform="scale(0.94411625,1.0591916)"
         id="label-3"
         style="font-size:34.4397px;font-family:OCRA;fill:#ffffff;stroke-width:0">
        <path
           d="m 195.40325,203.77754 h -15.84092 v -25.03941 h 3.32962 v 22.07975 h 12.5113 z"
           id="path1525" />
        <path
           d="m 214.57379,203.77754 h -15.84092 v -25.03941 h 3.32962 v 22.07975 h 12.5113 z"
           id="path1527" />
        <path
           d="m 235.79591,178.73813 -9.11442,25.03941 H 222.242 l -9.11441,-25.03941 h 3.56504 l 7.8532,22.0293 7.85319,-22.0293 z"
           id="path1529" />
        <path
           d="m 258.48104,196.07569 q 0,1.86661 -0.70628,3.29599 -0.70628,1.42938 -1.90024,2.35428 -1.41256,1.10987 -3.111,1.58073 -1.68163,0.47085 -4.28815,0.47085 h -8.87899 v -25.03941 h 7.41597 q 2.74105,0 4.10317,0.2018 1.36212,0.20179 2.60652,0.84081 1.37894,0.7231 2.00114,1.8666 0.6222,1.12669 0.6222,2.70742 0,1.78253 -0.90808,3.04374 -0.90808,1.24441 -2.42154,2.00114 v 0.13453 q 2.53925,0.5213 4.00227,2.23656 1.46301,1.69844 1.46301,4.30496 z m -5.59981,-11.28371 q 0,-0.90807 -0.30269,-1.53028 -0.3027,-0.6222 -0.97535,-1.00897 -0.79036,-0.45404 -1.91705,-0.55494 -1.12669,-0.11771 -2.7915,-0.11771 H 242.926 v 7.23099 h 4.30497 q 1.56391,0 2.4888,-0.15135 0.9249,-0.16816 1.71526,-0.67265 0.79036,-0.50448 1.10987,-1.29485 0.33633,-0.80718 0.33633,-1.90024 z m 2.13566,11.41824 q 0,-1.51346 -0.45403,-2.40472 -0.45404,-0.89126 -1.648,-1.51346 -0.80718,-0.42041 -1.9675,-0.53812 -1.14351,-0.13453 -2.7915,-0.13453 H 242.926 v 9.3162 h 4.40586 q 2.18612,0 3.58187,-0.21861 1.39575,-0.23542 2.28701,-0.84081 0.94171,-0.65583 1.37893,-1.49665 0.43722,-0.84081 0.43722,-2.1693 z"
           id="path1531" />
      </g>
      <g
         transform="translate(123.67527,331.10273)"
         id="g56">
        <g
           gorn="0.1.0.3.0"
           id="g41">
          <g
             gorn="0.1.0.3.0.0"
             id="g57">
            <g
               gorn="0.1.0.3.0.0.0"
               id="g55">
              <g
                 transform="rotate(-90)"
                 id="g50">
                <g
                   gorn="0.1.0.3.0.0.0.0.0"
                   id="g36">
                  <g
                     gorn="0.1.0.3.0.0.0.0.0.0"
                     id="g53">
                    <g
                       gorn="0.1.0.3.0.0.0.0.0.0.0"
                       id="g51">
                      <g
                         aria-label="1"
                         id="text49"
                         style="font-size:45px;font-family:OCRA;fill:#ffffff;stroke-width:0">
                        <path
                           d="m 12.524414,0 v -29.11377 q -1.010742,1.010743 -3.4277343,2.263184 -2.3950195,1.252441 -4.4384766,1.757813 v -4.21875 q 2.7026367,-0.747071 5.7788089,-2.373047 3.076172,-1.64795 4.724121,-3.098145 h 1.625976 V 0 Z"
                           id="path1379" />
                      </g>
                    </g>
                  </g>
                </g>
              </g>
            </g>
          </g>
        </g>
      </g>
      <g
         transform="translate(125.81337,79.854305)"
         id="g68">
        <g
           gorn="0.1.0.4.0"
           id="g52">
          <g
             gorn="0.1.0.4.0.0"
             id="g67">
            <g
               gorn="0.1.0.4.0.0.0"
               id="g65">
              <g
                 transform="rotate(-90)"
                 id="g62">
                <g
                   gorn="0.1.0.4.0.0.0.0.0"
                   id="g47">
                  <g
                     gorn="0.1.0.4.0.0.0.0.0.0"
                     id="g63">
                    <g
                       gorn="0.1.0.4.0.0.0.0.0.0.0"
                       id="g61">
                      <g
                         aria-label="5"
                         id="text59"
                         style="font-size:45px;font-family:OCRA;text-anchor:end;fill:#ffffff;stroke-width:0">
                        <path
                           d="m -3.2299805,-10.50293 q 0,4.9877933 -3.3178711,8.0419925 -3.2958984,3.05419922 -8.8769534,3.05419922 -4.790039,0 -7.141113,-1.42822266 V -5.2294922 q 3.449707,2.2412109 7.03125,2.2412109 3.55957,0 5.7348633,-1.9555664 2.1972656,-1.977539 2.1972656,-5.2294923 0,-3.251953 -2.2851562,-5.053711 -2.2631837,-1.82373 -6.4160157,-1.82373 -3.208008,0 -5.778809,0.285644 l 1.252442,-17.270508 h 15.908203 v 3.779297 H -17.20459 l -0.703125,9.645996 3.098145,-0.131835 q 5.4052731,0 8.481445,2.702636 3.0981445,2.680664 3.0981445,7.536621 z"
                           id="path1391" />
                      </g>
                    </g>
                  </g>
                </g>
              </g>
            </g>
          </g>
        </g>
      </g>
      <g
         transform="translate(223.67527,331.10273)"
         id="g80">
        <g
           gorn="0.1.0.5.0"
           id="g78">
          <g
             gorn="0.1.0.5.0.0"
             id="g77">
            <g
               gorn="0.1.0.5.0.0.0"
               id="g75">
              <g
                 transform="rotate(-90)"
                 id="g74">
                <g
                   gorn="0.1.0.5.0.0.0.0.0"
                   id="g58">
                  <g
                     gorn="0.1.0.5.0.0.0.0.0.0"
                     id="g73">
                    <g
                       gorn="0.1.0.5.0.0.0.0.0.0.0"
                       id="g71">
                      <g
                         aria-label="2"
                         id="text69"
                         style="font-size:45px;font-family:OCRA;fill:#ffffff;stroke-width:0">
                        <path
                           d="m 18.742676,-25.114746 q 0,-2.746582 -1.73584,-4.306641 -1.73584,-1.582031 -4.724121,-1.582031 -2.109375,0 -4.2626955,1.07666 -2.1533203,1.07666 -4.0209961,3.076172 v -4.174805 q 1.6699219,-1.735839 3.7792969,-2.658691 2.1313477,-0.922852 4.9877927,-0.922852 4.614258,0 7.426758,2.482911 2.8125,2.460937 2.8125,6.679687 0,3.757324 -1.73584,6.503906 -1.713867,2.746582 -5.888672,5.625 -4.262695,2.944336 -5.7128902,4.2187503 -1.4282227,1.2744141 -1.9995118,2.4389649 -0.571289,1.1645507 -0.571289,2.8344726 H 24.016113 V 0 H 2.6147461 v -1.6918945 q 0,-2.944336 0.7910156,-4.987793 0.8129883,-2.0654297 2.6586914,-3.9990235 1.8457031,-1.955566 5.7568359,-4.680176 3.999024,-2.8125 5.449219,-4.921875 1.472168,-2.131347 1.472168,-4.833984 z"
                           id="path1382" />
                      </g>
                    </g>
                  </g>
                </g>
              </g>
            </g>
          </g>
        </g>
      </g>
      <g
         transform="translate(323.67527,331.10273)"
         id="g108">
        <g
           gorn="0.1.0.7.0"
           id="g82">
          <g
             gorn="0.1.0.7.0.0"
             id="g105">
            <g
               gorn="0.1.0.7.0.0.0"
               id="g95">
              <g
                 transform="rotate(-90)"
                 id="g102">
                <g
                   gorn="0.1.0.7.0.0.0.0.0"
                   id="g100">
                  <g
                     gorn="0.1.0.7.0.0.0.0.0.0"
                     id="g93">
                    <g
                       gorn="0.1.0.7.0.0.0.0.0.0.0"
                       id="g97">
                      <g
                         aria-label="3"
                         id="text89"
                         style="font-size:45px;font-family:OCRA;fill:#ffffff;stroke-width:0">
                        <path
                           d="m 3.1420898,-5.690918 q 3.4936524,2.7026367 7.8881832,2.7026367 3.515625,0 5.559082,-1.7138671 2.06543,-1.7358399 2.06543,-4.6362305 0,-6.4599611 -9.2504881,-6.4599611 H 6.5698242 v -3.55957 h 2.7026367 q 8.1958011,0 8.1958011,-6.064453 0,-5.603028 -6.262207,-5.603028 -3.5815433,0 -6.7456058,2.416993 v -4.064942 q 3.3398438,-1.933594 7.8002928,-1.933594 4.350586,0 6.987305,2.285157 2.636719,2.263183 2.636719,5.888672 0,6.679687 -6.811524,8.591308 v 0.08789 q 3.691406,0.395508 5.822754,2.614746 2.15332,2.197265 2.15332,5.4931639 0,4.5922852 -3.317871,7.4047852 -3.295898,2.81249996 -8.789062,2.81249996 -4.8339846,0 -7.8002932,-1.80175776 z"
                           id="path1385" />
                      </g>
                    </g>
                  </g>
                </g>
              </g>
            </g>
          </g>
        </g>
      </g>
      <g
         transform="translate(325.81337,79.854305)"
         id="g120">
        <g
           gorn="0.1.0.8.0"
           id="g92">
          <g
             gorn="0.1.0.8.0.0"
             id="g107">
            <g
               gorn="0.1.0.8.0.0.0"
               id="g116">
              <g
                 transform="rotate(-90)"
                 id="g114">
                <g
                   gorn="0.1.0.8.0.0.0.0.0"
                   id="g88">
                  <g
                     gorn="0.1.0.8.0.0.0.0.0.0"
                     id="g103">
                    <g
                       gorn="0.1.0.8.0.0.0.0.0.0.0"
                       id="g101">
                      <g
                         aria-label="4"
                         id="text99"
                         style="font-size:45px;font-family:OCRA;text-anchor:end;fill:#ffffff;stroke-width:0">
                        <path
                           d="m -5.9545898,-34.035645 v 22.478028 h 5.09765621 v 3.5595701 H -5.9545898 V 0 h -4.1748052 v -7.9980469 h -15.88623 v -3.3618161 q 4.240723,-4.768067 8.525391,-10.986328 4.284668,-6.218262 7.075195,-11.689454 z m -15.2270512,22.478028 h 11.052246 v -16.21582 q -2.285156,4.108886 -4.899902,7.976074 -2.614746,3.845215 -6.152344,8.239746 z"
                           id="path1388" />
                      </g>
                    </g>
                  </g>
                </g>
              </g>
            </g>
          </g>
        </g>
      </g>
    </g>
    <g
       transform="translate(93.04182,337.93428)"
       id="g181">
      <g
         gorn="0.1.1.0"
         id="g179">
        <g
           gorn="0.1.1.0.0"
           id="g163">
          <g
             gorn="0.1.1.0.0.0"
             id="g161">
            <rect
               fill="#8d8c8c"
               gorn="0.1.1.0.0.0.0"
               height="31.9"
               id="connector0pin"
               width="31.93"
               x="0"
               y="0" />
            <rect
               fill="#8c8663"
               gorn="0.1.1.0.0.0.1"
               height="16.415199"
               id="rect151"
               width="16.444201"
               x="7.7915301"
               y="7.7354398" />
            <polygon
               fill="#b8af82"
               gorn="0.1.1.0.0.0.2"
               id="polygon153"
               points="0,0 0,31.9 7.79153,24.1368 7.79153,6.97162 " />
            <polygon
               fill="#80795b"
               gorn="0.1.1.0.0.0.3"
               id="polygon155"
               points="31.93,0 24.2079,7.76321 7.90264,7.76321 0,0 " />
            <polygon
               fill="#5e5b43"
               gorn="0.1.1.0.0.0.4"
               id="polygon157"
               points="31.93,31.9 24.2079,24.1368 24.2079,7.76321 31.93,0 " />
            <polygon
               fill="#9a916c"
               gorn="0.1.1.0.0.0.5"
               id="polygon159"
               points="31.93,31.9 0,31.9 7.87486,24.1368 24.2079,24.1368 " />
          </g>
        </g>
      </g>
    </g>
    <g
       transform="translate(93.031498,39.370079)"
       id="g192">
      <g
         gorn="0.1.2.0"
         id="g154">
        <g
           gorn="0.1.2.0.0"
           id="g178">
          <g
             gorn="0.1.2.0.0.0"
             id="g176">
            <rect
               fill="#8d8c8c"
               gorn="0.1.2.0.0.0.0"
               height="31.9"
               id="connector4pin"
               width="31.93"
               x="0"
               y="0" />
            <rect
               fill="#8c8663"
               gorn="0.1.2.0.0.0.1"
               height="16.415199"
               id="rect166"
               width="16.444201"
               x="7.7915301"
               y="7.7354398" />
            <polygon
               fill="#b8af82"
               gorn="0.1.2.0.0.0.2"
               id="polygon168"
               points="0,31.9 7.79153,24.1368 7.79153,6.97162 0,0 " />
            <polygon
               fill="#80795b"
               gorn="0.1.2.0.0.0.3"
               id="polygon170"
               points="24.2079,7.76321 7.90264,7.76321 0,0 31.93,0 " />
            <polygon
               fill="#5e5b43"
               gorn="0.1.2.0.0.0.4"
               id="polygon172"
               points="24.2079,24.1368 24.2079,7.76321 31.93,0 31.93,31.9 " />
            <polygon
               fill="#9a916c"
               gorn="0.1.2.0.0.0.5"
               id="polygon174"
               points="0,31.9 7.87486,24.1368 24.2079,24.1368 31.93,31.9 " />
          </g>
        </g>
      </g>
    </g>
    <g
       transform="translate(193.04182,337.93428)"
       id="g203">
      <g
         gorn="0.1.3.0"
         id="g164">
        <g
           gorn="0.1.3.0.0"
           id="g193">
          <g
             gorn="0.1.3.0.0.0"
             id="g191">
            <rect
               fill="#8d8c8c"
               gorn="0.1.3.0.0.0.0"
               height="31.9"
               id="connector1pin"
               width="31.93"
               x="0"
               y="0" />
            <rect
               fill="#8c8663"
               gorn="0.1.3.0.0.0.1"
               height="16.415199"
               id="rect181"
               width="16.444201"
               x="7.7915301"
               y="7.7354398" />
            <polygon
               fill="#b8af82"
               gorn="0.1.3.0.0.0.2"
               id="polygon183"
               points="0,0 0,31.9 7.79153,24.1368 7.79153,6.97162 " />
            <polygon
               fill="#80795b"
               gorn="0.1.3.0.0.0.3"
               id="polygon185"
               points="31.93,0 24.2079,7.76321 7.90264,7.76321 0,0 " />
            <polygon
               fill="#5e5b43"
               gorn="0.1.3.0.0.0.4"
               id="polygon187"
               points="31.93,31.9 24.2079,24.1368 24.2079,7.76321 31.93,0 " />
            <polygon
               fill="#9a916c"
               gorn="0.1.3.0.0.0.5"
               id="polygon189"
               points="31.93,31.9 0,31.9 7.87486,24.1368 24.2079,24.1368 " />
          </g>
        </g>
      </g>
    </g>
    <g
       transform="translate(293.04182,337.93428)"
       id="g225">
      <g
         gorn="0.1.5.0"
         id="g184">
        <g
           gorn="0.1.5.0.0"
           id="g223">
          <g
             gorn="0.1.5.0.0.0"
             id="g221">
            <rect
               fill="#8d8c8c"
               gorn="0.1.5.0.0.0.0"
               height="31.9"
               id="connector2pin"
               width="31.93"
               x="0"
               y="0" />
            <rect
               fill="#8c8663"
               gorn="0.1.5.0.0.0.1"
               height="16.415199"
               id="rect211"
               width="16.444201"
               x="7.7915301"
               y="7.7354398" />
            <polygon
               fill="#b8af82"
               gorn="0.1.5.0.0.0.2"
               id="polygon213"
               points="0,0 0,31.9 7.79153,24.1368 7.79153,6.97162 " />
            <polygon
               fill="#80795b"
               gorn="0.1.5.0.0.0.3"
               id="polygon215"
               points="31.93,0 24.2079,7.76321 7.90264,7.76321 0,0 " />
            <polygon
               fill="#5e5b43"
               gorn="0.1.5.0.0.0.4"
               id="polygon217"
               points="31.93,31.9 24.2079,24.1368 24.2079,7.76321 31.93,0 " />
            <polygon
               fill="#9a916c"
               gorn="0.1.5.0.0.0.5"
               id="polygon219"
               points="31.93,31.9 0,31.9 7.87486,24.1368 24.2079,24.1368 " />
          </g>
        </g>
      </g>
    </g>
    <g
       transform="translate(293.03149,39.370079)"
       id="g237">
      <g
         gorn="0.1.6.0"
         id="g194">
        <g
           gorn="0.1.6.0.0"
           id="g238">
          <g
             gorn="0.1.6.0.0.0"
             id="g236">
            <rect
               fill="#8d8c8c"
               gorn="0.1.6.0.0.0.0"
               height="31.9"
               id="connector3pin"
               width="31.93"
               x="0"
               y="0" />
            <rect
               fill="#8c8663"
               gorn="0.1.6.0.0.0.1"
               height="16.415199"
               id="rect226"
               width="16.444201"
               x="7.7915301"
               y="7.7354398" />
            <polygon
               fill="#b8af82"
               gorn="0.1.6.0.0.0.2"
               id="polygon228"
               points="0,31.9 7.79153,24.1368 7.79153,6.97162 0,0 " />
            <polygon
               fill="#80795b"
               gorn="0.1.6.0.0.0.3"
               id="polygon230"
               points="24.2079,7.76321 7.90264,7.76321 0,0 31.93,0 " />
            <polygon
               fill="#5e5b43"
               gorn="0.1.6.0.0.0.4"
               id="polygon232"
               points="24.2079,24.1368 24.2079,7.76321 31.93,0 31.93,31.9 " />
            <polygon
               fill="#9a916c"
               gorn="0.1.6.0.0.0.5"
               id="polygon234"
               points="0,31.9 7.87486,24.1368 24.2079,24.1368 31.93,31.9 " />
          </g>
        </g>
      </g>
    </g>
  </g>
</svg>
