<?xml version="1.0" encoding="UTF-8" standalone="no"?>
<!-- Created with Fritzing (http://www.fritzing.org/) -->

<svg
   gorn="0"
   height="0.86115265in"
   id="svg68"
   version="1.2"
   viewBox="0 0 16.864597 21.873277"
   width="0.66396028in"
   x="0in"
   y="0in"
   xmlns="http://www.w3.org/2000/svg"
   xmlns:svg="http://www.w3.org/2000/svg">
  <defs
     id="defs72" />
  <g
     gorn="0.1.0.0"
     id="schematic"
     transform="translate(0.03175012,21.871423)">
    <g
       id="g10137"
       transform="rotate(-90)">
      <g
         aria-label="RT9013"
         transform="rotate(90,-0.06237908,0.06237908)"
         id="label"
         style="font-weight:bold;font-size:2.11667px;font-family:'Droid Sans';-inkscape-font-specification:'Droid Sans, Bold';text-anchor:middle;stroke-width:0"
         class="text">
        <path
           d="m 4.6655649,-11.213267 q 0,-0.05788 -0.023771,-0.09922 -0.023771,-0.04134 -0.081649,-0.06511 -0.040308,-0.01654 -0.094051,-0.01964 -0.053744,-0.0041 -0.1250571,-0.0041 H 4.1973757 v 0.414446 h 0.1219565 q 0.095085,0 0.1591637,-0.0093 0.064079,-0.0093 0.1074871,-0.04237 0.041341,-0.03204 0.059945,-0.07028 0.019637,-0.03927 0.019637,-0.104387 z m 0.6190846,1.067637 H 4.7999238 L 4.3803105,-10.709937 H 4.1973757 v 0.564307 H 3.8025671 v -1.538926 h 0.6655935 q 0.136426,0 0.2346113,0.0155 0.098185,0.0155 0.1839684,0.06718 0.086817,0.05168 0.1374595,0.134359 0.051677,0.08165 0.051677,0.205672 0,0.170533 -0.079582,0.27802 -0.078548,0.107487 -0.2253096,0.178801 z"
           id="path10191" />
        <path
           d="M 6.6623453,-11.3869 H 6.1817537 v 1.24127 H 5.7848781 V -11.3869 H 5.3042866 v -0.297656 h 1.3580587 z"
           id="path10193" />
        <path
           d="m 8.071047,-11.001393 q 0,0.19327 -0.04961,0.359669 -0.049609,0.166398 -0.1508954,0.280086 -0.1095542,0.12299 -0.2718185,0.185002 -0.1622642,0.06098 -0.378272,0.06098 -0.076481,0 -0.1653649,-0.0093 -0.088884,-0.0093 -0.1167889,-0.01654 v -0.302824 h 0.041341 q 0.031006,0.01447 0.08785,0.03101 0.057878,0.01654 0.1570966,0.01654 0.080615,0 0.1581301,-0.01964 0.077515,-0.02067 0.1333254,-0.06408 0.060978,-0.04651 0.1002525,-0.115755 0.039274,-0.07028 0.05271,-0.168465 -0.089917,0.05168 -0.1674319,0.07958 -0.076481,0.02687 -0.1912031,0.02687 -0.086816,0 -0.1663984,-0.02067 -0.078548,-0.0217 -0.1436607,-0.06615 -0.085783,-0.06098 -0.1374595,-0.160198 -0.050643,-0.100252 -0.050643,-0.252181 0,-0.247014 0.1715661,-0.402043 0.1725995,-0.156063 0.4516527,-0.156063 0.1436607,0 0.2542484,0.03824 0.1116213,0.03721 0.1922366,0.114722 0.094051,0.08888 0.1415937,0.226343 0.047542,0.13746 0.047542,0.334864 z m -0.3958421,-0.05788 q 0,-0.12609 -0.024805,-0.206706 -0.023771,-0.08165 -0.066146,-0.12609 -0.029972,-0.03307 -0.069247,-0.04754 -0.039274,-0.01447 -0.082682,-0.01447 -0.040308,0 -0.077515,0.01447 -0.036174,0.01344 -0.07028,0.04754 -0.032039,0.03307 -0.05271,0.08682 -0.019637,0.05374 -0.019637,0.128158 0,0.07235 0.021704,0.121957 0.021704,0.04857 0.059945,0.07751 0.036174,0.02791 0.08475,0.03927 0.049609,0.01137 0.1074871,0.01137 0.046509,0 0.101286,-0.01137 0.054777,-0.0124 0.08475,-0.0248 0,-0.01137 0.00103,-0.03204 0.00207,-0.0217 0.00207,-0.06408 z"
           id="path10195" />
        <path
           d="m 9.5986045,-10.91561 q 0,0.194304 -0.03514,0.3483 -0.03514,0.152962 -0.1095542,0.251148 -0.076481,0.100252 -0.1963708,0.151929 -0.1198895,0.05064 -0.2955896,0.05064 -0.1725996,0 -0.2945561,-0.05168 -0.1219566,-0.05168 -0.1974043,-0.152962 -0.076481,-0.101286 -0.1105877,-0.251148 -0.034107,-0.150896 -0.034107,-0.345199 0,-0.200505 0.03514,-0.3483 0.03514,-0.147795 0.1116212,-0.250114 0.076481,-0.101286 0.1984378,-0.151929 0.1219566,-0.05064 0.2914556,-0.05064 0.1767336,0 0.2966231,0.05271 0.1198896,0.05168 0.1963708,0.155029 0.075448,0.101286 0.1095542,0.250115 0.034107,0.147794 0.034107,0.342098 z m -0.3999762,0 q 0,-0.279053 -0.054777,-0.396876 -0.054777,-0.118855 -0.1819013,-0.118855 -0.1271242,0 -0.1819013,0.118855 -0.054777,0.117823 -0.054777,0.398943 0,0.273886 0.055811,0.394809 0.055811,0.120923 0.1808678,0.120923 0.1250571,0 0.1808678,-0.120923 0.055811,-0.120923 0.055811,-0.396876 z"
           id="path10197" />
        <path
           d="M 11.016608,-10.14563 H 9.9892793 v -0.268718 h 0.3245287 v -0.813388 H 9.9892793 v -0.251148 q 0.074414,0 0.1426267,-0.0083 0.06821,-0.0093 0.113689,-0.03101 0.05374,-0.02584 0.08061,-0.06718 0.02687,-0.04134 0.03101,-0.103354 h 0.342099 v 1.274343 h 0.317293 z"
           id="path10199" />
        <path
           d="m 12.467685,-10.867034 q 0.05064,0.04341 0.08061,0.101286 0.02997,0.05788 0.02997,0.153996 0,0.108521 -0.04341,0.202572 -0.04237,0.09405 -0.131258,0.161231 -0.08682,0.06511 -0.204639,0.100252 -0.116789,0.03411 -0.284221,0.03411 -0.191203,0 -0.328663,-0.02997 -0.136426,-0.02997 -0.222209,-0.06718 v -0.337965 h 0.04031 q 0.08888,0.05374 0.211874,0.09302 0.124023,0.03927 0.226343,0.03927 0.05994,0 0.130225,-0.0093 0.07028,-0.01033 0.118856,-0.04341 0.03824,-0.02584 0.06098,-0.06201 0.02274,-0.03721 0.02274,-0.106453 0,-0.06718 -0.03101,-0.103353 -0.03101,-0.03721 -0.08165,-0.05271 -0.05064,-0.01654 -0.121957,-0.01757 -0.07131,-0.0021 -0.132292,-0.0021 h -0.08475 v -0.274919 h 0.08785 q 0.08061,0 0.142627,-0.0052 0.06201,-0.0052 0.10542,-0.02377 0.04547,-0.01964 0.06821,-0.05168 0.02274,-0.03307 0.02274,-0.09612 0,-0.04651 -0.02377,-0.07441 -0.02377,-0.02894 -0.05995,-0.04548 -0.04031,-0.0186 -0.09508,-0.0248 -0.05478,-0.0062 -0.09405,-0.0062 -0.09715,0 -0.21084,0.03411 -0.113689,0.03307 -0.220142,0.09612 h -0.03824 v -0.33383 q 0.08475,-0.03411 0.230477,-0.06511 0.145728,-0.03204 0.29559,-0.03204 0.145728,0 0.255282,0.02584 0.109554,0.02481 0.180868,0.06718 0.08475,0.05064 0.12609,0.12299 0.04134,0.07235 0.04134,0.169499 0,0.128158 -0.07958,0.229444 -0.07958,0.100252 -0.209807,0.128157 v 0.01447 q 0.05271,0.0072 0.111621,0.02894 0.05891,0.0217 0.107488,0.06304 z"
           id="path10201" />
      </g>
      <line
         class="other"
         gorn="0.1.0.0.2"
         id="line7"
         stroke="#000000"
         stroke-linecap="round"
         stroke-width="0.244705"
         x1="5.1670728"
         x2="5.1670728"
         y1="0.090602383"
         y2="16.628134" />
      <line
         class="other"
         gorn="0.1.0.0.3"
         id="line9"
         stroke="#000000"
         stroke-linecap="round"
         stroke-width="0.238325"
         x1="5.1638827"
         x2="16.558575"
         y1="16.713682"
         y2="16.713682" />
      <line
         class="other"
         gorn="0.1.0.0.4"
         id="line11"
         stroke="#000000"
         stroke-linecap="round"
         stroke-width="0.244705"
         x1="16.564056"
         x2="16.564056"
         y1="16.628134"
         y2="0.090602383" />
      <line
         class="other"
         gorn="0.1.0.0.5"
         id="line13"
         stroke="#000000"
         stroke-linecap="round"
         stroke-width="0.238325"
         x1="16.558575"
         x2="5.1638827"
         y1="0.087412447"
         y2="0.087412447" />
      <line
         class="pin"
         connectorname="VDD"
         gorn="0.1.0.0.6"
         id="connector0pin"
         stroke="#787878"
         stroke-linecap="round"
         stroke-width="0.243167"
         x1="0.11972353"
         x2="5.0454988"
         y1="2.6670001"
         y2="2.6670001" />
      <rect
         class="terminal"
         fill="none"
         gorn="0.1.0.0.7"
         height="9.9999997e-05"
         id="connector0terminal"
         stroke="none"
         stroke-width="0"
         width="9.9999997e-05"
         x="0.123472"
         y="2.6670001" />
      <line
         class="pin"
         connectorname="VDD"
         gorn="0.1.0.0.10"
         id="line284"
         stroke="#787878"
         stroke-linecap="round"
         stroke-width="0"
         x1="0.12347195"
         x2="4.7624164"
         y1="2.6670001"
         y2="2.6670001" />
      <rect
         class="terminal"
         fill="none"
         gorn="0.1.0.0.11"
         height="9.9999997e-05"
         id="connector1terminal"
         stroke="none"
         stroke-width="0"
         width="9.9999997e-05"
         x="0.029193219"
         y="8.4057894" />
      <line
         class="pin"
         connectorname="STAT1"
         gorn="0.1.0.0.12"
         id="connector1pin"
         stroke="#787878"
         stroke-linecap="round"
         stroke-width="0.243858"
         x1="0.099612042"
         x2="5.0534282"
         y1="8.4650822"
         y2="8.4650822" />
      <line
         class="pin"
         connectorname="STAT2"
         gorn="0.1.0.0.13"
         id="connector2pin"
         stroke="#787878"
         stroke-linecap="round"
         stroke-width="0.243858"
         x1="0.12040507"
         x2="5.0742211"
         y1="14.035265"
         y2="14.035265" />
      <rect
         class="terminal"
         fill="none"
         gorn="0.1.0.0.14"
         height="9.9999997e-05"
         id="connector2terminal"
         stroke="none"
         stroke-width="0"
         width="9.9999997e-05"
         x="0.12347201"
         y="14.042097" />
      <line
         class="pin"
         connectorname="VDD"
         gorn="0.1.0.0.26"
         id="connector4pin"
         stroke="#787878"
         stroke-linecap="round"
         stroke-width="0.246944"
         x1="16.550909"
         x2="21.630907"
         y1="2.6736126"
         y2="2.6736126" />
      <rect
         class="terminal"
         fill="none"
         gorn="0.1.0.0.27"
         height="9.9999997e-05"
         id="connector4terminal"
         stroke="none"
         stroke-width="0"
         width="9.9999997e-05"
         x="21.871323"
         y="2.6736126" />
      <line
         class="pin"
         connectorname="STAT2"
         gorn="0.1.0.0.32"
         id="connector3pin"
         stroke="#787878"
         stroke-linecap="round"
         stroke-width="0.246944"
         x1="16.605814"
         x2="21.685812"
         y1="14.041878"
         y2="14.041878" />
      <rect
         class="terminal"
         fill="none"
         gorn="0.1.0.0.33"
         height="9.9999997e-05"
         id="connector3terminal"
         stroke="none"
         stroke-width="0"
         width="9.9999997e-05"
         x="21.871323"
         y="14.016698" />
      <text
         xml:space="preserve"
         style="font-style:normal;font-variant:normal;font-weight:bold;font-stretch:normal;font-size:1.05833px;font-family:sans-serif;-inkscape-font-specification:'sans-serif, Bold';font-variant-ligatures:normal;font-variant-caps:normal;font-variant-numeric:normal;font-variant-east-asian:normal;opacity:1;fill:#000000;fill-rule:evenodd;stroke:#000000;stroke-width:0.254;stroke-linejoin:round;stroke-miterlimit:3.9"
         x="1.5693134"
         y="-5.7152414"
         id="text10340"
         transform="rotate(90)"><tspan
           id="tspan10338"
           style="font-style:normal;font-variant:normal;font-weight:bold;font-stretch:normal;font-size:1.05833px;font-family:sans-serif;-inkscape-font-specification:'sans-serif, Bold';font-variant-ligatures:normal;font-variant-caps:normal;font-variant-numeric:normal;font-variant-east-asian:normal;stroke:none;stroke-width:0.254"
           x="1.5693134"
           y="-5.7152414">VIN</tspan></text>
      <text
         xml:space="preserve"
         style="font-style:normal;font-variant:normal;font-weight:bold;font-stretch:normal;font-size:1.05833px;font-family:sans-serif;-inkscape-font-specification:'sans-serif, Bold';font-variant-ligatures:normal;font-variant-caps:normal;font-variant-numeric:normal;font-variant-east-asian:normal;fill:#000000;fill-rule:evenodd;stroke:#000000;stroke-width:0.254;stroke-linejoin:round;stroke-miterlimit:3.9"
         x="0.98277998"
         y="-15.265743"
         id="text10340-3"
         transform="rotate(90)"><tspan
           id="tspan10338-5"
           style="font-style:normal;font-variant:normal;font-weight:bold;font-stretch:normal;font-size:1.05833px;font-family:sans-serif;-inkscape-font-specification:'sans-serif, Bold';font-variant-ligatures:normal;font-variant-caps:normal;font-variant-numeric:normal;font-variant-east-asian:normal;stroke:none;stroke-width:0.254"
           x="0.98277998"
           y="-15.265743">VOUT</tspan></text>
      <text
         xml:space="preserve"
         style="font-style:normal;font-variant:normal;font-weight:bold;font-stretch:normal;font-size:1.05833px;font-family:sans-serif;-inkscape-font-specification:'sans-serif, Bold';font-variant-ligatures:normal;font-variant-caps:normal;font-variant-numeric:normal;font-variant-east-asian:normal;fill:#000000;fill-rule:evenodd;stroke:#000000;stroke-width:0.254;stroke-linejoin:round;stroke-miterlimit:3.9"
         x="7.1052709"
         y="-5.7002554"
         id="text10340-6"
         transform="rotate(90)"><tspan
           id="tspan10338-3"
           style="font-style:normal;font-variant:normal;font-weight:bold;font-stretch:normal;font-size:1.05833px;font-family:sans-serif;-inkscape-font-specification:'sans-serif, Bold';font-variant-ligatures:normal;font-variant-caps:normal;font-variant-numeric:normal;font-variant-east-asian:normal;stroke:none;stroke-width:0.254"
           x="7.1052709"
           y="-5.7002554">GND</tspan></text>
      <text
         xml:space="preserve"
         style="font-style:normal;font-variant:normal;font-weight:bold;font-stretch:normal;font-size:1.05833px;font-family:sans-serif;-inkscape-font-specification:'sans-serif, Bold';font-variant-ligatures:normal;font-variant-caps:normal;font-variant-numeric:normal;font-variant-east-asian:normal;fill:#000000;fill-rule:evenodd;stroke:#000000;stroke-width:0.254;stroke-linejoin:round;stroke-miterlimit:3.9"
         x="13.292248"
         y="-5.6736555"
         id="text10340-6-0"
         transform="rotate(90)"><tspan
           id="tspan10338-3-8"
           style="font-style:normal;font-variant:normal;font-weight:bold;font-stretch:normal;font-size:1.05833px;font-family:sans-serif;-inkscape-font-specification:'sans-serif, Bold';font-variant-ligatures:normal;font-variant-caps:normal;font-variant-numeric:normal;font-variant-east-asian:normal;stroke:none;stroke-width:0.254"
           x="13.292248"
           y="-5.6736555">EN</tspan></text>
      <text
         xml:space="preserve"
         style="font-style:normal;font-variant:normal;font-weight:bold;font-stretch:normal;font-size:1.05833px;font-family:sans-serif;-inkscape-font-specification:'sans-serif, Bold';font-variant-ligatures:normal;font-variant-caps:normal;font-variant-numeric:normal;font-variant-east-asian:normal;fill:#000000;fill-rule:evenodd;stroke:#000000;stroke-width:0.254;stroke-linejoin:round;stroke-miterlimit:3.9"
         x="13.172767"
         y="-15.266777"
         id="text10340-6-0-1"
         transform="rotate(90)"><tspan
           id="tspan10338-3-8-8"
           style="font-style:normal;font-variant:normal;font-weight:bold;font-stretch:normal;font-size:1.05833px;font-family:sans-serif;-inkscape-font-specification:'sans-serif, Bold';font-variant-ligatures:normal;font-variant-caps:normal;font-variant-numeric:normal;font-variant-east-asian:normal;stroke:none;stroke-width:0.254"
           x="13.172767"
           y="-15.266777">NC</tspan></text>
    </g>
  </g>
</svg>
