<?xml version="1.0" encoding="UTF-8" standalone="no"?>
<!-- Created with Fritzing (http://www.fritzing.org/) -->

<svg
   height="0.41in"
   version="1.2"
   viewBox="0 0 25.6469 10.414"
   width="1.00972in"
   x="0in"
   y="0in"
   id="svg52"
   sodipodi:docname="svg.schematic.8205HA_0138693661b1c8f29900b3ab6832fec0_1_schematic.svg"
   inkscape:version="1.2.1 (9c6d41e410, 2022-07-14)"
   xmlns:inkscape="http://www.inkscape.org/namespaces/inkscape"
   xmlns:sodipodi="http://sodipodi.sourceforge.net/DTD/sodipodi-0.dtd"
   xmlns="http://www.w3.org/2000/svg"
   xmlns:svg="http://www.w3.org/2000/svg">
  <defs
     id="defs56" />
  <sodipodi:namedview
     id="namedview54"
     pagecolor="#ffffff"
     bordercolor="#000000"
     borderopacity="0.25"
     inkscape:showpageshadow="2"
     inkscape:pageopacity="0.0"
     inkscape:pagecheckerboard="0"
     inkscape:deskcolor="#d1d1d1"
     inkscape:document-units="in"
     showgrid="false"
     inkscape:zoom="19.312285"
     inkscape:cx="10.356102"
     inkscape:cy="19.676594"
     inkscape:window-width="3840"
     inkscape:window-height="2036"
     inkscape:window-x="-12"
     inkscape:window-y="-12"
     inkscape:window-maximized="1"
     inkscape:current-layer="schematic" />
  <desc
     id="desc2">
    <referenceFile>sparkfun-analogic_mcp4725_schematic.svg</referenceFile>
  </desc>
  <g
     gorn="0.0"
     id="schematic">
    <rect
       class="interior rect"
       fill="#ffffff"
       height="10.16"
       stroke="none"
       stroke-width="0"
       width="15.24"
       x="5.20347"
       y="0.127"
       id="rect4" />
    <g
       aria-label="8205HA"
       id="label"
       class="text"
       style="font-size:1.49931px;font-family:'Droid Sans';text-anchor:middle;stroke-width:0">
      <path
         d="m 10.705212,4.1035348 q 0,0.1412924 -0.110545,0.2349993 -0.109813,0.093707 -0.276728,0.093707 -0.177165,0 -0.282585,-0.091511 -0.1046881,-0.091511 -0.1046881,-0.2342672 0,-0.090778 0.05271,-0.163987 0.05271,-0.073941 0.148613,-0.1171336 V 3.82095 q -0.08785,-0.046853 -0.130311,-0.1024919 -0.041729,-0.055638 -0.041729,-0.1390961 0,-0.1229903 0.1010277,-0.2049838 0.101028,-0.081994 0.256962,-0.081994 0.163255,0 0.260622,0.078333 0.09737,0.078333 0.09737,0.1991272 0,0.07394 -0.04612,0.1456849 -0.04612,0.071012 -0.135436,0.1112769 v 0.00439 q 0.102492,0.043925 0.156667,0.1083486 0.05417,0.064423 0.05417,0.163987 z M 10.531708,3.571309 q 0,-0.078333 -0.06076,-0.1244544 -0.06003,-0.046854 -0.153738,-0.046854 -0.09224,0 -0.151542,0.043925 -0.05857,0.043925 -0.05857,0.1185978 0,0.05271 0.02928,0.091511 0.03002,0.038068 0.09005,0.068084 0.02709,0.013178 0.0776,0.034408 0.05125,0.02123 0.09956,0.03514 0.07248,-0.048318 0.100295,-0.1002956 0.02782,-0.051978 0.02782,-0.120062 z m 0.02269,0.5461354 q 0,-0.067352 -0.03001,-0.1076165 -0.02928,-0.040997 -0.11567,-0.081994 -0.03441,-0.016106 -0.0754,-0.030016 -0.041,-0.01391 -0.109081,-0.0388 -0.06589,0.035872 -0.106152,0.097367 -0.03953,0.061495 -0.03953,0.1390962 0,0.098831 0.06808,0.1632549 0.06808,0.064423 0.172772,0.064423 0.106884,0 0.170576,-0.054906 0.06442,-0.054906 0.06442,-0.1508095 z"
         id="path318" />
      <path
         d="M 11.650334,4.4073501 H 10.912392 V 4.2543443 q 0.07687,-0.065888 0.153738,-0.1317753 0.0776,-0.065888 0.14422,-0.1310432 0.140561,-0.1361678 0.192539,-0.2159651 0.05198,-0.080529 0.05198,-0.1735041 0,-0.084922 -0.05637,-0.1325074 -0.05564,-0.048318 -0.155934,-0.048318 -0.06662,0 -0.144221,0.023427 -0.0776,0.023427 -0.151541,0.071744 h -0.0073 V 3.3626648 q 0.05198,-0.025623 0.138364,-0.046853 0.08712,-0.02123 0.16838,-0.02123 0.167647,0 0.262818,0.081261 0.09517,0.080529 0.09517,0.2188934 0,0.062227 -0.01611,0.1164016 -0.01537,0.053442 -0.04612,0.1017598 -0.02855,0.045389 -0.06735,0.089314 -0.03807,0.043925 -0.09298,0.097367 -0.07833,0.076869 -0.16179,0.1493454 -0.08346,0.071744 -0.155935,0.1332394 h 0.586401 z"
         id="path320" />
      <path
         d="m 12.602044,3.8619468 q 0,0.293566 -0.09224,0.431198 -0.09151,0.1368999 -0.284781,0.1368999 -0.196199,0 -0.286977,-0.1390961 -0.09005,-0.1390962 -0.09005,-0.4275377 0,-0.2906377 0.09151,-0.4290018 0.09151,-0.1390961 0.285513,-0.1390961 0.196199,0 0.286245,0.1412924 0.09078,0.1405603 0.09078,0.4253414 z m -0.192538,0.3323665 q 0.02562,-0.059299 0.03441,-0.1390961 0.0095,-0.080529 0.0095,-0.1932704 0,-0.111277 -0.0095,-0.1932705 -0.0088,-0.081993 -0.03514,-0.1390961 -0.02562,-0.056371 -0.07028,-0.084922 -0.04392,-0.028551 -0.113473,-0.028551 -0.06882,0 -0.114205,0.028551 -0.04466,0.028551 -0.07101,0.086386 -0.02489,0.054174 -0.03441,0.1412924 -0.0088,0.087118 -0.0088,0.1910741 0,0.1142053 0.0081,0.1910742 0.0081,0.076869 0.03441,0.137632 0.02416,0.057103 0.06808,0.087118 0.04466,0.030016 0.117865,0.030016 0.06882,0 0.114206,-0.028551 0.04539,-0.028551 0.07028,-0.086386 z"
         id="path322" />
      <path
         d="m 13.547898,4.0610739 q 0,0.076137 -0.02782,0.1456849 -0.02782,0.069548 -0.07614,0.1171336 -0.05271,0.051246 -0.125919,0.079065 -0.07248,0.027087 -0.168379,0.027087 -0.08932,0 -0.17204,-0.019034 -0.08273,-0.018302 -0.139829,-0.044657 V 4.2118834 h 0.01025 q 0.06003,0.038068 0.14056,0.065156 0.08053,0.026355 0.15813,0.026355 0.05198,0 0.100296,-0.014642 0.04905,-0.014642 0.08712,-0.051246 0.03221,-0.03148 0.04832,-0.075405 0.01684,-0.043925 0.01684,-0.1017598 0,-0.056371 -0.01977,-0.095171 -0.01903,-0.0388 -0.05344,-0.062227 -0.03807,-0.027819 -0.09298,-0.038801 -0.05417,-0.011713 -0.121526,-0.011713 -0.06442,0 -0.124454,0.00879 -0.0593,0.00879 -0.102492,0.01757 V 3.3172755 h 0.655948 v 0.1281149 h -0.514656 v 0.2899057 q 0.03148,-0.00293 0.06442,-0.00439 0.03294,-0.00146 0.0571,-0.00146 0.08858,0 0.155202,0.015374 0.06662,0.014642 0.122259,0.05271 0.05857,0.040265 0.09078,0.103956 0.03221,0.063691 0.03221,0.1595946 z"
         id="path324" />
      <path
         d="m 14.634312,4.4073501 h -0.144953 v -0.53369 H 13.94542 v 0.53369 H 13.800467 V 3.3172755 h 0.144953 v 0.4275377 h 0.543939 V 3.3172755 h 0.144953 z"
         id="path326" />
      <path
         d="m 15.786614,4.4073501 h -0.15447 L 15.525259,4.1035348 h -0.471462 l -0.106885,0.3038153 h -0.147149 l 0.39679,-1.0900746 h 0.193271 z M 15.480602,3.9790804 15.289528,3.4439262 15.097722,3.9790804 Z"
         id="path328" />
    </g>
    <line
       class="other"
       stroke="#000000"
       stroke-linecap="round"
       stroke-width="0.3175"
       x1="5.20347"
       x2="20.4435"
       y1="10.287"
       y2="10.287"
       id="line7" />
    <line
       class="other"
       stroke="#000000"
       stroke-linecap="round"
       stroke-width="0.3175"
       x1="20.4435"
       x2="20.4435"
       y1="10.287"
       y2="0.127"
       id="line9" />
    <line
       class="other"
       stroke="#000000"
       stroke-linecap="round"
       stroke-width="0.3175"
       x1="20.4435"
       x2="5.20347"
       y1="0.127"
       y2="0.127"
       id="line11" />
    <line
       class="other"
       stroke="#000000"
       stroke-linecap="round"
       stroke-width="0.3175"
       x1="5.20347"
       x2="5.20347"
       y1="0.127"
       y2="10.287"
       id="line13" />
    <line
       class="pin"
       connectorname="VOUT"
       gorn="0.0.6"
       id="connector0pin"
       stroke="#787878"
       stroke-linecap="round"
       stroke-width="0.246944"
       x1="0.123472"
       x2="5.20347"
       y1="2.667"
       y2="2.667" />
    <rect
       class="terminal"
       fill="none"
       gorn="0.0.7"
       height="0.0001"
       id="connector0terminal"
       stroke="none"
       stroke-width="0"
       width="0.0001"
       x="0.123472"
       y="2.667" />
    <text
       class="text"
       fill="#8c8c8c"
       font-family="'Droid Sans'"
       font-size="0.881944"
       stroke="none"
       stroke-width="0"
       text-anchor="middle"
       x="2.66347"
       y="2.29658"
       id="text17">1</text>
    <text
       class="text"
       fill="#787878"
       font-family="'Droid Sans'"
       font-size="1.23472"
       stroke="none"
       stroke-width="0"
       text-anchor="start"
       x="5.9443"
       y="2.91394"
       id="text19">S1</text>
    <line
       class="pin"
       connectorname="VSS"
       gorn="0.0.10"
       id="connector1pin"
       stroke="#787878"
       stroke-linecap="round"
       stroke-width="0.246944"
       x1="0.123472"
       x2="5.20347"
       y1="5.207"
       y2="5.207" />
    <rect
       class="terminal"
       fill="none"
       gorn="0.0.11"
       height="0.0001"
       id="connector1terminal"
       stroke="none"
       stroke-width="0"
       width="0.0001"
       x="0.123472"
       y="5.207" />
    <text
       class="text"
       fill="#8c8c8c"
       font-family="'Droid Sans'"
       font-size="0.881944"
       stroke="none"
       stroke-width="0"
       text-anchor="middle"
       x="2.66347"
       y="4.83658"
       id="text23">2</text>
    <text
       class="text"
       fill="#787878"
       font-family="'Droid Sans'"
       font-size="1.23472"
       stroke="none"
       stroke-width="0"
       text-anchor="start"
       x="5.9443"
       y="5.45394"
       id="text25">D</text>
    <line
       class="pin"
       connectorname="VDD"
       gorn="0.0.14"
       id="connector2pin"
       stroke="#787878"
       stroke-linecap="round"
       stroke-width="0.246944"
       x1="0.123472"
       x2="5.20347"
       y1="7.747"
       y2="7.747" />
    <rect
       class="terminal"
       fill="none"
       gorn="0.0.15"
       height="0.0001"
       id="connector2terminal"
       stroke="none"
       stroke-width="0"
       width="0.0001"
       x="0.123472"
       y="7.747" />
    <text
       class="text"
       fill="#8c8c8c"
       font-family="'Droid Sans'"
       font-size="0.881944"
       stroke="none"
       stroke-width="0"
       text-anchor="middle"
       x="2.66347"
       y="7.37658"
       id="text29">3</text>
    <text
       class="text"
       fill="#787878"
       font-family="'Droid Sans'"
       font-size="1.23472"
       stroke="none"
       stroke-width="0"
       text-anchor="start"
       x="5.9443"
       y="7.99394"
       id="text31">S2</text>
    <line
       class="pin"
       connectorname="AO"
       gorn="0.0.18"
       id="connector5pin"
       stroke="#787878"
       stroke-linecap="round"
       stroke-width="0.246944"
       x1="25.5235"
       x2="20.4435"
       y1="2.667"
       y2="2.667" />
    <rect
       class="terminal"
       fill="none"
       gorn="0.0.19"
       height="0.0001"
       id="connector5terminal"
       stroke="none"
       stroke-width="0"
       width="0.0001"
       x="25.5235"
       y="2.667" />
    <text
       class="text"
       fill="#8c8c8c"
       font-family="'Droid Sans'"
       font-size="0.881944"
       stroke="none"
       stroke-width="0"
       text-anchor="middle"
       x="22.9835"
       y="2.29658"
       id="text35">6</text>
    <text
       class="text"
       fill="#787878"
       font-family="'Droid Sans'"
       font-size="1.23472"
       stroke="none"
       stroke-width="0"
       text-anchor="end"
       x="19.7026"
       y="2.91394"
       id="text37">G1</text>
    <line
       class="pin"
       connectorname="SCL"
       gorn="0.0.22"
       id="connector4pin"
       stroke="#787878"
       stroke-linecap="round"
       stroke-width="0.246944"
       x1="25.5235"
       x2="20.4435"
       y1="5.207"
       y2="5.207" />
    <rect
       class="terminal"
       fill="none"
       gorn="0.0.23"
       height="0.0001"
       id="connector4terminal"
       stroke="none"
       stroke-width="0"
       width="0.0001"
       x="25.5235"
       y="5.207" />
    <text
       class="text"
       fill="#8c8c8c"
       font-family="'Droid Sans'"
       font-size="0.881944"
       stroke="none"
       stroke-width="0"
       text-anchor="middle"
       x="22.9835"
       y="4.83658"
       id="text41">5</text>
    <text
       class="text"
       fill="#787878"
       font-family="'Droid Sans'"
       font-size="1.23472"
       stroke="none"
       stroke-width="0"
       text-anchor="end"
       x="19.7026"
       y="5.45394"
       id="text43">D</text>
    <line
       class="pin"
       connectorname="SDA"
       gorn="0.0.26"
       id="connector3pin"
       stroke="#787878"
       stroke-linecap="round"
       stroke-width="0.246944"
       x1="25.5235"
       x2="20.4435"
       y1="7.747"
       y2="7.747" />
    <rect
       class="terminal"
       fill="none"
       gorn="0.0.27"
       height="0.0001"
       id="connector3terminal"
       stroke="none"
       stroke-width="0"
       width="0.0001"
       x="25.5235"
       y="7.747" />
    <text
       class="text"
       fill="#8c8c8c"
       font-family="'Droid Sans'"
       font-size="0.881944"
       stroke="none"
       stroke-width="0"
       text-anchor="middle"
       x="22.9835"
       y="7.37658"
       id="text47">4</text>
    <text
       class="text"
       fill="#787878"
       font-family="'Droid Sans'"
       font-size="1.23472"
       stroke="none"
       stroke-width="0"
       text-anchor="end"
       x="19.7026"
       y="7.99394"
       id="text49">G2</text>
  </g>
</svg>
