<?xml version="1.0" encoding="UTF-8" standalone="no"?>
<!-- Created with Fritzing (http://www.fritzing.org/) -->

<svg
   height="0.32245776in"
   version="1.2"
   viewBox="0 0 27.33563 23.216958"
   width="0.37966153in"
   x="0in"
   y="0in"
   id="svg29"
   xml:space="preserve"
   sodipodi:docname="svg.pcb.TypeC16Pin_d89a481c23a1ca4ff437422a227ed0bb_1_pcb.svg"
   inkscape:version="1.2.1 (9c6d41e410, 2022-07-14)"
   xmlns:inkscape="http://www.inkscape.org/namespaces/inkscape"
   xmlns:sodipodi="http://sodipodi.sourceforge.net/DTD/sodipodi-0.dtd"
   xmlns="http://www.w3.org/2000/svg"
   xmlns:svg="http://www.w3.org/2000/svg"><sodipodi:namedview
     id="namedview39626"
     pagecolor="#ffffff"
     bordercolor="#000000"
     borderopacity="0.25"
     inkscape:showpageshadow="2"
     inkscape:pageopacity="0.0"
     inkscape:pagecheckerboard="0"
     inkscape:deskcolor="#d1d1d1"
     inkscape:document-units="in"
     showgrid="false"
     inkscape:zoom="33.17618"
     inkscape:cx="7.1436796"
     inkscape:cy="13.051533"
     inkscape:window-width="3840"
     inkscape:window-height="2036"
     inkscape:window-x="-12"
     inkscape:window-y="-12"
     inkscape:window-maximized="1"
     inkscape:current-layer="copper1" /><defs
     id="defs33" /><g
     gorn="0.3"
     id="copper1"
     transform="translate(-7.9651641,-1.925893)"><path
       style="fill:none;fill-opacity:1;fill-rule:evenodd;stroke:#ffbf00;stroke-width:0.5426;stroke-opacity:1"
       d="m 10.52851,4.2986511 c 0,-2.235015 -2.2920459,-2.235015 -2.2920459,0 v 2.0576328 c 0,2.235016 2.2920459,2.235016 2.2920459,0 V 4.2986511"
       id="long-slotted-hole1" /><path
       style="fill:none;fill-opacity:1;fill-rule:evenodd;stroke:#ffbf00;stroke-width:0.5426;stroke-opacity:1"
       d="m 35.019848,4.2986513 c 0,-2.235015 -2.292045,-2.235015 -2.292045,0 v 2.057633 c 0,2.235015 2.292045,2.235015 2.292045,0 v -2.057633"
       id="long-slotted-hole2" /><path
       style="fill:none;fill-opacity:1;fill-rule:evenodd;stroke:#ffbf00;stroke-width:0.504372;stroke-opacity:1"
       d="m 10.547624,16.43656 c 0,-1.899498 -2.330274,-1.899498 -2.330274,0 v 1.748743 c 0,1.899499 2.330274,1.899499 2.330274,0 V 16.43656"
       id="long-slotted-hole3" /><path
       style="fill:none;fill-opacity:1;fill-rule:evenodd;stroke:#ffbf00;stroke-width:0.504372;stroke-opacity:1"
       d="m 35.038963,16.427182 c 0,-1.899498 -2.330274,-1.899498 -2.330274,0 v 1.748743 c 0,1.899499 2.330274,1.899499 2.330274,0 v -1.748743"
       id="long-slotted-hole4" /><path
       id="connector11pin"
       style="fill:#ffbf00;fill-opacity:1;fill-rule:evenodd;stroke:none;stroke-width:1.00033"
       d="m 11.711719,1.9262766 v 3.68504 h 0.849609 0.0029 0.848145 v -3.68504 h -0.848145 -0.0029 z" /><path
       id="connector10pin"
       style="fill:#ffbf00;fill-opacity:1;fill-rule:evenodd;stroke:none;stroke-width:1.00079"
       d="m 13.982227,1.9262766 v 3.68504 h 0.847461 0.0044 0.848927 v -3.68504 h -0.848927 -0.0044 z" /><path
       style="fill:#ffbf00;fill-opacity:1;fill-rule:evenodd;stroke:none;stroke-width:1.0002"
       d="m 16.247363,5.6109322 h 0.851563 v -3.685039 h -0.851563 z m 0,0"
       id="connector9pin" /><path
       style="fill:#ffbf00;fill-opacity:1;fill-rule:evenodd;stroke:none;stroke-width:1.0002"
       d="m 17.665332,5.6109322 h 0.851563 v -3.685039 h -0.851563 z m 0,0"
       id="connector8pin" /><path
       style="fill:#ffbf00;fill-opacity:1;fill-rule:evenodd;stroke:none;stroke-width:1.0002"
       d="m 19.083301,5.6109327 h 0.851562 v -3.68504 h -0.851562 z m 0,0"
       id="connector7pin" /><path
       style="fill:#ffbf00;fill-opacity:1;fill-rule:evenodd;stroke:none;stroke-width:1.0002"
       d="m 20.50127,5.6109327 h 0.851562 v -3.68504 H 20.50127 Z m 0,0"
       id="connector6pin" /><path
       style="fill:#ffbf00;fill-opacity:1;fill-rule:evenodd;stroke:none;stroke-width:1.0002"
       d="m 21.915332,5.6109322 h 0.851563 v -3.685039 h -0.851563 z m 0,0"
       id="connector5pin" /><path
       style="fill:#ffbf00;fill-opacity:1;fill-rule:evenodd;stroke:none;stroke-width:1.0002"
       d="m 23.333301,5.6109327 h 0.851562 v -3.68504 h -0.851562 z m 0,0"
       id="connector4pin" /><path
       style="fill:#ffbf00;fill-opacity:1;fill-rule:evenodd;stroke:none;stroke-width:1.0002"
       d="m 24.75127,5.6109327 h 0.851562 v -3.68504 H 24.75127 Z m 0,0"
       id="connector3pin" /><path
       style="fill:#ffbf00;fill-opacity:1;fill-rule:evenodd;stroke:none;stroke-width:1.0002"
       d="m 26.169238,5.6109322 h 0.851563 v -3.685039 h -0.851563 z m 0,0"
       id="connector2pin" /><path
       id="connector1pin"
       style="fill:#ffbf00;fill-opacity:1;fill-rule:evenodd;stroke:none;stroke-width:1.00033"
       d="m 27.587696,1.9262766 v 3.68504 h 0.851074 0.851074 v -3.68504 H 28.43877 Z" /><path
       id="connector0pin"
       style="fill:#ffbf00;fill-opacity:1;fill-rule:evenodd;stroke:none;stroke-width:1.00033"
       d="m 29.852344,1.9262771 v 3.685039 h 0.852539 0.851074 v -3.685039 h -0.851074 z" /><path
       style="fill:#000000;fill-opacity:1;fill-rule:evenodd;stroke:none;stroke-width:0.928742"
       d="m 14.293008,7.0428495 c 0,-1.230161 -1.84252,-1.230161 -1.84252,0 0,1.226532 1.84252,1.226532 1.84252,0"
       id="hole1" /><path
       style="fill:#000000;fill-opacity:1;fill-rule:evenodd;stroke:none;stroke-width:0.928742"
       d="m 30.675821,7.0428495 c 0,-1.230161 -1.84252,-1.230161 -1.84252,0 0,1.226532 1.84252,1.226532 1.84252,0"
       id="hole2" /></g><g
     id="silkscreen"
     transform="matrix(1.0260401,0,0,0.99942438,-0.7882735,-0.13594446)"><path
       style="fill:none;stroke:#e6e6e6;stroke-width:0.72;stroke-linecap:round;stroke-linejoin:miter;stroke-miterlimit:10;stroke-opacity:1"
       d="m 27.05014,12.564854 v -5.3748"
       id="path781" /><path
       style="fill:none;stroke:#e6e6e6;stroke-width:0.72;stroke-linecap:round;stroke-linejoin:miter;stroke-miterlimit:10;stroke-opacity:1"
       d="m 1.1282679,18.549338 v 4.4568"
       id="path783" /><path
       style="fill:none;stroke:#e6e6e6;stroke-width:0.72;stroke-linecap:round;stroke-linejoin:miter;stroke-miterlimit:10;stroke-opacity:1"
       d="M 1.1282679,23.006354 H 27.05014"
       id="path785" /><path
       style="fill:none;stroke:#e6e6e6;stroke-width:0.72;stroke-linecap:round;stroke-linejoin:miter;stroke-miterlimit:10;stroke-opacity:1"
       d="m 27.05014,23.006354 v -4.4568"
       id="path787" /><path
       style="fill:none;stroke:#e6e6e6;stroke-width:0.72;stroke-linecap:round;stroke-linejoin:miter;stroke-miterlimit:10;stroke-opacity:1"
       d="m 1.1282679,7.189838 v 5.3748"
       id="path789" /></g></svg>
