<?xml version="1.0" encoding="UTF-8" standalone="no"?>
<!-- Generator: Adobe Illustrator 23.0.1, SVG Export Plug-In . SVG Version: 6.00 Build 0)  -->

<svg
   gorn="0"
   height="0.29961666in"
   id="Layer_1"
   version="1.2"
   viewBox="0 0 25.344002 21.572399"
   width="0.35200003in"
   x="0px"
   xml:space="preserve"
   y="0px"
   xmlns="http://www.w3.org/2000/svg"
   xmlns:svg="http://www.w3.org/2000/svg"><defs
     id="defs40451" /><g
     id="g40446"
     transform="translate(-16.129,3.990882e-4)"><g
       transform="rotate(180,28.8,10.4173)"
       id="g40420"><g
         id="g40418"><rect
           fill="#dcdcdc"
           height="20.834999"
           width="25.341999"
           x="16.129"
           y="0"
           id="rect40416" /></g></g><path
       style="fill:#ffcc00;stroke-width:0.830961"
       d="m 19.32863,21.54826 h 0.567 v -0.900407 h -0.567 z"
       id="path40640" /><path
       style="fill:#ffcc00;stroke-width:0.830961"
       d="m 19.871,21.572 h 0.567 v -0.900407 h -0.567 z"
       id="path40638" /><path
       style="fill:#ffcc00;stroke-width:0.830961"
       d="m 21.596629,21.643222 h 0.567 v -0.900407 h -0.567 z"
       id="path40636" /><path
       style="fill:#ffcc00;stroke-width:0.830961"
       d="m 22.139,21.572 h 0.567 v -0.900407 h -0.567 z"
       id="path40634" /><path
       style="fill:#ffcc00;stroke-width:0.830961"
       d="m 23.556,21.572 h 0.567 v -0.900407 h -0.567 z"
       id="path40632" /><path
       style="fill:#ffcc00;stroke-width:0.830961"
       d="M 24.973,21.572 H 25.54 V 20.671593 H 24.973 Z"
       id="path40630" /><path
       style="fill:#ffcc00;stroke-width:0.830961"
       d="m 26.391,21.572 h 0.567 v -0.900407 h -0.567 z"
       id="path40628" /><path
       style="fill:#ffcc00;stroke-width:0.830961"
       d="m 27.808,21.572 h 0.567 v -0.900407 h -0.567 z"
       id="path40626" /><path
       style="fill:#ffcc00;stroke-width:0.830961"
       d="m 29.225,21.572 h 0.567 v -0.900407 h -0.567 z"
       id="path40624" /><path
       style="fill:#ffcc00;stroke-width:0.830961"
       d="M 30.643,21.572 H 31.21 V 20.671593 H 30.643 Z"
       id="path40622" /><path
       style="fill:#ffcc00;stroke-width:0.830961"
       d="m 32.06,21.572 h 0.567 V 20.671593 H 32.06 Z"
       id="path40620" /><path
       style="fill:#ffcc00;stroke-width:0.830961"
       d="m 33.477,21.572 h 0.567 v -0.900407 h -0.567 z"
       id="path40618" /><path
       style="fill:#ffcc00;stroke-width:0.830961"
       d="m 34.894,21.572 h 0.567 v -0.900407 h -0.567 z"
       id="path40616" /><path
       style="fill:#ffcc00;stroke-width:0.830961"
       d="m 35.460111,21.619481 h 0.567 v -0.900407 h -0.567 z"
       id="path40614" /><path
       style="fill:#ffcc00;stroke-width:0.830961"
       d="m 37.162,21.572 h 0.567 v -0.900407 h -0.567 z"
       id="path40612" /><path
       style="fill:#ffcc00;stroke-width:0.830961"
       d="m 37.68063,20.742816 h 0.567 v 0.900407 h -0.567 z"
       id="path40422" /><g
       transform="rotate(180,38.7781,10.4173)"
       id="g40428"><g
         id="g40426"><rect
           fill="#f0f0f0"
           height="20.834999"
           width="1.2970001"
           x="38.129002"
           y="0"
           id="rect40424" /></g></g><g
       transform="rotate(180,18.8219,10.4173)"
       id="g40434"><g
         id="g40432"><rect
           fill="#bebebe"
           height="20.834999"
           width="1.2970001"
           x="18.173"
           y="0"
           id="rect40430" /></g></g><path
       d="m 16.129,20.835 v -1.998 h 0.283 c 0.344,0 0.624,0.279 0.624,0.624 v 0.533 c 0,0.344 0.279,0.624 0.624,0.624 h 2.831 c 0.344,0 0.624,-0.279 0.624,-0.624 v -2.022 c 0,-0.344 0.279,-0.624 0.624,-0.624 h 3.413 c 0.344,0 0.624,0.279 0.624,0.624 v 0.047 c 0,0.344 -0.279,0.624 -0.624,0.624 h -1.536 c -0.344,0 -0.624,0.279 -0.624,0.624 v 0.727 c 0,0.344 0.279,0.624 0.624,0.624 h 10.372 c 0.344,0 0.624,-0.279 0.624,-0.624 v -0.727 c 0,-0.344 -0.279,-0.624 -0.624,-0.624 H 32.45 c -0.344,0 -0.624,-0.279 -0.624,-0.624 v -0.047 c 0,-0.344 0.279,-0.624 0.624,-0.624 h 3.413 c 0.344,0 0.624,0.279 0.624,0.624 v 2.022 c 0,0.344 0.279,0.624 0.624,0.624 h 2.831 c 0.344,0 0.624,-0.279 0.624,-0.624 V 19.46 c 0,-0.344 0.279,-0.624 0.624,-0.624 h 0.283 v 1.998 H 16.129 Z"
       fill="#8c8c8c"
       id="path40436" /><g
       transform="rotate(180,33.84895,14.3053)"
       id="g40442"><g
         id="g40440"><rect
           fill="#8c8c8c"
           height="1.424"
           width="3.4630001"
           x="32.117001"
           y="13.593"
           id="rect40438" /></g></g><rect
       fill="#8c8c8c"
       height="1.424"
       width="3.4630001"
       x="22.02"
       y="13.593"
       id="rect40444" /></g></svg>
