<?xml version="1.0" encoding="UTF-8" standalone="no"?>
<!-- Created with Fritzing (http://www.fritzing.org/) -->

<svg
   height="0.69999999in"
   version="1.2"
   viewBox="0 0 1000 699.99996"
   width="1in"
   x="0in"
   y="0in"
   id="svg571"
   sodipodi:docname="svg.breadboard.TM1637_65e4ff26e0f8f17028c66fb6f3211ec1_1_breadboard.svg"
   inkscape:version="1.2.1 (9c6d41e410, 2022-07-14)"
   xmlns:inkscape="http://www.inkscape.org/namespaces/inkscape"
   xmlns:sodipodi="http://sodipodi.sourceforge.net/DTD/sodipodi-0.dtd"
   xmlns="http://www.w3.org/2000/svg"
   xmlns:svg="http://www.w3.org/2000/svg">
  <defs
     id="defs575" />
  <sodipodi:namedview
     id="namedview573"
     pagecolor="#ffffff"
     bordercolor="#000000"
     borderopacity="0.25"
     inkscape:showpageshadow="2"
     inkscape:pageopacity="0.0"
     inkscape:pagecheckerboard="0"
     inkscape:deskcolor="#d1d1d1"
     inkscape:document-units="in"
     showgrid="false"
     inkscape:zoom="17.82986"
     inkscape:cx="6.7302828"
     inkscape:cy="28.88413"
     inkscape:window-width="3840"
     inkscape:window-height="2036"
     inkscape:window-x="-12"
     inkscape:window-y="-12"
     inkscape:window-maximized="1"
     inkscape:current-layer="svg571" />
  <g
     gorn="0.1"
     id="breadboard">
    <g
       gorn="0.1.0"
       id="icon">
      <path
         d="m 0,0 v 314.99999 a 30.000001,35 0 0 1 0,70 v 315 H 1000 V 0 Z"
         fill="#1f7a34"
         stroke="none"
         stroke-width="0"
         id="path6" />
      <g
         transform="matrix(0,3.359913,-3.359913,0,975.29065,-91.103578)"
         id="g66">
        <g
           id="g64">
          <g
             transform="matrix(0.5,0,0,0.5,67.4606,71.5207)"
             id="g62">
            <g
               id="g60">
              <rect
                 connectorname="10"
                 fill="#8c8c8c"
                 height="15.748"
                 stroke="none"
                 stroke-linecap="round"
                 stroke-width="0"
                 width="39.370098"
                 x="0.236221"
                 y="252.17"
                 id="rect8" />
              <rect
                 connectorname="9"
                 fill="#8c8c8c"
                 height="15.748"
                 stroke="none"
                 stroke-linecap="round"
                 stroke-width="0"
                 width="39.370098"
                 x="0.236221"
                 y="226.17"
                 id="rect10" />
              <rect
                 connectorname="8"
                 fill="#8c8c8c"
                 height="15.748"
                 stroke="none"
                 stroke-linecap="round"
                 stroke-width="0"
                 width="39.370098"
                 x="0"
                 y="200.17"
                 id="rect12" />
              <rect
                 connectorname="7"
                 fill="#8c8c8c"
                 height="15.748"
                 stroke="none"
                 stroke-linecap="round"
                 stroke-width="0"
                 width="39.370098"
                 x="0.236221"
                 y="174.16901"
                 id="rect14" />
              <rect
                 connectorname="6"
                 fill="#8c8c8c"
                 height="15.748"
                 stroke="none"
                 stroke-linecap="round"
                 stroke-width="0"
                 width="39.370098"
                 x="0.236221"
                 y="148.16901"
                 id="rect16" />
              <rect
                 connectorname="5"
                 fill="#8c8c8c"
                 height="15.748"
                 stroke="none"
                 stroke-linecap="round"
                 stroke-width="0"
                 width="39.370098"
                 x="0.236221"
                 y="122.169"
                 id="rect18" />
              <rect
                 connectorname="4"
                 fill="#8c8c8c"
                 height="15.748"
                 stroke="none"
                 stroke-linecap="round"
                 stroke-width="0"
                 width="39.370098"
                 x="0.236221"
                 y="96.169403"
                 id="rect20" />
              <rect
                 connectorname="3"
                 fill="#8c8c8c"
                 height="15.748"
                 stroke="none"
                 stroke-linecap="round"
                 stroke-width="0"
                 width="39.370098"
                 x="0.236221"
                 y="70.169403"
                 id="rect22" />
              <rect
                 connectorname="2"
                 fill="#8c8c8c"
                 height="15.748"
                 stroke="none"
                 stroke-linecap="round"
                 stroke-width="0"
                 width="39.370098"
                 x="0.236221"
                 y="44.1693"
                 id="rect24" />
              <rect
                 connectorname="1"
                 fill="#8c8c8c"
                 height="15.748"
                 stroke="none"
                 stroke-linecap="round"
                 stroke-width="0"
                 width="39.370098"
                 x="0.236221"
                 y="18.1693"
                 id="rect26" />
              <rect
                 connectorname="20"
                 fill="#8c8c8c"
                 height="15.748"
                 stroke="none"
                 stroke-linecap="round"
                 stroke-width="0"
                 width="39.370098"
                 x="230.237"
                 y="18.1693"
                 id="rect28" />
              <rect
                 connectorname="19"
                 fill="#8c8c8c"
                 height="15.748"
                 stroke="none"
                 stroke-linecap="round"
                 stroke-width="0"
                 width="39.370098"
                 x="230.237"
                 y="44.1693"
                 id="rect30" />
              <rect
                 connectorname="18"
                 fill="#8c8c8c"
                 height="15.748"
                 stroke="none"
                 stroke-linecap="round"
                 stroke-width="0"
                 width="39.370098"
                 x="230.237"
                 y="70.169403"
                 id="rect32" />
              <rect
                 connectorname="17"
                 fill="#8c8c8c"
                 height="15.748"
                 stroke="none"
                 stroke-linecap="round"
                 stroke-width="0"
                 width="39.370098"
                 x="230.237"
                 y="96.169403"
                 id="rect34" />
              <rect
                 connectorname="16"
                 fill="#8c8c8c"
                 height="15.748"
                 stroke="none"
                 stroke-linecap="round"
                 stroke-width="0"
                 width="39.370098"
                 x="230.237"
                 y="122.169"
                 id="rect36" />
              <rect
                 connectorname="15"
                 fill="#8c8c8c"
                 height="15.748"
                 stroke="none"
                 stroke-linecap="round"
                 stroke-width="0"
                 width="39.370098"
                 x="230.237"
                 y="148.16901"
                 id="rect38" />
              <rect
                 connectorname="14"
                 fill="#8c8c8c"
                 height="15.748"
                 stroke="none"
                 stroke-linecap="round"
                 stroke-width="0"
                 width="39.370098"
                 x="230.237"
                 y="174.16901"
                 id="rect40" />
              <rect
                 connectorname="13"
                 fill="#8c8c8c"
                 height="15.748"
                 stroke="none"
                 stroke-linecap="round"
                 stroke-width="0"
                 width="39.370098"
                 x="230.47301"
                 y="200.17"
                 id="rect42" />
              <rect
                 connectorname="12"
                 fill="#8c8c8c"
                 height="15.748"
                 stroke="none"
                 stroke-linecap="round"
                 stroke-width="0"
                 width="39.370098"
                 x="230.237"
                 y="226.17"
                 id="rect44" />
              <rect
                 connectorname="11"
                 fill="#8c8c8c"
                 height="15.748"
                 stroke="none"
                 stroke-linecap="round"
                 stroke-width="0"
                 width="39.370098"
                 x="230.237"
                 y="252.17"
                 id="rect46" />
              <rect
                 fill="#303030"
                 height="286.08301"
                 stroke="none"
                 stroke-width="0"
                 width="184.228"
                 x="42.807098"
                 y="0"
                 id="rect48" />
              <polygon
                 fill="#1f1f1f"
                 points="217.035,10 52.8071,10 42.8071,0 227.035,0 "
                 id="polygon50" />
              <polygon
                 fill="#1f1f1f"
                 points="217.035,276.083 52.8071,276.083 42.8071,286.083 227.035,286.083 "
                 id="polygon52" />
              <polygon
                 fill="#000000"
                 points="52.8071,276.083 52.8071,10 42.8071,0 42.8071,286.083 "
                 id="polygon54" />
              <polygon
                 fill="#3d3d3d"
                 points="217.035,276.083 217.035,10 227.035,0 227.035,286.083 "
                 id="polygon56" />
              <circle
                 cx="196.66299"
                 cy="256.08301"
                 fill="#1f1f1f"
                 r="10"
                 stroke="none"
                 stroke-width="0"
                 id="circle58" />
            </g>
          </g>
        </g>
      </g>
      <g
         aria-label="TM1637"
         id="label"
         style="font-size:65px;font-family:OCRA;fill:#ffffff;stroke-width:0"
         transform="matrix(1.3242649,0,0,1.3242649,-157.53258,-55.561803)">
        <path
           d="m 403.78302,296.13983 h -16.88477 v 41.67236 h -6.28418 v -41.67236 h -16.88476 v -5.58594 h 40.05371 z"
           id="path582" />
        <path
           d="m 452.21564,337.81219 h -6.28418 v -40.72021 l -13.13965,27.70752 h -3.74512 l -13.04443,-27.70752 v 40.72021 h -5.87158 v -47.2583 h 8.56933 l 12.6001,26.31104 12.1875,-26.31104 h 8.72803 z"
           id="path584" />
        <path
           d="m 492.96759,337.81219 h -25.58105 v -4.82421 h 9.83886 v -31.67481 h -9.83886 v -4.3164 q 1.99951,0 4.28466,-0.31739 2.28516,-0.34912 3.45948,-0.98388 1.45996,-0.79346 2.28515,-1.99952 0.85694,-1.23779 0.98389,-3.30078 h 4.91943 v 42.59278 h 9.64844 z"
           id="path586" />
        <path
           d="m 537.68683,322.4826 q 0,7.20459 -4.76074,11.77491 -4.72901,4.53857 -11.61621,4.53857 -3.49122,0 -6.34766,-1.0791 -2.85645,-1.0791 -5.04639,-3.20557 -2.72949,-2.63427 -4.22119,-6.98242 -1.45996,-4.34814 -1.45996,-10.47363 0,-6.28418 1.33301,-11.14014 1.36474,-4.85595 4.3164,-8.63281 2.79297,-3.58643 7.20459,-5.58594 4.41163,-2.03125 10.28321,-2.03125 1.87256,0 3.14209,0.15869 1.26953,0.15869 2.5708,0.57129 v 6.06201 h -0.31738 q -0.88868,-0.47607 -2.69776,-0.88867 -1.77734,-0.44433 -3.6499,-0.44433 -6.82373,0 -10.88623,4.28466 -4.0625,4.25293 -4.72901,11.521 2.66602,-1.61865 5.23682,-2.44385 2.60254,-0.85693 5.99854,-0.85693 3.01513,0 5.30029,0.57129 2.31689,0.53955 4.729,2.22168 2.79297,1.93603 4.18946,4.88769 1.42822,2.95166 1.42822,7.17285 z m -6.44287,0.25391 q 0,-2.95166 -0.88867,-4.88769 -0.85694,-1.93604 -2.85645,-3.36426 -1.45996,-1.01563 -3.2373,-1.33301 -1.77735,-0.31738 -3.71338,-0.31738 -2.69776,0 -5.01465,0.63476 -2.3169,0.63477 -4.76074,1.96778 -0.0635,0.69824 -0.0952,1.36474 -0.0317,0.63477 -0.0317,1.61865 0,5.01465 1.01563,7.93458 1.04736,2.88818 2.85644,4.57031 1.45996,1.39648 3.14209,2.06299 1.71387,0.63476 3.71338,0.63476 4.60205,0 7.23633,-2.79297 2.63428,-2.8247 2.63428,-8.09326 z"
           id="path588" />
        <path
           d="m 574.15411,315.05585 q 1.52344,1.36474 2.50733,3.42773 0.98388,2.06299 0.98388,5.33203 0,3.23731 -1.17431,5.93506 -1.17432,2.69776 -3.30078,4.69727 -2.38037,2.22168 -5.61768,3.30078 -3.20557,1.04736 -7.0459,1.04736 -3.93554,0 -7.74414,-0.95215 -3.80859,-0.92041 -6.25244,-2.03125 v -6.6333 h 0.47608 q 2.69775,1.77735 6.34765,2.95166 3.6499,1.17432 7.0459,1.17432 1.99951,0 4.25293,-0.66651 2.25342,-0.6665 3.6499,-1.96777 1.45996,-1.39648 2.1582,-3.07861 0.72999,-1.68213 0.72999,-4.25293 0,-2.53906 -0.8252,-4.18945 -0.79346,-1.68213 -2.22168,-2.63428 -1.42822,-0.98389 -3.45947,-1.33301 -2.03125,-0.38086 -4.37989,-0.38086 h -2.85644 v -5.26855 h 2.22168 q 4.82422,0 7.68066,-1.99952 2.88819,-2.03125 2.88819,-5.90332 0,-1.71386 -0.72998,-2.98339 -0.72998,-1.30127 -2.03125,-2.12647 -1.36475,-0.82519 -2.91993,-1.14258 -1.55517,-0.31738 -3.52294,-0.31738 -3.01514,0 -6.41114,1.0791 -3.39599,1.0791 -6.41113,3.04688 h -0.31738 v -6.6333 q 2.25341,-1.11084 5.99853,-2.03125 3.77686,-0.95215 7.29981,-0.95215 3.45947,0 6.09375,0.63476 2.63427,0.63477 4.76074,2.03125 2.28516,1.52344 3.45947,3.68164 1.17432,2.15821 1.17432,5.04639 0,3.93555 -2.79297,6.88721 -2.76123,2.91992 -6.53809,3.68164 v 0.44433 q 1.52344,0.25391 3.49121,1.07911 1.96778,0.79345 3.33252,1.99951 z"
           id="path590" />
        <path
           d="m 619.76202,297.63153 -21.3916,40.18066 h -6.79199 l 22.75635,-41.7041 h -26.91406 v -5.5542 h 32.3413 z"
           id="path592" />
      </g>
      <g
         transform="translate(63.5,626.04157)"
         id="g77">
        <g
           id="g75">
          <g
             transform="rotate(-90)"
             id="g73">
            <g
               id="g71">
              <g
                 aria-label="1"
                 id="text69"
                 style="font-size:45px;font-family:OCRA;fill:#ffffff;stroke-width:0">
                <path
                   d="m 12.524414,0 v -29.11377 q -1.010742,1.010743 -3.4277343,2.263184 -2.3950195,1.252441 -4.4384766,1.757813 v -4.21875 q 2.7026367,-0.747071 5.7788089,-2.373047 3.076172,-1.64795 4.724121,-3.098145 h 1.625976 V 0 Z"
                   id="path1248" />
              </g>
            </g>
          </g>
        </g>
      </g>
      <g
         transform="translate(63.5,73.95)"
         id="g87">
        <g
           id="g85">
          <g
             transform="rotate(-90)"
             id="g83">
            <g
               id="g81">
              <g
                 aria-label="20"
                 id="text79"
                 style="font-size:45px;font-family:OCRA;text-anchor:end;fill:#ffffff;stroke-width:0">
                <path
                   d="m -34.035645,-25.114746 q 0,-2.746582 -1.735839,-4.306641 -1.73584,-1.582031 -4.724121,-1.582031 -2.109375,0 -4.262696,1.07666 -2.15332,1.07666 -4.020996,3.076172 v -4.174805 q 1.669922,-1.735839 3.779297,-2.658691 2.131348,-0.922852 4.987793,-0.922852 4.614258,0 7.426758,2.482911 2.8125,2.460937 2.8125,6.679687 0,3.757324 -1.73584,6.503906 -1.713867,2.746582 -5.888672,5.625 -4.262695,2.944336 -5.712891,4.2187503 -1.428222,1.2744141 -1.999511,2.4389649 -0.571289,1.1645507 -0.571289,2.8344726 h 16.918945 V 0 h -21.401367 v -1.6918945 q 0,-2.944336 0.791015,-4.987793 0.812989,-2.0654297 2.658692,-3.9990235 1.845703,-1.955566 5.756836,-4.680176 3.999023,-2.8125 5.449219,-4.921875 1.472167,-2.131347 1.472167,-4.833984 z"
                   id="path1198" />
                <path
                   d="m -24.389648,-16.347656 q 0,-9.008789 2.988281,-13.623047 2.988281,-4.636231 8.657226,-4.636231 10.8105473,0 10.8105473,17.446289 0,8.6132817 -3.0541993,13.1835942 -3.0322265,4.54833986 -8.525391,4.54833986 -5.185546,0 -8.041992,-4.32861326 -2.834472,-4.3286133 -2.834472,-12.5903318 z m 4.394531,-0.197754 q 0,13.5571287 6.877441,13.5571287 6.7675783,0 6.7675783,-13.7768557 0,-14.260254 -6.6357423,-14.260254 -7.009277,0 -7.009277,14.479981 z"
                   id="path1200" />
              </g>
            </g>
          </g>
        </g>
      </g>
      <g
         transform="translate(163.5,626.04157)"
         id="g97">
        <g
           id="g95">
          <g
             transform="rotate(-90)"
             id="g93">
            <g
               id="g91">
              <g
                 aria-label="2"
                 id="text89"
                 style="font-size:45px;font-family:OCRA;fill:#ffffff;stroke-width:0">
                <path
                   d="m 18.742676,-25.114746 q 0,-2.746582 -1.73584,-4.306641 -1.73584,-1.582031 -4.724121,-1.582031 -2.109375,0 -4.2626955,1.07666 -2.1533203,1.07666 -4.0209961,3.076172 v -4.174805 q 1.6699219,-1.735839 3.7792969,-2.658691 2.1313477,-0.922852 4.9877927,-0.922852 4.614258,0 7.426758,2.482911 2.8125,2.460937 2.8125,6.679687 0,3.757324 -1.73584,6.503906 -1.713867,2.746582 -5.888672,5.625 -4.262695,2.944336 -5.7128902,4.2187503 -1.4282227,1.2744141 -1.9995118,2.4389649 -0.571289,1.1645507 -0.571289,2.8344726 H 24.016113 V 0 H 2.6147461 v -1.6918945 q 0,-2.944336 0.7910156,-4.987793 0.8129883,-2.0654297 2.6586914,-3.9990235 1.8457031,-1.955566 5.7568359,-4.680176 3.999024,-2.8125 5.449219,-4.921875 1.472168,-2.131347 1.472168,-4.833984 z"
                   id="path1251" />
              </g>
            </g>
          </g>
        </g>
      </g>
      <g
         transform="translate(163.5,73.95)"
         id="g107">
        <g
           id="g105">
          <g
             transform="rotate(-90)"
             id="g103">
            <g
               id="g101">
              <g
                 aria-label="19"
                 id="text99"
                 style="font-size:45px;font-family:OCRA;text-anchor:end;fill:#ffffff;stroke-width:0">
                <path
                   d="m -40.253906,0 v -29.11377 q -1.010742,1.010743 -3.427735,2.263184 -2.395019,1.252441 -4.438476,1.757813 v -4.21875 q 2.702637,-0.747071 5.778808,-2.373047 3.076172,-1.64795 4.724122,-3.098145 h 1.625976 V 0 Z"
                   id="path1203" />
                <path
                   d="m -22.324219,-4.6142578 q 2.8125,1.6259765 6.064453,1.6259765 4.570313,0 7.0751957,-3.6035156 2.5268555,-3.6035161 2.5268555,-10.2392581 -0.043945,0.04395 -0.087891,0 -2.2412109,4.262696 -7.5366215,4.262696 -4.284668,0 -7.097168,-2.944336 -2.8125,-2.944336 -2.8125,-7.646485 0,-5.009765 3.076172,-8.217773 3.076172,-3.229981 7.976075,-3.229981 5.0756832,0 7.9321285,3.999024 2.8564453,3.977051 2.8564453,11.601562 0,9.4262699 -3.6914063,14.5019535 -3.6914062,5.07568356 -10.2172855,5.07568356 -3.581543,0 -6.064453,-1.16455078 z m 2.48291,-19.0942382 q 0,3.427734 1.757813,5.449219 1.757812,1.999511 4.855957,1.999511 2.680664,0 4.5043945,-1.82373 1.8237304,-1.845703 1.8237304,-4.460449 0,-3.669434 -1.8237304,-6.064453 -1.8017575,-2.416993 -4.7680665,-2.416993 -2.746582,0 -4.54834,2.087403 -1.801758,2.087402 -1.801758,5.229492 z"
                   id="path1205" />
              </g>
            </g>
          </g>
        </g>
      </g>
      <g
         transform="translate(263.5,626.04157)"
         id="g117">
        <g
           id="g115">
          <g
             transform="rotate(-90)"
             id="g113">
            <g
               id="g111">
              <g
                 aria-label="3"
                 id="text109"
                 style="font-size:45px;font-family:OCRA;fill:#ffffff;stroke-width:0">
                <path
                   d="m 3.1420898,-5.690918 q 3.4936524,2.7026367 7.8881832,2.7026367 3.515625,0 5.559082,-1.7138671 2.06543,-1.7358399 2.06543,-4.6362305 0,-6.4599611 -9.2504881,-6.4599611 H 6.5698242 v -3.55957 h 2.7026367 q 8.1958011,0 8.1958011,-6.064453 0,-5.603028 -6.262207,-5.603028 -3.5815433,0 -6.7456058,2.416993 v -4.064942 q 3.3398438,-1.933594 7.8002928,-1.933594 4.350586,0 6.987305,2.285157 2.636719,2.263183 2.636719,5.888672 0,6.679687 -6.811524,8.591308 v 0.08789 q 3.691406,0.395508 5.822754,2.614746 2.15332,2.197265 2.15332,5.4931639 0,4.5922852 -3.317871,7.4047852 -3.295898,2.81249996 -8.789062,2.81249996 -4.8339846,0 -7.8002932,-1.80175776 z"
                   id="path1254" />
              </g>
            </g>
          </g>
        </g>
      </g>
      <g
         transform="translate(263.5,73.95)"
         id="g127">
        <g
           id="g125">
          <g
             transform="rotate(-90)"
             id="g123">
            <g
               id="g121">
              <g
                 aria-label="18"
                 id="text119"
                 style="font-size:45px;font-family:OCRA;text-anchor:end;fill:#ffffff;stroke-width:0">
                <path
                   d="m -40.253906,0 v -29.11377 q -1.010742,1.010743 -3.427735,2.263184 -2.395019,1.252441 -4.438476,1.757813 v -4.21875 q 2.702637,-0.747071 5.778808,-2.373047 3.076172,-1.64795 4.724122,-3.098145 h 1.625976 V 0 Z"
                   id="path1208" />
                <path
                   d="m -24.23584,-9.4921875 q 0,-2.9443355 1.757813,-5.4272465 1.757812,-2.48291 4.526367,-3.537597 -2.219238,-1.252442 -3.515625,-3.208008 -1.296387,-1.955566 -1.296387,-4.240723 0,-2.416992 1.230469,-4.416504 1.252441,-1.999511 3.449707,-3.142089 2.219238,-1.142579 4.87793,-1.142579 2.680664,0 4.8999019,1.142579 2.2192383,1.120605 3.4497071,3.120117 1.2304687,1.999511 1.2304687,4.438476 0,2.241211 -1.274414,4.21875 -1.2524414,1.955567 -3.4936524,3.229981 2.7685547,1.07666 4.5043945,3.55957 1.7358399,2.48291 1.7358399,5.4052735 0,2.9003906 -1.3842774,5.2075195 -1.3842773,2.2851563 -3.9331054,3.55957034 -2.5488279,1.27441407 -5.7348629,1.27441407 -3.164063,0 -5.690918,-1.27441407 -2.526856,-1.27441404 -3.933106,-3.58154294 -1.40625,-2.3071289 -1.40625,-5.1855469 z m 4.21875,-0.1977539 q 0,3.0322266 1.867676,4.855957 1.867676,1.8237305 4.96582,1.8237305 3.032227,0 4.9438479,-1.8457031 1.9335938,-1.8676758 1.9335938,-4.8339844 0,-2.8124996 -1.9555665,-4.7241216 -1.9335942,-1.933593 -4.9218752,-1.933593 -2.966308,0 -4.899902,1.889648 -1.933594,1.867676 -1.933594,4.7680666 z m 1.230469,-15.8642576 q 0,2.285156 1.625976,3.933105 1.625977,1.625977 3.977051,1.625977 2.307129,0 3.977051,-1.647949 1.6918946,-1.64795 1.6918946,-3.911133 0,-2.307129 -1.6259766,-3.911133 -1.604004,-1.604004 -4.042969,-1.604004 -2.416992,0 -4.020996,1.582031 -1.582031,1.560059 -1.582031,3.933106 z"
                   id="path1210" />
              </g>
            </g>
          </g>
        </g>
      </g>
      <g
         transform="translate(363.5,626.04157)"
         id="g137">
        <g
           id="g135">
          <g
             transform="rotate(-90)"
             id="g133">
            <g
               id="g131">
              <g
                 aria-label="4"
                 id="text129"
                 style="font-size:45px;font-family:OCRA;fill:#ffffff;stroke-width:0">
                <path
                   d="m 20.43457,-34.035645 v 22.478028 h 5.097657 v 3.5595701 H 20.43457 V 0 H 16.259766 V -7.9980469 H 0.37353516 V -11.359863 Q 4.6142578,-16.12793 8.8989258,-22.346191 13.183594,-28.564453 15.974121,-34.035645 Z M 5.2075195,-11.557617 H 16.259766 v -16.21582 q -2.285157,4.108886 -4.899903,7.976074 -2.6147458,3.845215 -6.1523435,8.239746 z"
                   id="path1257" />
              </g>
            </g>
          </g>
        </g>
      </g>
      <g
         transform="translate(363.5,73.95)"
         id="g147">
        <g
           id="g145">
          <g
             transform="rotate(-90)"
             id="g143">
            <g
               id="g141">
              <g
                 aria-label="17"
                 id="text139"
                 style="font-size:45px;font-family:OCRA;text-anchor:end;fill:#ffffff;stroke-width:0">
                <path
                   d="m -40.253906,0 v -29.11377 q -1.010742,1.010743 -3.427735,2.263184 -2.395019,1.252441 -4.438476,1.757813 v -4.21875 q 2.702637,-0.747071 5.778808,-2.373047 3.076172,-1.64795 4.724122,-3.098145 h 1.625976 V 0 Z"
                   id="path1213" />
                <path
                   d="m -2.3291016,-31.376953 q -5.3613281,9.360351 -8.4375004,17.336426 Q -13.820801,-6.0864258 -14.545898,0 h -4.482422 q 0.812988,-5.9985352 3.845215,-13.688965 3.032226,-7.69043 8.1079097,-16.54541 H -23.950195 v -3.80127 h 21.6210934 z"
                   id="path1215" />
              </g>
            </g>
          </g>
        </g>
      </g>
      <g
         transform="translate(463.5,626.04157)"
         id="g157">
        <g
           id="g155">
          <g
             transform="rotate(-90)"
             id="g153">
            <g
               id="g151">
              <g
                 aria-label="5"
                 id="text149"
                 style="font-size:45px;font-family:OCRA;fill:#ffffff;stroke-width:0">
                <path
                   d="m 23.15918,-10.50293 q 0,4.9877933 -3.317871,8.0419925 -3.295899,3.05419922 -8.876954,3.05419922 -4.7900386,0 -7.1411128,-1.42822266 V -5.2294922 q 3.449707,2.2412109 7.0312498,2.2412109 3.559571,0 5.734863,-1.9555664 2.197266,-1.977539 2.197266,-5.2294923 0,-3.251953 -2.285156,-5.053711 -2.263184,-1.82373 -6.416016,-1.82373 -3.2080076,0 -5.7788084,0.285644 L 5.559082,-34.035645 h 15.908203 v 3.779297 H 9.1845703 l -0.703125,9.645996 3.0981447,-0.131835 q 5.405273,0 8.481445,2.702636 3.098145,2.680664 3.098145,7.536621 z"
                   id="path1260" />
              </g>
            </g>
          </g>
        </g>
      </g>
      <g
         transform="translate(463.5,73.95)"
         id="g167">
        <g
           id="g165">
          <g
             transform="rotate(-90)"
             id="g163">
            <g
               id="g161">
              <g
                 aria-label="16"
                 id="text159"
                 style="font-size:45px;font-family:OCRA;text-anchor:end;fill:#ffffff;stroke-width:0">
                <path
                   d="m -40.253906,0 v -29.11377 q -1.010742,1.010743 -3.427735,2.263184 -2.395019,1.252441 -4.438476,1.757813 v -4.21875 q 2.702637,-0.747071 5.778808,-2.373047 3.076172,-1.64795 4.724122,-3.098145 h 1.625976 V 0 Z"
                   id="path1218" />
                <path
                   d="m -4.0209961,-29.663086 q -2.6586914,-1.362305 -5.559082,-1.362305 -4.4165039,0 -7.0971679,3.845215 -2.680664,3.845215 -2.724609,10.50293 h 0.109863 q 2.416992,-4.680176 7.712402,-4.680176 4.4165041,0 7.0532228,2.878418 2.6367188,2.878418 2.6367188,7.646484 0,4.9877934 -3.0541993,8.1958012 -3.0322265,3.20800786 -7.7563473,3.20800786 -5.185547,0 -8.151856,-4.04296876 -2.944336,-4.0649414 -2.944336,-11.5136723 0,-9.008789 3.867188,-14.304199 3.88916,-5.317383 10.2172849,-5.317383 3.6254883,0 5.690918,0.98877 z m -15.1171879,18.522949 q 0,3.3618167 1.779786,5.7568362 1.801757,2.3950195 4.768066,2.3950195 2.8125,0 4.5703125,-2.0654296 1.7578125,-2.0654297 1.7578125,-5.3173831 0,-3.515625 -1.6699219,-5.471191 -1.6479492,-1.955567 -4.7021481,-1.955567 -2.900391,0 -4.702149,1.977539 -1.801758,1.97754 -1.801758,4.680176 z"
                   id="path1220" />
              </g>
            </g>
          </g>
        </g>
      </g>
      <g
         transform="translate(563.5,626.04157)"
         id="g177">
        <g
           id="g175">
          <g
             transform="rotate(-90)"
             id="g173">
            <g
               id="g171">
              <g
                 aria-label="6"
                 id="text169"
                 style="font-size:45px;font-family:OCRA;fill:#ffffff;stroke-width:0">
                <path
                   d="m 22.368164,-29.663086 q -2.658691,-1.362305 -5.559082,-1.362305 -4.416504,0 -7.0971679,3.845215 -2.6806641,3.845215 -2.7246094,10.50293 H 7.097168 q 2.4169922,-4.680176 7.712402,-4.680176 4.416504,0 7.053223,2.878418 2.636719,2.878418 2.636719,7.646484 0,4.9877934 -3.0542,8.1958012 -3.032226,3.20800786 -7.756347,3.20800786 -5.185547,0 -8.1518556,-4.04296876 -2.944336,-4.0649414 -2.944336,-11.5136723 0,-9.008789 3.8671875,-14.304199 3.8891601,-5.317383 10.2172851,-5.317383 3.625488,0 5.690918,0.98877 z M 7.2509766,-11.140137 q 0,3.3618167 1.7797851,5.7568362 1.8017583,2.3950195 4.7680663,2.3950195 2.8125,0 4.570313,-2.0654296 1.757812,-2.0654297 1.757812,-5.3173831 0,-3.515625 -1.669922,-5.471191 -1.647949,-1.955567 -4.702148,-1.955567 -2.900391,0 -4.7021486,1.977539 -1.8017578,1.97754 -1.8017578,4.680176 z"
                   id="path1263" />
              </g>
            </g>
          </g>
        </g>
      </g>
      <g
         transform="translate(563.5,73.95)"
         id="g187">
        <g
           id="g185">
          <g
             transform="rotate(-90)"
             id="g183">
            <g
               id="g181">
              <g
                 aria-label="15"
                 id="text179"
                 style="font-size:45px;font-family:OCRA;text-anchor:end;fill:#ffffff;stroke-width:0">
                <path
                   d="m -40.253906,0 v -29.11377 q -1.010742,1.010743 -3.427735,2.263184 -2.395019,1.252441 -4.438476,1.757813 v -4.21875 q 2.702637,-0.747071 5.778808,-2.373047 3.076172,-1.64795 4.724122,-3.098145 h 1.625976 V 0 Z"
                   id="path1223" />
                <path
                   d="m -3.2299805,-10.50293 q 0,4.9877933 -3.3178711,8.0419925 -3.2958984,3.05419922 -8.8769534,3.05419922 -4.790039,0 -7.141113,-1.42822266 V -5.2294922 q 3.449707,2.2412109 7.03125,2.2412109 3.55957,0 5.7348633,-1.9555664 2.1972656,-1.977539 2.1972656,-5.2294923 0,-3.251953 -2.2851562,-5.053711 -2.2631837,-1.82373 -6.4160157,-1.82373 -3.208008,0 -5.778809,0.285644 l 1.252442,-17.270508 h 15.908203 v 3.779297 H -17.20459 l -0.703125,9.645996 3.098145,-0.131835 q 5.4052731,0 8.481445,2.702636 3.0981445,2.680664 3.0981445,7.536621 z"
                   id="path1225" />
              </g>
            </g>
          </g>
        </g>
      </g>
      <g
         transform="translate(663.5,626.04157)"
         id="g197">
        <g
           id="g195">
          <g
             transform="rotate(-90)"
             id="g193">
            <g
               id="g191">
              <g
                 aria-label="7"
                 id="text189"
                 style="font-size:45px;font-family:OCRA;fill:#ffffff;stroke-width:0">
                <path
                   d="m 24.060059,-31.376953 q -5.361329,9.360351 -8.4375,17.336426 Q 12.568359,-6.0864258 11.843262,0 H 7.3608398 q 0.8129883,-5.9985352 3.8452152,-13.688965 3.032226,-7.69043 8.10791,-16.54541 H 2.4389648 v -3.80127 H 24.060059 Z"
                   id="path1266" />
              </g>
            </g>
          </g>
        </g>
      </g>
      <g
         transform="translate(663.5,73.95)"
         id="g207">
        <g
           id="g205">
          <g
             transform="rotate(-90)"
             id="g203">
            <g
               id="g201">
              <g
                 aria-label="14"
                 id="text199"
                 style="font-size:45px;font-family:OCRA;text-anchor:end;fill:#ffffff;stroke-width:0">
                <path
                   d="m -40.253906,0 v -29.11377 q -1.010742,1.010743 -3.427735,2.263184 -2.395019,1.252441 -4.438476,1.757813 v -4.21875 q 2.702637,-0.747071 5.778808,-2.373047 3.076172,-1.64795 4.724122,-3.098145 h 1.625976 V 0 Z"
                   id="path1228" />
                <path
                   d="m -5.9545898,-34.035645 v 22.478028 h 5.09765621 v 3.5595701 H -5.9545898 V 0 h -4.1748052 v -7.9980469 h -15.88623 v -3.3618161 q 4.240723,-4.768067 8.525391,-10.986328 4.284668,-6.218262 7.075195,-11.689454 z m -15.2270512,22.478028 h 11.052246 v -16.21582 q -2.285156,4.108886 -4.899902,7.976074 -2.614746,3.845215 -6.152344,8.239746 z"
                   id="path1230" />
              </g>
            </g>
          </g>
        </g>
      </g>
      <g
         transform="translate(763.5,626.04157)"
         id="g217">
        <g
           id="g215">
          <g
             transform="rotate(-90)"
             id="g213">
            <g
               id="g211">
              <g
                 aria-label="8"
                 id="text209"
                 style="font-size:45px;font-family:OCRA;fill:#ffffff;stroke-width:0">
                <path
                   d="m 2.1533203,-9.4921875 q 0,-2.9443355 1.7578125,-5.4272465 1.7578125,-2.48291 4.5263672,-3.537597 -2.2192383,-1.252442 -3.515625,-3.208008 -1.2963867,-1.955566 -1.2963867,-4.240723 0,-2.416992 1.2304687,-4.416504 1.2524414,-1.999511 3.4497071,-3.142089 2.2192379,-1.142579 4.8779299,-1.142579 2.680664,0 4.899902,1.142579 2.219238,1.120605 3.449707,3.120117 1.230469,1.999511 1.230469,4.438476 0,2.241211 -1.274414,4.21875 -1.252442,1.955567 -3.493653,3.229981 2.768555,1.07666 4.504395,3.55957 1.73584,2.48291 1.73584,5.4052735 0,2.9003906 -1.384278,5.2075195 -1.384277,2.2851563 -3.933105,3.55957034 -2.548828,1.27441407 -5.734863,1.27441407 -3.164063,0 -5.6909182,-1.27441407 -2.5268555,-1.27441404 -3.9331055,-3.58154294 -1.40625,-2.3071289 -1.40625,-5.1855469 z m 4.21875,-0.1977539 q 0,3.0322266 1.8676758,4.855957 1.8676759,1.8237305 4.9658199,1.8237305 3.032227,0 4.943848,-1.8457031 1.933594,-1.8676758 1.933594,-4.8339844 0,-2.8124996 -1.955567,-4.7241216 -1.933593,-1.933593 -4.921875,-1.933593 -2.966308,0 -4.8999019,1.889648 -1.9335938,1.867676 -1.9335938,4.7680666 z M 7.6025391,-25.554199 q 0,2.285156 1.6259765,3.933105 1.6259764,1.625977 3.9770504,1.625977 2.307129,0 3.977051,-1.647949 1.691895,-1.64795 1.691895,-3.911133 0,-2.307129 -1.625977,-3.911133 -1.604004,-1.604004 -4.042969,-1.604004 -2.416992,0 -4.0209957,1.582031 -1.5820312,1.560059 -1.5820312,3.933106 z"
                   id="path1269" />
              </g>
            </g>
          </g>
        </g>
      </g>
      <g
         transform="translate(763.5,73.95)"
         id="g227">
        <g
           id="g225">
          <g
             transform="rotate(-90)"
             id="g223">
            <g
               id="g221">
              <g
                 aria-label="13"
                 id="text219"
                 style="font-size:45px;font-family:OCRA;text-anchor:end;fill:#ffffff;stroke-width:0">
                <path
                   d="m -40.253906,0 v -29.11377 q -1.010742,1.010743 -3.427735,2.263184 -2.395019,1.252441 -4.438476,1.757813 v -4.21875 q 2.702637,-0.747071 5.778808,-2.373047 3.076172,-1.64795 4.724122,-3.098145 h 1.625976 V 0 Z"
                   id="path1233" />
                <path
                   d="m -23.24707,-5.690918 q 3.493652,2.7026367 7.888183,2.7026367 3.515625,0 5.5590823,-1.7138671 2.0654297,-1.7358399 2.0654297,-4.6362305 0,-6.4599611 -9.250488,-6.4599611 h -2.834473 v -3.55957 h 2.702637 q 8.1958006,0 8.1958006,-6.064453 0,-5.603028 -6.2622066,-5.603028 -3.581543,0 -6.745606,2.416993 v -4.064942 q 3.339844,-1.933594 7.800293,-1.933594 4.350586,0 6.9873047,2.285157 2.6367188,2.263183 2.6367188,5.888672 0,6.679687 -6.8115235,8.591308 v 0.08789 q 3.6914063,0.395508 5.8227539,2.614746 2.1533203,2.197265 2.1533203,5.4931639 0,4.5922852 -3.317871,7.4047852 -3.2958985,2.81249996 -8.7890622,2.81249996 -4.833985,0 -7.800293,-1.80175776 z"
                   id="path1235" />
              </g>
            </g>
          </g>
        </g>
      </g>
      <g
         transform="translate(863.5,626.04157)"
         id="g237">
        <g
           id="g235">
          <g
             transform="rotate(-90)"
             id="g233">
            <g
               id="g231">
              <g
                 aria-label="9"
                 id="text229"
                 style="font-size:45px;font-family:OCRA;fill:#ffffff;stroke-width:0">
                <path
                   d="m 4.0649414,-4.6142578 q 2.8125,1.6259765 6.0644536,1.6259765 4.570312,0 7.075195,-3.6035156 2.526855,-3.6035161 2.526855,-10.2392581 -0.04395,0.04395 -0.08789,0 -2.241211,4.262696 -7.536621,4.262696 -4.2846684,0 -7.0971684,-2.944336 -2.8125,-2.944336 -2.8125,-7.646485 0,-5.009765 3.0761719,-8.217773 3.0761719,-3.229981 7.9760745,-3.229981 5.075683,0 7.932129,3.999024 2.856445,3.977051 2.856445,11.601562 0,9.4262699 -3.691406,14.5019535 -3.691407,5.07568356 -10.217285,5.07568356 -3.5815434,0 -6.0644536,-1.16455078 z M 6.5478516,-23.708496 q 0,3.427734 1.7578125,5.449219 1.7578129,1.999511 4.8559569,1.999511 2.680664,0 4.504395,-1.82373 1.82373,-1.845703 1.82373,-4.460449 0,-3.669434 -1.82373,-6.064453 -1.801758,-2.416993 -4.768067,-2.416993 -2.746582,0 -4.5483396,2.087403 -1.8017578,2.087402 -1.8017578,5.229492 z"
                   id="path1272" />
              </g>
            </g>
          </g>
        </g>
      </g>
      <g
         transform="translate(863.5,73.95)"
         id="g247">
        <g
           id="g245">
          <g
             transform="rotate(-90)"
             id="g243">
            <g
               id="g241">
              <g
                 aria-label="12"
                 id="text239"
                 style="font-size:45px;font-family:OCRA;text-anchor:end;fill:#ffffff;stroke-width:0">
                <path
                   d="m -40.253906,0 v -29.11377 q -1.010742,1.010743 -3.427735,2.263184 -2.395019,1.252441 -4.438476,1.757813 v -4.21875 q 2.702637,-0.747071 5.778808,-2.373047 3.076172,-1.64795 4.724122,-3.098145 h 1.625976 V 0 Z"
                   id="path1238" />
                <path
                   d="m -7.6464844,-25.114746 q 0,-2.746582 -1.7358398,-4.306641 -1.7358398,-1.582031 -4.7241208,-1.582031 -2.109375,0 -4.262696,1.07666 -2.15332,1.07666 -4.020996,3.076172 v -4.174805 q 1.669922,-1.735839 3.779297,-2.658691 2.131348,-0.922852 4.987793,-0.922852 4.6142579,0 7.4267579,2.482911 2.8125,2.460937 2.8125,6.679687 0,3.757324 -1.7358398,6.503906 -1.7138672,2.746582 -5.8886721,5.625 -4.262695,2.944336 -5.71289,4.2187503 -1.428223,1.2744141 -1.999512,2.4389649 -0.571289,1.1645507 -0.571289,2.8344726 H -2.3730469 V 0 H -23.774414 v -1.6918945 q 0,-2.944336 0.791016,-4.987793 0.812988,-2.0654297 2.658691,-3.9990235 1.845703,-1.955566 5.756836,-4.680176 3.999023,-2.8125 5.4492187,-4.921875 1.4721679,-2.131347 1.4721679,-4.833984 z"
                   id="path1240" />
              </g>
            </g>
          </g>
        </g>
      </g>
      <g
         transform="translate(963.5,626.04157)"
         id="g257">
        <g
           id="g255">
          <g
             transform="rotate(-90)"
             id="g253">
            <g
               id="g251">
              <g
                 aria-label="10"
                 id="text249"
                 style="font-size:45px;font-family:OCRA;fill:#ffffff;stroke-width:0">
                <path
                   d="m 12.524414,0 v -29.11377 q -1.010742,1.010743 -3.4277343,2.263184 -2.3950195,1.252441 -4.4384766,1.757813 v -4.21875 q 2.7026367,-0.747071 5.7788089,-2.373047 3.076172,-1.64795 4.724121,-3.098145 h 1.625976 V 0 Z"
                   id="path1275" />
                <path
                   d="m 28.388672,-16.347656 q 0,-9.008789 2.988281,-13.623047 2.988281,-4.636231 8.657227,-4.636231 10.810547,0 10.810547,17.446289 0,8.6132817 -3.0542,13.1835942 -3.032226,4.54833986 -8.52539,4.54833986 -5.185547,0 -8.041992,-4.32861326 -2.834473,-4.3286133 -2.834473,-12.5903318 z m 4.394531,-0.197754 q 0,13.5571287 6.877442,13.5571287 6.767578,0 6.767578,-13.7768557 0,-14.260254 -6.635743,-14.260254 -7.009277,0 -7.009277,14.479981 z"
                   id="path1277" />
              </g>
            </g>
          </g>
        </g>
      </g>
      <g
         transform="translate(963.5,73.95)"
         id="g267">
        <g
           id="g265">
          <g
             transform="rotate(-90)"
             id="g263">
            <g
               id="g261">
              <g
                 aria-label="11"
                 id="text259"
                 style="font-size:45px;font-family:OCRA;text-anchor:end;fill:#ffffff;stroke-width:0">
                <path
                   d="m -40.253906,0 v -29.11377 q -1.010742,1.010743 -3.427735,2.263184 -2.395019,1.252441 -4.438476,1.757813 v -4.21875 q 2.702637,-0.747071 5.778808,-2.373047 3.076172,-1.64795 4.724122,-3.098145 h 1.625976 V 0 Z"
                   id="path1243" />
                <path
                   d="m -13.864746,0 v -29.11377 q -1.010742,1.010743 -3.427734,2.263184 -2.39502,1.252441 -4.438477,1.757813 v -4.21875 q 2.702637,-0.747071 5.778809,-2.373047 3.076171,-1.64795 4.724121,-3.098145 h 1.6259762 V 0 Z"
                   id="path1245" />
              </g>
            </g>
          </g>
        </g>
      </g>
    </g>
    <g
       transform="translate(34.035,634.04157)"
       id="g283">
      <g
         id="g281">
        <rect
           fill="#8d8c8c"
           gorn="0.1.1.0.0"
           height="31.9"
           id="connector0pin"
           width="31.93"
           x="0"
           y="0" />
        <rect
           fill="#8c8663"
           height="16.415199"
           width="16.444201"
           x="7.7915301"
           y="7.7354398"
           id="rect271" />
        <polygon
           fill="#b8af82"
           points="0,0 0,31.9 7.79153,24.1368 7.79153,6.97162 "
           id="polygon273" />
        <polygon
           fill="#80795b"
           points="31.93,0 24.2079,7.76321 7.90264,7.76321 0,0 "
           id="polygon275" />
        <polygon
           fill="#5e5b43"
           points="31.93,31.9 24.2079,24.1368 24.2079,7.76321 31.93,0 "
           id="polygon277" />
        <polygon
           fill="#9a916c"
           points="31.93,31.9 0,31.9 7.87486,24.1368 24.2079,24.1368 "
           id="polygon279" />
      </g>
    </g>
    <g
       transform="translate(34.035,34.05)"
       id="g298">
      <g
         id="g296">
        <rect
           fill="#8d8c8c"
           gorn="0.1.2.0.0"
           height="31.9"
           id="connector19pin"
           width="31.93"
           x="0"
           y="0" />
        <rect
           fill="#8c8663"
           height="16.415199"
           width="16.444201"
           x="7.7915301"
           y="7.7354398"
           id="rect286" />
        <polygon
           fill="#b8af82"
           points="7.79153,6.97162 0,0 0,31.9 7.79153,24.1368 "
           id="polygon288" />
        <polygon
           fill="#80795b"
           points="0,0 31.93,0 24.2079,7.76321 7.90264,7.76321 "
           id="polygon290" />
        <polygon
           fill="#5e5b43"
           points="31.93,0 31.93,31.9 24.2079,24.1368 24.2079,7.76321 "
           id="polygon292" />
        <polygon
           fill="#9a916c"
           points="24.2079,24.1368 31.93,31.9 0,31.9 7.87486,24.1368 "
           id="polygon294" />
      </g>
    </g>
    <g
       transform="translate(134.035,634.04157)"
       id="g313">
      <g
         id="g311">
        <rect
           fill="#8d8c8c"
           gorn="0.1.3.0.0"
           height="31.9"
           id="connector1pin"
           width="31.93"
           x="0"
           y="0" />
        <rect
           fill="#8c8663"
           height="16.415199"
           width="16.444201"
           x="7.7915301"
           y="7.7354398"
           id="rect301" />
        <polygon
           fill="#b8af82"
           points="0,0 0,31.9 7.79153,24.1368 7.79153,6.97162 "
           id="polygon303" />
        <polygon
           fill="#80795b"
           points="31.93,0 24.2079,7.76321 7.90264,7.76321 0,0 "
           id="polygon305" />
        <polygon
           fill="#5e5b43"
           points="31.93,31.9 24.2079,24.1368 24.2079,7.76321 31.93,0 "
           id="polygon307" />
        <polygon
           fill="#9a916c"
           points="31.93,31.9 0,31.9 7.87486,24.1368 24.2079,24.1368 "
           id="polygon309" />
      </g>
    </g>
    <g
       transform="translate(134.035,34.05)"
       id="g328">
      <g
         id="g326">
        <rect
           fill="#8d8c8c"
           gorn="0.1.4.0.0"
           height="31.9"
           id="connector18pin"
           width="31.93"
           x="0"
           y="0" />
        <rect
           fill="#8c8663"
           height="16.415199"
           width="16.444201"
           x="7.7915301"
           y="7.7354398"
           id="rect316" />
        <polygon
           fill="#b8af82"
           points="7.79153,6.97162 0,0 0,31.9 7.79153,24.1368 "
           id="polygon318" />
        <polygon
           fill="#80795b"
           points="0,0 31.93,0 24.2079,7.76321 7.90264,7.76321 "
           id="polygon320" />
        <polygon
           fill="#5e5b43"
           points="31.93,0 31.93,31.9 24.2079,24.1368 24.2079,7.76321 "
           id="polygon322" />
        <polygon
           fill="#9a916c"
           points="24.2079,24.1368 31.93,31.9 0,31.9 7.87486,24.1368 "
           id="polygon324" />
      </g>
    </g>
    <g
       transform="translate(234.035,634.04157)"
       id="g343">
      <g
         id="g341">
        <rect
           fill="#8d8c8c"
           gorn="0.1.5.0.0"
           height="31.9"
           id="connector2pin"
           width="31.93"
           x="0"
           y="0" />
        <rect
           fill="#8c8663"
           height="16.415199"
           width="16.444201"
           x="7.7915301"
           y="7.7354398"
           id="rect331" />
        <polygon
           fill="#b8af82"
           points="0,0 0,31.9 7.79153,24.1368 7.79153,6.97162 "
           id="polygon333" />
        <polygon
           fill="#80795b"
           points="31.93,0 24.2079,7.76321 7.90264,7.76321 0,0 "
           id="polygon335" />
        <polygon
           fill="#5e5b43"
           points="31.93,31.9 24.2079,24.1368 24.2079,7.76321 31.93,0 "
           id="polygon337" />
        <polygon
           fill="#9a916c"
           points="31.93,31.9 0,31.9 7.87486,24.1368 24.2079,24.1368 "
           id="polygon339" />
      </g>
    </g>
    <g
       transform="translate(234.035,34.05)"
       id="g358">
      <g
         id="g356">
        <rect
           fill="#8d8c8c"
           gorn="0.1.6.0.0"
           height="31.9"
           id="connector17pin"
           width="31.93"
           x="0"
           y="0" />
        <rect
           fill="#8c8663"
           height="16.415199"
           width="16.444201"
           x="7.7915301"
           y="7.7354398"
           id="rect346" />
        <polygon
           fill="#b8af82"
           points="7.79153,6.97162 0,0 0,31.9 7.79153,24.1368 "
           id="polygon348" />
        <polygon
           fill="#80795b"
           points="0,0 31.93,0 24.2079,7.76321 7.90264,7.76321 "
           id="polygon350" />
        <polygon
           fill="#5e5b43"
           points="31.93,0 31.93,31.9 24.2079,24.1368 24.2079,7.76321 "
           id="polygon352" />
        <polygon
           fill="#9a916c"
           points="24.2079,24.1368 31.93,31.9 0,31.9 7.87486,24.1368 "
           id="polygon354" />
      </g>
    </g>
    <g
       transform="translate(334.035,634.04157)"
       id="g373">
      <g
         id="g371">
        <rect
           fill="#8d8c8c"
           gorn="0.1.7.0.0"
           height="31.9"
           id="connector3pin"
           width="31.93"
           x="0"
           y="0" />
        <rect
           fill="#8c8663"
           height="16.415199"
           width="16.444201"
           x="7.7915301"
           y="7.7354398"
           id="rect361" />
        <polygon
           fill="#b8af82"
           points="0,0 0,31.9 7.79153,24.1368 7.79153,6.97162 "
           id="polygon363" />
        <polygon
           fill="#80795b"
           points="31.93,0 24.2079,7.76321 7.90264,7.76321 0,0 "
           id="polygon365" />
        <polygon
           fill="#5e5b43"
           points="31.93,31.9 24.2079,24.1368 24.2079,7.76321 31.93,0 "
           id="polygon367" />
        <polygon
           fill="#9a916c"
           points="31.93,31.9 0,31.9 7.87486,24.1368 24.2079,24.1368 "
           id="polygon369" />
      </g>
    </g>
    <g
       transform="translate(334.035,34.05)"
       id="g388">
      <g
         id="g386">
        <rect
           fill="#8d8c8c"
           gorn="0.1.8.0.0"
           height="31.9"
           id="connector16pin"
           width="31.93"
           x="0"
           y="0" />
        <rect
           fill="#8c8663"
           height="16.415199"
           width="16.444201"
           x="7.7915301"
           y="7.7354398"
           id="rect376" />
        <polygon
           fill="#b8af82"
           points="7.79153,6.97162 0,0 0,31.9 7.79153,24.1368 "
           id="polygon378" />
        <polygon
           fill="#80795b"
           points="0,0 31.93,0 24.2079,7.76321 7.90264,7.76321 "
           id="polygon380" />
        <polygon
           fill="#5e5b43"
           points="31.93,0 31.93,31.9 24.2079,24.1368 24.2079,7.76321 "
           id="polygon382" />
        <polygon
           fill="#9a916c"
           points="24.2079,24.1368 31.93,31.9 0,31.9 7.87486,24.1368 "
           id="polygon384" />
      </g>
    </g>
    <g
       transform="translate(434.035,634.04157)"
       id="g403">
      <g
         id="g401">
        <rect
           fill="#8d8c8c"
           gorn="0.1.9.0.0"
           height="31.9"
           id="connector4pin"
           width="31.93"
           x="0"
           y="0" />
        <rect
           fill="#8c8663"
           height="16.415199"
           width="16.444201"
           x="7.7915301"
           y="7.7354398"
           id="rect391" />
        <polygon
           fill="#b8af82"
           points="0,0 0,31.9 7.79153,24.1368 7.79153,6.97162 "
           id="polygon393" />
        <polygon
           fill="#80795b"
           points="31.93,0 24.2079,7.76321 7.90264,7.76321 0,0 "
           id="polygon395" />
        <polygon
           fill="#5e5b43"
           points="31.93,31.9 24.2079,24.1368 24.2079,7.76321 31.93,0 "
           id="polygon397" />
        <polygon
           fill="#9a916c"
           points="31.93,31.9 0,31.9 7.87486,24.1368 24.2079,24.1368 "
           id="polygon399" />
      </g>
    </g>
    <g
       transform="translate(434.035,34.05)"
       id="g418">
      <g
         id="g416">
        <rect
           fill="#8d8c8c"
           gorn="0.1.10.0.0"
           height="31.9"
           id="connector15pin"
           width="31.93"
           x="0"
           y="0" />
        <rect
           fill="#8c8663"
           height="16.415199"
           width="16.444201"
           x="7.7915301"
           y="7.7354398"
           id="rect406" />
        <polygon
           fill="#b8af82"
           points="7.79153,6.97162 0,0 0,31.9 7.79153,24.1368 "
           id="polygon408" />
        <polygon
           fill="#80795b"
           points="0,0 31.93,0 24.2079,7.76321 7.90264,7.76321 "
           id="polygon410" />
        <polygon
           fill="#5e5b43"
           points="31.93,0 31.93,31.9 24.2079,24.1368 24.2079,7.76321 "
           id="polygon412" />
        <polygon
           fill="#9a916c"
           points="24.2079,24.1368 31.93,31.9 0,31.9 7.87486,24.1368 "
           id="polygon414" />
      </g>
    </g>
    <g
       transform="translate(534.035,634.04157)"
       id="g433">
      <g
         id="g431">
        <rect
           fill="#8d8c8c"
           gorn="0.1.11.0.0"
           height="31.9"
           id="connector5pin"
           width="31.93"
           x="0"
           y="0" />
        <rect
           fill="#8c8663"
           height="16.415199"
           width="16.444201"
           x="7.7915301"
           y="7.7354398"
           id="rect421" />
        <polygon
           fill="#b8af82"
           points="0,0 0,31.9 7.79153,24.1368 7.79153,6.97162 "
           id="polygon423" />
        <polygon
           fill="#80795b"
           points="31.93,0 24.2079,7.76321 7.90264,7.76321 0,0 "
           id="polygon425" />
        <polygon
           fill="#5e5b43"
           points="31.93,31.9 24.2079,24.1368 24.2079,7.76321 31.93,0 "
           id="polygon427" />
        <polygon
           fill="#9a916c"
           points="31.93,31.9 0,31.9 7.87486,24.1368 24.2079,24.1368 "
           id="polygon429" />
      </g>
    </g>
    <g
       transform="translate(534.035,34.05)"
       id="g448">
      <g
         id="g446">
        <rect
           fill="#8d8c8c"
           gorn="0.1.12.0.0"
           height="31.9"
           id="connector14pin"
           width="31.93"
           x="0"
           y="0" />
        <rect
           fill="#8c8663"
           height="16.415199"
           width="16.444201"
           x="7.7915301"
           y="7.7354398"
           id="rect436" />
        <polygon
           fill="#b8af82"
           points="7.79153,6.97162 0,0 0,31.9 7.79153,24.1368 "
           id="polygon438" />
        <polygon
           fill="#80795b"
           points="0,0 31.93,0 24.2079,7.76321 7.90264,7.76321 "
           id="polygon440" />
        <polygon
           fill="#5e5b43"
           points="31.93,0 31.93,31.9 24.2079,24.1368 24.2079,7.76321 "
           id="polygon442" />
        <polygon
           fill="#9a916c"
           points="24.2079,24.1368 31.93,31.9 0,31.9 7.87486,24.1368 "
           id="polygon444" />
      </g>
    </g>
    <g
       transform="translate(634.035,634.04157)"
       id="g463">
      <g
         id="g461">
        <rect
           fill="#8d8c8c"
           gorn="0.1.13.0.0"
           height="31.9"
           id="connector6pin"
           width="31.93"
           x="0"
           y="0" />
        <rect
           fill="#8c8663"
           height="16.415199"
           width="16.444201"
           x="7.7915301"
           y="7.7354398"
           id="rect451" />
        <polygon
           fill="#b8af82"
           points="0,0 0,31.9 7.79153,24.1368 7.79153,6.97162 "
           id="polygon453" />
        <polygon
           fill="#80795b"
           points="31.93,0 24.2079,7.76321 7.90264,7.76321 0,0 "
           id="polygon455" />
        <polygon
           fill="#5e5b43"
           points="31.93,31.9 24.2079,24.1368 24.2079,7.76321 31.93,0 "
           id="polygon457" />
        <polygon
           fill="#9a916c"
           points="31.93,31.9 0,31.9 7.87486,24.1368 24.2079,24.1368 "
           id="polygon459" />
      </g>
    </g>
    <g
       transform="translate(634.035,34.05)"
       id="g478">
      <g
         id="g476">
        <rect
           fill="#8d8c8c"
           gorn="0.1.14.0.0"
           height="31.9"
           id="connector13pin"
           width="31.93"
           x="0"
           y="0" />
        <rect
           fill="#8c8663"
           height="16.415199"
           width="16.444201"
           x="7.7915301"
           y="7.7354398"
           id="rect466" />
        <polygon
           fill="#b8af82"
           points="7.79153,6.97162 0,0 0,31.9 7.79153,24.1368 "
           id="polygon468" />
        <polygon
           fill="#80795b"
           points="0,0 31.93,0 24.2079,7.76321 7.90264,7.76321 "
           id="polygon470" />
        <polygon
           fill="#5e5b43"
           points="31.93,0 31.93,31.9 24.2079,24.1368 24.2079,7.76321 "
           id="polygon472" />
        <polygon
           fill="#9a916c"
           points="24.2079,24.1368 31.93,31.9 0,31.9 7.87486,24.1368 "
           id="polygon474" />
      </g>
    </g>
    <g
       transform="translate(734.035,634.04157)"
       id="g493">
      <g
         id="g491">
        <rect
           fill="#8d8c8c"
           gorn="0.1.15.0.0"
           height="31.9"
           id="connector7pin"
           width="31.93"
           x="0"
           y="0" />
        <rect
           fill="#8c8663"
           height="16.415199"
           width="16.444201"
           x="7.7915301"
           y="7.7354398"
           id="rect481" />
        <polygon
           fill="#b8af82"
           points="0,0 0,31.9 7.79153,24.1368 7.79153,6.97162 "
           id="polygon483" />
        <polygon
           fill="#80795b"
           points="31.93,0 24.2079,7.76321 7.90264,7.76321 0,0 "
           id="polygon485" />
        <polygon
           fill="#5e5b43"
           points="31.93,31.9 24.2079,24.1368 24.2079,7.76321 31.93,0 "
           id="polygon487" />
        <polygon
           fill="#9a916c"
           points="31.93,31.9 0,31.9 7.87486,24.1368 24.2079,24.1368 "
           id="polygon489" />
      </g>
    </g>
    <g
       transform="translate(734.035,34.05)"
       id="g508">
      <g
         id="g506">
        <rect
           fill="#8d8c8c"
           gorn="0.1.16.0.0"
           height="31.9"
           id="connector12pin"
           width="31.93"
           x="0"
           y="0" />
        <rect
           fill="#8c8663"
           height="16.415199"
           width="16.444201"
           x="7.7915301"
           y="7.7354398"
           id="rect496" />
        <polygon
           fill="#b8af82"
           points="7.79153,6.97162 0,0 0,31.9 7.79153,24.1368 "
           id="polygon498" />
        <polygon
           fill="#80795b"
           points="0,0 31.93,0 24.2079,7.76321 7.90264,7.76321 "
           id="polygon500" />
        <polygon
           fill="#5e5b43"
           points="31.93,0 31.93,31.9 24.2079,24.1368 24.2079,7.76321 "
           id="polygon502" />
        <polygon
           fill="#9a916c"
           points="24.2079,24.1368 31.93,31.9 0,31.9 7.87486,24.1368 "
           id="polygon504" />
      </g>
    </g>
    <g
       transform="translate(834.035,634.04157)"
       id="g523">
      <g
         id="g521">
        <rect
           fill="#8d8c8c"
           gorn="0.1.17.0.0"
           height="31.9"
           id="connector8pin"
           width="31.93"
           x="0"
           y="0" />
        <rect
           fill="#8c8663"
           height="16.415199"
           width="16.444201"
           x="7.7915301"
           y="7.7354398"
           id="rect511" />
        <polygon
           fill="#b8af82"
           points="0,0 0,31.9 7.79153,24.1368 7.79153,6.97162 "
           id="polygon513" />
        <polygon
           fill="#80795b"
           points="31.93,0 24.2079,7.76321 7.90264,7.76321 0,0 "
           id="polygon515" />
        <polygon
           fill="#5e5b43"
           points="31.93,31.9 24.2079,24.1368 24.2079,7.76321 31.93,0 "
           id="polygon517" />
        <polygon
           fill="#9a916c"
           points="31.93,31.9 0,31.9 7.87486,24.1368 24.2079,24.1368 "
           id="polygon519" />
      </g>
    </g>
    <g
       transform="translate(834.035,34.05)"
       id="g538">
      <g
         id="g536">
        <rect
           fill="#8d8c8c"
           gorn="0.1.18.0.0"
           height="31.9"
           id="connector11pin"
           width="31.93"
           x="0"
           y="0" />
        <rect
           fill="#8c8663"
           height="16.415199"
           width="16.444201"
           x="7.7915301"
           y="7.7354398"
           id="rect526" />
        <polygon
           fill="#b8af82"
           points="7.79153,6.97162 0,0 0,31.9 7.79153,24.1368 "
           id="polygon528" />
        <polygon
           fill="#80795b"
           points="0,0 31.93,0 24.2079,7.76321 7.90264,7.76321 "
           id="polygon530" />
        <polygon
           fill="#5e5b43"
           points="31.93,0 31.93,31.9 24.2079,24.1368 24.2079,7.76321 "
           id="polygon532" />
        <polygon
           fill="#9a916c"
           points="24.2079,24.1368 31.93,31.9 0,31.9 7.87486,24.1368 "
           id="polygon534" />
      </g>
    </g>
    <g
       transform="translate(934.035,634.04157)"
       id="g553">
      <g
         id="g551">
        <rect
           fill="#8d8c8c"
           gorn="0.1.19.0.0"
           height="31.9"
           id="connector9pin"
           width="31.93"
           x="0"
           y="0" />
        <rect
           fill="#8c8663"
           height="16.415199"
           width="16.444201"
           x="7.7915301"
           y="7.7354398"
           id="rect541" />
        <polygon
           fill="#b8af82"
           points="0,0 0,31.9 7.79153,24.1368 7.79153,6.97162 "
           id="polygon543" />
        <polygon
           fill="#80795b"
           points="31.93,0 24.2079,7.76321 7.90264,7.76321 0,0 "
           id="polygon545" />
        <polygon
           fill="#5e5b43"
           points="31.93,31.9 24.2079,24.1368 24.2079,7.76321 31.93,0 "
           id="polygon547" />
        <polygon
           fill="#9a916c"
           points="31.93,31.9 0,31.9 7.87486,24.1368 24.2079,24.1368 "
           id="polygon549" />
      </g>
    </g>
    <g
       transform="translate(934.035,34.05)"
       id="g568">
      <g
         id="g566">
        <rect
           fill="#8d8c8c"
           gorn="0.1.20.0.0"
           height="31.9"
           id="connector10pin"
           width="31.93"
           x="0"
           y="0" />
        <rect
           fill="#8c8663"
           height="16.415199"
           width="16.444201"
           x="7.7915301"
           y="7.7354398"
           id="rect556" />
        <polygon
           fill="#b8af82"
           points="7.79153,6.97162 0,0 0,31.9 7.79153,24.1368 "
           id="polygon558" />
        <polygon
           fill="#80795b"
           points="0,0 31.93,0 24.2079,7.76321 7.90264,7.76321 "
           id="polygon560" />
        <polygon
           fill="#5e5b43"
           points="31.93,0 31.93,31.9 24.2079,24.1368 24.2079,7.76321 "
           id="polygon562" />
        <polygon
           fill="#9a916c"
           points="24.2079,24.1368 31.93,31.9 0,31.9 7.87486,24.1368 "
           id="polygon564" />
      </g>
    </g>
  </g>
</svg>
