<?xml version='1.0' encoding='UTF-8' standalone='no'?>
<!-- Created with Fritzing (http://www.fritzing.org/) -->
<svg xmlns="http://www.w3.org/2000/svg" baseProfile="tiny" height="0.6in" version="1.2" viewBox="0 0 1000 600" width="1in" x="0in"  y="0in">
    <desc>
        <referenceFile>sparkfun-analogic_tssop20_breadboard.svg</referenceFile>
    </desc>
    <desc >Fritzing breadboard generated by brd2svg</desc>
    <g gorn="0.1" id="breadboard" >
        <g gorn="0.1.0" id="icon" >
            <path d="M0,0L0,270A30,30 0 0 1 0,330L0,600L1000,600L1000,0L0,0z" fill="#1F7A34" stroke="none" stroke-width="0" />
            <g transform="translate(365.079,156.959)" >
                <g >
                    <g transform="matrix(0.5, 0, 0, 0.5, 67.4606, 71.5207)" >
                        <g >
                            <rect connectorname="10" fill="#8c8c8c" height="15.748" stroke="none" stroke-linecap="round" stroke-width="0" width="39.3701" x="0.236221"  y="252.17"/>
                            <rect connectorname="9" fill="#8c8c8c" height="15.748" stroke="none" stroke-linecap="round" stroke-width="0" width="39.3701" x="0.236221"  y="226.17"/>
                            <rect connectorname="8" fill="#8c8c8c" height="15.748" stroke="none" stroke-linecap="round" stroke-width="0" width="39.3701" x="0"  y="200.17"/>
                            <rect connectorname="7" fill="#8c8c8c" height="15.748" stroke="none" stroke-linecap="round" stroke-width="0" width="39.3701" x="0.236221"  y="174.169"/>
                            <rect connectorname="6" fill="#8c8c8c" height="15.748" stroke="none" stroke-linecap="round" stroke-width="0" width="39.3701" x="0.236221"  y="148.169"/>
                            <rect connectorname="5" fill="#8c8c8c" height="15.748" stroke="none" stroke-linecap="round" stroke-width="0" width="39.3701" x="0.236221"  y="122.169"/>
                            <rect connectorname="4" fill="#8c8c8c" height="15.748" stroke="none" stroke-linecap="round" stroke-width="0" width="39.3701" x="0.236221"  y="96.1694"/>
                            <rect connectorname="3" fill="#8c8c8c" height="15.748" stroke="none" stroke-linecap="round" stroke-width="0" width="39.3701" x="0.236221"  y="70.1694"/>
                            <rect connectorname="2" fill="#8c8c8c" height="15.748" stroke="none" stroke-linecap="round" stroke-width="0" width="39.3701" x="0.236221"  y="44.1693"/>
                            <rect connectorname="1" fill="#8c8c8c" height="15.748" stroke="none" stroke-linecap="round" stroke-width="0" width="39.3701" x="0.236221"  y="18.1693"/>
                            <rect connectorname="20" fill="#8c8c8c" height="15.748" stroke="none" stroke-linecap="round" stroke-width="0" width="39.3701" x="230.237"  y="18.1693"/>
                            <rect connectorname="19" fill="#8c8c8c" height="15.748" stroke="none" stroke-linecap="round" stroke-width="0" width="39.3701" x="230.237"  y="44.1693"/>
                            <rect connectorname="18" fill="#8c8c8c" height="15.748" stroke="none" stroke-linecap="round" stroke-width="0" width="39.3701" x="230.237"  y="70.1694"/>
                            <rect connectorname="17" fill="#8c8c8c" height="15.748" stroke="none" stroke-linecap="round" stroke-width="0" width="39.3701" x="230.237"  y="96.1694"/>
                            <rect connectorname="16" fill="#8c8c8c" height="15.748" stroke="none" stroke-linecap="round" stroke-width="0" width="39.3701" x="230.237"  y="122.169"/>
                            <rect connectorname="15" fill="#8c8c8c" height="15.748" stroke="none" stroke-linecap="round" stroke-width="0" width="39.3701" x="230.237"  y="148.169"/>
                            <rect connectorname="14" fill="#8c8c8c" height="15.748" stroke="none" stroke-linecap="round" stroke-width="0" width="39.3701" x="230.237"  y="174.169"/>
                            <rect connectorname="13" fill="#8c8c8c" height="15.748" stroke="none" stroke-linecap="round" stroke-width="0" width="39.3701" x="230.473"  y="200.17"/>
                            <rect connectorname="12" fill="#8c8c8c" height="15.748" stroke="none" stroke-linecap="round" stroke-width="0" width="39.3701" x="230.237"  y="226.17"/>
                            <rect connectorname="11" fill="#8c8c8c" height="15.748" stroke="none" stroke-linecap="round" stroke-width="0" width="39.3701" x="230.237"  y="252.17"/>
                            <rect fill="#303030" height="286.083" stroke="none" stroke-width="0" width="184.228" x="42.8071"  y="0"/>
                            <polygon fill="#1f1f1f" points="42.8071,0 227.035,0 217.035,10 52.8071,10" />
                            <polygon fill="#1f1f1f" points="42.8071,286.083 227.035,286.083 217.035,276.083 52.8071,276.083" />
                            <polygon fill="#000000" points="42.8071,0 42.8071,286.083 52.8071,276.083 52.8071,10" />
                            <polygon fill="#3d3d3d" points="227.035,0 227.035,286.083 217.035,276.083 217.035,10" />
                            <circle cx="72.8071" cy="256.083" fill="#1f1f1f" r="10" stroke="none" stroke-width="0" />
                        </g>
                    </g>
                </g>
            </g>
            <text fill="white" font-family="OCRA" font-size="65" gorn="0.1.0.2" id="label" stroke="none" stroke-width="0" text-anchor="start" x="50"  y="324.375">TSSOP20</text>
            <g transform="translate(63.5,526.05)" >
                <g >
                    <g transform="rotate(-90)" >
                        <g >
                            <text fill="white" font-family="OCRA" font-size="45" stroke="none" stroke-width="0" text-anchor="start" x="0"  y="0">1</text>
                        </g>
                    </g>
                </g>
            </g>
            <g transform="translate(63.5,73.95)" >
                <g >
                    <g transform="rotate(-90)" >
                        <g >
                            <text fill="white" font-family="OCRA" font-size="45" stroke="none" stroke-width="0" text-anchor="end" x="0"  y="0">20</text>
                        </g>
                    </g>
                </g>
            </g>
            <g transform="translate(163.5,526.05)" >
                <g >
                    <g transform="rotate(-90)" >
                        <g >
                            <text fill="white" font-family="OCRA" font-size="45" stroke="none" stroke-width="0" text-anchor="start" x="0"  y="0">2</text>
                        </g>
                    </g>
                </g>
            </g>
            <g transform="translate(163.5,73.95)" >
                <g >
                    <g transform="rotate(-90)" >
                        <g >
                            <text fill="white" font-family="OCRA" font-size="45" stroke="none" stroke-width="0" text-anchor="end" x="0"  y="0">19</text>
                        </g>
                    </g>
                </g>
            </g>
            <g transform="translate(263.5,526.05)" >
                <g >
                    <g transform="rotate(-90)" >
                        <g >
                            <text fill="white" font-family="OCRA" font-size="45" stroke="none" stroke-width="0" text-anchor="start" x="0"  y="0">3</text>
                        </g>
                    </g>
                </g>
            </g>
            <g transform="translate(263.5,73.95)" >
                <g >
                    <g transform="rotate(-90)" >
                        <g >
                            <text fill="white" font-family="OCRA" font-size="45" stroke="none" stroke-width="0" text-anchor="end" x="0"  y="0">18</text>
                        </g>
                    </g>
                </g>
            </g>
            <g transform="translate(363.5,526.05)" >
                <g >
                    <g transform="rotate(-90)" >
                        <g >
                            <text fill="white" font-family="OCRA" font-size="45" stroke="none" stroke-width="0" text-anchor="start" x="0"  y="0">4</text>
                        </g>
                    </g>
                </g>
            </g>
            <g transform="translate(363.5,73.95)" >
                <g >
                    <g transform="rotate(-90)" >
                        <g >
                            <text fill="white" font-family="OCRA" font-size="45" stroke="none" stroke-width="0" text-anchor="end" x="0"  y="0">17</text>
                        </g>
                    </g>
                </g>
            </g>
            <g transform="translate(463.5,526.05)" >
                <g >
                    <g transform="rotate(-90)" >
                        <g >
                            <text fill="white" font-family="OCRA" font-size="45" stroke="none" stroke-width="0" text-anchor="start" x="0"  y="0">5</text>
                        </g>
                    </g>
                </g>
            </g>
            <g transform="translate(463.5,73.95)" >
                <g >
                    <g transform="rotate(-90)" >
                        <g >
                            <text fill="white" font-family="OCRA" font-size="45" stroke="none" stroke-width="0" text-anchor="end" x="0"  y="0">16</text>
                        </g>
                    </g>
                </g>
            </g>
            <g transform="translate(563.5,526.05)" >
                <g >
                    <g transform="rotate(-90)" >
                        <g >
                            <text fill="white" font-family="OCRA" font-size="45" stroke="none" stroke-width="0" text-anchor="start" x="0"  y="0">6</text>
                        </g>
                    </g>
                </g>
            </g>
            <g transform="translate(563.5,73.95)" >
                <g >
                    <g transform="rotate(-90)" >
                        <g >
                            <text fill="white" font-family="OCRA" font-size="45" stroke="none" stroke-width="0" text-anchor="end" x="0"  y="0">15</text>
                        </g>
                    </g>
                </g>
            </g>
            <g transform="translate(663.5,526.05)" >
                <g >
                    <g transform="rotate(-90)" >
                        <g >
                            <text fill="white" font-family="OCRA" font-size="45" stroke="none" stroke-width="0" text-anchor="start" x="0"  y="0">7</text>
                        </g>
                    </g>
                </g>
            </g>
            <g transform="translate(663.5,73.95)" >
                <g >
                    <g transform="rotate(-90)" >
                        <g >
                            <text fill="white" font-family="OCRA" font-size="45" stroke="none" stroke-width="0" text-anchor="end" x="0"  y="0">14</text>
                        </g>
                    </g>
                </g>
            </g>
            <g transform="translate(763.5,526.05)" >
                <g >
                    <g transform="rotate(-90)" >
                        <g >
                            <text fill="white" font-family="OCRA" font-size="45" stroke="none" stroke-width="0" text-anchor="start" x="0"  y="0">8</text>
                        </g>
                    </g>
                </g>
            </g>
            <g transform="translate(763.5,73.95)" >
                <g >
                    <g transform="rotate(-90)" >
                        <g >
                            <text fill="white" font-family="OCRA" font-size="45" stroke="none" stroke-width="0" text-anchor="end" x="0"  y="0">13</text>
                        </g>
                    </g>
                </g>
            </g>
            <g transform="translate(863.5,526.05)" >
                <g >
                    <g transform="rotate(-90)" >
                        <g >
                            <text fill="white" font-family="OCRA" font-size="45" stroke="none" stroke-width="0" text-anchor="start" x="0"  y="0">9</text>
                        </g>
                    </g>
                </g>
            </g>
            <g transform="translate(863.5,73.95)" >
                <g >
                    <g transform="rotate(-90)" >
                        <g >
                            <text fill="white" font-family="OCRA" font-size="45" stroke="none" stroke-width="0" text-anchor="end" x="0"  y="0">12</text>
                        </g>
                    </g>
                </g>
            </g>
            <g transform="translate(963.5,526.05)" >
                <g >
                    <g transform="rotate(-90)" >
                        <g >
                            <text fill="white" font-family="OCRA" font-size="45" stroke="none" stroke-width="0" text-anchor="start" x="0"  y="0">10</text>
                        </g>
                    </g>
                </g>
            </g>
            <g transform="translate(963.5,73.95)" >
                <g >
                    <g transform="rotate(-90)" >
                        <g >
                            <text fill="white" font-family="OCRA" font-size="45" stroke="none" stroke-width="0" text-anchor="end" x="0"  y="0">11</text>
                        </g>
                    </g>
                </g>
            </g>
        </g>
        <g transform="translate(34.035,534.05)" >
            <g >
                <rect fill="#8D8C8C" gorn="0.1.1.0.0" height="31.9" id="connector0pin" width="31.93" x="0"  y="0"/>
                <rect fill="#8C8663" height="16.4152" width="16.4442" x="7.79153"  y="7.73544"/>
                <polygon fill="#B8AF82" points="0,31.9,7.79153,24.1368,7.79153,6.97162,0,0" />
                <polygon fill="#80795B" points="24.2079,7.76321,7.90264,7.76321,0,0,31.93,0" />
                <polygon fill="#5E5B43" points="24.2079,24.1368,24.2079,7.76321,31.93,0,31.93,31.9" />
                <polygon fill="#9A916C" points="0,31.9,7.87486,24.1368,24.2079,24.1368,31.93,31.9" />
            </g>
        </g>
        <g transform="translate(34.035,34.05)" >
            <g >
                <rect fill="#8D8C8C" gorn="0.1.2.0.0" height="31.9" id="connector19pin" width="31.93" x="0"  y="0"/>
                <rect fill="#8C8663" height="16.4152" width="16.4442" x="7.79153"  y="7.73544"/>
                <polygon fill="#B8AF82" points="0,31.9,7.79153,24.1368,7.79153,6.97162,0,0" />
                <polygon fill="#80795B" points="24.2079,7.76321,7.90264,7.76321,0,0,31.93,0" />
                <polygon fill="#5E5B43" points="24.2079,24.1368,24.2079,7.76321,31.93,0,31.93,31.9" />
                <polygon fill="#9A916C" points="0,31.9,7.87486,24.1368,24.2079,24.1368,31.93,31.9" />
            </g>
        </g>
        <g transform="translate(134.035,534.05)" >
            <g >
                <rect fill="#8D8C8C" gorn="0.1.3.0.0" height="31.9" id="connector1pin" width="31.93" x="0"  y="0"/>
                <rect fill="#8C8663" height="16.4152" width="16.4442" x="7.79153"  y="7.73544"/>
                <polygon fill="#B8AF82" points="0,31.9,7.79153,24.1368,7.79153,6.97162,0,0" />
                <polygon fill="#80795B" points="24.2079,7.76321,7.90264,7.76321,0,0,31.93,0" />
                <polygon fill="#5E5B43" points="24.2079,24.1368,24.2079,7.76321,31.93,0,31.93,31.9" />
                <polygon fill="#9A916C" points="0,31.9,7.87486,24.1368,24.2079,24.1368,31.93,31.9" />
            </g>
        </g>
        <g transform="translate(134.035,34.05)" >
            <g >
                <rect fill="#8D8C8C" gorn="0.1.4.0.0" height="31.9" id="connector18pin" width="31.93" x="0"  y="0"/>
                <rect fill="#8C8663" height="16.4152" width="16.4442" x="7.79153"  y="7.73544"/>
                <polygon fill="#B8AF82" points="0,31.9,7.79153,24.1368,7.79153,6.97162,0,0" />
                <polygon fill="#80795B" points="24.2079,7.76321,7.90264,7.76321,0,0,31.93,0" />
                <polygon fill="#5E5B43" points="24.2079,24.1368,24.2079,7.76321,31.93,0,31.93,31.9" />
                <polygon fill="#9A916C" points="0,31.9,7.87486,24.1368,24.2079,24.1368,31.93,31.9" />
            </g>
        </g>
        <g transform="translate(234.035,534.05)" >
            <g >
                <rect fill="#8D8C8C" gorn="0.1.5.0.0" height="31.9" id="connector2pin" width="31.93" x="0"  y="0"/>
                <rect fill="#8C8663" height="16.4152" width="16.4442" x="7.79153"  y="7.73544"/>
                <polygon fill="#B8AF82" points="0,31.9,7.79153,24.1368,7.79153,6.97162,0,0" />
                <polygon fill="#80795B" points="24.2079,7.76321,7.90264,7.76321,0,0,31.93,0" />
                <polygon fill="#5E5B43" points="24.2079,24.1368,24.2079,7.76321,31.93,0,31.93,31.9" />
                <polygon fill="#9A916C" points="0,31.9,7.87486,24.1368,24.2079,24.1368,31.93,31.9" />
            </g>
        </g>
        <g transform="translate(234.035,34.05)" >
            <g >
                <rect fill="#8D8C8C" gorn="0.1.6.0.0" height="31.9" id="connector17pin" width="31.93" x="0"  y="0"/>
                <rect fill="#8C8663" height="16.4152" width="16.4442" x="7.79153"  y="7.73544"/>
                <polygon fill="#B8AF82" points="0,31.9,7.79153,24.1368,7.79153,6.97162,0,0" />
                <polygon fill="#80795B" points="24.2079,7.76321,7.90264,7.76321,0,0,31.93,0" />
                <polygon fill="#5E5B43" points="24.2079,24.1368,24.2079,7.76321,31.93,0,31.93,31.9" />
                <polygon fill="#9A916C" points="0,31.9,7.87486,24.1368,24.2079,24.1368,31.93,31.9" />
            </g>
        </g>
        <g transform="translate(334.035,534.05)" >
            <g >
                <rect fill="#8D8C8C" gorn="0.1.7.0.0" height="31.9" id="connector3pin" width="31.93" x="0"  y="0"/>
                <rect fill="#8C8663" height="16.4152" width="16.4442" x="7.79153"  y="7.73544"/>
                <polygon fill="#B8AF82" points="0,31.9,7.79153,24.1368,7.79153,6.97162,0,0" />
                <polygon fill="#80795B" points="24.2079,7.76321,7.90264,7.76321,0,0,31.93,0" />
                <polygon fill="#5E5B43" points="24.2079,24.1368,24.2079,7.76321,31.93,0,31.93,31.9" />
                <polygon fill="#9A916C" points="0,31.9,7.87486,24.1368,24.2079,24.1368,31.93,31.9" />
            </g>
        </g>
        <g transform="translate(334.035,34.05)" >
            <g >
                <rect fill="#8D8C8C" gorn="0.1.8.0.0" height="31.9" id="connector16pin" width="31.93" x="0"  y="0"/>
                <rect fill="#8C8663" height="16.4152" width="16.4442" x="7.79153"  y="7.73544"/>
                <polygon fill="#B8AF82" points="0,31.9,7.79153,24.1368,7.79153,6.97162,0,0" />
                <polygon fill="#80795B" points="24.2079,7.76321,7.90264,7.76321,0,0,31.93,0" />
                <polygon fill="#5E5B43" points="24.2079,24.1368,24.2079,7.76321,31.93,0,31.93,31.9" />
                <polygon fill="#9A916C" points="0,31.9,7.87486,24.1368,24.2079,24.1368,31.93,31.9" />
            </g>
        </g>
        <g transform="translate(434.035,534.05)" >
            <g >
                <rect fill="#8D8C8C" gorn="0.1.9.0.0" height="31.9" id="connector4pin" width="31.93" x="0"  y="0"/>
                <rect fill="#8C8663" height="16.4152" width="16.4442" x="7.79153"  y="7.73544"/>
                <polygon fill="#B8AF82" points="0,31.9,7.79153,24.1368,7.79153,6.97162,0,0" />
                <polygon fill="#80795B" points="24.2079,7.76321,7.90264,7.76321,0,0,31.93,0" />
                <polygon fill="#5E5B43" points="24.2079,24.1368,24.2079,7.76321,31.93,0,31.93,31.9" />
                <polygon fill="#9A916C" points="0,31.9,7.87486,24.1368,24.2079,24.1368,31.93,31.9" />
            </g>
        </g>
        <g transform="translate(434.035,34.05)" >
            <g >
                <rect fill="#8D8C8C" gorn="0.1.10.0.0" height="31.9" id="connector15pin" width="31.93" x="0"  y="0"/>
                <rect fill="#8C8663" height="16.4152" width="16.4442" x="7.79153"  y="7.73544"/>
                <polygon fill="#B8AF82" points="0,31.9,7.79153,24.1368,7.79153,6.97162,0,0" />
                <polygon fill="#80795B" points="24.2079,7.76321,7.90264,7.76321,0,0,31.93,0" />
                <polygon fill="#5E5B43" points="24.2079,24.1368,24.2079,7.76321,31.93,0,31.93,31.9" />
                <polygon fill="#9A916C" points="0,31.9,7.87486,24.1368,24.2079,24.1368,31.93,31.9" />
            </g>
        </g>
        <g transform="translate(534.035,534.05)" >
            <g >
                <rect fill="#8D8C8C" gorn="0.1.11.0.0" height="31.9" id="connector5pin" width="31.93" x="0"  y="0"/>
                <rect fill="#8C8663" height="16.4152" width="16.4442" x="7.79153"  y="7.73544"/>
                <polygon fill="#B8AF82" points="0,31.9,7.79153,24.1368,7.79153,6.97162,0,0" />
                <polygon fill="#80795B" points="24.2079,7.76321,7.90264,7.76321,0,0,31.93,0" />
                <polygon fill="#5E5B43" points="24.2079,24.1368,24.2079,7.76321,31.93,0,31.93,31.9" />
                <polygon fill="#9A916C" points="0,31.9,7.87486,24.1368,24.2079,24.1368,31.93,31.9" />
            </g>
        </g>
        <g transform="translate(534.035,34.05)" >
            <g >
                <rect fill="#8D8C8C" gorn="0.1.12.0.0" height="31.9" id="connector14pin" width="31.93" x="0"  y="0"/>
                <rect fill="#8C8663" height="16.4152" width="16.4442" x="7.79153"  y="7.73544"/>
                <polygon fill="#B8AF82" points="0,31.9,7.79153,24.1368,7.79153,6.97162,0,0" />
                <polygon fill="#80795B" points="24.2079,7.76321,7.90264,7.76321,0,0,31.93,0" />
                <polygon fill="#5E5B43" points="24.2079,24.1368,24.2079,7.76321,31.93,0,31.93,31.9" />
                <polygon fill="#9A916C" points="0,31.9,7.87486,24.1368,24.2079,24.1368,31.93,31.9" />
            </g>
        </g>
        <g transform="translate(634.035,534.05)" >
            <g >
                <rect fill="#8D8C8C" gorn="0.1.13.0.0" height="31.9" id="connector6pin" width="31.93" x="0"  y="0"/>
                <rect fill="#8C8663" height="16.4152" width="16.4442" x="7.79153"  y="7.73544"/>
                <polygon fill="#B8AF82" points="0,31.9,7.79153,24.1368,7.79153,6.97162,0,0" />
                <polygon fill="#80795B" points="24.2079,7.76321,7.90264,7.76321,0,0,31.93,0" />
                <polygon fill="#5E5B43" points="24.2079,24.1368,24.2079,7.76321,31.93,0,31.93,31.9" />
                <polygon fill="#9A916C" points="0,31.9,7.87486,24.1368,24.2079,24.1368,31.93,31.9" />
            </g>
        </g>
        <g transform="translate(634.035,34.05)" >
            <g >
                <rect fill="#8D8C8C" gorn="0.1.14.0.0" height="31.9" id="connector13pin" width="31.93" x="0"  y="0"/>
                <rect fill="#8C8663" height="16.4152" width="16.4442" x="7.79153"  y="7.73544"/>
                <polygon fill="#B8AF82" points="0,31.9,7.79153,24.1368,7.79153,6.97162,0,0" />
                <polygon fill="#80795B" points="24.2079,7.76321,7.90264,7.76321,0,0,31.93,0" />
                <polygon fill="#5E5B43" points="24.2079,24.1368,24.2079,7.76321,31.93,0,31.93,31.9" />
                <polygon fill="#9A916C" points="0,31.9,7.87486,24.1368,24.2079,24.1368,31.93,31.9" />
            </g>
        </g>
        <g transform="translate(734.035,534.05)" >
            <g >
                <rect fill="#8D8C8C" gorn="0.1.15.0.0" height="31.9" id="connector7pin" width="31.93" x="0"  y="0"/>
                <rect fill="#8C8663" height="16.4152" width="16.4442" x="7.79153"  y="7.73544"/>
                <polygon fill="#B8AF82" points="0,31.9,7.79153,24.1368,7.79153,6.97162,0,0" />
                <polygon fill="#80795B" points="24.2079,7.76321,7.90264,7.76321,0,0,31.93,0" />
                <polygon fill="#5E5B43" points="24.2079,24.1368,24.2079,7.76321,31.93,0,31.93,31.9" />
                <polygon fill="#9A916C" points="0,31.9,7.87486,24.1368,24.2079,24.1368,31.93,31.9" />
            </g>
        </g>
        <g transform="translate(734.035,34.05)" >
            <g >
                <rect fill="#8D8C8C" gorn="0.1.16.0.0" height="31.9" id="connector12pin" width="31.93" x="0"  y="0"/>
                <rect fill="#8C8663" height="16.4152" width="16.4442" x="7.79153"  y="7.73544"/>
                <polygon fill="#B8AF82" points="0,31.9,7.79153,24.1368,7.79153,6.97162,0,0" />
                <polygon fill="#80795B" points="24.2079,7.76321,7.90264,7.76321,0,0,31.93,0" />
                <polygon fill="#5E5B43" points="24.2079,24.1368,24.2079,7.76321,31.93,0,31.93,31.9" />
                <polygon fill="#9A916C" points="0,31.9,7.87486,24.1368,24.2079,24.1368,31.93,31.9" />
            </g>
        </g>
        <g transform="translate(834.035,534.05)" >
            <g >
                <rect fill="#8D8C8C" gorn="0.1.17.0.0" height="31.9" id="connector8pin" width="31.93" x="0"  y="0"/>
                <rect fill="#8C8663" height="16.4152" width="16.4442" x="7.79153"  y="7.73544"/>
                <polygon fill="#B8AF82" points="0,31.9,7.79153,24.1368,7.79153,6.97162,0,0" />
                <polygon fill="#80795B" points="24.2079,7.76321,7.90264,7.76321,0,0,31.93,0" />
                <polygon fill="#5E5B43" points="24.2079,24.1368,24.2079,7.76321,31.93,0,31.93,31.9" />
                <polygon fill="#9A916C" points="0,31.9,7.87486,24.1368,24.2079,24.1368,31.93,31.9" />
            </g>
        </g>
        <g transform="translate(834.035,34.05)" >
            <g >
                <rect fill="#8D8C8C" gorn="0.1.18.0.0" height="31.9" id="connector11pin" width="31.93" x="0"  y="0"/>
                <rect fill="#8C8663" height="16.4152" width="16.4442" x="7.79153"  y="7.73544"/>
                <polygon fill="#B8AF82" points="0,31.9,7.79153,24.1368,7.79153,6.97162,0,0" />
                <polygon fill="#80795B" points="24.2079,7.76321,7.90264,7.76321,0,0,31.93,0" />
                <polygon fill="#5E5B43" points="24.2079,24.1368,24.2079,7.76321,31.93,0,31.93,31.9" />
                <polygon fill="#9A916C" points="0,31.9,7.87486,24.1368,24.2079,24.1368,31.93,31.9" />
            </g>
        </g>
        <g transform="translate(934.035,534.05)" >
            <g >
                <rect fill="#8D8C8C" gorn="0.1.19.0.0" height="31.9" id="connector9pin" width="31.93" x="0"  y="0"/>
                <rect fill="#8C8663" height="16.4152" width="16.4442" x="7.79153"  y="7.73544"/>
                <polygon fill="#B8AF82" points="0,31.9,7.79153,24.1368,7.79153,6.97162,0,0" />
                <polygon fill="#80795B" points="24.2079,7.76321,7.90264,7.76321,0,0,31.93,0" />
                <polygon fill="#5E5B43" points="24.2079,24.1368,24.2079,7.76321,31.93,0,31.93,31.9" />
                <polygon fill="#9A916C" points="0,31.9,7.87486,24.1368,24.2079,24.1368,31.93,31.9" />
            </g>
        </g>
        <g transform="translate(934.035,34.05)" >
            <g >
                <rect fill="#8D8C8C" gorn="0.1.20.0.0" height="31.9" id="connector10pin" width="31.93" x="0"  y="0"/>
                <rect fill="#8C8663" height="16.4152" width="16.4442" x="7.79153"  y="7.73544"/>
                <polygon fill="#B8AF82" points="0,31.9,7.79153,24.1368,7.79153,6.97162,0,0" />
                <polygon fill="#80795B" points="24.2079,7.76321,7.90264,7.76321,0,0,31.93,0" />
                <polygon fill="#5E5B43" points="24.2079,24.1368,24.2079,7.76321,31.93,0,31.93,31.9" />
                <polygon fill="#9A916C" points="0,31.9,7.87486,24.1368,24.2079,24.1368,31.93,31.9" />
            </g>
        </g>
    </g>
</svg>
