<?xml version="1.0" encoding="UTF-8" standalone="no"?>
<!-- This xml file is generated through a template. Please don't edit it directly -->

<svg
   gorn="0"
   height="3.4000001mm"
   id="Layer_1"
   version="1.1"
   viewBox="0 0 17.763779 12.850394"
   width="4.6999998mm"
   x="0px"
   xml:space="preserve"
   y="0px"
   xmlns="http://www.w3.org/2000/svg"
   xmlns:svg="http://www.w3.org/2000/svg">
    <defs
   id="defs435" />
    <desc
   id="desc417">
        <referenceFile>resistor_icon_220.svg</referenceFile>
    </desc>
    <rect
   gorn="0.2"
   height="12.094488"
   id="connector0pad"
   style="fill:#e3e2db;fill-opacity:1;stroke:none;stroke-width:0"
   width="1.8897638"
   x="0.37795353"
   y="0.37795186" />
    <rect
   gorn="0.3"
   height="12.094488"
   id="connector1pad"
   style="fill:#e3e2db;fill-opacity:1;stroke:none;stroke-width:0"
   width="1.8897638"
   x="15.496063"
   y="0.37795186" />
    <rect
   gorn="0.4"
   height="12.850393"
   id="silkscreen"
   style="fill:none;stroke:none;stroke-width:0.455542;stroke-opacity:1"
   width="17.763779"
   x="0"
   y="0" />
    <rect
   gorn="0.5"
   height="12.094488"
   id="rect787"
   style="opacity:0.75;fill:#000000;fill-rule:evenodd;stroke:none;stroke-width:1.42179"
   width="13.228347"
   x="2.2677164"
   y="0.37795275" />
    
<g
   aria-label="5100"
   transform="scale(0.93264643,1.0722177)"
   id="text361"
   style="font-size:4.99967px;font-family:'HarmonyOS Sans SC';-inkscape-font-specification:'HarmonyOS Sans SC';opacity:1;fill:#ffffff;fill-rule:evenodd;stroke:#ffffff;stroke-width:0.121478;stroke-miterlimit:3.9"><path
     d="m 5.4127284,5.1317698 q 0.3249786,0 0.5799617,0.1549897 0.2549832,0.1499901 0.394974,0.4199723 0.1399907,0.2649825 0.1399907,0.6049601 0,0.3549766 -0.1549897,0.6299584 Q 6.2176753,7.2166322 5.9476931,7.3716219 5.6777109,7.521612 5.3477327,7.521612 4.9827568,7.521612 4.6977756,7.3416239 4.4177941,7.1566361 4.3078013,6.8066592 L 4.6677776,6.6016728 q 0.089994,0.2549831 0.2599828,0.3849746 0.1749885,0.1299914 0.4199723,0.1299914 0.3299782,0 0.5199657,-0.2199855 0.1899874,-0.2199855 0.1899874,-0.5649627 0,-0.3349779 -0.1849877,-0.5649627 Q 5.6927099,5.536743 5.3477327,5.536743 q -0.4349713,0 -0.6799551,0.394974 L 4.3827964,5.7867265 4.6327799,3.7968579 H 6.3626657 V 4.1868321 H 5.0227542 L 4.8777637,5.2717605 Q 5.0977492,5.1317698 5.4127284,5.1317698 Z"
     id="path294" /><path
     d="M 7.3076018,4.8817863 V 4.4218166 L 8.3725315,3.8018575 H 8.7125091 V 7.4666157 H 8.2625388 V 4.3368222 Z"
     id="path296" /><path
     d="m 12.277272,5.6367364 q 0,0.9299387 -0.309979,1.409907 -0.30498,0.4749686 -0.879942,0.4749686 -0.569963,0 -0.879942,-0.4799683 -0.30498,-0.4799683 -0.30498,-1.4049073 0,-0.9299386 0.30498,-1.4099069 0.309979,-0.484968 0.879942,-0.484968 0.574962,0 0.879942,0.4799683 0.309979,0.4799684 0.309979,1.4149066 z m -1.899874,0 q 0,0.7449509 0.169988,1.1099268 0.174989,0.3649759 0.539965,0.3649759 0.364976,0 0.539964,-0.3599762 0.174989,-0.3649759 0.174989,-1.1149265 0,-0.7549501 -0.174989,-1.119926 -0.174988,-0.3699756 -0.539964,-0.3699756 -0.364976,0 -0.539965,0.3699756 -0.169988,0.3649759 -0.169988,1.119926 z"
     id="path298" /><path
     d="m 15.127082,5.6367364 q 0,0.9299387 -0.309979,1.409907 -0.30498,0.4749686 -0.879942,0.4749686 -0.569962,0 -0.879942,-0.4799683 -0.30498,-0.4799683 -0.30498,-1.4049073 0,-0.9299386 0.30498,-1.4099069 0.30998,-0.484968 0.879942,-0.484968 0.574962,0 0.879942,0.4799683 0.309979,0.4799684 0.309979,1.4149066 z m -1.899874,0 q 0,0.7449509 0.169989,1.1099268 0.174988,0.3649759 0.539964,0.3649759 0.364976,0 0.539964,-0.3599762 0.174989,-0.3649759 0.174989,-1.1149265 0,-0.7549501 -0.174989,-1.119926 -0.174988,-0.3699756 -0.539964,-0.3699756 -0.364976,0 -0.539964,0.3699756 -0.169989,0.3649759 -0.169989,1.119926 z"
     id="path300" /></g></svg>
