<?xml version="1.0" encoding="UTF-8" standalone="no"?>
<!-- Generator: Adobe Illustrator 20.0.0, SVG Export Plug-In . SVG Version: 6.00 Build 0)  -->

<svg
   gorn="0"
   height="1.45669in"
   id="svg13574"
   version="1.2"
   viewBox="0 0 56.693 104.882"
   width="0.787403in"
   x="0px"
   xml:space="preserve"
   y="0px"
   sodipodi:docname="svg.icon.Li300mAh_44006848175b5b567dc5abeb26412ea1_1_icon.svg"
   inkscape:version="1.2.1 (9c6d41e410, 2022-07-14)"
   xmlns:inkscape="http://www.inkscape.org/namespaces/inkscape"
   xmlns:sodipodi="http://sodipodi.sourceforge.net/DTD/sodipodi-0.dtd"
   xmlns="http://www.w3.org/2000/svg"
   xmlns:svg="http://www.w3.org/2000/svg"><defs
     id="defs19813" /><sodipodi:namedview
     id="namedview19811"
     pagecolor="#ffffff"
     bordercolor="#000000"
     borderopacity="0.25"
     inkscape:showpageshadow="2"
     inkscape:pageopacity="0.0"
     inkscape:pagecheckerboard="0"
     inkscape:deskcolor="#d1d1d1"
     inkscape:document-units="in"
     showgrid="false"
     inkscape:zoom="7.3439901"
     inkscape:cx="-12.254918"
     inkscape:cy="69.853035"
     inkscape:window-width="3840"
     inkscape:window-height="2036"
     inkscape:window-x="-12"
     inkscape:window-y="-12"
     inkscape:window-maximized="1"
     inkscape:current-layer="g19803" /><g
     transform="translate(0,-656.35975)"
     id="g19765"><g
       id="g19763"><g
         id="g19761"><g
           gorn="0.1.0.0.0"
           id="layer1" /></g></g></g><g
     transform="translate(0,-54)"
     id="g19772"><g
       id="g19770"><g
         id="g19768"><g
           gorn="0.2.0.0.0"
           id="layer2" /></g></g></g><g
     transform="translate(0,-54)"
     id="g19779"><g
       id="g19777"><g
         id="g19775"><g
           gorn="0.3.0.0.0"
           id="layer3" /></g></g></g><g
     transform="translate(0,-54)"
     id="g19786"><g
       id="g19784"><g
         id="g19782"><g
           gorn="0.4.0.0.0"
           id="layer4" /></g></g></g><g
     id="g19808"><path
       d="M0,16.395h56.693v87.192c0,0.715-0.592,1.295-1.323,1.295H1.323c-0.73,0-1.323-0.58-1.323-1.295V16.395z"
       fill="#E6E6E6"
       gorn="0.5.0"
       id="rect2997_5_" /><rect
       fill="#F3F3F3"
       height="84.831"
       width="3.616"
       x="1.75"
       y="16.396"
       id="rect19789" /><path
       d="M55.37,104.882c0.73,0,1.323-0.58,1.323-1.295v-0.533h-1.75V16.395h-3.616v86.659H0v0.533c0,0.715,0.592,1.295,1.323,1.295H55.37z"
       fill="#ADADAD"
       id="path19791" /><path
       d="M56.693,18.966H0V1.309C0,0.586,0.586,0,1.309,0h54.075c0.723,0,1.309,0.586,1.309,1.309V18.966z"
       fill="#FFCC00"
       id="path19793" /><rect
       fill="#C09900"
       height="18.966"
       width="3.616"
       x="51.327"
       id="rect19795" /><rect
       fill="#FFE680"
       height="18.966"
       width="3.616"
       x="1.75"
       y="0"
       id="rect19797" /><g
       gorn="0.5.6"
       id="tspan3851_6_"><g
         transform="matrix(0 1 -1 0 24.957 35.8033)"
         id="g19805"><g
           id="g19803"><g
             id="g19801"><text
               fill="#808080"
               font-family="OCRA"
               font-size="8"
               id="text19799">300mAh</text></g></g></g></g></g></svg>
