<?xml version="1.0" encoding="UTF-8" standalone="no"?>
<!-- Generator: Adobe Illustrator 20.0.0, SVG Export Plug-In . SVG Version: 6.00 Build 0)  -->

<svg
   gorn="0"
   height="3.54926in"
   id="svg13574"
   version="1.2"
   viewBox="0 0 56.693 255.547"
   width="0.787403in"
   x="0px"
   xml:space="preserve"
   y="0px"
   sodipodi:docname="svg.breadboard.Li300mAh_44006848175b5b567dc5abeb26412ea1_1_breadboard.svg"
   inkscape:version="1.2.1 (9c6d41e410, 2022-07-14)"
   xmlns:inkscape="http://www.inkscape.org/namespaces/inkscape"
   xmlns:sodipodi="http://sodipodi.sourceforge.net/DTD/sodipodi-0.dtd"
   xmlns="http://www.w3.org/2000/svg"
   xmlns:svg="http://www.w3.org/2000/svg"><defs
     id="defs19129" /><sodipodi:namedview
     id="namedview19127"
     pagecolor="#ffffff"
     bordercolor="#000000"
     borderopacity="0.25"
     inkscape:showpageshadow="2"
     inkscape:pageopacity="0.0"
     inkscape:pagecheckerboard="0"
     inkscape:deskcolor="#d1d1d1"
     inkscape:document-units="in"
     showgrid="false"
     inkscape:zoom="3.014126"
     inkscape:cx="-84.269868"
     inkscape:cy="170.19859"
     inkscape:window-width="3840"
     inkscape:window-height="2036"
     inkscape:window-x="-12"
     inkscape:window-y="-12"
     inkscape:window-maximized="1"
     inkscape:current-layer="tspan3851_6_" /><g
     transform="translate(0,-656.35975)"
     id="g19057"><g
       id="g19055"><g
         id="g19053"><g
           gorn="0.1.0.0.0"
           id="layer1" /></g></g></g><g
     transform="translate(0,-54)"
     id="g19064"><g
       id="g19062"><g
         id="g19060"><g
           gorn="0.2.0.0.0"
           id="layer2" /></g></g></g><g
     transform="translate(0,-54)"
     id="g19071"><g
       id="g19069"><g
         id="g19067"><g
           gorn="0.3.0.0.0"
           id="layer3" /></g></g></g><g
     transform="translate(0,-54)"
     id="g19078"><g
       id="g19076"><g
         id="g19074"><g
           gorn="0.4.0.0.0"
           id="layer4" /></g></g></g><g
     id="g19124"><path
       d="M24.746,154.335V20.409"
       fill="none"
       gorn="0.5.0"
       id="path3821_11_"
       stroke="#CB1717"
       stroke-linejoin="round"
       stroke-width="3.6" /><path
       d="M31.946,154.335V20.409"
       fill="none"
       gorn="0.5.1"
       id="path3815_11_"
       stroke="#202020"
       stroke-linejoin="round"
       stroke-width="3.6" /><path
       d="M23.683,151.335l0.142-129.688"
       fill="none"
       gorn="0.5.2"
       id="path3821_10_"
       stroke="#E58B8B"
       stroke-linecap="round"
       stroke-linejoin="round"
       stroke-width="0.5669" /><path
       d="M31.025,151.335V21.647"
       fill="none"
       gorn="0.5.3"
       id="path3815_10_"
       stroke="#909090"
       stroke-linecap="round"
       stroke-linejoin="round"
       stroke-width="0.5669" /><rect
       fill="none"
       gorn="0.5.4"
       height="5.669"
       id="connector1pin"
       width="5.669"
       x="21.912" /><rect
       fill="none"
       gorn="0.5.5"
       height="5.669"
       id="connector2pin"
       width="5.669"
       x="29.112" /><polygon
       fill="#EAEAEA"
       points="35.433,14.74 35.433,2.835 21.26,2.835 21.26,14.74 19.842,20.409 21.26,20.409 35.433,20.409 36.85,20.409 "
       stroke="#C8C8C8"
       stroke-linecap="round"
       stroke-linejoin="round"
       stroke-miterlimit="10"
       stroke-width="0.5669"
       id="polygon19086" /><polygon
       fill="#C8C8C8"
       points="26.575,20.126 27.283,20.126 27.283,3.402 26.575,4.11 "
       id="polygon19088" /><polygon
       fill="#FFFFFF"
       points="29.409,20.126 29.835,20.126 29.835,3.827 29.409,3.402 "
       id="polygon19090" /><path
       d="M0,167.06h56.693v87.192c0,0.715-0.592,1.295-1.323,1.295H1.323c-0.73,0-1.323-0.58-1.323-1.295V167.06z"
       fill="#E6E6E6"
       gorn="0.5.9"
       id="rect2997_5_" /><g
       transform="matrix(-1 -4.325885e-11 4.325885e-11 -1 7.1158 418.9515)"
       id="g19099"><g
         id="g19097"><g
           id="g19095"><rect
             fill="#F3F3F3"
             height="84.831"
             width="3.616"
             x="1.75"
             y="167.06"
             id="rect19093" /></g></g></g><path
       d="M55.37,255.547c0.73,0,1.323-0.58,1.323-1.295v-0.533h-1.75V167.06h-3.616v86.659H0v0.533c0,0.715,0.592,1.295,1.323,1.295H55.37z"
       fill="#ADADAD"
       id="path19101" /><path
       d="M56.693,169.631H0v-17.657c0-0.723,0.586-1.309,1.309-1.309h54.075c0.723,0,1.309,0.586,1.309,1.309V169.631z"
       fill="#FFCC00"
       id="path19103" /><rect
       fill="#C09900"
       height="18.966"
       width="3.616"
       x="51.327"
       y="150.665"
       id="rect19105" /><g
       transform="matrix(-1 -4.426471e-11 4.426471e-11 -1 7.1158 320.2963)"
       id="g19113"><g
         id="g19111"><g
           id="g19109"><rect
             fill="#FFE680"
             height="18.966"
             width="3.616"
             x="1.75"
             y="150.665"
             id="rect19107" /></g></g></g><g
       gorn="0.5.15"
       id="tspan3851_6_"><g
         transform="matrix(0 1 -1 0 24.9562 186.4683)"
         id="g19121"><g
           id="g19119"><g
             id="g19117"><text
               fill="#808080"
               font-family="OCRA"
               font-size="8"
               id="text19115">300mAh</text></g></g></g></g></g></svg>
